<svg xmlns="http://www.w3.org/2000/svg" width="538" height="42.557" viewBox="0 0 538 42.557">
  <g id="arrhythmia-alerts" transform="translate(-1700 261.5)">
    <path id="Path_1037" data-name="Path 1037" d="M31,95H569" transform="translate(1669 -356)" fill="none" stroke="#00549f" stroke-width="1"/>
    <rect id="Rectangle_159" data-name="Rectangle 159" width="18" height="33" transform="translate(1769 -261)" fill="#b7efff"/>
    <rect id="Rectangle_160" data-name="Rectangle 160" width="18" height="33" transform="translate(1858 -261)" fill="#71e0ff"/>
    <rect id="Rectangle_161" data-name="Rectangle 161" width="18" height="33" transform="translate(1982 -261)" fill="#37d4ff"/>
    <rect id="Rectangle_162" data-name="Rectangle 162" width="38" height="33" transform="translate(2069 -261)" fill="#00aad9"/>
    <path id="Path_1038" data-name="Path 1038" d="M31,128H569" transform="translate(1669 -356)" fill="none" stroke="#00549f" stroke-width="1"/>
    <path id="Path_1039" data-name="Path 1039" d="M32.515,137H32.2v-2.035c0-.169.005-.33.016-.481-.027.028-.058.056-.092.086s-.189.157-.465.381l-.172-.222.756-.584h.273Zm2.965,0H33.6v-.279l.752-.756a5.557,5.557,0,0,0,.453-.5,1.285,1.285,0,0,0,.164-.289.832.832,0,0,0,.055-.3.476.476,0,0,0-.139-.361.528.528,0,0,0-.385-.135.977.977,0,0,0-.338.058,1.374,1.374,0,0,0-.354.213l-.172-.22a1.315,1.315,0,0,1,.859-.328.905.905,0,0,1,.631.207.7.7,0,0,1,.228.552,1.069,1.069,0,0,1-.152.537,3.418,3.418,0,0,1-.57.672l-.625.612v.015h1.469Zm.514-.207a.289.289,0,0,1,.059-.2.216.216,0,0,1,.172-.069.225.225,0,0,1,.176.069.33.33,0,0,1,0,.392.229.229,0,0,1-.176.069.239.239,0,0,1-.166-.061A.273.273,0,0,1,35.993,136.793Zm0-1.725c0-.175.077-.263.23-.263s.24.088.24.263a.276.276,0,0,1-.065.2.232.232,0,0,1-.176.068.235.235,0,0,1-.166-.061A.272.272,0,0,1,35.993,135.068Zm2.857.5a2.08,2.08,0,0,1-.234,1.106.862.862,0,0,1-1.414-.008,2.051,2.051,0,0,1-.24-1.1,2.085,2.085,0,0,1,.232-1.107.862.862,0,0,1,1.414.016A2.026,2.026,0,0,1,38.851,135.568Zm-1.561,0a2.1,2.1,0,0,0,.146.909.526.526,0,0,0,.936,0,2.1,2.1,0,0,0,.146-.905,2.073,2.073,0,0,0-.146-.9.526.526,0,0,0-.936,0A2.072,2.072,0,0,0,37.29,135.568Zm3.85,0a2.081,2.081,0,0,1-.234,1.106.862.862,0,0,1-1.414-.008,2.051,2.051,0,0,1-.24-1.1,2.085,2.085,0,0,1,.232-1.107.862.862,0,0,1,1.414.016A2.027,2.027,0,0,1,41.14,135.568Zm-1.56,0a2.1,2.1,0,0,0,.146.909.526.526,0,0,0,.935,0,2.1,2.1,0,0,0,.146-.905,2.072,2.072,0,0,0-.146-.9.526.526,0,0,0-.935,0A2.071,2.071,0,0,0,39.579,135.568Z" transform="translate(1669 -356)"/>
    <path id="Path_1040" data-name="Path 1040" d="M54.319,137H54v-2.035c0-.169.005-.33.016-.481-.027.028-.058.056-.092.086s-.189.157-.465.381l-.172-.222.756-.584h.273Zm2.965,0H55.407v-.279l.752-.756a5.573,5.573,0,0,0,.453-.5,1.285,1.285,0,0,0,.164-.289.832.832,0,0,0,.055-.3.476.476,0,0,0-.139-.361.528.528,0,0,0-.385-.135.977.977,0,0,0-.338.058,1.374,1.374,0,0,0-.354.213l-.172-.22a1.315,1.315,0,0,1,.859-.328.906.906,0,0,1,.631.207.7.7,0,0,1,.229.552,1.068,1.068,0,0,1-.152.537,3.413,3.413,0,0,1-.57.672l-.625.612v.015h1.469Zm.514-.207a.29.29,0,0,1,.058-.2.217.217,0,0,1,.172-.069.225.225,0,0,1,.176.069.33.33,0,0,1,0,.392.229.229,0,0,1-.176.069.239.239,0,0,1-.166-.061A.273.273,0,0,1,57.8,136.793Zm0-1.725c0-.175.077-.263.23-.263s.24.088.24.263a.276.276,0,0,1-.064.2.232.232,0,0,1-.176.068.235.235,0,0,1-.166-.061A.272.272,0,0,1,57.8,135.068ZM59.964,137h-.316v-2.035c0-.169.005-.33.016-.481-.027.028-.058.056-.092.086s-.189.157-.465.381l-.172-.222.756-.584h.274Zm1.98-1.744a1.047,1.047,0,0,1,.709.224.765.765,0,0,1,.26.612.883.883,0,0,1-.283.7,1.123,1.123,0,0,1-.777.252,1.431,1.431,0,0,1-.736-.154v-.313a1.129,1.129,0,0,0,.34.139,1.738,1.738,0,0,0,.4.049.8.8,0,0,0,.533-.162.581.581,0,0,0,.192-.469q0-.6-.733-.6a2.9,2.9,0,0,0-.5.057l-.168-.108.107-1.335h1.42v.3H61.569l-.072.858A2.271,2.271,0,0,1,61.944,135.256Z" transform="translate(1669 -356)"/>
    <path id="Path_1041" data-name="Path 1041" d="M76.124,137h-.316v-2.035c0-.169.005-.33.016-.481-.027.028-.058.056-.092.086s-.189.157-.465.381l-.172-.222.756-.584h.273Zm2.965,0H77.212v-.279l.752-.756a5.572,5.572,0,0,0,.453-.5,1.285,1.285,0,0,0,.164-.289.832.832,0,0,0,.055-.3.476.476,0,0,0-.139-.361.528.528,0,0,0-.385-.135.977.977,0,0,0-.338.058,1.373,1.373,0,0,0-.354.213l-.172-.22a1.315,1.315,0,0,1,.859-.328.906.906,0,0,1,.631.207.7.7,0,0,1,.228.552,1.068,1.068,0,0,1-.152.537,3.413,3.413,0,0,1-.57.672l-.625.612v.015h1.469Zm.514-.207a.29.29,0,0,1,.059-.2.217.217,0,0,1,.172-.069.225.225,0,0,1,.176.069.33.33,0,0,1,0,.392.229.229,0,0,1-.176.069.239.239,0,0,1-.166-.061A.273.273,0,0,1,79.6,136.793Zm0-1.725c0-.175.077-.263.23-.263s.24.088.24.263a.276.276,0,0,1-.064.2.232.232,0,0,1-.176.068.235.235,0,0,1-.166-.061A.272.272,0,0,1,79.6,135.068Zm2.734-.252a.649.649,0,0,1-.154.448.761.761,0,0,1-.434.232v.016a.815.815,0,0,1,.51.218.645.645,0,0,1,.166.461.749.749,0,0,1-.283.629,1.291,1.291,0,0,1-.8.219,2.326,2.326,0,0,1-.416-.035,1.4,1.4,0,0,1-.365-.119v-.309a1.82,1.82,0,0,0,.793.188q.74,0,.74-.58,0-.521-.816-.52h-.281v-.279h.285a.861.861,0,0,0,.529-.147.486.486,0,0,0,.2-.41.4.4,0,0,0-.145-.328.59.59,0,0,0-.389-.119,1.2,1.2,0,0,0-.353.051,1.55,1.55,0,0,0-.379.187l-.164-.219a1.359,1.359,0,0,1,.4-.216,1.449,1.449,0,0,1,.484-.08.982.982,0,0,1,.646.191A.637.637,0,0,1,82.337,134.816Zm2.412.752a2.08,2.08,0,0,1-.234,1.106.862.862,0,0,1-1.414-.008,2.05,2.05,0,0,1-.24-1.1,2.084,2.084,0,0,1,.232-1.107.862.862,0,0,1,1.414.016A2.026,2.026,0,0,1,84.749,135.568Zm-1.561,0a2.1,2.1,0,0,0,.146.909.526.526,0,0,0,.936,0,2.1,2.1,0,0,0,.146-.905,2.072,2.072,0,0,0-.146-.9.526.526,0,0,0-.936,0A2.071,2.071,0,0,0,83.188,135.568Z" transform="translate(1669 -356)"/>
    <path id="Path_1042" data-name="Path 1042" d="M97.929,137h-.316v-2.035c0-.169.005-.33.016-.481-.027.028-.058.056-.092.086s-.189.157-.465.381l-.172-.222.756-.584h.273Zm2.965,0H99.017v-.279l.752-.756a5.607,5.607,0,0,0,.453-.5,1.3,1.3,0,0,0,.164-.289.84.84,0,0,0,.054-.3.477.477,0,0,0-.138-.361.53.53,0,0,0-.385-.135.977.977,0,0,0-.338.058,1.373,1.373,0,0,0-.354.213l-.172-.22a1.315,1.315,0,0,1,.859-.328.905.905,0,0,1,.631.207.7.7,0,0,1,.228.552,1.064,1.064,0,0,1-.152.537,3.417,3.417,0,0,1-.57.672l-.625.612v.015h1.469Zm.513-.207a.29.29,0,0,1,.059-.2.215.215,0,0,1,.172-.069.223.223,0,0,1,.175.069.328.328,0,0,1,0,.392.226.226,0,0,1-.175.069.238.238,0,0,1-.166-.061A.273.273,0,0,1,101.407,136.793Zm0-1.725c0-.175.077-.263.231-.263s.24.088.24.263a.276.276,0,0,1-.065.2.229.229,0,0,1-.175.068.233.233,0,0,1-.166-.061A.272.272,0,0,1,101.407,135.068Zm2.977,1.276h-.424V137h-.311v-.656h-1.388v-.283l1.355-1.932h.344v1.92h.424Zm-.735-.295V135.1q0-.281.02-.631h-.016a2.96,2.96,0,0,1-.175.31l-.893,1.27Zm1.9-.793a1.048,1.048,0,0,1,.709.224.765.765,0,0,1,.259.612.882.882,0,0,1-.283.7,1.121,1.121,0,0,1-.777.252,1.428,1.428,0,0,1-.736-.154v-.313a1.127,1.127,0,0,0,.339.139,1.745,1.745,0,0,0,.4.049A.8.8,0,0,0,106,136.6a.58.58,0,0,0,.191-.469q0-.6-.732-.6a2.894,2.894,0,0,0-.5.057l-.168-.108.107-1.335h1.42v.3h-1.142l-.073.858A2.277,2.277,0,0,1,105.554,135.256Z" transform="translate(1669 -356)"/>
    <path id="Path_1043" data-name="Path 1043" d="M119.733,137h-.316v-2.035c0-.169,0-.33.016-.481-.028.028-.058.056-.092.086s-.189.157-.465.381l-.172-.222.756-.584h.273Zm2.858-2.184a.654.654,0,0,1-.154.448.765.765,0,0,1-.434.232v.016a.816.816,0,0,1,.51.218.649.649,0,0,1,.166.461.751.751,0,0,1-.283.629,1.294,1.294,0,0,1-.805.219,2.324,2.324,0,0,1-.416-.035,1.393,1.393,0,0,1-.365-.119v-.309a1.844,1.844,0,0,0,.394.141,1.863,1.863,0,0,0,.4.047q.74,0,.74-.58,0-.521-.817-.52h-.281v-.279h.285a.864.864,0,0,0,.53-.147.486.486,0,0,0,.195-.41.4.4,0,0,0-.145-.328.588.588,0,0,0-.388-.119,1.2,1.2,0,0,0-.354.051,1.547,1.547,0,0,0-.379.187l-.164-.219a1.36,1.36,0,0,1,.4-.216,1.456,1.456,0,0,1,.485-.08.98.98,0,0,1,.646.191A.637.637,0,0,1,122.591,134.816Zm.621,1.977a.285.285,0,0,1,.059-.2.214.214,0,0,1,.171-.069.225.225,0,0,1,.176.069.328.328,0,0,1,0,.392.228.228,0,0,1-.176.069.241.241,0,0,1-.166-.061A.273.273,0,0,1,123.212,136.793Zm0-1.725c0-.175.077-.263.23-.263s.241.088.241.263a.276.276,0,0,1-.065.2.231.231,0,0,1-.176.068.236.236,0,0,1-.166-.061A.272.272,0,0,1,123.212,135.068Zm2.857.5a2.083,2.083,0,0,1-.234,1.106.862.862,0,0,1-1.414-.008,2.052,2.052,0,0,1-.24-1.1,2.084,2.084,0,0,1,.232-1.107.862.862,0,0,1,1.414.016A2.021,2.021,0,0,1,126.069,135.568Zm-1.56,0a2.114,2.114,0,0,0,.146.909.527.527,0,0,0,.936,0,2.115,2.115,0,0,0,.146-.905,2.083,2.083,0,0,0-.146-.9.527.527,0,0,0-.936,0A2.083,2.083,0,0,0,124.509,135.568Zm3.849,0a2.083,2.083,0,0,1-.234,1.106.862.862,0,0,1-1.414-.008,2.052,2.052,0,0,1-.24-1.1,2.084,2.084,0,0,1,.232-1.107.862.862,0,0,1,1.414.016A2.021,2.021,0,0,1,128.358,135.568Zm-1.56,0a2.114,2.114,0,0,0,.146.909.527.527,0,0,0,.936,0,2.1,2.1,0,0,0,.146-.905,2.068,2.068,0,0,0-.146-.9.527.527,0,0,0-.936,0A2.083,2.083,0,0,0,126.8,135.568Z" transform="translate(1669 -356)"/>
    <path id="Path_1044" data-name="Path 1044" d="M141.538,137h-.316v-2.035c0-.169.005-.33.015-.481-.027.028-.058.056-.091.086s-.189.157-.465.381l-.172-.222.756-.584h.273Zm2.858-2.184a.649.649,0,0,1-.155.448.759.759,0,0,1-.433.232v.016a.811.811,0,0,1,.509.218.644.644,0,0,1,.166.461.749.749,0,0,1-.283.629,1.291,1.291,0,0,1-.8.219,2.335,2.335,0,0,1-.417-.035,1.4,1.4,0,0,1-.365-.119v-.309a1.824,1.824,0,0,0,.793.188q.741,0,.74-.58,0-.521-.816-.52h-.281v-.279h.285a.859.859,0,0,0,.529-.147.487.487,0,0,0,.2-.41.4.4,0,0,0-.145-.328.591.591,0,0,0-.389-.119,1.2,1.2,0,0,0-.353.051,1.547,1.547,0,0,0-.379.187l-.164-.219a1.36,1.36,0,0,1,.4-.216,1.452,1.452,0,0,1,.485-.08.982.982,0,0,1,.646.191A.637.637,0,0,1,144.4,134.816Zm.621,1.977a.29.29,0,0,1,.058-.2.218.218,0,0,1,.172-.069.225.225,0,0,1,.176.069.332.332,0,0,1,0,.392.23.23,0,0,1-.176.069.239.239,0,0,1-.166-.061A.273.273,0,0,1,145.017,136.793Zm0-1.725c0-.175.076-.263.23-.263s.24.088.24.263a.276.276,0,0,1-.064.2.259.259,0,0,1-.342.007A.272.272,0,0,1,145.017,135.068ZM147.183,137h-.317v-2.035c0-.169.005-.33.016-.481-.028.028-.058.056-.092.086s-.189.157-.465.381l-.172-.222.756-.584h.274Zm1.98-1.744a1.046,1.046,0,0,1,.709.224.766.766,0,0,1,.26.612.885.885,0,0,1-.283.7,1.126,1.126,0,0,1-.778.252,1.431,1.431,0,0,1-.736-.154v-.313a1.122,1.122,0,0,0,.34.139,1.736,1.736,0,0,0,.4.049.8.8,0,0,0,.533-.162.58.58,0,0,0,.192-.469q0-.6-.733-.6a2.905,2.905,0,0,0-.5.057l-.168-.108.108-1.335h1.42v.3h-1.143l-.072.858A2.275,2.275,0,0,1,149.163,135.256Z" transform="translate(1669 -356)"/>
    <path id="Path_1045" data-name="Path 1045" d="M163.343,137h-.317v-2.035c0-.169.006-.33.016-.481-.027.028-.058.056-.092.086s-.189.157-.465.381l-.172-.222.756-.584h.274Zm2.857-2.184a.649.649,0,0,1-.154.448.762.762,0,0,1-.434.232v.016a.816.816,0,0,1,.51.218.644.644,0,0,1,.166.461.749.749,0,0,1-.283.629,1.292,1.292,0,0,1-.805.219,2.324,2.324,0,0,1-.416-.035,1.392,1.392,0,0,1-.365-.119v-.309a1.816,1.816,0,0,0,.793.188q.739,0,.74-.58,0-.521-.816-.52h-.282v-.279h.286a.861.861,0,0,0,.529-.147.486.486,0,0,0,.195-.41.4.4,0,0,0-.144-.328.591.591,0,0,0-.389-.119,1.19,1.19,0,0,0-.353.051,1.547,1.547,0,0,0-.379.187l-.164-.219a1.36,1.36,0,0,1,.4-.216,1.45,1.45,0,0,1,.484-.08.983.983,0,0,1,.647.191A.639.639,0,0,1,166.2,134.816Zm.621,1.977a.29.29,0,0,1,.059-.2.217.217,0,0,1,.172-.069.227.227,0,0,1,.176.069.332.332,0,0,1,0,.392.23.23,0,0,1-.176.069.238.238,0,0,1-.166-.061A.273.273,0,0,1,166.821,136.793Zm0-1.725c0-.175.077-.263.231-.263s.24.088.24.263a.276.276,0,0,1-.064.2.259.259,0,0,1-.342.007A.272.272,0,0,1,166.821,135.068Zm2.735-.252a.649.649,0,0,1-.155.448.759.759,0,0,1-.433.232v.016a.816.816,0,0,1,.51.218.649.649,0,0,1,.166.461.749.749,0,0,1-.284.629,1.289,1.289,0,0,1-.8.219,2.324,2.324,0,0,1-.416-.035,1.411,1.411,0,0,1-.366-.119v-.309a1.824,1.824,0,0,0,.793.188q.741,0,.741-.58,0-.521-.817-.52h-.281v-.279h.285a.859.859,0,0,0,.529-.147.484.484,0,0,0,.2-.41.4.4,0,0,0-.145-.328.588.588,0,0,0-.388-.119,1.2,1.2,0,0,0-.354.051,1.547,1.547,0,0,0-.379.187l-.164-.219a1.36,1.36,0,0,1,.4-.216,1.452,1.452,0,0,1,.485-.08.98.98,0,0,1,.646.191A.637.637,0,0,1,169.556,134.816Zm2.412.752a2.073,2.073,0,0,1-.235,1.106.862.862,0,0,1-1.414-.008,2.052,2.052,0,0,1-.24-1.1,2.083,2.083,0,0,1,.233-1.107.862.862,0,0,1,1.414.016A2.03,2.03,0,0,1,171.968,135.568Zm-1.561,0a2.1,2.1,0,0,0,.147.909.526.526,0,0,0,.935,0,2.1,2.1,0,0,0,.147-.905,2.066,2.066,0,0,0-.147-.9.526.526,0,0,0-.935,0A2.065,2.065,0,0,0,170.407,135.568Z" transform="translate(1669 -356)"/>
    <path id="Path_1046" data-name="Path 1046" d="M185.147,137h-.316v-2.035c0-.169.005-.33.016-.481-.028.028-.058.056-.092.086s-.189.157-.465.381l-.172-.222.756-.584h.273Zm2.858-2.184a.654.654,0,0,1-.154.448.765.765,0,0,1-.434.232v.016a.816.816,0,0,1,.51.218.649.649,0,0,1,.166.461.751.751,0,0,1-.283.629,1.292,1.292,0,0,1-.8.219,2.323,2.323,0,0,1-.416-.035,1.392,1.392,0,0,1-.365-.119v-.309a1.844,1.844,0,0,0,.394.141,1.863,1.863,0,0,0,.4.047q.739,0,.74-.58,0-.521-.817-.52h-.281v-.279h.285a.864.864,0,0,0,.53-.147.486.486,0,0,0,.2-.41.4.4,0,0,0-.145-.328.588.588,0,0,0-.388-.119,1.2,1.2,0,0,0-.354.051,1.565,1.565,0,0,0-.379.187l-.164-.219a1.353,1.353,0,0,1,.4-.216,1.446,1.446,0,0,1,.484-.08.98.98,0,0,1,.646.191A.637.637,0,0,1,188.005,134.816Zm.621,1.977a.29.29,0,0,1,.059-.2.214.214,0,0,1,.171-.069.224.224,0,0,1,.176.069.328.328,0,0,1,0,.392.228.228,0,0,1-.176.069.241.241,0,0,1-.166-.061A.273.273,0,0,1,188.626,136.793Zm0-1.725c0-.175.077-.263.23-.263s.241.088.241.263a.276.276,0,0,1-.065.2.231.231,0,0,1-.176.068.236.236,0,0,1-.166-.061A.272.272,0,0,1,188.626,135.068Zm2.977,1.276h-.424V137h-.311v-.656h-1.389v-.283l1.356-1.932h.344v1.92h.424Zm-.735-.295V135.1q0-.281.02-.631h-.016a2.778,2.778,0,0,1-.176.31l-.892,1.27Zm1.9-.793a1.045,1.045,0,0,1,.709.224.763.763,0,0,1,.26.612.882.882,0,0,1-.283.7,1.123,1.123,0,0,1-.777.252,1.435,1.435,0,0,1-.737-.154v-.313a1.133,1.133,0,0,0,.34.139,1.745,1.745,0,0,0,.4.049.8.8,0,0,0,.533-.162.583.583,0,0,0,.191-.469q0-.6-.732-.6a2.894,2.894,0,0,0-.5.057l-.168-.108.107-1.335h1.42v.3H192.4l-.072.858A2.275,2.275,0,0,1,192.772,135.256Z" transform="translate(1669 -356)"/>
    <path id="Path_1047" data-name="Path 1047" d="M206.952,137h-.316v-2.035c0-.169.005-.33.015-.481-.027.028-.058.056-.091.086s-.189.157-.465.381l-.172-.222.756-.584h.273Zm3.1-.656h-.424V137h-.311v-.656h-1.388v-.283l1.355-1.932h.344v1.92h.424Zm-.735-.295V135.1q0-.281.02-.631h-.016a2.96,2.96,0,0,1-.175.31l-.893,1.27Zm1.114.744a.29.29,0,0,1,.058-.2.218.218,0,0,1,.172-.069.225.225,0,0,1,.176.069.332.332,0,0,1,0,.392.23.23,0,0,1-.176.069.239.239,0,0,1-.166-.061A.273.273,0,0,1,210.431,136.793Zm0-1.725c0-.175.076-.263.23-.263s.24.088.24.263a.276.276,0,0,1-.064.2.259.259,0,0,1-.342.007A.272.272,0,0,1,210.431,135.068Zm2.857.5a2.083,2.083,0,0,1-.234,1.106.862.862,0,0,1-1.414-.008,2.042,2.042,0,0,1-.241-1.1,2.083,2.083,0,0,1,.233-1.107.862.862,0,0,1,1.414.016A2.03,2.03,0,0,1,213.288,135.568Zm-1.56,0a2.1,2.1,0,0,0,.146.909.527.527,0,0,0,.936,0,2.115,2.115,0,0,0,.146-.905,2.083,2.083,0,0,0-.146-.9.527.527,0,0,0-.936,0A2.068,2.068,0,0,0,211.728,135.568Zm3.849,0a2.083,2.083,0,0,1-.234,1.106.862.862,0,0,1-1.414-.008,2.051,2.051,0,0,1-.241-1.1,2.083,2.083,0,0,1,.233-1.107.862.862,0,0,1,1.414.016A2.03,2.03,0,0,1,215.577,135.568Zm-1.56,0a2.1,2.1,0,0,0,.146.909.527.527,0,0,0,.936,0,2.115,2.115,0,0,0,.146-.905,2.083,2.083,0,0,0-.146-.9.527.527,0,0,0-.936,0A2.068,2.068,0,0,0,214.017,135.568Z" transform="translate(1669 -356)"/>
    <path id="Path_1048" data-name="Path 1048" d="M228.757,137h-.317v-2.035c0-.169.006-.33.016-.481-.027.028-.058.056-.092.086s-.189.157-.465.381l-.171-.222.755-.584h.274Zm3.1-.656h-.423V137h-.311v-.656h-1.389v-.283l1.356-1.932h.344v1.92h.423Zm-.734-.295V135.1q0-.281.02-.631h-.016a2.948,2.948,0,0,1-.176.31l-.892,1.27Zm1.113.744a.29.29,0,0,1,.059-.2.217.217,0,0,1,.172-.069.227.227,0,0,1,.176.069.332.332,0,0,1,0,.392.23.23,0,0,1-.176.069A.238.238,0,0,1,232.3,137,.273.273,0,0,1,232.235,136.793Zm0-1.725c0-.175.077-.263.231-.263s.24.088.24.263a.276.276,0,0,1-.064.2.259.259,0,0,1-.342.007A.272.272,0,0,1,232.235,135.068ZM234.4,137h-.316v-2.035c0-.169,0-.33.016-.481-.028.028-.058.056-.092.086s-.189.157-.465.381l-.172-.222.756-.584h.273Zm1.981-1.744a1.046,1.046,0,0,1,.709.224.766.766,0,0,1,.26.612.883.883,0,0,1-.284.7,1.121,1.121,0,0,1-.777.252,1.428,1.428,0,0,1-.736-.154v-.313a1.122,1.122,0,0,0,.34.139,1.73,1.73,0,0,0,.4.049.8.8,0,0,0,.533-.162.58.58,0,0,0,.192-.469q0-.6-.733-.6a2.9,2.9,0,0,0-.5.057l-.168-.108.107-1.335h1.42v.3h-1.142l-.072.858A2.26,2.26,0,0,1,236.382,135.256Z" transform="translate(1669 -356)"/>
    <path id="Path_1049" data-name="Path 1049" d="M250.562,137h-.317v-2.035c0-.169.005-.33.016-.481-.028.028-.058.056-.092.086s-.189.157-.465.381l-.172-.222.756-.584h.274Zm3.1-.656h-.424V137h-.31v-.656h-1.389v-.283l1.356-1.932h.343v1.92h.424Zm-.734-.295V135.1q0-.281.019-.631h-.015a2.95,2.95,0,0,1-.176.31l-.893,1.27Zm1.113.744a.29.29,0,0,1,.059-.2.215.215,0,0,1,.172-.069.223.223,0,0,1,.175.069.328.328,0,0,1,0,.392.228.228,0,0,1-.175.069A.242.242,0,0,1,254.1,137,.277.277,0,0,1,254.04,136.793Zm0-1.725c0-.175.077-.263.231-.263s.24.088.24.263a.276.276,0,0,1-.065.2.23.23,0,0,1-.175.068.237.237,0,0,1-.167-.061A.276.276,0,0,1,254.04,135.068Zm2.734-.252a.649.649,0,0,1-.154.448.759.759,0,0,1-.433.232v.016a.811.811,0,0,1,.509.218.644.644,0,0,1,.166.461.749.749,0,0,1-.283.629,1.292,1.292,0,0,1-.805.219,2.332,2.332,0,0,1-.416-.035,1.4,1.4,0,0,1-.365-.119v-.309a1.824,1.824,0,0,0,.793.188q.741,0,.74-.58,0-.521-.816-.52h-.281v-.279h.285a.859.859,0,0,0,.529-.147.486.486,0,0,0,.195-.41.4.4,0,0,0-.144-.328.591.591,0,0,0-.389-.119,1.19,1.19,0,0,0-.353.051,1.547,1.547,0,0,0-.379.187l-.164-.219a1.36,1.36,0,0,1,.4-.216,1.45,1.45,0,0,1,.484-.08.983.983,0,0,1,.647.191A.636.636,0,0,1,256.774,134.816Zm2.413.752a2.082,2.082,0,0,1-.235,1.106.862.862,0,0,1-1.414-.008,2.052,2.052,0,0,1-.24-1.1,2.084,2.084,0,0,1,.232-1.107.862.862,0,0,1,1.414.016A2.021,2.021,0,0,1,259.187,135.568Zm-1.561,0a2.114,2.114,0,0,0,.146.909.527.527,0,0,0,.936,0,2.1,2.1,0,0,0,.146-.905,2.068,2.068,0,0,0-.146-.9.527.527,0,0,0-.936,0A2.082,2.082,0,0,0,257.626,135.568Z" transform="translate(1669 -356)"/>
    <path id="Path_1050" data-name="Path 1050" d="M272.366,137h-.316v-2.035c0-.169.005-.33.015-.481-.027.028-.058.056-.091.086s-.189.157-.465.381l-.172-.222.756-.584h.273Zm3.1-.656h-.424V137h-.311v-.656h-1.388v-.283l1.355-1.932h.344v1.92h.424Zm-.735-.295V135.1q0-.281.02-.631h-.016a2.955,2.955,0,0,1-.175.31l-.893,1.27Zm1.114.744a.29.29,0,0,1,.058-.2.218.218,0,0,1,.172-.069.225.225,0,0,1,.176.069.332.332,0,0,1,0,.392.23.23,0,0,1-.176.069.239.239,0,0,1-.166-.061A.273.273,0,0,1,275.845,136.793Zm0-1.725c0-.175.077-.263.23-.263s.24.088.24.263a.276.276,0,0,1-.064.2.259.259,0,0,1-.342.007A.272.272,0,0,1,275.845,135.068Zm2.976,1.276H278.4V137h-.31v-.656H276.7v-.283l1.356-1.932h.343v1.92h.424Zm-.734-.295V135.1q0-.281.019-.631h-.015a2.948,2.948,0,0,1-.176.31l-.893,1.27Zm1.9-.793a1.047,1.047,0,0,1,.709.224.766.766,0,0,1,.26.612.882.882,0,0,1-.283.7,1.126,1.126,0,0,1-.778.252,1.431,1.431,0,0,1-.736-.154v-.313a1.134,1.134,0,0,0,.34.139,1.737,1.737,0,0,0,.4.049.8.8,0,0,0,.534-.162.583.583,0,0,0,.191-.469q0-.6-.732-.6a2.9,2.9,0,0,0-.5.057l-.168-.108.108-1.335h1.42v.3h-1.143l-.072.858A2.274,2.274,0,0,1,279.991,135.256Z" transform="translate(1669 -356)"/>
    <path id="Path_1051" data-name="Path 1051" d="M294.171,137h-.317v-2.035c0-.169.006-.33.016-.481-.027.028-.058.056-.092.086s-.188.157-.465.381l-.171-.222.755-.584h.274Zm1.98-1.744a1.046,1.046,0,0,1,.709.224.763.763,0,0,1,.26.612.882.882,0,0,1-.283.7,1.125,1.125,0,0,1-.777.252,1.435,1.435,0,0,1-.737-.154v-.313a1.134,1.134,0,0,0,.34.139,1.743,1.743,0,0,0,.4.049.8.8,0,0,0,.534-.162.583.583,0,0,0,.191-.469q0-.6-.732-.6a2.9,2.9,0,0,0-.5.057l-.168-.108.107-1.335h1.42v.3h-1.143l-.072.858A2.274,2.274,0,0,1,296.151,135.256Zm1.5,1.537a.29.29,0,0,1,.059-.2.217.217,0,0,1,.172-.069.227.227,0,0,1,.176.069.332.332,0,0,1,0,.392.23.23,0,0,1-.176.069.238.238,0,0,1-.166-.061A.273.273,0,0,1,297.649,136.793Zm0-1.725c0-.175.077-.263.231-.263s.24.088.24.263a.276.276,0,0,1-.064.2.259.259,0,0,1-.342.007A.272.272,0,0,1,297.649,135.068Zm2.858.5a2.073,2.073,0,0,1-.235,1.106.862.862,0,0,1-1.414-.008,2.052,2.052,0,0,1-.24-1.1,2.083,2.083,0,0,1,.233-1.107.862.862,0,0,1,1.414.016A2.031,2.031,0,0,1,300.507,135.568Zm-1.561,0a2.1,2.1,0,0,0,.147.909.526.526,0,0,0,.935,0,2.1,2.1,0,0,0,.147-.905,2.066,2.066,0,0,0-.147-.9.526.526,0,0,0-.935,0A2.065,2.065,0,0,0,298.946,135.568Zm3.85,0a2.083,2.083,0,0,1-.234,1.106.863.863,0,0,1-1.415-.008,2.052,2.052,0,0,1-.24-1.1,2.083,2.083,0,0,1,.233-1.107.862.862,0,0,1,1.414.016A2.03,2.03,0,0,1,302.8,135.568Zm-1.561,0a2.1,2.1,0,0,0,.147.909.526.526,0,0,0,.935,0,2.1,2.1,0,0,0,.147-.905,2.065,2.065,0,0,0-.147-.9.526.526,0,0,0-.935,0A2.065,2.065,0,0,0,301.235,135.568Z" transform="translate(1669 -356)"/>
    <path id="Path_1052" data-name="Path 1052" d="M315.976,137h-.317v-2.035c0-.169.005-.33.016-.481-.028.028-.058.056-.092.086s-.189.157-.465.381l-.172-.222.756-.584h.274Zm1.98-1.744a1.047,1.047,0,0,1,.709.224.766.766,0,0,1,.26.612.885.885,0,0,1-.283.7,1.125,1.125,0,0,1-.778.252,1.431,1.431,0,0,1-.736-.154v-.313a1.123,1.123,0,0,0,.34.139,1.737,1.737,0,0,0,.4.049.8.8,0,0,0,.533-.162.58.58,0,0,0,.192-.469q0-.6-.733-.6a2.9,2.9,0,0,0-.5.057l-.168-.108.108-1.335h1.42v.3h-1.143l-.072.858A2.275,2.275,0,0,1,317.956,135.256Zm1.5,1.537a.29.29,0,0,1,.059-.2.215.215,0,0,1,.172-.069.223.223,0,0,1,.175.069.328.328,0,0,1,0,.392.227.227,0,0,1-.175.069.238.238,0,0,1-.166-.061A.273.273,0,0,1,319.454,136.793Zm0-1.725c0-.175.077-.263.231-.263s.24.088.24.263a.276.276,0,0,1-.065.2.23.23,0,0,1-.175.068.233.233,0,0,1-.166-.061A.272.272,0,0,1,319.454,135.068ZM321.62,137H321.3v-2.035c0-.169.005-.33.015-.481-.027.028-.058.056-.091.086s-.189.157-.465.381l-.172-.222.756-.584h.273Zm1.981-1.744a1.048,1.048,0,0,1,.709.224.765.765,0,0,1,.259.612.882.882,0,0,1-.283.7,1.121,1.121,0,0,1-.777.252,1.435,1.435,0,0,1-.737-.154v-.313a1.144,1.144,0,0,0,.34.139,1.745,1.745,0,0,0,.4.049.8.8,0,0,0,.533-.162.58.58,0,0,0,.191-.469q0-.6-.732-.6a2.9,2.9,0,0,0-.5.057l-.168-.108.107-1.335h1.42v.3h-1.142l-.073.858A2.277,2.277,0,0,1,323.6,135.256Z" transform="translate(1669 -356)"/>
    <path id="Path_1053" data-name="Path 1053" d="M337.78,137h-.316v-2.035c0-.169.005-.33.015-.481-.027.028-.057.056-.091.086s-.189.157-.465.381l-.172-.222.756-.584h.273Zm1.981-1.744a1.046,1.046,0,0,1,.709.224.765.765,0,0,1,.259.612.882.882,0,0,1-.283.7,1.121,1.121,0,0,1-.777.252,1.428,1.428,0,0,1-.736-.154v-.313a1.126,1.126,0,0,0,.339.139,1.745,1.745,0,0,0,.4.049.8.8,0,0,0,.533-.162.58.58,0,0,0,.191-.469q0-.6-.732-.6a2.894,2.894,0,0,0-.5.057L339,135.48l.107-1.335h1.42v.3h-1.142l-.073.858A2.277,2.277,0,0,1,339.761,135.256Zm1.5,1.537a.29.29,0,0,1,.058-.2.218.218,0,0,1,.172-.069.225.225,0,0,1,.176.069.332.332,0,0,1,0,.392.23.23,0,0,1-.176.069.241.241,0,0,1-.166-.061A.273.273,0,0,1,341.259,136.793Zm0-1.725c0-.175.077-.263.23-.263s.24.088.24.263a.276.276,0,0,1-.064.2.233.233,0,0,1-.176.068.236.236,0,0,1-.166-.061A.272.272,0,0,1,341.259,135.068Zm2.734-.252a.649.649,0,0,1-.154.448.762.762,0,0,1-.434.232v.016a.816.816,0,0,1,.51.218.644.644,0,0,1,.166.461.749.749,0,0,1-.283.629,1.292,1.292,0,0,1-.8.219,2.324,2.324,0,0,1-.416-.035,1.392,1.392,0,0,1-.365-.119v-.309a1.815,1.815,0,0,0,.793.188q.739,0,.74-.58,0-.521-.816-.52h-.282v-.279h.286a.861.861,0,0,0,.529-.147.486.486,0,0,0,.2-.41.4.4,0,0,0-.144-.328.591.591,0,0,0-.389-.119,1.19,1.19,0,0,0-.353.051,1.547,1.547,0,0,0-.379.187l-.164-.219a1.348,1.348,0,0,1,.4-.216,1.446,1.446,0,0,1,.484-.08.983.983,0,0,1,.647.191A.639.639,0,0,1,343.993,134.816Zm2.412.752a2.083,2.083,0,0,1-.234,1.106.862.862,0,0,1-1.414-.008,2.052,2.052,0,0,1-.24-1.1,2.084,2.084,0,0,1,.232-1.107.862.862,0,0,1,1.414.016A2.021,2.021,0,0,1,346.4,135.568Zm-1.56,0a2.115,2.115,0,0,0,.146.909.527.527,0,0,0,.936,0,2.116,2.116,0,0,0,.146-.905,2.084,2.084,0,0,0-.146-.9.527.527,0,0,0-.936,0A2.083,2.083,0,0,0,344.845,135.568Z" transform="translate(1669 -356)"/>
    <path id="Path_1054" data-name="Path 1054" d="M359.585,137h-.316v-2.035c0-.169,0-.33.015-.481-.027.028-.058.056-.092.086s-.188.157-.464.381l-.172-.222.756-.584h.273Zm1.98-1.744a1.045,1.045,0,0,1,.709.224.763.763,0,0,1,.26.612.882.882,0,0,1-.283.7,1.125,1.125,0,0,1-.777.252,1.435,1.435,0,0,1-.737-.154v-.313a1.133,1.133,0,0,0,.34.139,1.745,1.745,0,0,0,.4.049.8.8,0,0,0,.533-.162.583.583,0,0,0,.191-.469q0-.6-.732-.6a2.9,2.9,0,0,0-.5.057l-.168-.108.107-1.335h1.42v.3H361.19l-.072.858A2.274,2.274,0,0,1,361.565,135.256Zm1.5,1.537a.29.29,0,0,1,.059-.2.217.217,0,0,1,.172-.069.227.227,0,0,1,.176.069.332.332,0,0,1,0,.392.23.23,0,0,1-.176.069.239.239,0,0,1-.166-.061A.273.273,0,0,1,363.063,136.793Zm0-1.725c0-.175.077-.263.231-.263s.24.088.24.263a.276.276,0,0,1-.064.2.259.259,0,0,1-.342.007A.272.272,0,0,1,363.063,135.068Zm2.977,1.276h-.424V137h-.31v-.656h-1.389v-.283l1.355-1.932h.344v1.92h.424Zm-.734-.295V135.1q0-.281.019-.631h-.015a3.139,3.139,0,0,1-.176.31l-.893,1.27Zm1.9-.793a1.047,1.047,0,0,1,.709.224.766.766,0,0,1,.26.612.885.885,0,0,1-.283.7,1.125,1.125,0,0,1-.778.252,1.431,1.431,0,0,1-.736-.154v-.313a1.123,1.123,0,0,0,.34.139,1.737,1.737,0,0,0,.4.049.8.8,0,0,0,.533-.162.58.58,0,0,0,.192-.469q0-.6-.733-.6a2.9,2.9,0,0,0-.5.057l-.168-.108.108-1.335h1.42v.3h-1.143l-.072.858A2.267,2.267,0,0,1,367.21,135.256Z" transform="translate(1669 -356)"/>
    <path id="Path_1055" data-name="Path 1055" d="M381.39,137h-.317v-2.035c0-.169.005-.33.016-.481-.027.028-.058.056-.092.086s-.189.157-.465.381l-.172-.222.756-.584h.274Zm1.121-1.221a2.019,2.019,0,0,1,.326-1.258,1.159,1.159,0,0,1,.969-.417,1.272,1.272,0,0,1,.347.037v.279a1.1,1.1,0,0,0-.343-.049.87.87,0,0,0-.7.287,1.463,1.463,0,0,0-.265.9h.023a.748.748,0,0,1,.68-.336.794.794,0,0,1,.605.232.872.872,0,0,1,.223.631.971.971,0,0,1-.244.7.865.865,0,0,1-.656.254.846.846,0,0,1-.7-.332A1.473,1.473,0,0,1,382.511,135.779Zm.959.985a.538.538,0,0,0,.429-.174.743.743,0,0,0,.155-.506.65.65,0,0,0-.143-.445.537.537,0,0,0-.426-.162.721.721,0,0,0-.322.072.592.592,0,0,0-.234.2.461.461,0,0,0-.086.264.906.906,0,0,0,.078.375.664.664,0,0,0,.221.275A.553.553,0,0,0,383.47,136.764Zm1.4.029a.29.29,0,0,1,.059-.2.215.215,0,0,1,.172-.069.223.223,0,0,1,.175.069.328.328,0,0,1,0,.392.227.227,0,0,1-.175.069.238.238,0,0,1-.166-.061A.273.273,0,0,1,384.868,136.793Zm0-1.725c0-.175.077-.263.231-.263s.24.088.24.263a.276.276,0,0,1-.065.2.23.23,0,0,1-.175.068.233.233,0,0,1-.166-.061A.272.272,0,0,1,384.868,135.068Zm2.858.5a2.082,2.082,0,0,1-.235,1.106.862.862,0,0,1-1.414-.008,2.052,2.052,0,0,1-.24-1.1,2.084,2.084,0,0,1,.232-1.107.862.862,0,0,1,1.414.016A2.021,2.021,0,0,1,387.726,135.568Zm-1.561,0a2.1,2.1,0,0,0,.147.909.526.526,0,0,0,.935,0,2.1,2.1,0,0,0,.147-.905,2.066,2.066,0,0,0-.147-.9.526.526,0,0,0-.935,0A2.065,2.065,0,0,0,386.165,135.568Zm3.85,0a2.072,2.072,0,0,1-.235,1.106.862.862,0,0,1-1.414-.008,2.052,2.052,0,0,1-.24-1.1,2.084,2.084,0,0,1,.232-1.107.862.862,0,0,1,1.414.016A2.021,2.021,0,0,1,390.015,135.568Zm-1.561,0a2.1,2.1,0,0,0,.147.909.526.526,0,0,0,.935,0,2.1,2.1,0,0,0,.147-.905,2.066,2.066,0,0,0-.147-.9.526.526,0,0,0-.935,0A2.065,2.065,0,0,0,388.454,135.568Z" transform="translate(1669 -356)"/>
    <path id="Path_1056" data-name="Path 1056" d="M403.194,137h-.316v-2.035c0-.169.005-.33.016-.481-.028.028-.058.056-.092.086s-.189.157-.465.381l-.172-.222.756-.584h.273Zm1.121-1.221a2.019,2.019,0,0,1,.327-1.258,1.156,1.156,0,0,1,.968-.417,1.285,1.285,0,0,1,.348.037v.279a1.1,1.1,0,0,0-.344-.049.868.868,0,0,0-.7.287,1.469,1.469,0,0,0-.266.9h.024a.748.748,0,0,1,.68-.336.794.794,0,0,1,.6.232.876.876,0,0,1,.223.631.976.976,0,0,1-.244.7.868.868,0,0,1-.657.254.847.847,0,0,1-.7-.332A1.48,1.48,0,0,1,404.315,135.779Zm.959.985a.541.541,0,0,0,.43-.174.743.743,0,0,0,.154-.506.65.65,0,0,0-.142-.445.537.537,0,0,0-.426-.162.718.718,0,0,0-.322.072.6.6,0,0,0-.235.2.468.468,0,0,0-.086.264.907.907,0,0,0,.079.375.662.662,0,0,0,.22.275A.557.557,0,0,0,405.274,136.764Zm1.4.029a.29.29,0,0,1,.058-.2.218.218,0,0,1,.172-.069.225.225,0,0,1,.176.069.328.328,0,0,1,0,.392.228.228,0,0,1-.176.069.241.241,0,0,1-.166-.061A.273.273,0,0,1,406.673,136.793Zm0-1.725c0-.175.077-.263.23-.263s.241.088.241.263a.276.276,0,0,1-.065.2.231.231,0,0,1-.176.068.236.236,0,0,1-.166-.061A.272.272,0,0,1,406.673,135.068ZM408.839,137h-.317v-2.035c0-.169.006-.33.016-.481-.027.028-.058.056-.092.086s-.189.157-.465.381l-.171-.222.755-.584h.274Zm1.98-1.744a1.047,1.047,0,0,1,.709.224.766.766,0,0,1,.26.612.882.882,0,0,1-.283.7,1.125,1.125,0,0,1-.777.252,1.432,1.432,0,0,1-.737-.154v-.313a1.134,1.134,0,0,0,.34.139,1.737,1.737,0,0,0,.4.049.8.8,0,0,0,.534-.162.583.583,0,0,0,.191-.469q0-.6-.732-.6a2.9,2.9,0,0,0-.5.057l-.168-.108.107-1.335h1.42v.3h-1.143l-.072.858A2.274,2.274,0,0,1,410.819,135.256Z" transform="translate(1669 -356)"/>
    <path id="Path_1057" data-name="Path 1057" d="M425,137h-.316v-2.035c0-.169,0-.33.015-.481-.027.028-.058.056-.092.086s-.188.157-.464.381l-.172-.222.756-.584H425Zm1.121-1.221a2.025,2.025,0,0,1,.326-1.258,1.159,1.159,0,0,1,.969-.417,1.284,1.284,0,0,1,.348.037v.279a1.1,1.1,0,0,0-.344-.049.866.866,0,0,0-.7.287,1.462,1.462,0,0,0-.266.9h.024a.746.746,0,0,1,.679-.336.8.8,0,0,1,.606.232.875.875,0,0,1,.222.631.971.971,0,0,1-.244.7.864.864,0,0,1-.656.254.846.846,0,0,1-.7-.332A1.48,1.48,0,0,1,426.12,135.779Zm.959.985a.542.542,0,0,0,.43-.174.743.743,0,0,0,.154-.506.65.65,0,0,0-.142-.445.539.539,0,0,0-.426-.162.725.725,0,0,0-.323.072.605.605,0,0,0-.234.2.468.468,0,0,0-.086.264.906.906,0,0,0,.078.375.664.664,0,0,0,.221.275A.555.555,0,0,0,427.079,136.764Zm1.4.029a.29.29,0,0,1,.058-.2.217.217,0,0,1,.172-.069.225.225,0,0,1,.176.069.332.332,0,0,1,0,.392.23.23,0,0,1-.176.069.239.239,0,0,1-.166-.061A.273.273,0,0,1,428.478,136.793Zm0-1.725c0-.175.076-.263.23-.263s.24.088.24.263a.276.276,0,0,1-.064.2.259.259,0,0,1-.342.007A.272.272,0,0,1,428.478,135.068Zm2.734-.252a.654.654,0,0,1-.154.448.762.762,0,0,1-.434.232v.016a.816.816,0,0,1,.51.218.649.649,0,0,1,.166.461.751.751,0,0,1-.283.629,1.292,1.292,0,0,1-.8.219A2.324,2.324,0,0,1,429.8,137a1.393,1.393,0,0,1-.365-.119v-.309a1.844,1.844,0,0,0,.394.141,1.863,1.863,0,0,0,.4.047q.74,0,.74-.58,0-.521-.817-.52h-.281v-.279h.285a.864.864,0,0,0,.53-.147.486.486,0,0,0,.2-.41.4.4,0,0,0-.145-.328.588.588,0,0,0-.388-.119,1.2,1.2,0,0,0-.354.051,1.565,1.565,0,0,0-.379.187l-.164-.219a1.353,1.353,0,0,1,.4-.216,1.445,1.445,0,0,1,.484-.08.98.98,0,0,1,.646.191A.637.637,0,0,1,431.212,134.816Zm2.412.752a2.083,2.083,0,0,1-.234,1.106.862.862,0,0,1-1.414-.008,2.042,2.042,0,0,1-.241-1.1,2.083,2.083,0,0,1,.233-1.107.862.862,0,0,1,1.414.016A2.03,2.03,0,0,1,433.624,135.568Zm-1.561,0a2.1,2.1,0,0,0,.147.909.527.527,0,0,0,.936,0,2.115,2.115,0,0,0,.146-.905,2.083,2.083,0,0,0-.146-.9.527.527,0,0,0-.936,0A2.065,2.065,0,0,0,432.063,135.568Z" transform="translate(1669 -356)"/>
    <path id="Path_1058" data-name="Path 1058" d="M446.8,137h-.317v-2.035c0-.169.006-.33.016-.481-.027.028-.058.056-.092.086s-.189.157-.465.381l-.172-.222.756-.584h.274Zm1.121-1.221a2.025,2.025,0,0,1,.326-1.258,1.159,1.159,0,0,1,.969-.417,1.271,1.271,0,0,1,.347.037v.279a1.092,1.092,0,0,0-.343-.049.87.87,0,0,0-.7.287,1.463,1.463,0,0,0-.265.9h.023a.749.749,0,0,1,.68-.336.794.794,0,0,1,.605.232.872.872,0,0,1,.223.631.971.971,0,0,1-.244.7.865.865,0,0,1-.656.254.846.846,0,0,1-.7-.332A1.473,1.473,0,0,1,447.925,135.779Zm.959.985a.538.538,0,0,0,.429-.174.743.743,0,0,0,.155-.506.65.65,0,0,0-.143-.445.537.537,0,0,0-.426-.162.721.721,0,0,0-.322.072.592.592,0,0,0-.234.2.461.461,0,0,0-.086.264.906.906,0,0,0,.078.375.664.664,0,0,0,.221.275A.553.553,0,0,0,448.884,136.764Zm1.4.029a.29.29,0,0,1,.059-.2.215.215,0,0,1,.172-.069.223.223,0,0,1,.175.069.328.328,0,0,1,0,.392.226.226,0,0,1-.175.069.238.238,0,0,1-.166-.061A.273.273,0,0,1,450.282,136.793Zm0-1.725c0-.175.077-.263.231-.263s.24.088.24.263a.276.276,0,0,1-.065.2.229.229,0,0,1-.175.068.233.233,0,0,1-.166-.061A.272.272,0,0,1,450.282,135.068Zm2.977,1.276h-.424V137h-.311v-.656h-1.388v-.283l1.355-1.932h.344v1.92h.424Zm-.735-.295V135.1q0-.281.02-.631h-.016a2.96,2.96,0,0,1-.175.31l-.893,1.27Zm1.9-.793a1.048,1.048,0,0,1,.709.224.765.765,0,0,1,.259.612.882.882,0,0,1-.283.7,1.121,1.121,0,0,1-.777.252,1.428,1.428,0,0,1-.736-.154v-.313a1.126,1.126,0,0,0,.339.139,1.745,1.745,0,0,0,.4.049.8.8,0,0,0,.533-.162.58.58,0,0,0,.191-.469q0-.6-.732-.6a2.9,2.9,0,0,0-.5.057l-.168-.108.107-1.335h1.42v.3h-1.142l-.073.858A2.277,2.277,0,0,1,454.429,135.256Z" transform="translate(1669 -356)"/>
    <path id="Path_1059" data-name="Path 1059" d="M468.608,137h-.316v-2.035c0-.169.005-.33.016-.481-.028.028-.058.056-.092.086s-.189.157-.465.381l-.172-.222.756-.584h.273Zm1.45,0,1.183-2.557h-1.556v-.3h1.9v.259l-1.168,2.6Zm2.029-.207a.285.285,0,0,1,.059-.2.214.214,0,0,1,.171-.069.225.225,0,0,1,.176.069.328.328,0,0,1,0,.392.228.228,0,0,1-.176.069.241.241,0,0,1-.166-.061A.273.273,0,0,1,472.087,136.793Zm0-1.725c0-.175.077-.263.23-.263s.241.088.241.263a.276.276,0,0,1-.065.2.231.231,0,0,1-.176.068.236.236,0,0,1-.166-.061A.272.272,0,0,1,472.087,135.068Zm2.857.5a2.083,2.083,0,0,1-.234,1.106.862.862,0,0,1-1.414-.008,2.052,2.052,0,0,1-.24-1.1,2.084,2.084,0,0,1,.232-1.107.862.862,0,0,1,1.414.016A2.021,2.021,0,0,1,474.944,135.568Zm-1.56,0a2.115,2.115,0,0,0,.146.909.527.527,0,0,0,.936,0,2.116,2.116,0,0,0,.146-.905,2.084,2.084,0,0,0-.146-.9.527.527,0,0,0-.936,0A2.083,2.083,0,0,0,473.384,135.568Zm3.849,0a2.083,2.083,0,0,1-.234,1.106.862.862,0,0,1-1.414-.008,2.052,2.052,0,0,1-.24-1.1,2.084,2.084,0,0,1,.232-1.107.862.862,0,0,1,1.414.016A2.021,2.021,0,0,1,477.233,135.568Zm-1.56,0a2.114,2.114,0,0,0,.146.909.527.527,0,0,0,.936,0,2.1,2.1,0,0,0,.146-.905,2.068,2.068,0,0,0-.146-.9.527.527,0,0,0-.936,0A2.082,2.082,0,0,0,475.673,135.568Z" transform="translate(1669 -356)"/>
    <path id="Path_1060" data-name="Path 1060" d="M490.413,137H490.1v-2.035c0-.169.005-.33.015-.481-.027.028-.058.056-.091.086s-.189.157-.465.381l-.172-.222.756-.584h.273Zm1.449,0,1.184-2.557h-1.557v-.3h1.9v.259l-1.168,2.6Zm2.03-.207a.29.29,0,0,1,.058-.2.218.218,0,0,1,.172-.069.225.225,0,0,1,.176.069.332.332,0,0,1,0,.392.23.23,0,0,1-.176.069.239.239,0,0,1-.166-.061A.273.273,0,0,1,493.892,136.793Zm0-1.725c0-.175.076-.263.23-.263s.24.088.24.263a.276.276,0,0,1-.064.2.259.259,0,0,1-.342.007A.272.272,0,0,1,493.892,135.068ZM496.058,137h-.317v-2.035c0-.169.005-.33.016-.481-.028.028-.058.056-.092.086s-.189.157-.465.381l-.172-.222.756-.584h.274Zm1.98-1.744a1.047,1.047,0,0,1,.709.224.766.766,0,0,1,.26.612.885.885,0,0,1-.283.7,1.125,1.125,0,0,1-.778.252,1.431,1.431,0,0,1-.736-.154v-.313a1.123,1.123,0,0,0,.34.139,1.737,1.737,0,0,0,.4.049.8.8,0,0,0,.533-.162.58.58,0,0,0,.192-.469q0-.6-.733-.6a2.9,2.9,0,0,0-.5.057l-.168-.108.108-1.335h1.42v.3h-1.143l-.072.858A2.275,2.275,0,0,1,498.038,135.256Z" transform="translate(1669 -356)"/>
    <path id="Path_1061" data-name="Path 1061" d="M512.218,137H511.9v-2.035c0-.169.006-.33.016-.481-.027.028-.058.056-.092.086s-.189.157-.465.381l-.172-.222.756-.584h.274Zm1.449,0,1.184-2.557h-1.557v-.3h1.9v.259l-1.168,2.6Zm2.029-.207a.29.29,0,0,1,.059-.2.217.217,0,0,1,.172-.069.227.227,0,0,1,.176.069.332.332,0,0,1,0,.392.23.23,0,0,1-.176.069.238.238,0,0,1-.166-.061A.273.273,0,0,1,515.7,136.793Zm0-1.725c0-.175.077-.263.231-.263s.24.088.24.263a.276.276,0,0,1-.064.2.259.259,0,0,1-.342.007A.272.272,0,0,1,515.7,135.068Zm2.735-.252a.649.649,0,0,1-.155.448.759.759,0,0,1-.433.232v.016a.816.816,0,0,1,.51.218.649.649,0,0,1,.166.461.749.749,0,0,1-.284.629,1.288,1.288,0,0,1-.8.219,2.324,2.324,0,0,1-.416-.035,1.412,1.412,0,0,1-.366-.119v-.309a1.873,1.873,0,0,0,.4.141,1.855,1.855,0,0,0,.4.047q.741,0,.741-.58,0-.521-.817-.52h-.281v-.279h.285a.859.859,0,0,0,.529-.147.484.484,0,0,0,.2-.41.4.4,0,0,0-.145-.328.588.588,0,0,0-.388-.119,1.2,1.2,0,0,0-.354.051,1.548,1.548,0,0,0-.379.187l-.164-.219a1.36,1.36,0,0,1,.4-.216,1.452,1.452,0,0,1,.485-.08.98.98,0,0,1,.646.191A.637.637,0,0,1,518.431,134.816Zm2.412.752a2.072,2.072,0,0,1-.235,1.106.862.862,0,0,1-1.414-.008,2.052,2.052,0,0,1-.24-1.1,2.083,2.083,0,0,1,.233-1.107.862.862,0,0,1,1.414.016A2.03,2.03,0,0,1,520.843,135.568Zm-1.561,0a2.1,2.1,0,0,0,.147.909.526.526,0,0,0,.935,0,2.1,2.1,0,0,0,.147-.905,2.066,2.066,0,0,0-.147-.9.526.526,0,0,0-.935,0A2.065,2.065,0,0,0,519.282,135.568Z" transform="translate(1669 -356)"/>
    <path id="Path_1062" data-name="Path 1062" d="M534.022,137h-.316v-2.035c0-.169.005-.33.016-.481-.028.028-.058.056-.092.086s-.189.157-.465.381l-.172-.222.756-.584h.273Zm1.45,0,1.183-2.557H535.1v-.3H537v.259l-1.168,2.6Zm2.029-.207a.29.29,0,0,1,.059-.2.214.214,0,0,1,.171-.069.224.224,0,0,1,.176.069.328.328,0,0,1,0,.392.228.228,0,0,1-.176.069.241.241,0,0,1-.166-.061A.273.273,0,0,1,537.5,136.793Zm0-1.725c0-.175.077-.263.23-.263s.241.088.241.263a.276.276,0,0,1-.065.2.231.231,0,0,1-.176.068.236.236,0,0,1-.166-.061A.271.271,0,0,1,537.5,135.068Zm2.977,1.276h-.424V137h-.311v-.656h-1.389v-.283l1.356-1.932h.344v1.92h.424Zm-.735-.295V135.1q0-.281.02-.631h-.016a2.783,2.783,0,0,1-.176.31l-.892,1.27Zm1.9-.793a1.045,1.045,0,0,1,.709.224.763.763,0,0,1,.26.612.882.882,0,0,1-.283.7,1.123,1.123,0,0,1-.777.252,1.435,1.435,0,0,1-.737-.154v-.313a1.133,1.133,0,0,0,.34.139,1.745,1.745,0,0,0,.4.049.8.8,0,0,0,.533-.162.583.583,0,0,0,.191-.469q0-.6-.732-.6a2.894,2.894,0,0,0-.5.057l-.168-.108.107-1.335h1.42v.3h-1.143l-.072.858A2.274,2.274,0,0,1,541.647,135.256Z" transform="translate(1669 -356)"/>
    <path id="Path_1063" data-name="Path 1063" d="M555.827,137h-.316v-2.035c0-.169.005-.33.015-.481-.027.028-.058.056-.091.086s-.189.157-.465.381l-.172-.222.756-.584h.273Zm2.033-2.9a.966.966,0,0,1,.619.181.6.6,0,0,1,.229.5.627.627,0,0,1-.131.385,1.147,1.147,0,0,1-.418.316,1.385,1.385,0,0,1,.494.35.652.652,0,0,1,.147.422.712.712,0,0,1-.248.568,1.016,1.016,0,0,1-.68.211,1.09,1.09,0,0,1-.7-.2.694.694,0,0,1-.246-.569.846.846,0,0,1,.6-.763,1.112,1.112,0,0,1-.387-.328.708.708,0,0,1-.117-.4.6.6,0,0,1,.228-.494A.951.951,0,0,1,557.86,134.1Zm-.617,2.175a.445.445,0,0,0,.162.366.722.722,0,0,0,.459.13.683.683,0,0,0,.453-.136.464.464,0,0,0,.162-.375.45.45,0,0,0-.152-.336,1.523,1.523,0,0,0-.531-.287,1.137,1.137,0,0,0-.422.277A.533.533,0,0,0,557.243,136.279Zm.613-1.912a.574.574,0,0,0-.382.117.388.388,0,0,0-.139.313.443.443,0,0,0,.115.308,1.207,1.207,0,0,0,.426.258,1.058,1.058,0,0,0,.4-.252.464.464,0,0,0,.117-.314.382.382,0,0,0-.143-.313A.59.59,0,0,0,557.856,134.367Zm1.45,2.426a.29.29,0,0,1,.058-.2.218.218,0,0,1,.172-.069.225.225,0,0,1,.176.069.332.332,0,0,1,0,.392.23.23,0,0,1-.176.069.239.239,0,0,1-.166-.061A.273.273,0,0,1,559.306,136.793Zm0-1.725c0-.175.076-.263.23-.263s.24.088.24.263a.275.275,0,0,1-.064.2.259.259,0,0,1-.342.007A.272.272,0,0,1,559.306,135.068Zm2.857.5a2.083,2.083,0,0,1-.234,1.106.862.862,0,0,1-1.414-.008,2.042,2.042,0,0,1-.241-1.1,2.083,2.083,0,0,1,.233-1.107.862.862,0,0,1,1.414.016A2.031,2.031,0,0,1,562.163,135.568Zm-1.56,0a2.1,2.1,0,0,0,.146.909.527.527,0,0,0,.936,0,2.116,2.116,0,0,0,.146-.905,2.084,2.084,0,0,0-.146-.9.527.527,0,0,0-.936,0A2.067,2.067,0,0,0,560.6,135.568Zm3.849,0a2.083,2.083,0,0,1-.234,1.106.862.862,0,0,1-1.414-.008,2.051,2.051,0,0,1-.241-1.1,2.083,2.083,0,0,1,.233-1.107.862.862,0,0,1,1.414.016A2.031,2.031,0,0,1,564.452,135.568Zm-1.56,0a2.1,2.1,0,0,0,.146.909.527.527,0,0,0,.936,0,2.116,2.116,0,0,0,.146-.905,2.084,2.084,0,0,0-.146-.9.527.527,0,0,0-.936,0A2.067,2.067,0,0,0,562.892,135.568Z" transform="translate(1669 -356)"/>
  </g>
</svg>
