<svg xmlns="http://www.w3.org/2000/svg" width="27.055" height="19" viewBox="0 0 27.055 19">
  <g id="Group_5" data-name="Group 5" transform="translate(-233 -210)">
    <path id="Path_693" data-name="Path 693" d="M373.122,237.354c0-4.813,0-4.852.609-5.177a41.172,41.172,0,0,1,7.571-.005,1.512,1.512,0,0,1,.331.186c.371.306.367,1.02.367,4.881,0,4.626-.008,4.7-.551,5.072a1.3,1.3,0,0,1-.628.163h-.392l-.034,2.38c-.033,2.365-.035,2.384-.33,2.978a3.846,3.846,0,0,1-.772,1.012c-.819.714-1.119.774-4.106.824l-2.637.044-.4.453A2.648,2.648,0,0,1,369.9,251a2.619,2.619,0,0,1-1.451-.294c-.761-.37-1.086-.8-1.086-1.432,0-1.016,1.044-1.726,2.537-1.726a2.644,2.644,0,0,1,2.257.845l.412.462h2.59c2.914,0,3.068-.029,3.776-.73.651-.645.752-1.145.718-3.567l-.029-2.031-1.59-.029-1.591-.029-.112.761a3.685,3.685,0,0,1-2.13,2.989,2.926,2.926,0,0,1-1.5.28,2.808,2.808,0,0,1-1.492-.273,3.658,3.658,0,0,1-2.171-3.042c-.065-.69-.073-.706-.435-.824a2.9,2.9,0,0,1-1.412-1.3,2.43,2.43,0,0,1,.462-2.58,2.5,2.5,0,0,1,3.393-.108,2.4,2.4,0,0,1-.918,4.018l-.406.121.072.582a2.86,2.86,0,0,0,2.854,2.666,2.548,2.548,0,0,0,1.936-.711,2.826,2.826,0,0,0,.97-2.027v-.549H374.7c-.833,0-.866-.009-1.216-.355l-.359-.356Zm-2.114,2.767a1.519,1.519,0,0,0-.848-1.439,1.682,1.682,0,0,0-2.155.583,1.706,1.706,0,0,0,0,1.7A1.621,1.621,0,0,0,371.008,240.121Zm-1.942.132c-.1-.15-.026-.27.407-.706.54-.542.784-.633,1-.375.161.193.046.406-.5.932C369.533,240.524,369.266,240.568,369.066,240.253Zm11.755-5.878c0-1.9-1.86-1.742-2.789-1.425a2.389,2.389,0,0,0-.333.036c0,.034,1.988.066,2.281,1.389.116,1.742.208,5.415-.358,6.175-.373.5-1.588.616-2.234.677-.577.055-.7.066.644.273a2.176,2.176,0,0,0,2.789-2.235Z" transform="translate(-134 -22)" fill="#36a0ff" fill-rule="evenodd"/>
    <path id="Path_694" data-name="Path 694" d="M383.468,249.429v-4.583h1.749a3.033,3.033,0,0,1,1.352.273,1.856,1.856,0,0,1,.832.787,2.47,2.47,0,0,1,.286,1.228,2.5,2.5,0,0,1-.286,1.229,1.9,1.9,0,0,1-.832.793,3.034,3.034,0,0,1-1.352.273Zm1.014-.832h.676a1.588,1.588,0,0,0,1.138-.358,1.812,1.812,0,0,0,0-2.21,1.588,1.588,0,0,0-1.138-.357h-.676Zm4.186.832v-3.3h.981v3.3Zm-.039-3.835v-.917h1.053v.917Zm3.353,3.906a1.366,1.366,0,0,1-.754-.208,1.389,1.389,0,0,1-.507-.591,2.416,2.416,0,0,1,0-1.84,1.338,1.338,0,0,1,.507-.585,1.366,1.366,0,0,1,.754-.208,1.308,1.308,0,0,1,.708.2.878.878,0,0,1,.416.514h-.071l.078-.644h.942c-.013.143-.026.288-.039.436s-.013.283-.013.422v2.438h-.975l-.006-.618h.078a.916.916,0,0,1-.416.5A1.337,1.337,0,0,1,391.982,249.5Zm.3-.741a.689.689,0,0,0,.546-.24,1.113,1.113,0,0,0,.208-.741,1.084,1.084,0,0,0-.208-.735.754.754,0,0,0-1.092,0,1.085,1.085,0,0,0-.208.735,1.142,1.142,0,0,0,.2.741A.7.7,0,0,0,392.281,248.759Z" transform="translate(-134 -22)" fill="#36a0ff"/>
  </g>
</svg>
