<svg xmlns="http://www.w3.org/2000/svg" width="423" height="20.291" viewBox="0 0 423 20.291">
  <g id="ecg-line" transform="translate(-1191 -638.75)">
    <rect id="Rectangle_119" data-name="Rectangle 119" width="423" height="20" rx="2" transform="translate(1191 639)" fill="#bce6fd" opacity="0.24"/>
    <path id="Path_630" data-name="Path 630" d="M147.511,389H569.489" transform="translate(1044 250)" fill="none" stroke="#00549f" stroke-width="0.5" stroke-dasharray="1 1" opacity="0.12"/>
    <path id="Path_631" data-name="Path 631" d="M147.511,390.041H569.489" transform="translate(1044 250)" fill="none" stroke="#00549f" stroke-width="0.5" stroke-dasharray="1 1" opacity="0.12"/>
    <path id="Path_632" data-name="Path 632" d="M147.511,391.084H569.489" transform="translate(1044 250)" fill="none" stroke="#00549f" stroke-width="0.5" stroke-dasharray="1 1" opacity="0.12"/>
    <path id="Path_633" data-name="Path 633" d="M147.511,392.125H569.489" transform="translate(1044 250)" fill="none" stroke="#00549f" stroke-width="0.5" stroke-dasharray="1 1" opacity="0.12"/>
    <path id="Path_634" data-name="Path 634" d="M147.511,393.166H569.489" transform="translate(1044 250)" fill="none" stroke="#00549f" stroke-width="0.5" stroke-dasharray="1 1" opacity="0.12"/>
    <path id="Path_635" data-name="Path 635" d="M147.511,394.209H569.489" transform="translate(1044 250)" fill="none" stroke="#00549f" stroke-width="0.5" stroke-dasharray="1 1" opacity="0.12"/>
    <path id="Path_636" data-name="Path 636" d="M147.511,395.25H569.489" transform="translate(1044 250)" fill="none" stroke="#00549f" stroke-width="0.5" stroke-dasharray="1 1" opacity="0.12"/>
    <path id="Path_637" data-name="Path 637" d="M147.511,396.291H569.489" transform="translate(1044 250)" fill="none" stroke="#00549f" stroke-width="0.5" stroke-dasharray="1 1" opacity="0.12"/>
    <path id="Path_638" data-name="Path 638" d="M147.511,397.334H569.489" transform="translate(1044 250)" fill="none" stroke="#00549f" stroke-width="0.5" stroke-dasharray="1 1" opacity="0.12"/>
    <path id="Path_639" data-name="Path 639" d="M147.511,398.375H569.489" transform="translate(1044 250)" fill="none" stroke="#00549f" stroke-width="0.5" stroke-dasharray="1 1" opacity="0.12"/>
    <path id="Path_640" data-name="Path 640" d="M147.511,399.416H569.489" transform="translate(1044 250)" fill="none" stroke="#00549f" stroke-width="0.5" stroke-dasharray="1 1" opacity="0.12"/>
    <path id="Path_641" data-name="Path 641" d="M147.511,400.459H569.489" transform="translate(1044 250)" fill="none" stroke="#00549f" stroke-width="0.5" stroke-dasharray="1 1" opacity="0.12"/>
    <path id="Path_642" data-name="Path 642" d="M147.511,401.5H569.489" transform="translate(1044 250)" fill="none" stroke="#00549f" stroke-width="0.5" stroke-dasharray="1 1" opacity="0.12"/>
    <path id="Path_643" data-name="Path 643" d="M147.511,402.541H569.489" transform="translate(1044 250)" fill="none" stroke="#00549f" stroke-width="0.5" stroke-dasharray="1 1" opacity="0.12"/>
    <path id="Path_644" data-name="Path 644" d="M147.511,403.584H569.489" transform="translate(1044 250)" fill="none" stroke="#00549f" stroke-width="0.5" stroke-dasharray="1 1" opacity="0.12"/>
    <path id="Path_645" data-name="Path 645" d="M147.511,404.625H569.489" transform="translate(1044 250)" fill="none" stroke="#00549f" stroke-width="0.5" stroke-dasharray="1 1" opacity="0.12"/>
    <path id="Path_646" data-name="Path 646" d="M147.511,405.666H569.489" transform="translate(1044 250)" fill="none" stroke="#00549f" stroke-width="0.5" stroke-dasharray="1 1" opacity="0.12"/>
    <path id="Path_647" data-name="Path 647" d="M147.511,406.709H569.489" transform="translate(1044 250)" fill="none" stroke="#00549f" stroke-width="0.5" stroke-dasharray="1 1" opacity="0.12"/>
    <path id="Path_648" data-name="Path 648" d="M147.511,407.75H569.489" transform="translate(1044 250)" fill="none" stroke="#00549f" stroke-width="0.5" stroke-dasharray="1 1" opacity="0.12"/>
    <path id="Path_649" data-name="Path 649" d="M147.511,408.791H569.489" transform="translate(1044 250)" fill="none" stroke="#00549f" stroke-width="0.5" stroke-dasharray="1 1" opacity="0.12"/>
    <path id="Path_650" data-name="Path 650" d="M149,393.661l1-1.994v3.421l1-1.427.626-.284.626.284h.626l1.628-.485h.877l.751.485h1.253l1.878-.284,1.253-.2.626.2,1.628.284.751.421v-2.415l.626.4.126.906.5,1.61v.5l.627-1.912c.041-.134.275-.362.876-.2a6.006,6.006,0,0,0,1.378.2c.417.034,1.3.04,1.5-.2s.918-.3,1.252-.3l1.378.5h1.5v-1.509a11.441,11.441,0,0,1,.877,3.421c-.1.644.292-1.006.5-1.912l1-.2a4.344,4.344,0,0,0,1.127.2,1.678,1.678,0,0,0,1-.5h1.628a7.964,7.964,0,0,0,1,.5,2.541,2.541,0,0,0,1.252.144l1.252-.2,1.879.4,1.377.284h1.879l.5-.429.626.284h1.252l.5-.284.376.284c.084-.4.276-1.27.376-1.592.125-.4.751,2.415.751,3.019,0,.483.418-.75.626-1.427h1.127l.5-.629,1.127-.2,2.129.4,1.754.284H201.6l1.253.144.375.421h.376l.5-.421.877-1.29a15.409,15.409,0,0,1,0,4.428c-.3.8.542-1.476,1-2.717-.083.14.076.336,1.378,0s1.044-.14.751,0l1.127-.7,1.253.284h1.127l.626.421h1.252l.877-.421h1.252l1.127.421h2.5l.376.5.751-.5.376-1.107v-.6c.25.8.676,2.476.376,2.717a2.477,2.477,0,0,1,.5,1.107c-.042-.845-.025-2.534.375-2.534.5,0,1.378.421,2,.421a8.8,8.8,0,0,0,2.254-.7H227.4l1.127-.2,1.128.2a.993.993,0,0,1,.375-.546,5.237,5.237,0,0,1,1.253-.6h1.377l.752.6h.751v.2h2.63l.626.2.752.428.751.421h2.192l.563.5.751-.5.376-1.107.376.2.376,2.516c.041-.537.2-1.61.5-1.61a4.919,4.919,0,0,1,1.377.5l.877.5.876-.5a1.607,1.607,0,0,1,1.253-.5,4.877,4.877,0,0,1,1.878.5h1.879l.375-.5v.5h1l1.127.5.627.4h.5l.375.2.376-1.61v-.421l.626,1.427V397l.751-1.308c0-.067.151-.2.752-.2a15.873,15.873,0,0,1,2,.2l1-.6h1.128l.626.6c.459.067,1.427.265,1.628-.057s.835-.4,1.127-.4h.376l.876.4h.626l1.5-.144.376.7h1.378a7.74,7.74,0,0,1,.688-2.113,8.743,8.743,0,0,1,.94,2.113l.375-1.107.626.288.251-.2h.877l1.753-.3.751-.923,1.378-.486,3.256-.288,2.184-1.509v3.421l1-1.427.626-.284.627.284h.626l1.628-.485h.876l.752.485h1.252l1.879-.284,1.252-.2.626.2,1.628.284.752.421v-2.415l.626.4.125.906.5,1.61v.5l.626-1.912c.042-.134.276-.362.877-.2a6.006,6.006,0,0,0,1.377.2c.418.034,1.3.04,1.5-.2s.919-.3,1.253-.3l1.377.5h1.5v-1.509a11.441,11.441,0,0,1,.877,3.421c-.1.644.292-1.006.5-1.912l1-.2a4.352,4.352,0,0,0,1.127.2,1.678,1.678,0,0,0,1-.5h1.628a7.964,7.964,0,0,0,1,.5,2.545,2.545,0,0,0,1.253.144l1.252-.2,1.878.4,1.378.284h1.879l.5-.429.627.284h1.252l.5-.284.376.284c.083-.4.275-1.27.375-1.592.126-.4.752,2.415.752,3.019,0,.483.417-.75.626-1.427h1.127l.5-.629,1.127-.2,2.129.4,1.753.284h1.879l1.252.144.376.421h.375l.5-.421.877-1.29a16.346,16.346,0,0,1,.023,4.36m0,0c-.007.024-.015.046-.023.068C339.311,397.066,339.338,396.993,339.434,396.731Zm0,0c.194-.527.672-1.82.979-2.649-.084.14.075.336,1.378,0,.841-.218,1.031-.212.981-.144m0,0a.8.8,0,0,1-.23.144Zm0,0,.9-.561,1.252.284h1.127l.627.421h1.252l.877-.421h1.252l1.127.421h2.5l.375.5.752-.5.376-1.107v-.6c.25.8.676,2.476.375,2.717a2.465,2.465,0,0,1,.5,1.107c-.042-.845-.025-2.534.376-2.534.5,0,1.377.421,2,.421a8.81,8.81,0,0,0,2.254-.7h1.127l1.127-.2,1.127.2a.991.991,0,0,1,.376-.546,5.231,5.231,0,0,1,1.252-.6h1.378l.751.6h.752v.2h2.629l.627.2.751.428.751.421h2.192l.564.5.751-.5.376-1.107.375.2.376,2.516c.042-.537.2-1.61.5-1.61a4.914,4.914,0,0,1,1.378.5l.876.5.877-.5a1.6,1.6,0,0,1,1.252-.5,4.878,4.878,0,0,1,1.879.5h1.878l.376-.5v.5h1l1.127.5.626.4h.5l.376.2.375-1.61v-.421l.627,1.427V397l.751-1.308c0-.067.15-.2.751-.2a15.834,15.834,0,0,1,2,.2l1-.6h1.127l.626.6c.46.067,1.428.265,1.628-.057s.835-.4,1.127-.4h.376l.877.4h.626l1.5-.144.375.7h1.378a7.767,7.767,0,0,1,.689-2.113,8.752,8.752,0,0,1,.939,2.113l.376-1.107.626.288.25-.2h.877l1.753-.3.752-.923,1.377-.486,3.256-.288.608-2.176v4.088l1-1.427.626-.284.626.284h.626l1.628-.485h.877l.752.485h1.252l1.878-.284,1.253-.2.626.2,1.628.284.751.421v-2.415l.626.4.126.906.5,1.61v.5l.626-1.912c.042-.134.275-.362.876-.2a6.013,6.013,0,0,0,1.378.2c.417.034,1.3.04,1.5-.2s.918-.3,1.252-.3l1.378.5h1.5v-1.509a11.438,11.438,0,0,1,.876,3.421c-.1.644.292-1.006.5-1.912l1-.2a4.344,4.344,0,0,0,1.127.2,1.678,1.678,0,0,0,1-.5h1.628a7.967,7.967,0,0,0,1,.5,2.542,2.542,0,0,0,1.252.144l1.253-.2,1.878.4,1.378.284h1.878l.5-.429.626.284h1.253l.5-.284.375.284c.084-.4.276-1.27.376-1.592.125-.4.751,2.415.751,3.019,0,.483.418-.75.626-1.427H461.5l.5-.629,1.127-.2,2.129.4,1.753.284h1.878l1.253.144.375.421h.376l.5-.421.877-1.29a15.408,15.408,0,0,1,0,4.428c-.3.8.542-1.476,1-2.717-.084.14.075.336,1.377,0s1.044-.14.752,0l1.127-.7,1.252.284H478.9l.626.421h1.253l.876-.421h1.253l1.127.421h2.5l.376.5.751-.5.376-1.107v-.6c.251.8.676,2.476.376,2.717a2.476,2.476,0,0,1,.5,1.107c-.042-.845-.025-2.534.376-2.534.5,0,1.377.421,2,.421a8.8,8.8,0,0,0,2.254-.7h1.128l1.127-.2,1.127.2a.993.993,0,0,1,.375-.546,5.255,5.255,0,0,1,1.253-.6h1.377l.752.6h.751v.2h2.63l.626.2.752.428.751.421H508.4l.563.5.752-.5.375-1.107.376.2.376,2.516c.042-.537.2-1.61.5-1.61a4.919,4.919,0,0,1,1.377.5l.877.5.877-.5a1.6,1.6,0,0,1,1.252-.5,4.877,4.877,0,0,1,1.878.5h1.879l.376-.5v.5h1l1.128.5.626.4h.5l.375.2.376-1.61v-.421l.626,1.427V397l.752-1.308c0-.067.15-.2.751-.2a15.872,15.872,0,0,1,2,.2l1-.6h1.127l.626.6c.459.067,1.428.265,1.628-.057s.835-.4,1.127-.4h.376l.876.4h.627l1.5-.144.376.7h1.378a7.775,7.775,0,0,1,.688-2.113,8.742,8.742,0,0,1,.94,2.113l.375-1.107.627.288.25-.2h.877l1.753-.3.751-.923,1.378-.486,3.256-.288,2.185-1.509v3.421l1-1.427.627-.284.626.284h.626l1.628-.485h.877l.751.485h1.252l1.879-.284,1.252-.2.626.2,1.628.284.752.421v-2.415l.626.4.125.906.5,1.61v.5l.626-1.912c.042-.134.276-.362.877-.2" transform="translate(1044 250)" fill="none" stroke="#00549f" stroke-linejoin="round" stroke-width="0.5"/>
    <path id="Path_651" data-name="Path 651" d="M149,402.661l1-1.994v3.421l1-1.427.626-.284.626.284h.626l1.628-.485h.877l.751.485h1.253l1.878-.284,1.253-.2.626.2,1.628.284.751.421v-2.415l.626.4.126.906.5,1.61v.5l.627-1.912c.041-.134.275-.362.876-.2a6.006,6.006,0,0,0,1.378.2c.417.034,1.3.04,1.5-.2s.918-.3,1.252-.3l1.378.5h1.5v-1.509a11.441,11.441,0,0,1,.877,3.421c-.1.644.292-1.006.5-1.912l1-.2a4.344,4.344,0,0,0,1.127.2,1.678,1.678,0,0,0,1-.5h1.628a7.964,7.964,0,0,0,1,.5,2.541,2.541,0,0,0,1.252.144l1.252-.2,1.879.4,1.377.284h1.879l.5-.429.626.284h1.252l.5-.284.376.284c.084-.4.276-1.27.376-1.592.125-.4.751,2.415.751,3.019,0,.483.418-.75.626-1.427h1.127l.5-.629,1.127-.2,2.129.4,1.754.284H201.6l1.253.144.375.421h.376l.5-.421.877-1.29a15.409,15.409,0,0,1,0,4.428c-.3.8.542-1.476,1-2.717-.083.14.076.336,1.378,0s1.044-.14.751,0l1.127-.7,1.253.284h1.127l.626.421h1.252l.877-.421h1.252l1.127.421h2.5l.376.5.751-.5.376-1.107v-.6c.25.8.676,2.476.376,2.717a2.477,2.477,0,0,1,.5,1.107c-.042-.845-.025-2.534.375-2.534.5,0,1.378.421,2,.421a8.8,8.8,0,0,0,2.254-.7H227.4l1.127-.2,1.128.2a.993.993,0,0,1,.375-.546,5.237,5.237,0,0,1,1.253-.6h1.377l.752.6h.751v.2h2.63l.626.2.752.428.751.421h2.192l.563.5.751-.5.376-1.107.376.2.376,2.516c.041-.537.2-1.61.5-1.61a4.919,4.919,0,0,1,1.377.5l.877.5.876-.5a1.607,1.607,0,0,1,1.253-.5,4.877,4.877,0,0,1,1.878.5h1.879l.375-.5v.5h1l1.127.5.627.4h.5l.375.2.376-1.61v-.421l.626,1.427V406l.751-1.308c0-.067.151-.2.752-.2a15.873,15.873,0,0,1,2,.2l1-.6h1.128l.626.6c.459.067,1.427.265,1.628-.057s.835-.4,1.127-.4h.376l.876.4h.626l1.5-.144.376.7h1.378a7.74,7.74,0,0,1,.688-2.113,8.743,8.743,0,0,1,.94,2.113l.375-1.107.626.288.251-.2h.877l1.753-.3.751-.923,1.378-.486,3.256-.288,2.184-1.509v3.421l1-1.427.626-.284.627.284h.626l1.628-.485h.876l.752.485h1.252l1.879-.284,1.252-.2.626.2,1.628.284.752.421v-2.415l.626.4.125.906.5,1.61v.5l.626-1.912c.042-.134.276-.362.877-.2a6.006,6.006,0,0,0,1.377.2c.418.034,1.3.04,1.5-.2s.919-.3,1.253-.3l1.377.5h1.5v-1.509a11.441,11.441,0,0,1,.877,3.421c-.1.644.292-1.006.5-1.912l1-.2a4.352,4.352,0,0,0,1.127.2,1.678,1.678,0,0,0,1-.5h1.628a7.964,7.964,0,0,0,1,.5,2.545,2.545,0,0,0,1.253.144l1.252-.2,1.878.4,1.378.284h1.879l.5-.429.627.284h1.252l.5-.284.376.284c.083-.4.275-1.27.375-1.592.126-.4.752,2.415.752,3.019,0,.483.417-.75.626-1.427h1.127l.5-.629,1.127-.2,2.129.4,1.753.284h1.879l1.252.144.376.421h.375l.5-.421.877-1.29a16.346,16.346,0,0,1,.023,4.36m0,0c-.007.024-.015.046-.023.068C339.311,406.066,339.338,405.993,339.434,405.731Zm0,0c.194-.527.672-1.82.979-2.649-.084.14.075.336,1.378,0,.841-.218,1.031-.212.981-.144m0,0a.8.8,0,0,1-.23.144Zm0,0,.9-.561,1.252.284h1.127l.627.421h1.252l.877-.421h1.252l1.127.421h2.5l.375.5.752-.5.376-1.107v-.6c.25.8.676,2.476.375,2.717a2.465,2.465,0,0,1,.5,1.107c-.042-.845-.025-2.534.376-2.534.5,0,1.377.421,2,.421a8.81,8.81,0,0,0,2.254-.7h1.127l1.127-.2,1.127.2a.991.991,0,0,1,.376-.546,5.231,5.231,0,0,1,1.252-.6h1.378l.751.6h.752v.2h2.629l.627.2.751.428.751.421h2.192l.564.5.751-.5.376-1.107.375.2.376,2.516c.042-.537.2-1.61.5-1.61a4.914,4.914,0,0,1,1.378.5l.876.5.877-.5a1.6,1.6,0,0,1,1.252-.5,4.878,4.878,0,0,1,1.879.5h1.878l.376-.5v.5h1l1.127.5.626.4h.5l.376.2.375-1.61v-.421l.627,1.427V406l.751-1.308c0-.067.15-.2.751-.2a15.834,15.834,0,0,1,2,.2l1-.6h1.127l.626.6c.46.067,1.428.265,1.628-.057s.835-.4,1.127-.4h.376l.877.4h.626l1.5-.144.375.7h1.378a7.767,7.767,0,0,1,.689-2.113,8.752,8.752,0,0,1,.939,2.113l.376-1.107.626.288.25-.2h.877l1.753-.3.752-.923,1.377-.486,3.256-.288.608-2.176v4.088l1-1.427.626-.284.626.284h.626l1.628-.485h.877l.752.485h1.252l1.878-.284,1.253-.2.626.2,1.628.284.751.421v-2.415l.626.4.126.906.5,1.61v.5l.626-1.912c.042-.134.275-.362.876-.2a6.013,6.013,0,0,0,1.378.2c.417.034,1.3.04,1.5-.2s.918-.3,1.252-.3l1.378.5h1.5v-1.509a11.438,11.438,0,0,1,.876,3.421c-.1.644.292-1.006.5-1.912l1-.2a4.344,4.344,0,0,0,1.127.2,1.678,1.678,0,0,0,1-.5h1.628a7.967,7.967,0,0,0,1,.5,2.542,2.542,0,0,0,1.252.144l1.253-.2,1.878.4,1.378.284h1.878l.5-.429.626.284h1.253l.5-.284.375.284c.084-.4.276-1.27.376-1.592.125-.4.751,2.415.751,3.019,0,.483.418-.75.626-1.427H461.5l.5-.629,1.127-.2,2.129.4,1.753.284h1.878l1.253.144.375.421h.376l.5-.421.877-1.29a15.408,15.408,0,0,1,0,4.428c-.3.8.542-1.476,1-2.717-.084.14.075.336,1.377,0s1.044-.14.752,0l1.127-.7,1.252.284H478.9l.626.421h1.253l.876-.421h1.253l1.127.421h2.5l.376.5.751-.5.376-1.107v-.6c.251.8.676,2.476.376,2.717a2.476,2.476,0,0,1,.5,1.107c-.042-.845-.025-2.534.376-2.534.5,0,1.377.421,2,.421a8.8,8.8,0,0,0,2.254-.7h1.128l1.127-.2,1.127.2a.993.993,0,0,1,.375-.546,5.255,5.255,0,0,1,1.253-.6h1.377l.752.6h.751v.2h2.63l.626.2.752.428.751.421H508.4l.563.5.752-.5.375-1.107.376.2.376,2.516c.042-.537.2-1.61.5-1.61a4.919,4.919,0,0,1,1.377.5l.877.5.877-.5a1.6,1.6,0,0,1,1.252-.5,4.877,4.877,0,0,1,1.878.5h1.879l.376-.5v.5h1l1.128.5.626.4h.5l.375.2.376-1.61v-.421l.626,1.427V406l.752-1.308c0-.067.15-.2.751-.2a15.872,15.872,0,0,1,2,.2l1-.6h1.127l.626.6c.459.067,1.428.265,1.628-.057s.835-.4,1.127-.4h.376l.876.4h.627l1.5-.144.376.7h1.378a7.775,7.775,0,0,1,.688-2.113,8.742,8.742,0,0,1,.94,2.113l.375-1.107.627.288.25-.2h.877l1.753-.3.751-.923,1.378-.486,3.256-.288,2.185-1.509v3.421l1-1.427.627-.284.626.284h.626l1.628-.485h.877l.751.485h1.252l1.879-.284,1.252-.2.626.2,1.628.284.752.421v-2.415l.626.4.125.906.5,1.61v.5l.626-1.912c.042-.134.276-.362.877-.2" transform="translate(1044 250)" fill="none" stroke="#00549f" stroke-linejoin="round" stroke-width="0.5"/>
  </g>
</svg>
