<svg xmlns="http://www.w3.org/2000/svg" width="423" height="42.5" viewBox="0 0 423 42.5">
  <g id="ecg-signal" transform="translate(-1191 -593.75)">
    <rect id="Rectangle_120" data-name="Rectangle 120" width="423" height="42" rx="4" transform="translate(1191 594)" fill="#bce6fd" opacity="0.24"/>
    <path id="Path_652" data-name="Path 652" d="M147.511,344H569.489" transform="translate(1044 250)" fill="none" stroke="#00549f" stroke-width="0.5" stroke-dasharray="1 1" opacity="0.12"/>
    <path id="Path_653" data-name="Path 653" d="M147.511,346.21H569.489" transform="translate(1044 250)" fill="none" stroke="#00549f" stroke-width="0.5" stroke-dasharray="1 1" opacity="0.12"/>
    <path id="Path_654" data-name="Path 654" d="M147.511,348.421H569.489" transform="translate(1044 250)" fill="none" stroke="#00549f" stroke-width="0.5" stroke-dasharray="1 1" opacity="0.12"/>
    <path id="Path_655" data-name="Path 655" d="M147.511,350.632H569.489" transform="translate(1044 250)" fill="none" stroke="#00549f" stroke-width="0.5" stroke-dasharray="1 1" opacity="0.12"/>
    <path id="Path_656" data-name="Path 656" d="M147.511,352.842H569.489" transform="translate(1044 250)" fill="none" stroke="#00549f" stroke-width="0.5" stroke-dasharray="1 1" opacity="0.12"/>
    <path id="Path_657" data-name="Path 657" d="M147.511,355.053H569.489" transform="translate(1044 250)" fill="none" stroke="#00549f" stroke-width="0.5" stroke-dasharray="1 1" opacity="0.12"/>
    <path id="Path_658" data-name="Path 658" d="M147.511,357.263H569.489" transform="translate(1044 250)" fill="none" stroke="#00549f" stroke-width="0.5" stroke-dasharray="1 1" opacity="0.12"/>
    <path id="Path_659" data-name="Path 659" d="M147.511,359.473H569.489" transform="translate(1044 250)" fill="none" stroke="#00549f" stroke-width="0.5" stroke-dasharray="1 1" opacity="0.12"/>
    <path id="Path_660" data-name="Path 660" d="M147.511,361.685H569.489" transform="translate(1044 250)" fill="none" stroke="#00549f" stroke-width="0.5" stroke-dasharray="1 1" opacity="0.12"/>
    <path id="Path_661" data-name="Path 661" d="M147.511,363.895H569.489" transform="translate(1044 250)" fill="none" stroke="#00549f" stroke-width="0.5" stroke-dasharray="1 1" opacity="0.12"/>
    <path id="Path_662" data-name="Path 662" d="M147.511,366.105H569.489" transform="translate(1044 250)" fill="none" stroke="#00549f" stroke-width="0.5" stroke-dasharray="1 1" opacity="0.12"/>
    <path id="Path_663" data-name="Path 663" d="M147.511,368.316H569.489" transform="translate(1044 250)" fill="none" stroke="#00549f" stroke-width="0.5" stroke-dasharray="1 1" opacity="0.12"/>
    <path id="Path_664" data-name="Path 664" d="M147.511,370.527H569.489" transform="translate(1044 250)" fill="none" stroke="#00549f" stroke-width="0.5" stroke-dasharray="1 1" opacity="0.12"/>
    <path id="Path_665" data-name="Path 665" d="M147.511,372.737H569.489" transform="translate(1044 250)" fill="none" stroke="#00549f" stroke-width="0.5" stroke-dasharray="1 1" opacity="0.12"/>
    <path id="Path_666" data-name="Path 666" d="M147.511,374.948H569.489" transform="translate(1044 250)" fill="none" stroke="#00549f" stroke-width="0.5" stroke-dasharray="1 1" opacity="0.12"/>
    <path id="Path_667" data-name="Path 667" d="M147.511,377.158H569.489" transform="translate(1044 250)" fill="none" stroke="#00549f" stroke-width="0.5" stroke-dasharray="1 1" opacity="0.12"/>
    <path id="Path_668" data-name="Path 668" d="M147.511,379.368H569.489" transform="translate(1044 250)" fill="none" stroke="#00549f" stroke-width="0.5" stroke-dasharray="1 1" opacity="0.12"/>
    <path id="Path_669" data-name="Path 669" d="M147.511,381.58H569.489" transform="translate(1044 250)" fill="none" stroke="#00549f" stroke-width="0.5" stroke-dasharray="1 1" opacity="0.12"/>
    <path id="Path_670" data-name="Path 670" d="M147.511,383.79H569.489" transform="translate(1044 250)" fill="none" stroke="#00549f" stroke-width="0.5" stroke-dasharray="1 1" opacity="0.12"/>
    <path id="Path_671" data-name="Path 671" d="M147.511,386H569.489" transform="translate(1044 250)" fill="none" stroke="#00549f" stroke-width="0.5" stroke-dasharray="1 1" opacity="0.12"/>
    <path id="Path_672" data-name="Path 672" d="M148,353.74l3.15-3.74v6.415l3.151-2.675,1.969-.532,1.969.532h1.969l5.119-.91h2.757l2.362.91h3.938l5.907-.532,3.938-.378,1.969.378,5.12.532,2.362.788V350l1.969.755.394,1.7,1.575,3.019v.943l1.969-3.585c.132-.251.867-.679,2.757-.377a31.012,31.012,0,0,0,4.332.377c1.312.063,4.1.076,4.725-.377s2.888-.566,3.938-.566l4.332.943H224.4V350c1.05,1.635,3.071,5.208,2.756,6.415s.919-1.887,1.575-3.585l3.151-.377a22.075,22.075,0,0,0,3.544.377,7.006,7.006,0,0,0,3.15-.943h5.12c.525.189,1.89.641,3.15.943a12.061,12.061,0,0,0,3.938,0l3.938-.377,5.907.755,4.332.532h5.907l1.575-.532,1.969.532h3.938l1.575-.532,1.181.532c.263-.743.867-2.381,1.182-2.985.394-.755,2.362,4.528,2.362,5.66,0,.906,1.313-1.406,1.969-2.675h3.545l1.575-.91,3.544-.377,6.7.755,5.513.532h9.845l1.181.788H319.7l1.576-.788,2.756-2.419c.394,2.138.945,6.792,0,8.3s1.707-2.768,3.151-5.095c-.263.263.236.631,4.331,0s3.282-.262,2.363,0l3.544-1.32,3.938.532H344.9l1.969.788H350.8l2.757-.788H357.5l3.544.788h7.876l1.181.944,2.363-.944,1.182-2.075v-1.132c.787,1.509,2.126,4.642,1.181,5.094a4.094,4.094,0,0,1,1.575,2.076c-.131-1.584-.079-4.751,1.182-4.751,1.575,0,4.331.788,6.3.788a42.476,42.476,0,0,0,7.089-1.32h3.544l3.544-.378,3.544.378c0-.063.236-.3,1.182-.755a22.649,22.649,0,0,1,3.938-1.132h4.331l2.363,1.132h2.363v.377h8.27l1.969.378,2.362.532,2.363.788h6.892l1.772.944,2.363-.944,1.181-2.075,1.181.377,1.182,4.717c.131-1.006.63-3.019,1.575-3.019a22.994,22.994,0,0,1,4.332.944l2.756.943,2.757-.943a6.936,6.936,0,0,1,3.938-.944,23.824,23.824,0,0,1,5.907.944h5.907l1.181-.944v.944h3.15l3.545.943,1.969.755h1.575l1.181.377,1.182-3.019v-.788l1.969,2.675V360l2.362-2.453c0-.126.473-.377,2.363-.377s4.988.251,6.3.377l3.15-1.132h3.544l1.969,1.132c1.444.126,4.49.226,5.12-.377s2.625-.755,3.544-.755h1.181l2.757.755h6.694l1.182,1.321h4.332c.525-1.321,1.693-3.963,2.166-3.963s2.165,2.642,2.953,3.963l1.181-2.076h1.969l.788-.377h2.757l5.513-.566,2.363-1.732,4.331-.91H567" transform="translate(1044 250)" fill="none" stroke="#00549f" stroke-linejoin="round" stroke-width="0.5"/>
    <path id="Path_673" data-name="Path 673" d="M148,369.74l3.15-3.74v6.415l3.151-2.675,1.969-.532,1.969.532h1.969l5.119-.91h2.757l2.362.91h3.938l5.907-.532,3.938-.378,1.969.378,5.12.532,2.362.788V366l1.969.755.394,1.7,1.575,3.019v.943l1.969-3.585c.132-.251.867-.679,2.757-.377a31.012,31.012,0,0,0,4.332.377c1.312.063,4.1.076,4.725-.377s2.888-.566,3.938-.566l4.332.943H224.4V366c1.05,1.635,3.071,5.208,2.756,6.415s.919-1.887,1.575-3.585l3.151-.377a22.075,22.075,0,0,0,3.544.377,7.006,7.006,0,0,0,3.15-.943h5.12c.525.189,1.89.641,3.15.943a12.061,12.061,0,0,0,3.938,0l3.938-.377,5.907.755,4.332.532h5.907l1.575-.532,1.969.532h3.938l1.575-.532,1.181.532c.263-.743.867-2.381,1.182-2.985.394-.755,2.362,4.528,2.362,5.66,0,.906,1.313-1.406,1.969-2.675h3.545l1.575-.91,3.544-.377,6.7.755,5.513.532h9.845l1.181.788H319.7l1.576-.788,2.756-2.419c.394,2.138.945,6.792,0,8.3s1.707-2.768,3.151-5.095c-.263.263.236.631,4.331,0s3.282-.262,2.363,0l3.544-1.32,3.938.532H344.9l1.969.788H350.8l2.757-.788H357.5l3.544.788h7.876l1.181.944,2.363-.944,1.182-2.075v-1.132c.787,1.509,2.126,4.642,1.181,5.094a4.094,4.094,0,0,1,1.575,2.076c-.131-1.584-.079-4.751,1.182-4.751,1.575,0,4.331.788,6.3.788a42.476,42.476,0,0,0,7.089-1.32h3.544l3.544-.378,3.544.378c0-.063.236-.3,1.182-.755a22.649,22.649,0,0,1,3.938-1.132h4.331l2.363,1.132h2.363v.377h8.27l1.969.378,2.362.532,2.363.788h6.892l1.772.944,2.363-.944,1.181-2.075,1.181.377,1.182,4.717c.131-1.006.63-3.019,1.575-3.019a22.994,22.994,0,0,1,4.332.944l2.756.943,2.757-.943a6.936,6.936,0,0,1,3.938-.944,23.824,23.824,0,0,1,5.907.944h5.907l1.181-.944v.944h3.15l3.545.943,1.969.755h1.575l1.181.377,1.182-3.019v-.788l1.969,2.675V376l2.362-2.453c0-.126.473-.377,2.363-.377s4.988.251,6.3.377l3.15-1.132h3.544l1.969,1.132c1.444.126,4.49.226,5.12-.377s2.625-.755,3.544-.755h1.181l2.757.755h6.694l1.182,1.321h4.332c.525-1.321,1.693-3.963,2.166-3.963s2.165,2.642,2.953,3.963l1.181-2.076h1.969l.788-.377h2.757l5.513-.566,2.363-1.732,4.331-.91H567" transform="translate(1044 250)" fill="none" stroke="#00549f" stroke-linejoin="round" stroke-width="0.5"/>
    <path id="Path_674" data-name="Path 674" d="M151.992,349h-1.615v-2.855h1.615v.394h-1.148v.777h1.076v.391h-1.076v.9h1.148Zm1.834-2.5a.771.771,0,0,0-.633.285,1.5,1.5,0,0,0-.009,1.582.783.783,0,0,0,.642.27,1.7,1.7,0,0,0,.352-.036c.113-.024.231-.056.353-.093v.4a2.134,2.134,0,0,1-.761.127,1.218,1.218,0,0,1-.963-.379,1.592,1.592,0,0,1-.336-1.088,1.766,1.766,0,0,1,.162-.779,1.172,1.172,0,0,1,.472-.512,1.434,1.434,0,0,1,.725-.177,1.806,1.806,0,0,1,.809.183l-.168.389a2.247,2.247,0,0,0-.307-.119A1.049,1.049,0,0,0,153.826,346.5Zm2.488.947h1.051v1.434a3.09,3.09,0,0,1-.5.119,3.54,3.54,0,0,1-.512.035,1.292,1.292,0,0,1-1-.383,1.55,1.55,0,0,1-.351-1.084,1.442,1.442,0,0,1,.4-1.078,1.492,1.492,0,0,1,1.092-.39,2.138,2.138,0,0,1,.848.171l-.164.389a1.649,1.649,0,0,0-.7-.16.937.937,0,0,0-.722.287,1.111,1.111,0,0,0-.266.785,1.184,1.184,0,0,0,.238.8.874.874,0,0,0,.69.272,2.247,2.247,0,0,0,.484-.057v-.736h-.592ZM160.863,349l-.285-.793h-1.092l-.279.793h-.492l1.068-2.867h.508L161.359,349Zm-.408-1.2-.267-.778c-.02-.052-.047-.134-.083-.246s-.057-.194-.07-.246a4.353,4.353,0,0,1-.154.526l-.258.744Z" transform="translate(1044 250)" fill="#002444"/>
    <path id="Path_675" data-name="Path 675" d="M195.756,349h-.572l-1.4-2.275h-.015l.009.127q.029.363.028.664V349h-.424v-2.855h.566l1.4,2.263h.011c0-.03-.007-.138-.015-.326s-.012-.336-.012-.441v-1.5h.428Z" transform="translate(1044 250)" fill="#002444"/>
    <path id="Path_676" data-name="Path 676" d="M225.756,349h-.572l-1.4-2.275h-.015l.009.127q.029.363.028.664V349h-.424v-2.855h.566l1.4,2.263h.011c0-.03-.007-.138-.015-.326s-.012-.336-.012-.441v-1.5h.428Z" transform="translate(1044 250)" fill="#002444"/>
    <path id="Path_677" data-name="Path 677" d="M151.992,363h-1.615v-2.855h1.615v.394h-1.148v.777h1.076v.391h-1.076v.9h1.148Zm1.834-2.5a.771.771,0,0,0-.633.285,1.5,1.5,0,0,0-.009,1.582.783.783,0,0,0,.642.27,1.7,1.7,0,0,0,.352-.036c.113-.024.231-.056.353-.093v.4a2.134,2.134,0,0,1-.761.127,1.218,1.218,0,0,1-.963-.379,1.592,1.592,0,0,1-.336-1.088,1.766,1.766,0,0,1,.162-.779,1.172,1.172,0,0,1,.472-.512,1.434,1.434,0,0,1,.725-.177,1.806,1.806,0,0,1,.809.183l-.168.389a2.247,2.247,0,0,0-.307-.119A1.049,1.049,0,0,0,153.826,360.5Zm2.488.947h1.051v1.434a3.09,3.09,0,0,1-.5.119,3.54,3.54,0,0,1-.512.035,1.292,1.292,0,0,1-1-.383,1.55,1.55,0,0,1-.351-1.084,1.442,1.442,0,0,1,.4-1.078,1.492,1.492,0,0,1,1.092-.39,2.138,2.138,0,0,1,.848.171l-.164.389a1.649,1.649,0,0,0-.7-.16.937.937,0,0,0-.722.287,1.111,1.111,0,0,0-.266.785,1.184,1.184,0,0,0,.238.8.874.874,0,0,0,.69.272,2.247,2.247,0,0,0,.484-.057v-.736h-.592Zm2.778-1.306h.847a1.609,1.609,0,0,1,.852.171.6.6,0,0,1,.264.543.656.656,0,0,1-.129.416.573.573,0,0,1-.371.209v.02a.732.732,0,0,1,.441.225.668.668,0,0,1,.143.451.734.734,0,0,1-.27.6,1.151,1.151,0,0,1-.746.217h-1.031Zm.467,1.179h.449a.771.771,0,0,0,.428-.092.359.359,0,0,0,.134-.316.317.317,0,0,0-.146-.291.9.9,0,0,0-.461-.09h-.4Zm0,.379v.9h.5a.731.731,0,0,0,.441-.111.416.416,0,0,0,.15-.355.374.374,0,0,0-.152-.33.8.8,0,0,0-.463-.108Z" transform="translate(1044 250)" fill="#002444"/>
    <path id="Path_678" data-name="Path 678" d="M192.625,362l1.411-3.059h-1.855v-.505h2.468v.4l-1.4,3.164Zm4.871,0h-2.42v-.435l.921-.925a7.768,7.768,0,0,0,.539-.591,1.378,1.378,0,0,0,.2-.329.884.884,0,0,0,.061-.33.5.5,0,0,0-.146-.381.554.554,0,0,0-.4-.139,1.066,1.066,0,0,0-.4.076,1.831,1.831,0,0,0-.442.273l-.31-.378a1.988,1.988,0,0,1,.578-.357,1.694,1.694,0,0,1,.6-.105,1.171,1.171,0,0,1,.8.262.874.874,0,0,1,.3.7,1.206,1.206,0,0,1-.088.459,1.82,1.82,0,0,1-.266.449,6,6,0,0,1-.6.623l-.62.6v.025h1.7Z" transform="translate(1044 250)" fill="#002444"/>
    <path id="Path_679" data-name="Path 679" d="M223.431,359.771a1.221,1.221,0,0,1,.854.286,1,1,0,0,1,.315.778,1.141,1.141,0,0,1-.359.894,1.469,1.469,0,0,1-1.015.32,1.917,1.917,0,0,1-.94-.193v-.52a1.682,1.682,0,0,0,.454.173,2.044,2.044,0,0,0,.476.061.883.883,0,0,0,.591-.173.632.632,0,0,0,.2-.508q0-.639-.815-.639a2.055,2.055,0,0,0-.283.024c-.113.015-.211.032-.3.051l-.256-.151.137-1.743h1.855v.51H223l-.081.884.208-.034A2,2,0,0,1,223.431,359.771Zm4.065.444a2.524,2.524,0,0,1-.3,1.382,1.128,1.128,0,0,1-1.816-.014,2.5,2.5,0,0,1-.308-1.368,2.558,2.558,0,0,1,.3-1.391,1.131,1.131,0,0,1,1.819.019A2.514,2.514,0,0,1,227.5,360.215Zm-1.844,0a2.629,2.629,0,0,0,.149,1.043.525.525,0,0,0,.962-.005,3.572,3.572,0,0,0,0-2.075.522.522,0,0,0-.962-.008A2.647,2.647,0,0,0,225.652,360.215Zm2.29.264q0-2.094,1.707-2.1a2.1,2.1,0,0,1,.454.042v.478a1.548,1.548,0,0,0-.43-.053,1.124,1.124,0,0,0-.861.307,1.488,1.488,0,0,0-.313.987h.029a.782.782,0,0,1,.323-.306,1.031,1.031,0,0,1,.488-.11.974.974,0,0,1,.757.3,1.159,1.159,0,0,1,.271.808,1.227,1.227,0,0,1-.315.889,1.13,1.13,0,0,1-.855.325,1.134,1.134,0,0,1-1.1-.72A2.156,2.156,0,0,1,227.942,360.479Zm1.246,1.1a.559.559,0,0,0,.454-.19.824.824,0,0,0,.161-.545.715.715,0,0,0-.152-.483.556.556,0,0,0-.449-.176.734.734,0,0,0-.342.081.61.61,0,0,0-.246.217.507.507,0,0,0-.091.281.913.913,0,0,0,.186.581A.588.588,0,0,0,229.188,361.575Z" transform="translate(1044 250)" fill="#002444"/>
    <path id="Path_680" data-name="Path 680" d="M177.207,383.344h-.424V384h-.31v-.656h-1.389v-.283l1.355-1.932h.344v1.92h.424Zm-.734-.295V382.1q0-.281.019-.631h-.015a3.139,3.139,0,0,1-.176.31l-.893,1.27Zm2.9-.481a2.083,2.083,0,0,1-.234,1.106.862.862,0,0,1-1.414-.008,2.042,2.042,0,0,1-.241-1.1,2.083,2.083,0,0,1,.233-1.107.862.862,0,0,1,1.414.016A2.03,2.03,0,0,1,179.377,382.568Zm-1.561,0a2.1,2.1,0,0,0,.147.909.526.526,0,0,0,.935,0,2.1,2.1,0,0,0,.147-.9,2.066,2.066,0,0,0-.147-.9.526.526,0,0,0-.935,0A2.065,2.065,0,0,0,177.816,382.568Zm3.85,0a2.083,2.083,0,0,1-.234,1.106.862.862,0,0,1-1.414-.008,2.042,2.042,0,0,1-.241-1.1,2.083,2.083,0,0,1,.233-1.107.862.862,0,0,1,1.414.016A2.03,2.03,0,0,1,181.666,382.568Zm-1.561,0a2.1,2.1,0,0,0,.147.909.527.527,0,0,0,.936,0,2.115,2.115,0,0,0,.146-.9,2.083,2.083,0,0,0-.146-.9.527.527,0,0,0-.936,0A2.065,2.065,0,0,0,180.1,382.568ZM185.979,384v-1.393a.571.571,0,0,0-.11-.382.421.421,0,0,0-.34-.129.547.547,0,0,0-.447.174.826.826,0,0,0-.144.535V384h-.325v-1.393a.571.571,0,0,0-.109-.382.424.424,0,0,0-.342-.129.531.531,0,0,0-.447.183.989.989,0,0,0-.141.6V384h-.324v-2.141h.264l.052.293h.016a.64.64,0,0,1,.258-.244.8.8,0,0,1,.375-.088.636.636,0,0,1,.656.364h.016a.684.684,0,0,1,.277-.266.861.861,0,0,1,.414-.1.72.72,0,0,1,.543.188.829.829,0,0,1,.182.6V384Zm2.375-.584a.538.538,0,0,1-.223.461,1.049,1.049,0,0,1-.625.162,1.357,1.357,0,0,1-.664-.135v-.3a1.626,1.626,0,0,0,.33.123,1.384,1.384,0,0,0,.342.044.772.772,0,0,0,.39-.08.27.27,0,0,0,.137-.248.265.265,0,0,0-.109-.213,1.685,1.685,0,0,0-.422-.21,2.437,2.437,0,0,1-.426-.194.614.614,0,0,1-.188-.189.505.505,0,0,1-.06-.252.477.477,0,0,1,.213-.412.983.983,0,0,1,.584-.153,1.707,1.707,0,0,1,.676.141l-.116.264a1.537,1.537,0,0,0-.584-.133.673.673,0,0,0-.347.072.224.224,0,0,0-.117.2.246.246,0,0,0,.043.147.432.432,0,0,0,.142.115,3.237,3.237,0,0,0,.375.158,1.414,1.414,0,0,1,.514.279A.491.491,0,0,1,188.354,383.416Z" transform="translate(1044 250)"/>
    <path id="Path_681" data-name="Path 681" d="M152.088,382.568a2.083,2.083,0,0,1-.234,1.106.863.863,0,0,1-1.415-.008,2.052,2.052,0,0,1-.24-1.1,2.083,2.083,0,0,1,.233-1.107.862.862,0,0,1,1.414.016A2.03,2.03,0,0,1,152.088,382.568Zm-1.561,0a2.1,2.1,0,0,0,.147.909.526.526,0,0,0,.935,0,2.1,2.1,0,0,0,.147-.9,2.066,2.066,0,0,0-.147-.9.526.526,0,0,0-.935,0A2.065,2.065,0,0,0,150.527,382.568Zm2.059,1.225a.285.285,0,0,1,.059-.2.214.214,0,0,1,.171-.069.224.224,0,0,1,.176.069.328.328,0,0,1,0,.392.228.228,0,0,1-.176.069.241.241,0,0,1-.166-.061A.273.273,0,0,1,152.586,383.793Zm2.734-1.977a.649.649,0,0,1-.154.448.762.762,0,0,1-.434.232v.016a.811.811,0,0,1,.51.218.644.644,0,0,1,.166.461.749.749,0,0,1-.283.629,1.292,1.292,0,0,1-.8.219A2.33,2.33,0,0,1,153.9,384a1.406,1.406,0,0,1-.365-.119v-.309a1.824,1.824,0,0,0,.793.188q.741,0,.74-.58,0-.52-.816-.52h-.281v-.279h.285a.861.861,0,0,0,.529-.147.486.486,0,0,0,.195-.41.4.4,0,0,0-.144-.328.591.591,0,0,0-.389-.119,1.191,1.191,0,0,0-.353.051,1.548,1.548,0,0,0-.379.187l-.164-.219a1.361,1.361,0,0,1,.4-.216,1.45,1.45,0,0,1,.484-.08.983.983,0,0,1,.647.191A.639.639,0,0,1,155.32,381.816Zm1.412.44a1.045,1.045,0,0,1,.709.224.763.763,0,0,1,.26.612.882.882,0,0,1-.283.695,1.125,1.125,0,0,1-.777.252,1.435,1.435,0,0,1-.737-.154v-.313a1.132,1.132,0,0,0,.34.139,1.744,1.744,0,0,0,.4.049.8.8,0,0,0,.533-.162.583.583,0,0,0,.191-.469q0-.6-.732-.6a2.892,2.892,0,0,0-.5.057l-.168-.108.107-1.335h1.42v.3h-1.143l-.072.858A2.275,2.275,0,0,1,156.732,382.256ZM162.045,384v-1.393a.577.577,0,0,0-.109-.382.423.423,0,0,0-.34-.129.551.551,0,0,0-.448.174.826.826,0,0,0-.144.535V384h-.324v-1.393a.571.571,0,0,0-.11-.382.423.423,0,0,0-.341-.129.532.532,0,0,0-.448.183,1,1,0,0,0-.14.6V384h-.325v-2.141h.264l.053.293h.015a.653.653,0,0,1,.258-.244.8.8,0,0,1,.375-.088.636.636,0,0,1,.657.364h.015a.683.683,0,0,1,.277-.266.868.868,0,0,1,.415-.1.72.72,0,0,1,.543.188.829.829,0,0,1,.181.6V384Zm2.674-2.855h.357L164.047,384h-.328l-1.024-2.855h.352l.656,1.847a5.061,5.061,0,0,1,.18.619,5.3,5.3,0,0,1,.183-.631Z" transform="translate(1044 250)"/>
    <path id="Path_682" data-name="Path 682" d="M175,378h13.5" transform="translate(1044 250)" fill="none" stroke="#054680" stroke-width="1" stroke-dasharray="1 1"/>
    <path id="Path_683" data-name="Path 683" d="M151,380v-4" transform="translate(1044 250)" fill="none" stroke="#054680" stroke-width="1" stroke-dasharray="1 1"/>
  </g>
</svg>
