<svg xmlns="http://www.w3.org/2000/svg" width="449.452" height="42.557" viewBox="0 0 449.452 42.557">
  <g id="Group_1" data-name="Group 1" transform="translate(-480 -256.5)">
    <path id="Path_75" data-name="Path 75" d="M212,83V50.5" transform="translate(365 207)" fill="none" stroke="#7ad9a2" stroke-width="2"/>
    <path id="Path_76" data-name="Path 76" d="M285,83V50.5" transform="translate(365 207)" fill="none" stroke="#7ad9a2" stroke-width="2"/>
    <path id="Path_95" data-name="Path 95" d="M115,50H563" transform="translate(365 207)" fill="none" stroke="#00549f" stroke-width="1"/>
    <path id="Path_96" data-name="Path 96" d="M116.515,92H116.2V89.965c0-.169.005-.329.016-.48-.027.027-.058.056-.092.086s-.189.157-.465.381l-.172-.223.756-.584h.274Zm2.964,0H117.6v-.279l.751-.756a5.47,5.47,0,0,0,.454-.5,1.286,1.286,0,0,0,.164-.289.838.838,0,0,0,.054-.3.478.478,0,0,0-.138-.361.531.531,0,0,0-.385-.135.974.974,0,0,0-.338.059,1.352,1.352,0,0,0-.353.213l-.172-.221a1.315,1.315,0,0,1,.859-.328.905.905,0,0,1,.631.207.707.707,0,0,1,.228.553,1.064,1.064,0,0,1-.152.537,3.447,3.447,0,0,1-.57.672l-.625.611V91.7h1.468Zm.514-.207a.291.291,0,0,1,.059-.2.216.216,0,0,1,.172-.068.224.224,0,0,1,.175.068.329.329,0,0,1,0,.393.228.228,0,0,1-.175.068.235.235,0,0,1-.166-.061A.273.273,0,0,1,119.993,91.793Zm0-1.725q0-.264.231-.264t.24.264a.274.274,0,0,1-.065.2.229.229,0,0,1-.175.068.236.236,0,0,1-.166-.061A.273.273,0,0,1,119.993,90.068Zm2.858.5a2.08,2.08,0,0,1-.235,1.105.861.861,0,0,1-1.414-.008,2.051,2.051,0,0,1-.24-1.1,2.085,2.085,0,0,1,.232-1.107.862.862,0,0,1,1.414.016A2.023,2.023,0,0,1,122.851,90.568Zm-1.561,0a2.092,2.092,0,0,0,.147.908.526.526,0,0,0,.935,0,2.1,2.1,0,0,0,.147-.9,2.068,2.068,0,0,0-.147-.9.526.526,0,0,0-.935,0A2.064,2.064,0,0,0,121.29,90.568Zm3.85,0a2.07,2.07,0,0,1-.235,1.105.862.862,0,0,1-1.414-.008,2.051,2.051,0,0,1-.24-1.1,2.085,2.085,0,0,1,.232-1.107.862.862,0,0,1,1.414.016A2.023,2.023,0,0,1,125.14,90.568Zm-1.561,0a2.092,2.092,0,0,0,.147.908.526.526,0,0,0,.935,0,2.1,2.1,0,0,0,.147-.9,2.068,2.068,0,0,0-.147-.9.526.526,0,0,0-.935,0A2.064,2.064,0,0,0,123.579,90.568Z" transform="translate(365 207)"/>
    <path id="Path_97" data-name="Path 97" d="M134.819,92H134.5V89.965c0-.169,0-.329.016-.48-.028.027-.058.056-.092.086s-.189.157-.465.381l-.172-.223.756-.584h.273Zm2.965,0h-1.877v-.279l.752-.756a5.57,5.57,0,0,0,.453-.5,1.248,1.248,0,0,0,.164-.289.817.817,0,0,0,.055-.3.475.475,0,0,0-.139-.361.526.526,0,0,0-.384-.135.97.97,0,0,0-.338.059,1.339,1.339,0,0,0-.354.213l-.172-.221a1.318,1.318,0,0,1,.86-.328.907.907,0,0,1,.631.207.707.707,0,0,1,.228.553,1.075,1.075,0,0,1-.152.537,3.424,3.424,0,0,1-.571.672l-.625.611V91.7h1.469Zm.514-.207a.291.291,0,0,1,.058-.2.219.219,0,0,1,.172-.068.226.226,0,0,1,.176.068.329.329,0,0,1,0,.393.229.229,0,0,1-.176.068.239.239,0,0,1-.166-.061A.273.273,0,0,1,138.3,91.793Zm0-1.725c0-.176.077-.264.23-.264s.241.088.241.264a.274.274,0,0,1-.065.2.23.23,0,0,1-.176.068.239.239,0,0,1-.166-.061A.273.273,0,0,1,138.3,90.068ZM140.464,92h-.317V89.965c0-.169.006-.329.016-.48-.027.027-.058.056-.092.086s-.189.157-.465.381l-.171-.223.755-.584h.274Zm1.98-1.744a1.043,1.043,0,0,1,.709.225.763.763,0,0,1,.26.611.882.882,0,0,1-.283.7,1.125,1.125,0,0,1-.777.252,1.434,1.434,0,0,1-.737-.154v-.312a1.138,1.138,0,0,0,.34.139,1.7,1.7,0,0,0,.4.049.8.8,0,0,0,.534-.162.582.582,0,0,0,.191-.469q0-.6-.732-.6a2.909,2.909,0,0,0-.5.057l-.168-.107.107-1.336h1.42v.3h-1.143L142,90.3A2.275,2.275,0,0,1,142.444,90.256Z" transform="translate(365 207)"/>
    <path id="Path_98" data-name="Path 98" d="M153.124,92h-.316V89.965q0-.254.015-.48c-.027.027-.058.056-.092.086s-.188.157-.464.381l-.172-.223.756-.584h.273Zm2.965,0h-1.877v-.279l.752-.756a5.575,5.575,0,0,0,.453-.5,1.248,1.248,0,0,0,.164-.289.817.817,0,0,0,.055-.3.475.475,0,0,0-.139-.361.529.529,0,0,0-.385-.135.978.978,0,0,0-.338.059,1.352,1.352,0,0,0-.353.213l-.172-.221a1.317,1.317,0,0,1,.859-.328.9.9,0,0,1,.631.207.7.7,0,0,1,.229.553,1.066,1.066,0,0,1-.153.537,3.375,3.375,0,0,1-.57.672l-.625.611V91.7h1.469Zm.514-.207a.291.291,0,0,1,.058-.2.218.218,0,0,1,.172-.068.226.226,0,0,1,.176.068.333.333,0,0,1,0,.393.231.231,0,0,1-.176.068.237.237,0,0,1-.166-.061A.273.273,0,0,1,156.6,91.793Zm0-1.725c0-.176.076-.264.23-.264s.24.088.24.264a.274.274,0,0,1-.064.2.231.231,0,0,1-.176.068.238.238,0,0,1-.166-.061A.273.273,0,0,1,156.6,90.068Zm2.734-.252a.653.653,0,0,1-.154.447.764.764,0,0,1-.434.232v.016a.819.819,0,0,1,.51.219.647.647,0,0,1,.166.461.752.752,0,0,1-.283.629,1.293,1.293,0,0,1-.8.219,2.286,2.286,0,0,1-.416-.035,1.386,1.386,0,0,1-.365-.119v-.309a1.812,1.812,0,0,0,.394.141,1.85,1.85,0,0,0,.4.047q.739,0,.74-.58,0-.52-.817-.52h-.281v-.279h.285a.866.866,0,0,0,.53-.147.487.487,0,0,0,.2-.41.4.4,0,0,0-.145-.328.586.586,0,0,0-.388-.119,1.209,1.209,0,0,0-.354.051,1.6,1.6,0,0,0-.379.188l-.164-.219a1.347,1.347,0,0,1,.4-.217,1.461,1.461,0,0,1,.484-.08.982.982,0,0,1,.646.191A.638.638,0,0,1,159.337,89.816Zm2.412.752a2.081,2.081,0,0,1-.234,1.105.862.862,0,0,1-1.414-.008,2.041,2.041,0,0,1-.241-1.1,2.084,2.084,0,0,1,.233-1.107.862.862,0,0,1,1.414.016A2.033,2.033,0,0,1,161.749,90.568Zm-1.561,0a2.092,2.092,0,0,0,.147.908.527.527,0,0,0,.936,0,2.114,2.114,0,0,0,.146-.9,2.085,2.085,0,0,0-.146-.9.527.527,0,0,0-.936,0A2.064,2.064,0,0,0,160.188,90.568Z" transform="translate(365 207)"/>
    <path id="Path_99" data-name="Path 99" d="M171.429,92h-.317V89.965c0-.169.006-.329.016-.48-.027.027-.058.056-.092.086s-.189.157-.465.381l-.172-.223.756-.584h.274Zm2.965,0h-1.877v-.279l.752-.756a5.57,5.57,0,0,0,.453-.5,1.286,1.286,0,0,0,.164-.289.838.838,0,0,0,.054-.3.478.478,0,0,0-.138-.361.531.531,0,0,0-.385-.135.978.978,0,0,0-.338.059,1.352,1.352,0,0,0-.353.213l-.172-.221a1.315,1.315,0,0,1,.859-.328.905.905,0,0,1,.631.207.707.707,0,0,1,.228.553,1.064,1.064,0,0,1-.152.537,3.41,3.41,0,0,1-.57.672l-.625.611V91.7h1.469Zm.513-.207a.291.291,0,0,1,.059-.2.216.216,0,0,1,.172-.068.224.224,0,0,1,.175.068.329.329,0,0,1,0,.393.227.227,0,0,1-.175.068.235.235,0,0,1-.166-.061A.273.273,0,0,1,174.907,91.793Zm0-1.725q0-.264.231-.264t.24.264a.274.274,0,0,1-.065.2.227.227,0,0,1-.175.068.236.236,0,0,1-.166-.061A.273.273,0,0,1,174.907,90.068Zm2.977,1.275h-.424V92h-.311v-.656h-1.388v-.283l1.355-1.932h.344v1.92h.424Zm-.735-.3V90.1q0-.279.02-.631h-.016a2.972,2.972,0,0,1-.175.31l-.893,1.27Zm1.9-.793a1.044,1.044,0,0,1,.709.225.763.763,0,0,1,.259.611.882.882,0,0,1-.283.7,1.121,1.121,0,0,1-.777.252,1.43,1.43,0,0,1-.736-.154v-.312a1.132,1.132,0,0,0,.339.139,1.712,1.712,0,0,0,.4.049.8.8,0,0,0,.533-.162.579.579,0,0,0,.191-.469q0-.6-.732-.6a2.909,2.909,0,0,0-.5.057l-.168-.107.107-1.336h1.42v.3h-1.142l-.073.857A2.277,2.277,0,0,1,179.054,90.256Z" transform="translate(365 207)"/>
    <path id="Path_100" data-name="Path 100" d="M189.733,92h-.316V89.965c0-.169,0-.329.016-.48-.028.027-.058.056-.092.086s-.189.157-.465.381l-.172-.223.756-.584h.273Zm2.858-2.184a.653.653,0,0,1-.154.447A.767.767,0,0,1,192,90.5v.016a.819.819,0,0,1,.51.219.647.647,0,0,1,.166.461.752.752,0,0,1-.283.629,1.3,1.3,0,0,1-.8.219,2.286,2.286,0,0,1-.416-.035,1.386,1.386,0,0,1-.365-.119v-.309a1.812,1.812,0,0,0,.394.141,1.85,1.85,0,0,0,.4.047q.739,0,.74-.58,0-.52-.817-.52h-.281v-.279h.285a.866.866,0,0,0,.53-.147.487.487,0,0,0,.2-.41.4.4,0,0,0-.145-.328.586.586,0,0,0-.388-.119,1.209,1.209,0,0,0-.354.051,1.581,1.581,0,0,0-.379.188l-.164-.219a1.353,1.353,0,0,1,.4-.217,1.471,1.471,0,0,1,.485-.08.982.982,0,0,1,.646.191A.638.638,0,0,1,192.591,89.816Zm.621,1.977a.286.286,0,0,1,.059-.2.215.215,0,0,1,.171-.068.226.226,0,0,1,.176.068.329.329,0,0,1,0,.393.229.229,0,0,1-.176.068.239.239,0,0,1-.166-.061A.273.273,0,0,1,193.212,91.793Zm0-1.725c0-.176.077-.264.23-.264s.241.088.241.264a.274.274,0,0,1-.065.2.23.23,0,0,1-.176.068.239.239,0,0,1-.166-.061A.273.273,0,0,1,193.212,90.068Zm2.857.5a2.081,2.081,0,0,1-.234,1.105.862.862,0,0,1-1.414-.008,2.051,2.051,0,0,1-.24-1.1,2.085,2.085,0,0,1,.232-1.107.862.862,0,0,1,1.414.016A2.024,2.024,0,0,1,196.069,90.568Zm-1.56,0a2.11,2.11,0,0,0,.146.908.527.527,0,0,0,.936,0,2.114,2.114,0,0,0,.146-.9,2.085,2.085,0,0,0-.146-.9.527.527,0,0,0-.936,0A2.081,2.081,0,0,0,194.509,90.568Zm3.849,0a2.081,2.081,0,0,1-.234,1.105.861.861,0,0,1-1.414-.008,2.051,2.051,0,0,1-.24-1.1,2.085,2.085,0,0,1,.232-1.107.862.862,0,0,1,1.414.016A2.024,2.024,0,0,1,198.358,90.568Zm-1.56,0a2.11,2.11,0,0,0,.146.908.527.527,0,0,0,.936,0,2.1,2.1,0,0,0,.146-.9,2.07,2.07,0,0,0-.146-.9.527.527,0,0,0-.936,0A2.081,2.081,0,0,0,196.8,90.568Z" transform="translate(365 207)"/>
    <path id="Path_101" data-name="Path 101" d="M208.038,92h-.316V89.965q0-.254.015-.48c-.027.027-.058.056-.091.086s-.189.157-.465.381l-.172-.223.756-.584h.273Zm2.858-2.184a.649.649,0,0,1-.155.447.761.761,0,0,1-.433.232v.016a.814.814,0,0,1,.509.219.642.642,0,0,1,.166.461.75.75,0,0,1-.283.629,1.292,1.292,0,0,1-.8.219,2.3,2.3,0,0,1-.417-.035,1.4,1.4,0,0,1-.365-.119v-.309a1.829,1.829,0,0,0,.793.188q.741,0,.74-.58,0-.52-.816-.52h-.281v-.279h.285a.861.861,0,0,0,.529-.147.488.488,0,0,0,.2-.41.4.4,0,0,0-.145-.328.589.589,0,0,0-.389-.119,1.2,1.2,0,0,0-.353.051,1.581,1.581,0,0,0-.379.188l-.164-.219a1.353,1.353,0,0,1,.4-.217,1.467,1.467,0,0,1,.485-.08.984.984,0,0,1,.646.191A.638.638,0,0,1,210.9,89.816Zm.621,1.977a.291.291,0,0,1,.058-.2.219.219,0,0,1,.172-.068.226.226,0,0,1,.176.068.333.333,0,0,1,0,.393.231.231,0,0,1-.176.068.237.237,0,0,1-.166-.061A.273.273,0,0,1,211.517,91.793Zm0-1.725c0-.176.076-.264.23-.264s.24.088.24.264a.274.274,0,0,1-.064.2.231.231,0,0,1-.176.068.238.238,0,0,1-.166-.061A.273.273,0,0,1,211.517,90.068ZM213.683,92h-.317V89.965c0-.169.005-.329.016-.48-.028.027-.058.056-.092.086s-.189.157-.465.381l-.172-.223.756-.584h.274Zm1.98-1.744a1.043,1.043,0,0,1,.709.225.763.763,0,0,1,.26.611.885.885,0,0,1-.283.7,1.126,1.126,0,0,1-.778.252,1.432,1.432,0,0,1-.736-.154v-.312a1.127,1.127,0,0,0,.34.139,1.7,1.7,0,0,0,.4.049.8.8,0,0,0,.533-.162.579.579,0,0,0,.192-.469q0-.6-.733-.6a2.92,2.92,0,0,0-.5.057l-.168-.107.108-1.336h1.42v.3h-1.143l-.072.857A2.274,2.274,0,0,1,215.663,90.256Z" transform="translate(365 207)"/>
    <path id="Path_102" data-name="Path 102" d="M226.343,92h-.317V89.965c0-.169.006-.329.016-.48-.027.027-.058.056-.092.086s-.189.157-.465.381l-.172-.223.756-.584h.274Zm2.857-2.184a.648.648,0,0,1-.154.447.764.764,0,0,1-.434.232v.016a.819.819,0,0,1,.51.219.642.642,0,0,1,.166.461.75.75,0,0,1-.283.629,1.293,1.293,0,0,1-.805.219,2.286,2.286,0,0,1-.416-.035,1.386,1.386,0,0,1-.365-.119v-.309a1.83,1.83,0,0,0,.394.141,1.85,1.85,0,0,0,.4.047q.739,0,.74-.58,0-.52-.816-.52h-.282v-.279h.286a.863.863,0,0,0,.529-.147.487.487,0,0,0,.195-.41.4.4,0,0,0-.144-.328.589.589,0,0,0-.389-.119,1.2,1.2,0,0,0-.353.051,1.581,1.581,0,0,0-.379.188l-.164-.219a1.353,1.353,0,0,1,.4-.217,1.465,1.465,0,0,1,.484-.08.985.985,0,0,1,.647.191A.64.64,0,0,1,229.2,89.816Zm.621,1.977a.291.291,0,0,1,.059-.2.217.217,0,0,1,.172-.068.228.228,0,0,1,.176.068.333.333,0,0,1,0,.393.231.231,0,0,1-.176.068.235.235,0,0,1-.166-.061A.273.273,0,0,1,229.821,91.793Zm0-1.725q0-.264.231-.264t.24.264a.274.274,0,0,1-.064.2.231.231,0,0,1-.176.068.236.236,0,0,1-.166-.061A.273.273,0,0,1,229.821,90.068Zm2.735-.252a.649.649,0,0,1-.155.447.761.761,0,0,1-.433.232v.016a.819.819,0,0,1,.51.219.647.647,0,0,1,.166.461.751.751,0,0,1-.284.629,1.29,1.29,0,0,1-.8.219A2.286,2.286,0,0,1,231.14,92a1.4,1.4,0,0,1-.366-.119v-.309a1.829,1.829,0,0,0,.793.188q.741,0,.741-.58,0-.52-.817-.52h-.281v-.279h.285a.861.861,0,0,0,.529-.147.485.485,0,0,0,.2-.41.4.4,0,0,0-.145-.328.586.586,0,0,0-.388-.119,1.209,1.209,0,0,0-.354.051,1.581,1.581,0,0,0-.379.188l-.164-.219a1.353,1.353,0,0,1,.4-.217,1.467,1.467,0,0,1,.485-.08.982.982,0,0,1,.646.191A.638.638,0,0,1,232.556,89.816Zm2.412.752a2.07,2.07,0,0,1-.235,1.105.862.862,0,0,1-1.414-.008,2.051,2.051,0,0,1-.24-1.1,2.084,2.084,0,0,1,.233-1.107.862.862,0,0,1,1.414.016A2.033,2.033,0,0,1,234.968,90.568Zm-1.561,0a2.092,2.092,0,0,0,.147.908.526.526,0,0,0,.935,0,2.1,2.1,0,0,0,.147-.9,2.067,2.067,0,0,0-.147-.9.526.526,0,0,0-.935,0A2.064,2.064,0,0,0,233.407,90.568Z" transform="translate(365 207)"/>
    <path id="Path_103" data-name="Path 103" d="M244.647,92h-.316V89.965c0-.169.005-.329.016-.48-.028.027-.058.056-.092.086s-.189.157-.465.381l-.172-.223.756-.584h.273Zm2.858-2.184a.653.653,0,0,1-.154.447.767.767,0,0,1-.434.232v.016a.819.819,0,0,1,.51.219.647.647,0,0,1,.166.461.752.752,0,0,1-.283.629,1.293,1.293,0,0,1-.8.219,2.286,2.286,0,0,1-.416-.035,1.386,1.386,0,0,1-.365-.119v-.309a1.812,1.812,0,0,0,.394.141,1.85,1.85,0,0,0,.4.047q.739,0,.74-.58,0-.52-.817-.52h-.281v-.279h.285a.866.866,0,0,0,.53-.147.487.487,0,0,0,.2-.41.4.4,0,0,0-.145-.328.586.586,0,0,0-.388-.119,1.209,1.209,0,0,0-.354.051,1.6,1.6,0,0,0-.379.188l-.164-.219a1.347,1.347,0,0,1,.4-.217,1.461,1.461,0,0,1,.484-.08.982.982,0,0,1,.646.191A.638.638,0,0,1,247.505,89.816Zm.621,1.977a.291.291,0,0,1,.059-.2.215.215,0,0,1,.171-.068.225.225,0,0,1,.176.068.329.329,0,0,1,0,.393.229.229,0,0,1-.176.068A.239.239,0,0,1,248.19,92,.273.273,0,0,1,248.126,91.793Zm0-1.725c0-.176.077-.264.23-.264s.241.088.241.264a.274.274,0,0,1-.065.2.23.23,0,0,1-.176.068.239.239,0,0,1-.166-.061A.273.273,0,0,1,248.126,90.068Zm2.977,1.275h-.424V92h-.311v-.656h-1.389v-.283l1.356-1.932h.344v1.92h.424Zm-.735-.3V90.1q0-.279.02-.631h-.016a2.789,2.789,0,0,1-.176.31l-.892,1.27Zm1.9-.793a1.041,1.041,0,0,1,.709.225.76.76,0,0,1,.26.611.882.882,0,0,1-.283.7,1.123,1.123,0,0,1-.777.252,1.437,1.437,0,0,1-.737-.154v-.312a1.138,1.138,0,0,0,.34.139,1.712,1.712,0,0,0,.4.049.8.8,0,0,0,.533-.162.582.582,0,0,0,.191-.469q0-.6-.732-.6a2.909,2.909,0,0,0-.5.057l-.168-.107.107-1.336h1.42v.3H251.9l-.072.857A2.275,2.275,0,0,1,252.272,90.256Z" transform="translate(365 207)"/>
    <path id="Path_104" data-name="Path 104" d="M262.952,92h-.316V89.965q0-.254.015-.48c-.027.027-.058.056-.091.086s-.189.157-.465.381l-.172-.223.756-.584h.273Zm3.1-.656h-.424V92h-.311v-.656h-1.388v-.283l1.355-1.932h.344v1.92h.424Zm-.735-.3V90.1q0-.279.02-.631h-.016a2.972,2.972,0,0,1-.175.31l-.893,1.27Zm1.114.744a.291.291,0,0,1,.058-.2.219.219,0,0,1,.172-.068.226.226,0,0,1,.176.068.333.333,0,0,1,0,.393.231.231,0,0,1-.176.068.237.237,0,0,1-.166-.061A.273.273,0,0,1,266.431,91.793Zm0-1.725c0-.176.076-.264.23-.264s.24.088.24.264a.274.274,0,0,1-.064.2.231.231,0,0,1-.176.068.238.238,0,0,1-.166-.061A.273.273,0,0,1,266.431,90.068Zm2.857.5a2.081,2.081,0,0,1-.234,1.105.861.861,0,0,1-1.414-.008,2.041,2.041,0,0,1-.241-1.1,2.084,2.084,0,0,1,.233-1.107.862.862,0,0,1,1.414.016A2.033,2.033,0,0,1,269.288,90.568Zm-1.56,0a2.1,2.1,0,0,0,.146.908.527.527,0,0,0,.936,0,2.114,2.114,0,0,0,.146-.9,2.085,2.085,0,0,0-.146-.9.527.527,0,0,0-.936,0A2.067,2.067,0,0,0,267.728,90.568Zm3.849,0a2.081,2.081,0,0,1-.234,1.105.862.862,0,0,1-1.414-.008,2.05,2.05,0,0,1-.241-1.1,2.084,2.084,0,0,1,.233-1.107.862.862,0,0,1,1.414.016A2.033,2.033,0,0,1,271.577,90.568Zm-1.56,0a2.1,2.1,0,0,0,.146.908.527.527,0,0,0,.936,0,2.114,2.114,0,0,0,.146-.9,2.085,2.085,0,0,0-.146-.9.527.527,0,0,0-.936,0A2.067,2.067,0,0,0,270.017,90.568Z" transform="translate(365 207)"/>
    <path id="Path_105" data-name="Path 105" d="M281.257,92h-.317V89.965c0-.169.006-.329.016-.48-.027.027-.058.056-.092.086s-.189.157-.465.381l-.171-.223.755-.584h.274Zm3.1-.656h-.423V92h-.311v-.656h-1.389v-.283l1.356-1.932h.344v1.92h.423Zm-.734-.3V90.1q0-.279.02-.631h-.016a2.965,2.965,0,0,1-.176.31l-.892,1.27Zm1.113.744a.291.291,0,0,1,.059-.2.218.218,0,0,1,.172-.068.228.228,0,0,1,.176.068.333.333,0,0,1,0,.393.231.231,0,0,1-.176.068A.235.235,0,0,1,284.8,92,.273.273,0,0,1,284.735,91.793Zm0-1.725q0-.264.231-.264t.24.264a.274.274,0,0,1-.064.2.231.231,0,0,1-.176.068.236.236,0,0,1-.166-.061A.273.273,0,0,1,284.735,90.068ZM286.9,92h-.316V89.965c0-.169.005-.329.016-.48-.028.027-.058.056-.092.086s-.189.157-.465.381l-.172-.223.756-.584h.273Zm1.981-1.744a1.043,1.043,0,0,1,.709.225.763.763,0,0,1,.26.611.883.883,0,0,1-.284.7,1.121,1.121,0,0,1-.777.252,1.43,1.43,0,0,1-.736-.154v-.312a1.128,1.128,0,0,0,.34.139,1.7,1.7,0,0,0,.4.049.8.8,0,0,0,.533-.162.579.579,0,0,0,.192-.469q0-.6-.733-.6a2.909,2.909,0,0,0-.5.057l-.168-.107.107-1.336h1.42v.3h-1.142l-.072.857A2.26,2.26,0,0,1,288.882,90.256Z" transform="translate(365 207)"/>
    <path id="Path_106" data-name="Path 106" d="M299.562,92h-.317V89.965c0-.169.005-.329.016-.48-.028.027-.058.056-.092.086s-.189.157-.465.381l-.172-.223.756-.584h.274Zm3.1-.656h-.424V92h-.31v-.656h-1.389v-.283l1.356-1.932h.343v1.92h.424Zm-.734-.3V90.1q0-.279.019-.631h-.015a2.96,2.96,0,0,1-.176.31l-.893,1.27Zm1.113.744a.291.291,0,0,1,.059-.2.216.216,0,0,1,.172-.068.224.224,0,0,1,.175.068.329.329,0,0,1,0,.393.228.228,0,0,1-.175.068A.24.24,0,0,1,303.1,92,.278.278,0,0,1,303.04,91.793Zm0-1.725q0-.264.231-.264t.24.264a.274.274,0,0,1-.065.2.229.229,0,0,1-.175.068.24.24,0,0,1-.167-.061A.278.278,0,0,1,303.04,90.068Zm2.734-.252a.648.648,0,0,1-.154.447.761.761,0,0,1-.433.232v.016a.814.814,0,0,1,.509.219.642.642,0,0,1,.166.461.75.75,0,0,1-.283.629,1.293,1.293,0,0,1-.805.219,2.294,2.294,0,0,1-.416-.035,1.4,1.4,0,0,1-.365-.119v-.309a1.829,1.829,0,0,0,.793.188q.741,0,.74-.58,0-.52-.816-.52h-.281v-.279h.285a.861.861,0,0,0,.529-.147.487.487,0,0,0,.195-.41.4.4,0,0,0-.144-.328.589.589,0,0,0-.389-.119,1.2,1.2,0,0,0-.353.051,1.581,1.581,0,0,0-.379.188l-.164-.219a1.353,1.353,0,0,1,.4-.217,1.465,1.465,0,0,1,.484-.08.985.985,0,0,1,.647.191A.637.637,0,0,1,305.774,89.816Zm2.413.752a2.08,2.08,0,0,1-.235,1.105.862.862,0,0,1-1.414-.008,2.051,2.051,0,0,1-.24-1.1,2.085,2.085,0,0,1,.232-1.107.862.862,0,0,1,1.414.016A2.023,2.023,0,0,1,308.187,90.568Zm-1.561,0a2.109,2.109,0,0,0,.146.908.527.527,0,0,0,.936,0,2.1,2.1,0,0,0,.146-.9,2.07,2.07,0,0,0-.146-.9.527.527,0,0,0-.936,0A2.081,2.081,0,0,0,306.626,90.568Z" transform="translate(365 207)"/>
    <path id="Path_107" data-name="Path 107" d="M317.866,92h-.316V89.965q0-.254.015-.48c-.027.027-.058.056-.091.086s-.189.157-.465.381l-.172-.223.756-.584h.273Zm3.1-.656h-.424V92h-.311v-.656h-1.388v-.283l1.355-1.932h.344v1.92h.424Zm-.735-.3V90.1q0-.279.02-.631h-.016a2.967,2.967,0,0,1-.175.31l-.893,1.27Zm1.114.744a.291.291,0,0,1,.058-.2.219.219,0,0,1,.172-.068.226.226,0,0,1,.176.068.333.333,0,0,1,0,.393.231.231,0,0,1-.176.068.237.237,0,0,1-.166-.061A.273.273,0,0,1,321.345,91.793Zm0-1.725c0-.176.077-.264.23-.264s.24.088.24.264a.274.274,0,0,1-.064.2.231.231,0,0,1-.176.068.238.238,0,0,1-.166-.061A.273.273,0,0,1,321.345,90.068Zm2.976,1.275H323.9V92h-.31v-.656H322.2v-.283l1.356-1.932h.343v1.92h.424Zm-.734-.3V90.1q0-.279.019-.631h-.015a2.96,2.96,0,0,1-.176.31l-.893,1.27Zm1.9-.793a1.043,1.043,0,0,1,.709.225.763.763,0,0,1,.26.611.882.882,0,0,1-.283.7,1.126,1.126,0,0,1-.778.252,1.433,1.433,0,0,1-.736-.154v-.312a1.139,1.139,0,0,0,.34.139,1.7,1.7,0,0,0,.4.049.8.8,0,0,0,.534-.162.582.582,0,0,0,.191-.469q0-.6-.732-.6a2.919,2.919,0,0,0-.5.057l-.168-.107.108-1.336h1.42v.3h-1.143l-.072.857A2.274,2.274,0,0,1,325.491,90.256Z" transform="translate(365 207)"/>
    <path id="Path_108" data-name="Path 108" d="M336.171,92h-.317V89.965c0-.169.006-.329.016-.48-.027.027-.058.056-.092.086s-.188.157-.465.381l-.171-.223.755-.584h.274Zm1.98-1.744a1.043,1.043,0,0,1,.709.225.76.76,0,0,1,.26.611.882.882,0,0,1-.283.7,1.125,1.125,0,0,1-.777.252,1.437,1.437,0,0,1-.737-.154v-.312a1.139,1.139,0,0,0,.34.139,1.71,1.71,0,0,0,.4.049.8.8,0,0,0,.534-.162.582.582,0,0,0,.191-.469q0-.6-.732-.6a2.909,2.909,0,0,0-.5.057l-.168-.107.107-1.336h1.42v.3h-1.143l-.072.857A2.274,2.274,0,0,1,338.151,90.256Zm1.5,1.537a.291.291,0,0,1,.059-.2.217.217,0,0,1,.172-.068.228.228,0,0,1,.176.068.333.333,0,0,1,0,.393.231.231,0,0,1-.176.068.235.235,0,0,1-.166-.061A.273.273,0,0,1,339.649,91.793Zm0-1.725q0-.264.231-.264t.24.264a.274.274,0,0,1-.064.2.231.231,0,0,1-.176.068.236.236,0,0,1-.166-.061A.273.273,0,0,1,339.649,90.068Zm2.858.5a2.071,2.071,0,0,1-.235,1.105.862.862,0,0,1-1.414-.008,2.051,2.051,0,0,1-.24-1.1,2.084,2.084,0,0,1,.233-1.107.862.862,0,0,1,1.414.016A2.033,2.033,0,0,1,342.507,90.568Zm-1.561,0a2.092,2.092,0,0,0,.147.908.526.526,0,0,0,.935,0,2.1,2.1,0,0,0,.147-.9,2.068,2.068,0,0,0-.147-.9.526.526,0,0,0-.935,0A2.064,2.064,0,0,0,340.946,90.568Zm3.85,0a2.081,2.081,0,0,1-.234,1.105.862.862,0,0,1-1.415-.008,2.051,2.051,0,0,1-.24-1.1,2.084,2.084,0,0,1,.233-1.107.862.862,0,0,1,1.414.016A2.033,2.033,0,0,1,344.8,90.568Zm-1.561,0a2.092,2.092,0,0,0,.147.908.526.526,0,0,0,.935,0,2.1,2.1,0,0,0,.147-.9,2.067,2.067,0,0,0-.147-.9.526.526,0,0,0-.935,0A2.064,2.064,0,0,0,343.235,90.568Z" transform="translate(365 207)"/>
    <path id="Path_109" data-name="Path 109" d="M354.476,92h-.317V89.965c0-.169.005-.329.016-.48-.028.027-.058.056-.092.086s-.189.157-.465.381l-.172-.223.756-.584h.274Zm1.98-1.744a1.043,1.043,0,0,1,.709.225.763.763,0,0,1,.26.611.885.885,0,0,1-.283.7,1.125,1.125,0,0,1-.778.252,1.433,1.433,0,0,1-.736-.154v-.312a1.128,1.128,0,0,0,.34.139,1.7,1.7,0,0,0,.4.049.8.8,0,0,0,.533-.162.579.579,0,0,0,.192-.469q0-.6-.733-.6a2.92,2.92,0,0,0-.5.057l-.168-.107.108-1.336h1.42v.3h-1.143l-.072.857A2.274,2.274,0,0,1,356.456,90.256Zm1.5,1.537a.291.291,0,0,1,.059-.2.216.216,0,0,1,.172-.068.224.224,0,0,1,.175.068.329.329,0,0,1,0,.393.228.228,0,0,1-.175.068.235.235,0,0,1-.166-.061A.273.273,0,0,1,357.954,91.793Zm0-1.725q0-.264.231-.264t.24.264a.274.274,0,0,1-.065.2.229.229,0,0,1-.175.068.236.236,0,0,1-.166-.061A.273.273,0,0,1,357.954,90.068ZM360.12,92H359.8V89.965q0-.254.015-.48c-.027.027-.058.056-.091.086s-.189.157-.465.381l-.172-.223.756-.584h.273Zm1.981-1.744a1.044,1.044,0,0,1,.709.225.763.763,0,0,1,.259.611.882.882,0,0,1-.283.7,1.121,1.121,0,0,1-.777.252,1.437,1.437,0,0,1-.737-.154v-.312a1.149,1.149,0,0,0,.34.139,1.712,1.712,0,0,0,.4.049.8.8,0,0,0,.533-.162.579.579,0,0,0,.191-.469q0-.6-.732-.6a2.909,2.909,0,0,0-.5.057l-.168-.107.107-1.336h1.42v.3h-1.142l-.073.857A2.277,2.277,0,0,1,362.1,90.256Z" transform="translate(365 207)"/>
    <path id="Path_110" data-name="Path 110" d="M372.78,92h-.316V89.965q0-.254.015-.48c-.027.027-.057.056-.091.086s-.189.157-.465.381l-.172-.223.756-.584h.273Zm1.981-1.744a1.043,1.043,0,0,1,.709.225.763.763,0,0,1,.259.611.882.882,0,0,1-.283.7,1.121,1.121,0,0,1-.777.252,1.43,1.43,0,0,1-.736-.154v-.312a1.131,1.131,0,0,0,.339.139,1.712,1.712,0,0,0,.4.049.8.8,0,0,0,.533-.162.579.579,0,0,0,.191-.469q0-.6-.732-.6a2.909,2.909,0,0,0-.5.057L374,90.48l.107-1.336h1.42v.3h-1.142l-.073.857A2.277,2.277,0,0,1,374.761,90.256Zm1.5,1.537a.291.291,0,0,1,.058-.2.219.219,0,0,1,.172-.068.226.226,0,0,1,.176.068.333.333,0,0,1,0,.393.231.231,0,0,1-.176.068.239.239,0,0,1-.166-.061A.273.273,0,0,1,376.259,91.793Zm0-1.725c0-.176.077-.264.23-.264s.24.088.24.264a.274.274,0,0,1-.064.2.231.231,0,0,1-.176.068.239.239,0,0,1-.166-.061A.273.273,0,0,1,376.259,90.068Zm2.734-.252a.648.648,0,0,1-.154.447.764.764,0,0,1-.434.232v.016a.819.819,0,0,1,.51.219.642.642,0,0,1,.166.461.75.75,0,0,1-.283.629,1.293,1.293,0,0,1-.8.219,2.286,2.286,0,0,1-.416-.035,1.385,1.385,0,0,1-.365-.119v-.309a1.831,1.831,0,0,0,.394.141,1.851,1.851,0,0,0,.4.047q.739,0,.74-.58,0-.52-.816-.52h-.282v-.279h.286a.863.863,0,0,0,.529-.147.487.487,0,0,0,.2-.41.4.4,0,0,0-.144-.328.589.589,0,0,0-.389-.119,1.2,1.2,0,0,0-.353.051,1.581,1.581,0,0,0-.379.188l-.164-.219a1.341,1.341,0,0,1,.4-.217,1.461,1.461,0,0,1,.484-.08.985.985,0,0,1,.647.191A.64.64,0,0,1,378.993,89.816Zm2.412.752a2.081,2.081,0,0,1-.234,1.105.862.862,0,0,1-1.414-.008,2.051,2.051,0,0,1-.24-1.1,2.085,2.085,0,0,1,.232-1.107.862.862,0,0,1,1.414.016A2.023,2.023,0,0,1,381.4,90.568Zm-1.56,0a2.11,2.11,0,0,0,.146.908.527.527,0,0,0,.936,0,2.114,2.114,0,0,0,.146-.9,2.085,2.085,0,0,0-.146-.9.527.527,0,0,0-.936,0A2.082,2.082,0,0,0,379.845,90.568Z" transform="translate(365 207)"/>
    <path id="Path_111" data-name="Path 111" d="M391.085,92h-.316V89.965q0-.254.015-.48c-.027.027-.058.056-.092.086s-.188.157-.464.381l-.172-.223.756-.584h.273Zm1.98-1.744a1.041,1.041,0,0,1,.709.225.76.76,0,0,1,.26.611.882.882,0,0,1-.283.7,1.125,1.125,0,0,1-.777.252,1.437,1.437,0,0,1-.737-.154v-.312a1.138,1.138,0,0,0,.34.139,1.712,1.712,0,0,0,.4.049.8.8,0,0,0,.533-.162.582.582,0,0,0,.191-.469q0-.6-.732-.6a2.909,2.909,0,0,0-.5.057l-.168-.107.107-1.336h1.42v.3H392.69l-.072.857A2.274,2.274,0,0,1,393.065,90.256Zm1.5,1.537a.291.291,0,0,1,.059-.2.217.217,0,0,1,.172-.068.228.228,0,0,1,.176.068.333.333,0,0,1,0,.393.231.231,0,0,1-.176.068.237.237,0,0,1-.166-.061A.273.273,0,0,1,394.563,91.793Zm0-1.725q0-.264.231-.264t.24.264a.274.274,0,0,1-.064.2.231.231,0,0,1-.176.068.238.238,0,0,1-.166-.061A.273.273,0,0,1,394.563,90.068Zm2.977,1.275h-.424V92h-.31v-.656h-1.389v-.283l1.355-1.932h.344v1.92h.424Zm-.734-.3V90.1q0-.279.019-.631h-.015a3.152,3.152,0,0,1-.176.31l-.893,1.27Zm1.9-.793a1.043,1.043,0,0,1,.709.225.763.763,0,0,1,.26.611.885.885,0,0,1-.283.7,1.125,1.125,0,0,1-.778.252,1.433,1.433,0,0,1-.736-.154v-.312a1.128,1.128,0,0,0,.34.139,1.7,1.7,0,0,0,.4.049.8.8,0,0,0,.533-.162.579.579,0,0,0,.192-.469q0-.6-.733-.6a2.92,2.92,0,0,0-.5.057l-.168-.107.108-1.336h1.42v.3h-1.143l-.072.857A2.267,2.267,0,0,1,398.71,90.256Z" transform="translate(365 207)"/>
    <path id="Path_112" data-name="Path 112" d="M409.39,92h-.317V89.965c0-.169.005-.329.016-.48-.027.027-.058.056-.092.086s-.189.157-.465.381l-.172-.223.756-.584h.274Zm1.121-1.221a2.016,2.016,0,0,1,.326-1.258,1.158,1.158,0,0,1,.969-.418,1.283,1.283,0,0,1,.347.037v.279a1.112,1.112,0,0,0-.343-.049.868.868,0,0,0-.7.287,1.461,1.461,0,0,0-.265.9h.023a.748.748,0,0,1,.68-.336.8.8,0,0,1,.605.232.872.872,0,0,1,.223.631.973.973,0,0,1-.244.7.865.865,0,0,1-.656.254.845.845,0,0,1-.7-.332A1.472,1.472,0,0,1,410.511,90.779Zm.959.984a.539.539,0,0,0,.429-.174.743.743,0,0,0,.155-.506.651.651,0,0,0-.143-.445.537.537,0,0,0-.426-.162.72.72,0,0,0-.322.072.6.6,0,0,0-.234.2.459.459,0,0,0-.086.264.905.905,0,0,0,.078.375.664.664,0,0,0,.221.275A.554.554,0,0,0,411.47,91.764Zm1.4.029a.291.291,0,0,1,.059-.2.216.216,0,0,1,.172-.068.224.224,0,0,1,.175.068.329.329,0,0,1,0,.393.228.228,0,0,1-.175.068.235.235,0,0,1-.166-.061A.273.273,0,0,1,412.868,91.793Zm0-1.725q0-.264.231-.264t.24.264a.274.274,0,0,1-.065.2.229.229,0,0,1-.175.068.236.236,0,0,1-.166-.061A.273.273,0,0,1,412.868,90.068Zm2.858.5a2.08,2.08,0,0,1-.235,1.105.862.862,0,0,1-1.414-.008,2.051,2.051,0,0,1-.24-1.1,2.085,2.085,0,0,1,.232-1.107.862.862,0,0,1,1.414.016A2.023,2.023,0,0,1,415.726,90.568Zm-1.561,0a2.091,2.091,0,0,0,.147.908.526.526,0,0,0,.935,0,2.1,2.1,0,0,0,.147-.9,2.068,2.068,0,0,0-.147-.9.526.526,0,0,0-.935,0A2.064,2.064,0,0,0,414.165,90.568Zm3.85,0a2.07,2.07,0,0,1-.235,1.105.862.862,0,0,1-1.414-.008,2.051,2.051,0,0,1-.24-1.1,2.085,2.085,0,0,1,.232-1.107.862.862,0,0,1,1.414.016A2.023,2.023,0,0,1,418.015,90.568Zm-1.561,0a2.091,2.091,0,0,0,.147.908.526.526,0,0,0,.935,0,2.1,2.1,0,0,0,.147-.9,2.068,2.068,0,0,0-.147-.9.526.526,0,0,0-.935,0A2.064,2.064,0,0,0,416.454,90.568Z" transform="translate(365 207)"/>
    <path id="Path_113" data-name="Path 113" d="M427.694,92h-.316V89.965c0-.169.005-.329.016-.48-.028.027-.058.056-.092.086s-.189.157-.465.381l-.172-.223.756-.584h.273Zm1.121-1.221a2.016,2.016,0,0,1,.327-1.258,1.154,1.154,0,0,1,.968-.418,1.3,1.3,0,0,1,.348.037v.279a1.114,1.114,0,0,0-.344-.049.866.866,0,0,0-.7.287,1.468,1.468,0,0,0-.266.9h.024a.748.748,0,0,1,.68-.336.8.8,0,0,1,.6.232.876.876,0,0,1,.223.631.977.977,0,0,1-.244.7.867.867,0,0,1-.657.254.846.846,0,0,1-.7-.332A1.478,1.478,0,0,1,428.815,90.779Zm.959.984a.541.541,0,0,0,.43-.174.743.743,0,0,0,.154-.506.651.651,0,0,0-.142-.445.537.537,0,0,0-.426-.162.717.717,0,0,0-.322.072.607.607,0,0,0-.235.2.467.467,0,0,0-.086.264.906.906,0,0,0,.079.375.662.662,0,0,0,.22.275A.559.559,0,0,0,429.774,91.764Zm1.4.029a.291.291,0,0,1,.058-.2.219.219,0,0,1,.172-.068.226.226,0,0,1,.176.068.329.329,0,0,1,0,.393.229.229,0,0,1-.176.068.239.239,0,0,1-.166-.061A.273.273,0,0,1,431.173,91.793Zm0-1.725c0-.176.077-.264.23-.264s.241.088.241.264a.274.274,0,0,1-.065.2.23.23,0,0,1-.176.068.239.239,0,0,1-.166-.061A.273.273,0,0,1,431.173,90.068ZM433.339,92h-.317V89.965c0-.169.006-.329.016-.48-.027.027-.058.056-.092.086s-.189.157-.465.381l-.171-.223.755-.584h.274Zm1.98-1.744a1.043,1.043,0,0,1,.709.225.763.763,0,0,1,.26.611.882.882,0,0,1-.283.7,1.125,1.125,0,0,1-.777.252,1.434,1.434,0,0,1-.737-.154v-.312a1.139,1.139,0,0,0,.34.139,1.7,1.7,0,0,0,.4.049.8.8,0,0,0,.534-.162.582.582,0,0,0,.191-.469q0-.6-.732-.6a2.909,2.909,0,0,0-.5.057l-.168-.107.107-1.336h1.42v.3h-1.143l-.072.857A2.274,2.274,0,0,1,435.319,90.256Z" transform="translate(365 207)"/>
    <path id="Path_114" data-name="Path 114" d="M446,92h-.316V89.965q0-.254.015-.48c-.027.027-.058.056-.092.086s-.188.157-.464.381l-.172-.223.756-.584H446Zm1.121-1.221a2.023,2.023,0,0,1,.326-1.258,1.158,1.158,0,0,1,.969-.418,1.3,1.3,0,0,1,.348.037v.279a1.118,1.118,0,0,0-.344-.049.865.865,0,0,0-.7.287,1.461,1.461,0,0,0-.266.9h.024a.746.746,0,0,1,.679-.336.8.8,0,0,1,.606.232.876.876,0,0,1,.222.631.973.973,0,0,1-.244.7.863.863,0,0,1-.656.254.845.845,0,0,1-.7-.332A1.478,1.478,0,0,1,447.12,90.779Zm.959.984a.542.542,0,0,0,.43-.174.743.743,0,0,0,.154-.506.651.651,0,0,0-.142-.445.539.539,0,0,0-.426-.162.724.724,0,0,0-.323.072.611.611,0,0,0-.234.2.467.467,0,0,0-.086.264.905.905,0,0,0,.078.375.664.664,0,0,0,.221.275A.557.557,0,0,0,448.079,91.764Zm1.4.029a.291.291,0,0,1,.058-.2.217.217,0,0,1,.172-.068.226.226,0,0,1,.176.068.333.333,0,0,1,0,.393.231.231,0,0,1-.176.068.237.237,0,0,1-.166-.061A.273.273,0,0,1,449.478,91.793Zm0-1.725c0-.176.076-.264.23-.264s.24.088.24.264a.274.274,0,0,1-.064.2.231.231,0,0,1-.176.068.238.238,0,0,1-.166-.061A.273.273,0,0,1,449.478,90.068Zm2.734-.252a.653.653,0,0,1-.154.447.764.764,0,0,1-.434.232v.016a.819.819,0,0,1,.51.219.647.647,0,0,1,.166.461.753.753,0,0,1-.283.629,1.293,1.293,0,0,1-.8.219A2.286,2.286,0,0,1,450.8,92a1.386,1.386,0,0,1-.365-.119v-.309a1.811,1.811,0,0,0,.394.141,1.85,1.85,0,0,0,.4.047q.74,0,.74-.58,0-.52-.817-.52h-.281v-.279h.285a.866.866,0,0,0,.53-.147.487.487,0,0,0,.2-.41.4.4,0,0,0-.145-.328.586.586,0,0,0-.388-.119,1.209,1.209,0,0,0-.354.051,1.6,1.6,0,0,0-.379.188l-.164-.219a1.346,1.346,0,0,1,.4-.217,1.461,1.461,0,0,1,.484-.08.982.982,0,0,1,.646.191A.638.638,0,0,1,452.212,89.816Zm2.412.752a2.081,2.081,0,0,1-.234,1.105.862.862,0,0,1-1.414-.008,2.041,2.041,0,0,1-.241-1.1,2.084,2.084,0,0,1,.233-1.107.862.862,0,0,1,1.414.016A2.033,2.033,0,0,1,454.624,90.568Zm-1.561,0a2.092,2.092,0,0,0,.147.908.527.527,0,0,0,.936,0,2.114,2.114,0,0,0,.146-.9,2.085,2.085,0,0,0-.146-.9.527.527,0,0,0-.936,0A2.064,2.064,0,0,0,453.063,90.568Z" transform="translate(365 207)"/>
    <path id="Path_115" data-name="Path 115" d="M464.3,92h-.317V89.965c0-.169.006-.329.016-.48-.027.027-.058.056-.092.086s-.189.157-.465.381l-.172-.223.756-.584h.274Zm1.121-1.221a2.023,2.023,0,0,1,.326-1.258,1.158,1.158,0,0,1,.969-.418,1.283,1.283,0,0,1,.347.037v.279a1.107,1.107,0,0,0-.343-.049.868.868,0,0,0-.7.287,1.461,1.461,0,0,0-.265.9h.023a.749.749,0,0,1,.68-.336.8.8,0,0,1,.605.232.872.872,0,0,1,.223.631.973.973,0,0,1-.244.7.865.865,0,0,1-.656.254.845.845,0,0,1-.7-.332A1.472,1.472,0,0,1,465.425,90.779Zm.959.984a.539.539,0,0,0,.429-.174.743.743,0,0,0,.155-.506.651.651,0,0,0-.143-.445.537.537,0,0,0-.426-.162.72.72,0,0,0-.322.072.6.6,0,0,0-.234.2.459.459,0,0,0-.086.264.905.905,0,0,0,.078.375.664.664,0,0,0,.221.275A.554.554,0,0,0,466.384,91.764Zm1.4.029a.291.291,0,0,1,.059-.2.216.216,0,0,1,.172-.068.224.224,0,0,1,.175.068.329.329,0,0,1,0,.393.227.227,0,0,1-.175.068.235.235,0,0,1-.166-.061A.273.273,0,0,1,467.782,91.793Zm0-1.725q0-.264.231-.264t.24.264a.274.274,0,0,1-.065.2.227.227,0,0,1-.175.068.236.236,0,0,1-.166-.061A.273.273,0,0,1,467.782,90.068Zm2.977,1.275h-.424V92h-.311v-.656h-1.388v-.283l1.355-1.932h.344v1.92h.424Zm-.735-.3V90.1q0-.279.02-.631h-.016a2.972,2.972,0,0,1-.175.31l-.893,1.27Zm1.9-.793a1.044,1.044,0,0,1,.709.225.763.763,0,0,1,.259.611.882.882,0,0,1-.283.7,1.121,1.121,0,0,1-.777.252,1.43,1.43,0,0,1-.736-.154v-.312a1.131,1.131,0,0,0,.339.139,1.712,1.712,0,0,0,.4.049.8.8,0,0,0,.533-.162.579.579,0,0,0,.191-.469q0-.6-.732-.6a2.909,2.909,0,0,0-.5.057l-.168-.107.107-1.336h1.42v.3h-1.142l-.073.857A2.277,2.277,0,0,1,471.929,90.256Z" transform="translate(365 207)"/>
    <path id="Path_116" data-name="Path 116" d="M482.608,92h-.316V89.965c0-.169.005-.329.016-.48-.028.027-.058.056-.092.086s-.189.157-.465.381l-.172-.223.756-.584h.273Zm1.45,0,1.183-2.557h-1.556v-.3h1.9v.26L484.417,92Zm2.029-.207a.286.286,0,0,1,.059-.2.215.215,0,0,1,.171-.068.226.226,0,0,1,.176.068.329.329,0,0,1,0,.393.229.229,0,0,1-.176.068.239.239,0,0,1-.166-.061A.273.273,0,0,1,486.087,91.793Zm0-1.725c0-.176.077-.264.23-.264s.241.088.241.264a.274.274,0,0,1-.065.2.23.23,0,0,1-.176.068.239.239,0,0,1-.166-.061A.273.273,0,0,1,486.087,90.068Zm2.857.5a2.081,2.081,0,0,1-.234,1.105.862.862,0,0,1-1.414-.008,2.051,2.051,0,0,1-.24-1.1,2.085,2.085,0,0,1,.232-1.107.862.862,0,0,1,1.414.016A2.023,2.023,0,0,1,488.944,90.568Zm-1.56,0a2.11,2.11,0,0,0,.146.908.527.527,0,0,0,.936,0,2.114,2.114,0,0,0,.146-.9,2.085,2.085,0,0,0-.146-.9.527.527,0,0,0-.936,0A2.082,2.082,0,0,0,487.384,90.568Zm3.849,0A2.081,2.081,0,0,1,491,91.674a.862.862,0,0,1-1.414-.008,2.051,2.051,0,0,1-.24-1.1,2.085,2.085,0,0,1,.232-1.107.862.862,0,0,1,1.414.016A2.023,2.023,0,0,1,491.233,90.568Zm-1.56,0a2.109,2.109,0,0,0,.146.908.527.527,0,0,0,.936,0,2.1,2.1,0,0,0,.146-.9,2.07,2.07,0,0,0-.146-.9.527.527,0,0,0-.936,0A2.081,2.081,0,0,0,489.673,90.568Z" transform="translate(365 207)"/>
    <path id="Path_117" data-name="Path 117" d="M500.913,92H500.6V89.965q0-.254.015-.48c-.027.027-.058.056-.091.086s-.189.157-.465.381l-.172-.223.756-.584h.273Zm1.449,0,1.184-2.557h-1.557v-.3h1.9v.26L502.722,92Zm2.03-.207a.291.291,0,0,1,.058-.2.219.219,0,0,1,.172-.068.226.226,0,0,1,.176.068.333.333,0,0,1,0,.393.231.231,0,0,1-.176.068.237.237,0,0,1-.166-.061A.273.273,0,0,1,504.392,91.793Zm0-1.725c0-.176.076-.264.23-.264s.24.088.24.264a.274.274,0,0,1-.064.2.231.231,0,0,1-.176.068.238.238,0,0,1-.166-.061A.273.273,0,0,1,504.392,90.068ZM506.558,92h-.317V89.965c0-.169.005-.329.016-.48-.028.027-.058.056-.092.086s-.189.157-.465.381l-.172-.223.756-.584h.274Zm1.98-1.744a1.043,1.043,0,0,1,.709.225.763.763,0,0,1,.26.611.885.885,0,0,1-.283.7,1.125,1.125,0,0,1-.778.252,1.433,1.433,0,0,1-.736-.154v-.312a1.128,1.128,0,0,0,.34.139,1.7,1.7,0,0,0,.4.049.8.8,0,0,0,.533-.162.579.579,0,0,0,.192-.469q0-.6-.733-.6a2.92,2.92,0,0,0-.5.057l-.168-.107.108-1.336h1.42v.3h-1.143l-.072.857A2.274,2.274,0,0,1,508.538,90.256Z" transform="translate(365 207)"/>
    <path id="Path_118" data-name="Path 118" d="M519.218,92H518.9V89.965c0-.169.006-.329.016-.48-.027.027-.058.056-.092.086s-.189.157-.465.381l-.172-.223.756-.584h.274Zm1.449,0,1.184-2.557h-1.557v-.3h1.9v.26L521.026,92Zm2.029-.207a.291.291,0,0,1,.059-.2.218.218,0,0,1,.172-.068.228.228,0,0,1,.176.068.333.333,0,0,1,0,.393.231.231,0,0,1-.176.068.235.235,0,0,1-.166-.061A.274.274,0,0,1,522.7,91.793Zm0-1.725q0-.264.231-.264t.24.264a.274.274,0,0,1-.064.2.231.231,0,0,1-.176.068.236.236,0,0,1-.166-.061A.274.274,0,0,1,522.7,90.068Zm2.735-.252a.648.648,0,0,1-.155.447.761.761,0,0,1-.433.232v.016a.819.819,0,0,1,.51.219.647.647,0,0,1,.166.461.75.75,0,0,1-.284.629,1.29,1.29,0,0,1-.8.219,2.286,2.286,0,0,1-.416-.035,1.4,1.4,0,0,1-.366-.119v-.309a1.829,1.829,0,0,0,.793.188q.741,0,.741-.58,0-.52-.817-.52h-.281v-.279h.285a.861.861,0,0,0,.529-.147.485.485,0,0,0,.2-.41.4.4,0,0,0-.145-.328.586.586,0,0,0-.388-.119,1.209,1.209,0,0,0-.354.051,1.581,1.581,0,0,0-.379.188l-.164-.219a1.353,1.353,0,0,1,.4-.217,1.467,1.467,0,0,1,.485-.08.982.982,0,0,1,.646.191A.638.638,0,0,1,525.431,89.816Zm2.412.752a2.07,2.07,0,0,1-.235,1.105.862.862,0,0,1-1.414-.008,2.051,2.051,0,0,1-.24-1.1,2.084,2.084,0,0,1,.233-1.107.862.862,0,0,1,1.414.016A2.033,2.033,0,0,1,527.843,90.568Zm-1.561,0a2.091,2.091,0,0,0,.147.908.526.526,0,0,0,.935,0,2.1,2.1,0,0,0,.147-.9,2.068,2.068,0,0,0-.147-.9.526.526,0,0,0-.935,0A2.063,2.063,0,0,0,526.282,90.568Z" transform="translate(365 207)"/>
    <path id="Path_119" data-name="Path 119" d="M537.522,92h-.316V89.965c0-.169.005-.329.016-.48-.028.027-.058.056-.092.086s-.189.157-.465.381l-.172-.223.756-.584h.273Zm1.45,0,1.183-2.557H538.6v-.3h1.9v.26L539.331,92ZM541,91.793a.291.291,0,0,1,.059-.2.215.215,0,0,1,.171-.068.225.225,0,0,1,.176.068.329.329,0,0,1,0,.393.229.229,0,0,1-.176.068.239.239,0,0,1-.166-.061A.273.273,0,0,1,541,91.793Zm0-1.725c0-.176.077-.264.23-.264s.241.088.241.264a.274.274,0,0,1-.065.2.229.229,0,0,1-.176.068.239.239,0,0,1-.166-.061A.273.273,0,0,1,541,90.068Zm2.977,1.275h-.424V92h-.311v-.656h-1.389v-.283l1.356-1.932h.344v1.92h.424Zm-.735-.3V90.1q0-.279.02-.631h-.016a2.794,2.794,0,0,1-.176.31l-.892,1.27Zm1.9-.793a1.041,1.041,0,0,1,.709.225.76.76,0,0,1,.26.611.882.882,0,0,1-.283.7,1.123,1.123,0,0,1-.777.252,1.437,1.437,0,0,1-.737-.154v-.312a1.139,1.139,0,0,0,.34.139,1.712,1.712,0,0,0,.4.049.8.8,0,0,0,.533-.162.582.582,0,0,0,.191-.469q0-.6-.732-.6a2.908,2.908,0,0,0-.5.057l-.168-.107.107-1.336h1.42v.3h-1.143l-.072.857A2.274,2.274,0,0,1,545.147,90.256Z" transform="translate(365 207)"/>
    <path id="Path_120" data-name="Path 120" d="M555.827,92h-.316V89.965q0-.254.015-.48c-.027.027-.058.056-.091.086s-.189.157-.465.381l-.172-.223.756-.584h.273Zm2.033-2.9a.966.966,0,0,1,.619.182.6.6,0,0,1,.229.5.627.627,0,0,1-.131.385,1.149,1.149,0,0,1-.418.316,1.389,1.389,0,0,1,.494.35.651.651,0,0,1,.147.422.712.712,0,0,1-.248.568,1.017,1.017,0,0,1-.68.211,1.091,1.091,0,0,1-.7-.2.693.693,0,0,1-.246-.568.847.847,0,0,1,.6-.764,1.106,1.106,0,0,1-.387-.328.706.706,0,0,1-.117-.4.6.6,0,0,1,.228-.494A.953.953,0,0,1,557.86,89.1Zm-.617,2.176a.443.443,0,0,0,.162.365.721.721,0,0,0,.459.131.682.682,0,0,0,.453-.137.465.465,0,0,0,.162-.375.452.452,0,0,0-.152-.336,1.533,1.533,0,0,0-.531-.287,1.147,1.147,0,0,0-.422.277A.533.533,0,0,0,557.243,91.279Zm.613-1.912a.573.573,0,0,0-.382.117.387.387,0,0,0-.139.313.446.446,0,0,0,.115.309,1.208,1.208,0,0,0,.426.258,1.06,1.06,0,0,0,.4-.252.465.465,0,0,0,.117-.314.381.381,0,0,0-.143-.312A.589.589,0,0,0,557.856,89.367Zm1.45,2.426a.291.291,0,0,1,.058-.2.219.219,0,0,1,.172-.068.226.226,0,0,1,.176.068.333.333,0,0,1,0,.393.231.231,0,0,1-.176.068A.237.237,0,0,1,559.37,92,.274.274,0,0,1,559.306,91.793Zm0-1.725c0-.176.076-.264.23-.264s.24.088.24.264a.274.274,0,0,1-.064.2.231.231,0,0,1-.176.068.238.238,0,0,1-.166-.061A.274.274,0,0,1,559.306,90.068Zm2.857.5a2.081,2.081,0,0,1-.234,1.105.862.862,0,0,1-1.414-.008,2.041,2.041,0,0,1-.241-1.1,2.084,2.084,0,0,1,.233-1.107.862.862,0,0,1,1.414.016A2.033,2.033,0,0,1,562.163,90.568Zm-1.56,0a2.094,2.094,0,0,0,.146.908.527.527,0,0,0,.936,0,2.114,2.114,0,0,0,.146-.9,2.085,2.085,0,0,0-.146-.9.527.527,0,0,0-.936,0A2.066,2.066,0,0,0,560.6,90.568Zm3.849,0a2.081,2.081,0,0,1-.234,1.105.862.862,0,0,1-1.414-.008,2.05,2.05,0,0,1-.241-1.1,2.084,2.084,0,0,1,.233-1.107.862.862,0,0,1,1.414.016A2.033,2.033,0,0,1,564.452,90.568Zm-1.56,0a2.094,2.094,0,0,0,.146.908.527.527,0,0,0,.936,0,2.114,2.114,0,0,0,.146-.9,2.085,2.085,0,0,0-.146-.9.527.527,0,0,0-.936,0A2.066,2.066,0,0,0,562.892,90.568Z" transform="translate(365 207)"/>
    <path id="Path_121" data-name="Path 121" d="M115,83H563" transform="translate(365 207)" fill="none" stroke="#00549f" stroke-width="1"/>
  </g>
</svg>
