<svg xmlns="http://www.w3.org/2000/svg" width="424.521" height="46.307" viewBox="0 0 424.521 46.307">
  <g id="Group_42" data-name="Group 42" transform="translate(-466.5 -798.75)">
    <rect id="Rectangle_111" data-name="Rectangle 111" width="414" height="40" transform="translate(474 799)" fill="#d9d9d9" opacity="0.24"/>
    <path id="Path_545" data-name="Path 545" d="M148.5,680h413" transform="translate(326 119)" fill="none" stroke="#00549f" stroke-width="0.5" stroke-dasharray="1 1" opacity="0.12"/>
    <path id="Path_546" data-name="Path 546" d="M148.5,682.083h413" transform="translate(326 119)" fill="none" stroke="#00549f" stroke-width="0.5" stroke-dasharray="1 1" opacity="0.12"/>
    <path id="Path_547" data-name="Path 547" d="M148.5,684.167h413" transform="translate(326 119)" fill="none" stroke="#00549f" stroke-width="0.5" stroke-dasharray="1 1" opacity="0.12"/>
    <path id="Path_548" data-name="Path 548" d="M148.5,686.25h413" transform="translate(326 119)" fill="none" stroke="#00549f" stroke-width="0.5" stroke-dasharray="1 1" opacity="0.12"/>
    <path id="Path_549" data-name="Path 549" d="M148.5,688.333h413" transform="translate(326 119)" fill="none" stroke="#00549f" stroke-width="0.5" stroke-dasharray="1 1" opacity="0.12"/>
    <path id="Path_550" data-name="Path 550" d="M148.5,690.417h413" transform="translate(326 119)" fill="none" stroke="#00549f" stroke-width="0.5" stroke-dasharray="1 1" opacity="0.12"/>
    <path id="Path_551" data-name="Path 551" d="M148.5,692.5h413" transform="translate(326 119)" fill="none" stroke="#00549f" stroke-width="0.5" stroke-dasharray="1 1" opacity="0.12"/>
    <path id="Path_552" data-name="Path 552" d="M148.5,694.583h413" transform="translate(326 119)" fill="none" stroke="#00549f" stroke-width="0.5" stroke-dasharray="1 1" opacity="0.12"/>
    <path id="Path_553" data-name="Path 553" d="M148.5,696.667h413" transform="translate(326 119)" fill="none" stroke="#00549f" stroke-width="0.5" stroke-dasharray="1 1" opacity="0.12"/>
    <path id="Path_554" data-name="Path 554" d="M148.5,698.75h413" transform="translate(326 119)" fill="none" stroke="#00549f" stroke-width="0.5" stroke-dasharray="1 1" opacity="0.12"/>
    <path id="Path_555" data-name="Path 555" d="M148.5,700.833h413" transform="translate(326 119)" fill="none" stroke="#00549f" stroke-width="0.5" stroke-dasharray="1 1" opacity="0.12"/>
    <path id="Path_556" data-name="Path 556" d="M148.5,702.917h413" transform="translate(326 119)" fill="none" stroke="#00549f" stroke-width="0.5" stroke-dasharray="1 1" opacity="0.12"/>
    <path id="Path_557" data-name="Path 557" d="M148.5,705h413" transform="translate(326 119)" fill="none" stroke="#00549f" stroke-width="0.5" stroke-dasharray="1 1" opacity="0.12"/>
    <path id="Path_558" data-name="Path 558" d="M148.5,707.083h413" transform="translate(326 119)" fill="none" stroke="#00549f" stroke-width="0.5" stroke-dasharray="1 1" opacity="0.12"/>
    <path id="Path_559" data-name="Path 559" d="M148.5,709.167h413" transform="translate(326 119)" fill="none" stroke="#00549f" stroke-width="0.5" stroke-dasharray="1 1" opacity="0.12"/>
    <path id="Path_560" data-name="Path 560" d="M148.5,711.25h413" transform="translate(326 119)" fill="none" stroke="#00549f" stroke-width="0.5" stroke-dasharray="1 1" opacity="0.12"/>
    <path id="Path_561" data-name="Path 561" d="M148.5,713.333h413" transform="translate(326 119)" fill="none" stroke="#00549f" stroke-width="0.5" stroke-dasharray="1 1" opacity="0.12"/>
    <path id="Path_562" data-name="Path 562" d="M148.5,715.417h413" transform="translate(326 119)" fill="none" stroke="#00549f" stroke-width="0.5" stroke-dasharray="1 1" opacity="0.12"/>
    <path id="Path_563" data-name="Path 563" d="M148.5,717.5h413" transform="translate(326 119)" fill="none" stroke="#00549f" stroke-width="0.5" stroke-dasharray="1 1" opacity="0.12"/>
    <path id="Path_564" data-name="Path 564" d="M148.5,719.583h413" transform="translate(326 119)" fill="none" stroke="#00549f" stroke-width="0.5" stroke-dasharray="1 1" opacity="0.12"/>
    <circle id="Ellipse_163" data-name="Ellipse 163" cx="1.5" cy="1.5" r="1.5" transform="translate(479 821) rotate(180)" fill="#2887dc"/>
    <circle id="Ellipse_164" data-name="Ellipse 164" cx="1.5" cy="1.5" r="1.5" transform="translate(479 833) rotate(180)" fill="#003463"/>
    <circle id="Ellipse_165" data-name="Ellipse 165" cx="1.5" cy="1.5" r="1.5" transform="translate(532 835) rotate(180)" fill="#033b6c"/>
    <circle id="Ellipse_166" data-name="Ellipse 166" cx="1.5" cy="1.5" r="1.5" transform="translate(598 832) rotate(180)" fill="#003463"/>
    <circle id="Ellipse_167" data-name="Ellipse 167" cx="1.5" cy="1.5" r="1.5" transform="translate(753 822) rotate(180)" fill="#003463"/>
    <circle id="Ellipse_168" data-name="Ellipse 168" cx="1.5" cy="1.5" r="1.5" transform="translate(871 838) rotate(180)" fill="#033b6c"/>
    <circle id="Ellipse_169" data-name="Ellipse 169" cx="1.5" cy="1.5" r="1.5" transform="translate(871 824) rotate(180)" fill="#2887dc"/>
    <circle id="Ellipse_170" data-name="Ellipse 170" cx="1.5" cy="1.5" r="1.5" transform="translate(532 816) rotate(180)" fill="#2887dc"/>
    <circle id="Ellipse_171" data-name="Ellipse 171" cx="1.5" cy="1.5" r="1.5" transform="translate(598 827) rotate(180)" fill="#2887dc"/>
    <circle id="Ellipse_172" data-name="Ellipse 172" cx="1.5" cy="1.5" r="1.5" transform="translate(684 830) rotate(180)" fill="#2887dc"/>
    <circle id="Ellipse_173" data-name="Ellipse 173" cx="1.5" cy="1.5" r="1.5" transform="translate(684 838) rotate(180)" fill="#033b6c"/>
    <path id="Path_565" data-name="Path 565" d="M423.5,690.5A1.5,1.5,0,1,0,425,689,1.5,1.5,0,0,0,423.5,690.5Z" transform="translate(326 119)" fill="#2887dc"/>
    <circle id="Ellipse_174" data-name="Ellipse 174" cx="1.5" cy="1.5" r="1.5" transform="translate(804 835) rotate(180)" fill="#003463"/>
    <circle id="Ellipse_175" data-name="Ellipse 175" cx="1.5" cy="1.5" r="1.5" transform="translate(804 821) rotate(180)" fill="#2887dc"/>
    <circle id="Ellipse_176" data-name="Ellipse 176" cx="1.5" cy="1.5" r="1.5" transform="translate(888 819) rotate(180)" fill="#2887dc"/>
    <circle id="Ellipse_177" data-name="Ellipse 177" cx="1.5" cy="1.5" r="1.5" transform="translate(888 823) rotate(180)" fill="#003463"/>
    <path id="Path_566" data-name="Path 566" d="M152,697.24a.7.7,0,0,1-.274.588,1.181,1.181,0,0,1-.742.211,1.862,1.862,0,0,1-.781-.131v-.32a2.118,2.118,0,0,0,.383.117,1.991,1.991,0,0,0,.41.043.836.836,0,0,0,.5-.125.417.417,0,0,0,.168-.352.437.437,0,0,0-.061-.242.529.529,0,0,0-.2-.175,2.689,2.689,0,0,0-.424-.182,1.372,1.372,0,0,1-.57-.338.75.75,0,0,1-.17-.51.634.634,0,0,1,.248-.525,1.033,1.033,0,0,1,.656-.2,1.942,1.942,0,0,1,.784.156l-.1.289a1.772,1.772,0,0,0-.687-.149.66.66,0,0,0-.412.114.372.372,0,0,0-.149.314.482.482,0,0,0,.055.244.514.514,0,0,0,.183.174,2.434,2.434,0,0,0,.4.174,1.561,1.561,0,0,1,.617.344A.674.674,0,0,1,152,697.24Z" transform="translate(326 119)" fill="#2887dc"/>
    <path id="Path_567" data-name="Path 567" d="M152.672,708.545a1.442,1.442,0,0,1-.385,1.082,1.515,1.515,0,0,1-1.1.373h-.791v-2.855h.875a1.281,1.281,0,0,1,1.4,1.4Zm-.352.012a1.145,1.145,0,0,0-.281-.842,1.118,1.118,0,0,0-.832-.283h-.482v2.281h.4a1.23,1.23,0,0,0,.892-.291A1.156,1.156,0,0,0,152.32,708.557Z" transform="translate(326 119)" fill="#033b6c"/>
    <path id="Path_568" data-name="Path 568" d="M236.5,681v40" transform="translate(326 119)" fill="none" stroke="#7ad9a2" stroke-width="1"/>
    <path id="Path_569" data-name="Path 569" d="M306,681v40" transform="translate(326 119)" fill="none" stroke="#7ad9a2" stroke-width="1"/>
    <path id="Path_570" data-name="Path 570" d="M148.4,726h-.316v-2.035c0-.169.005-.33.016-.481-.028.028-.058.056-.092.086s-.189.157-.465.381l-.172-.222.756-.584h.273Zm2.965,0h-1.877v-.279l.752-.756a5.446,5.446,0,0,0,.453-.5,1.307,1.307,0,0,0,.165-.289.84.84,0,0,0,.054-.3.477.477,0,0,0-.138-.361.53.53,0,0,0-.385-.135.976.976,0,0,0-.338.058,1.379,1.379,0,0,0-.354.213l-.172-.22a1.318,1.318,0,0,1,.86-.328.907.907,0,0,1,.631.207.705.705,0,0,1,.228.552,1.074,1.074,0,0,1-.152.537,3.452,3.452,0,0,1-.57.672l-.625.612v.015h1.468Zm.514-.207a.29.29,0,0,1,.059-.2.214.214,0,0,1,.171-.069.224.224,0,0,1,.176.069.328.328,0,0,1,0,.392.228.228,0,0,1-.176.069.241.241,0,0,1-.166-.061A.273.273,0,0,1,151.875,725.793Zm0-1.725c0-.175.077-.263.23-.263s.241.088.241.263a.276.276,0,0,1-.065.2.231.231,0,0,1-.176.068.236.236,0,0,1-.166-.061A.272.272,0,0,1,151.875,724.068Zm2.857.5a2.083,2.083,0,0,1-.234,1.106.862.862,0,0,1-1.414-.008,2.052,2.052,0,0,1-.24-1.1,2.084,2.084,0,0,1,.232-1.107.862.862,0,0,1,1.414.016A2.021,2.021,0,0,1,154.732,724.568Zm-1.56,0a2.114,2.114,0,0,0,.146.909.527.527,0,0,0,.936,0,2.1,2.1,0,0,0,.146-.905,2.068,2.068,0,0,0-.146-.9.527.527,0,0,0-.936,0A2.083,2.083,0,0,0,153.172,724.568Zm3.849,0a2.083,2.083,0,0,1-.234,1.106.862.862,0,0,1-1.414-.008,2.052,2.052,0,0,1-.24-1.1,2.084,2.084,0,0,1,.232-1.107.862.862,0,0,1,1.414.016A2.021,2.021,0,0,1,157.021,724.568Zm-1.56,0a2.114,2.114,0,0,0,.146.909.527.527,0,0,0,.936,0,2.1,2.1,0,0,0,.146-.905,2.068,2.068,0,0,0-.146-.9.527.527,0,0,0-.936,0A2.083,2.083,0,0,0,155.461,724.568Z" transform="translate(326 119)"/>
    <path id="Path_571" data-name="Path 571" d="M143.51,719.256a1.047,1.047,0,0,1,.709.224.766.766,0,0,1,.26.612.883.883,0,0,1-.284.7,1.121,1.121,0,0,1-.777.252,1.429,1.429,0,0,1-.736-.154v-.313a1.127,1.127,0,0,0,.339.139,1.746,1.746,0,0,0,.4.049.8.8,0,0,0,.533-.162.58.58,0,0,0,.191-.469q0-.6-.732-.6a2.892,2.892,0,0,0-.5.057l-.168-.108.107-1.335h1.42v.3h-1.142l-.073.858A2.275,2.275,0,0,1,143.51,719.256Zm3.289.312a2.073,2.073,0,0,1-.235,1.106.862.862,0,0,1-1.414-.008,2.052,2.052,0,0,1-.24-1.1,2.083,2.083,0,0,1,.233-1.107.862.862,0,0,1,1.414.016A2.031,2.031,0,0,1,146.8,719.568Zm-1.561,0a2.1,2.1,0,0,0,.147.909.526.526,0,0,0,.935,0,2.1,2.1,0,0,0,.147-.905,2.066,2.066,0,0,0-.147-.9.526.526,0,0,0-.935,0A2.065,2.065,0,0,0,145.238,719.568Z" transform="translate(326 119)"/>
    <path id="Path_572" data-name="Path 572" d="M142.979,715l1.183-2.557H142.6v-.3h1.9v.259l-1.168,2.6Zm3.82-1.432a2.073,2.073,0,0,1-.235,1.106.862.862,0,0,1-1.414-.008,2.052,2.052,0,0,1-.24-1.1,2.083,2.083,0,0,1,.233-1.107.862.862,0,0,1,1.414.016A2.031,2.031,0,0,1,146.8,713.568Zm-1.561,0a2.1,2.1,0,0,0,.147.909.526.526,0,0,0,.935,0,2.1,2.1,0,0,0,.147-.905,2.066,2.066,0,0,0-.147-.9.526.526,0,0,0-.935,0A2.065,2.065,0,0,0,145.238,713.568Z" transform="translate(326 119)"/>
    <path id="Path_573" data-name="Path 573" d="M144.494,707.363q0,1.676-1.3,1.676a1.317,1.317,0,0,1-.359-.039v-.279a1.145,1.145,0,0,0,.355.05.86.86,0,0,0,.707-.289,1.456,1.456,0,0,0,.262-.89h-.023a.706.706,0,0,1-.285.248.929.929,0,0,1-.4.084.8.8,0,0,1-.6-.227.862.862,0,0,1-.223-.633.975.975,0,0,1,.248-.7.953.953,0,0,1,1.164-.107.934.934,0,0,1,.336.435A1.773,1.773,0,0,1,144.494,707.363Zm-.961-.982a.532.532,0,0,0-.431.18.745.745,0,0,0-.153.5.653.653,0,0,0,.141.443.539.539,0,0,0,.428.16.738.738,0,0,0,.326-.072.588.588,0,0,0,.236-.2.46.46,0,0,0,.086-.262.9.9,0,0,0-.08-.379.656.656,0,0,0-.225-.274A.56.56,0,0,0,143.533,706.381Zm3.266,1.187a2.073,2.073,0,0,1-.235,1.106.862.862,0,0,1-1.414-.008,2.052,2.052,0,0,1-.24-1.1,2.083,2.083,0,0,1,.233-1.107.862.862,0,0,1,1.414.016A2.031,2.031,0,0,1,146.8,707.568Zm-1.561,0a2.1,2.1,0,0,0,.147.909.526.526,0,0,0,.935,0,2.1,2.1,0,0,0,.147-.905,2.066,2.066,0,0,0-.147-.9.526.526,0,0,0-.935,0A2.065,2.065,0,0,0,145.238,707.568Z" transform="translate(326 119)"/>
    <path id="Path_574" data-name="Path 574" d="M141.529,703h-.316v-2.035c0-.169.005-.33.016-.481-.028.028-.058.056-.092.086s-.189.157-.465.381l-.172-.222.756-.584h.273Zm2.289,0H143.5v-2.035c0-.169.005-.33.016-.481-.028.028-.058.056-.092.086s-.189.157-.465.381l-.172-.222.756-.584h.273Zm2.981-1.432a2.073,2.073,0,0,1-.235,1.106.862.862,0,0,1-1.414-.008,2.052,2.052,0,0,1-.24-1.1,2.083,2.083,0,0,1,.233-1.107.862.862,0,0,1,1.414.016A2.031,2.031,0,0,1,146.8,701.568Zm-1.561,0a2.1,2.1,0,0,0,.147.909.526.526,0,0,0,.935,0,2.1,2.1,0,0,0,.147-.905,2.066,2.066,0,0,0-.147-.9.526.526,0,0,0-.935,0A2.065,2.065,0,0,0,145.238,701.568Z" transform="translate(326 119)"/>
    <path id="Path_575" data-name="Path 575" d="M141.529,697h-.316v-2.035c0-.169.005-.33.016-.481-.028.028-.058.056-.092.086s-.189.157-.465.381l-.172-.222.756-.584h.273Zm2.858-2.184a.649.649,0,0,1-.155.448.759.759,0,0,1-.433.232v.016a.816.816,0,0,1,.51.218.649.649,0,0,1,.166.461.75.75,0,0,1-.284.629,1.289,1.289,0,0,1-.8.219,2.328,2.328,0,0,1-.416-.035,1.413,1.413,0,0,1-.366-.119v-.309a1.824,1.824,0,0,0,.793.188q.741,0,.741-.58,0-.521-.817-.52h-.281v-.279h.285a.858.858,0,0,0,.529-.147.484.484,0,0,0,.2-.41.4.4,0,0,0-.145-.328.588.588,0,0,0-.388-.119,1.2,1.2,0,0,0-.354.051,1.548,1.548,0,0,0-.379.187l-.164-.219a1.36,1.36,0,0,1,.4-.216,1.451,1.451,0,0,1,.485-.08.98.98,0,0,1,.646.191A.637.637,0,0,1,144.387,694.816Zm2.412.752a2.073,2.073,0,0,1-.235,1.106.862.862,0,0,1-1.414-.008,2.052,2.052,0,0,1-.24-1.1,2.083,2.083,0,0,1,.233-1.107.862.862,0,0,1,1.414.016A2.031,2.031,0,0,1,146.8,695.568Zm-1.561,0a2.1,2.1,0,0,0,.147.909.526.526,0,0,0,.935,0,2.1,2.1,0,0,0,.147-.905,2.066,2.066,0,0,0-.147-.9.526.526,0,0,0-.935,0A2.065,2.065,0,0,0,145.238,695.568Z" transform="translate(326 119)"/>
    <path id="Path_576" data-name="Path 576" d="M141.529,691h-.316v-2.035c0-.169.005-.33.016-.481-.028.028-.058.056-.092.086s-.189.157-.465.381l-.172-.222.756-.584h.273Zm1.981-1.744a1.047,1.047,0,0,1,.709.224.766.766,0,0,1,.26.612.883.883,0,0,1-.284.7,1.121,1.121,0,0,1-.777.252,1.429,1.429,0,0,1-.736-.154v-.313a1.127,1.127,0,0,0,.339.139,1.746,1.746,0,0,0,.4.049.8.8,0,0,0,.533-.162.58.58,0,0,0,.191-.469q0-.6-.732-.6a2.892,2.892,0,0,0-.5.057l-.168-.108.107-1.335h1.42v.3h-1.142l-.073.858A2.275,2.275,0,0,1,143.51,689.256Zm3.289.312a2.073,2.073,0,0,1-.235,1.106.862.862,0,0,1-1.414-.008,2.052,2.052,0,0,1-.24-1.1,2.083,2.083,0,0,1,.233-1.107.862.862,0,0,1,1.414.016A2.031,2.031,0,0,1,146.8,689.568Zm-1.561,0a2.1,2.1,0,0,0,.147.909.526.526,0,0,0,.935,0,2.1,2.1,0,0,0,.147-.905,2.066,2.066,0,0,0-.147-.9.526.526,0,0,0-.935,0A2.065,2.065,0,0,0,145.238,689.568Z" transform="translate(326 119)"/>
    <path id="Path_577" data-name="Path 577" d="M141.529,685h-.316v-2.035c0-.169.005-.33.016-.481-.028.028-.058.056-.092.086s-.189.157-.465.381l-.172-.222.756-.584h.273Zm1.45,0,1.183-2.557H142.6v-.3h1.9v.259l-1.168,2.6Zm3.82-1.432a2.073,2.073,0,0,1-.235,1.106.862.862,0,0,1-1.414-.008,2.052,2.052,0,0,1-.24-1.1,2.083,2.083,0,0,1,.233-1.107.862.862,0,0,1,1.414.016A2.031,2.031,0,0,1,146.8,683.568Zm-1.561,0a2.1,2.1,0,0,0,.147.909.526.526,0,0,0,.935,0,2.1,2.1,0,0,0,.147-.905,2.066,2.066,0,0,0-.147-.9.526.526,0,0,0-.935,0A2.065,2.065,0,0,0,145.238,683.568Z" transform="translate(326 119)"/>
    <path id="Path_578" data-name="Path 578" d="M165.4,726h-.316v-2.035c0-.169.005-.33.016-.481-.028.028-.058.056-.092.086s-.189.157-.465.381l-.172-.222.756-.584h.273Zm2.965,0h-1.877v-.279l.752-.756a5.446,5.446,0,0,0,.453-.5,1.307,1.307,0,0,0,.165-.289.84.84,0,0,0,.054-.3.477.477,0,0,0-.138-.361.53.53,0,0,0-.385-.135.976.976,0,0,0-.338.058,1.379,1.379,0,0,0-.354.213l-.172-.22a1.318,1.318,0,0,1,.86-.328.907.907,0,0,1,.631.207.705.705,0,0,1,.228.552,1.074,1.074,0,0,1-.152.537,3.452,3.452,0,0,1-.57.672l-.625.612v.015h1.468Zm.514-.207a.29.29,0,0,1,.059-.2.214.214,0,0,1,.171-.069.224.224,0,0,1,.176.069.328.328,0,0,1,0,.392.228.228,0,0,1-.176.069.241.241,0,0,1-.166-.061A.273.273,0,0,1,168.875,725.793Zm0-1.725c0-.175.077-.263.23-.263s.241.088.241.263a.276.276,0,0,1-.065.2.231.231,0,0,1-.176.068.236.236,0,0,1-.166-.061A.272.272,0,0,1,168.875,724.068ZM171.041,726h-.316v-2.035c0-.169,0-.33.015-.481-.027.028-.058.056-.092.086s-.188.157-.464.381l-.172-.222.756-.584h.273Zm1.98-1.744a1.045,1.045,0,0,1,.709.224.763.763,0,0,1,.26.612.882.882,0,0,1-.283.7,1.123,1.123,0,0,1-.777.252,1.435,1.435,0,0,1-.737-.154v-.313a1.145,1.145,0,0,0,.34.139,1.746,1.746,0,0,0,.4.049.8.8,0,0,0,.533-.162.583.583,0,0,0,.191-.469q0-.6-.732-.6a2.892,2.892,0,0,0-.5.057l-.168-.108.107-1.335h1.42v.3h-1.143l-.072.858A2.272,2.272,0,0,1,173.021,724.256Z" transform="translate(326 119)"/>
    <path id="Path_579" data-name="Path 579" d="M182.4,726h-.316v-2.035c0-.169.005-.33.016-.481-.028.028-.058.056-.092.086s-.189.157-.465.381l-.172-.222.756-.584h.273Zm2.965,0h-1.877v-.279l.752-.756a5.446,5.446,0,0,0,.453-.5,1.307,1.307,0,0,0,.165-.289.84.84,0,0,0,.054-.3.477.477,0,0,0-.138-.361.53.53,0,0,0-.385-.135.976.976,0,0,0-.338.058,1.379,1.379,0,0,0-.354.213l-.172-.22a1.318,1.318,0,0,1,.86-.328.907.907,0,0,1,.631.207.705.705,0,0,1,.228.552,1.074,1.074,0,0,1-.152.537,3.452,3.452,0,0,1-.57.672l-.625.612v.015h1.468Zm.514-.207a.29.29,0,0,1,.059-.2.214.214,0,0,1,.171-.069.224.224,0,0,1,.176.069.328.328,0,0,1,0,.392.228.228,0,0,1-.176.069.241.241,0,0,1-.166-.061A.273.273,0,0,1,185.875,725.793Zm0-1.725c0-.175.077-.263.23-.263s.241.088.241.263a.276.276,0,0,1-.065.2.231.231,0,0,1-.176.068.236.236,0,0,1-.166-.061A.272.272,0,0,1,185.875,724.068Zm2.734-.252a.649.649,0,0,1-.154.448.759.759,0,0,1-.434.232v.016a.811.811,0,0,1,.51.218.644.644,0,0,1,.166.461.749.749,0,0,1-.283.629,1.292,1.292,0,0,1-.805.219,2.336,2.336,0,0,1-.416-.035,1.406,1.406,0,0,1-.365-.119v-.309a1.824,1.824,0,0,0,.793.188q.741,0,.74-.58,0-.521-.816-.52h-.281v-.279h.285a.86.86,0,0,0,.529-.147.486.486,0,0,0,.195-.41.4.4,0,0,0-.144-.328.591.591,0,0,0-.389-.119,1.191,1.191,0,0,0-.353.051,1.549,1.549,0,0,0-.379.187l-.164-.219a1.359,1.359,0,0,1,.4-.216,1.449,1.449,0,0,1,.484-.08.983.983,0,0,1,.647.191A.636.636,0,0,1,188.609,723.816Zm2.412.752a2.083,2.083,0,0,1-.234,1.106.862.862,0,0,1-1.414-.008,2.052,2.052,0,0,1-.24-1.1,2.084,2.084,0,0,1,.232-1.107.862.862,0,0,1,1.414.016A2.021,2.021,0,0,1,191.021,724.568Zm-1.56,0a2.114,2.114,0,0,0,.146.909.527.527,0,0,0,.936,0,2.1,2.1,0,0,0,.146-.905,2.068,2.068,0,0,0-.146-.9.527.527,0,0,0-.936,0A2.083,2.083,0,0,0,189.461,724.568Z" transform="translate(326 119)"/>
    <path id="Path_580" data-name="Path 580" d="M199.4,726h-.316v-2.035c0-.169.005-.33.016-.481-.028.028-.058.056-.092.086s-.189.157-.465.381l-.172-.222.756-.584h.273Zm2.965,0h-1.877v-.279l.752-.756a5.446,5.446,0,0,0,.453-.5,1.307,1.307,0,0,0,.165-.289.84.84,0,0,0,.054-.3.477.477,0,0,0-.138-.361.53.53,0,0,0-.385-.135.976.976,0,0,0-.338.058,1.379,1.379,0,0,0-.354.213l-.172-.22a1.318,1.318,0,0,1,.86-.328.907.907,0,0,1,.631.207.705.705,0,0,1,.228.552,1.074,1.074,0,0,1-.152.537,3.452,3.452,0,0,1-.57.672l-.625.612v.015h1.468Zm.514-.207a.29.29,0,0,1,.059-.2.214.214,0,0,1,.171-.069.224.224,0,0,1,.176.069.328.328,0,0,1,0,.392.228.228,0,0,1-.176.069.241.241,0,0,1-.166-.061A.273.273,0,0,1,202.875,725.793Zm0-1.725c0-.175.077-.263.23-.263s.241.088.241.263a.276.276,0,0,1-.065.2.231.231,0,0,1-.176.068.236.236,0,0,1-.166-.061A.272.272,0,0,1,202.875,724.068Zm2.977,1.276h-.424V726h-.311v-.656h-1.388v-.283l1.355-1.932h.344v1.92h.424Zm-.735-.295V724.1q0-.28.02-.631h-.016a2.777,2.777,0,0,1-.176.31l-.892,1.27Zm1.9-.793a1.045,1.045,0,0,1,.709.224.763.763,0,0,1,.26.612.882.882,0,0,1-.283.7,1.123,1.123,0,0,1-.777.252,1.435,1.435,0,0,1-.737-.154v-.313a1.145,1.145,0,0,0,.34.139,1.746,1.746,0,0,0,.4.049.8.8,0,0,0,.533-.162.583.583,0,0,0,.191-.469q0-.6-.732-.6a2.892,2.892,0,0,0-.5.057l-.168-.108.107-1.335h1.42v.3h-1.143l-.072.858A2.272,2.272,0,0,1,207.021,724.256Z" transform="translate(326 119)"/>
    <path id="Path_581" data-name="Path 581" d="M216.4,726h-.316v-2.035c0-.169.005-.33.016-.481-.028.028-.058.056-.092.086s-.189.157-.465.381l-.172-.222.756-.584h.273Zm2.858-2.184a.653.653,0,0,1-.154.448.762.762,0,0,1-.434.232v.016a.816.816,0,0,1,.51.218.649.649,0,0,1,.166.461.752.752,0,0,1-.283.629,1.292,1.292,0,0,1-.805.219,2.328,2.328,0,0,1-.416-.035,1.394,1.394,0,0,1-.365-.119v-.309a1.839,1.839,0,0,0,.394.141,1.863,1.863,0,0,0,.4.047q.739,0,.74-.58,0-.521-.817-.52h-.281v-.279h.285a.864.864,0,0,0,.53-.147.486.486,0,0,0,.195-.41.4.4,0,0,0-.145-.328.588.588,0,0,0-.388-.119,1.2,1.2,0,0,0-.354.051,1.566,1.566,0,0,0-.379.187l-.164-.219a1.353,1.353,0,0,1,.4-.216,1.445,1.445,0,0,1,.484-.08.98.98,0,0,1,.646.191A.637.637,0,0,1,219.254,723.816Zm.621,1.977a.29.29,0,0,1,.059-.2.214.214,0,0,1,.171-.069.224.224,0,0,1,.176.069.328.328,0,0,1,0,.392.228.228,0,0,1-.176.069.241.241,0,0,1-.166-.061A.273.273,0,0,1,219.875,725.793Zm0-1.725c0-.175.077-.263.23-.263s.241.088.241.263a.276.276,0,0,1-.065.2.231.231,0,0,1-.176.068.236.236,0,0,1-.166-.061A.272.272,0,0,1,219.875,724.068Zm2.857.5a2.083,2.083,0,0,1-.234,1.106.862.862,0,0,1-1.414-.008,2.052,2.052,0,0,1-.24-1.1,2.084,2.084,0,0,1,.232-1.107.862.862,0,0,1,1.414.016A2.021,2.021,0,0,1,222.732,724.568Zm-1.56,0a2.114,2.114,0,0,0,.146.909.527.527,0,0,0,.936,0,2.1,2.1,0,0,0,.146-.905,2.068,2.068,0,0,0-.146-.9.527.527,0,0,0-.936,0A2.083,2.083,0,0,0,221.172,724.568Zm3.849,0a2.083,2.083,0,0,1-.234,1.106.862.862,0,0,1-1.414-.008,2.052,2.052,0,0,1-.24-1.1,2.084,2.084,0,0,1,.232-1.107.862.862,0,0,1,1.414.016A2.021,2.021,0,0,1,225.021,724.568Zm-1.56,0a2.114,2.114,0,0,0,.146.909.527.527,0,0,0,.936,0,2.1,2.1,0,0,0,.146-.905,2.068,2.068,0,0,0-.146-.9.527.527,0,0,0-.936,0A2.083,2.083,0,0,0,223.461,724.568Z" transform="translate(326 119)"/>
    <path id="Path_582" data-name="Path 582" d="M233.4,726h-.316v-2.035c0-.169.005-.33.016-.481-.028.028-.058.056-.092.086s-.189.157-.465.381l-.172-.222.756-.584h.273Zm2.858-2.184a.653.653,0,0,1-.154.448.762.762,0,0,1-.434.232v.016a.816.816,0,0,1,.51.218.649.649,0,0,1,.166.461.752.752,0,0,1-.283.629,1.292,1.292,0,0,1-.805.219,2.328,2.328,0,0,1-.416-.035,1.394,1.394,0,0,1-.365-.119v-.309a1.839,1.839,0,0,0,.394.141,1.863,1.863,0,0,0,.4.047q.739,0,.74-.58,0-.521-.817-.52h-.281v-.279h.285a.864.864,0,0,0,.53-.147.486.486,0,0,0,.195-.41.4.4,0,0,0-.145-.328.588.588,0,0,0-.388-.119,1.2,1.2,0,0,0-.354.051,1.566,1.566,0,0,0-.379.187l-.164-.219a1.353,1.353,0,0,1,.4-.216,1.445,1.445,0,0,1,.484-.08.98.98,0,0,1,.646.191A.637.637,0,0,1,236.254,723.816Zm.621,1.977a.29.29,0,0,1,.059-.2.214.214,0,0,1,.171-.069.224.224,0,0,1,.176.069.328.328,0,0,1,0,.392.228.228,0,0,1-.176.069.241.241,0,0,1-.166-.061A.273.273,0,0,1,236.875,725.793Zm0-1.725c0-.175.077-.263.23-.263s.241.088.241.263a.276.276,0,0,1-.065.2.231.231,0,0,1-.176.068.236.236,0,0,1-.166-.061A.272.272,0,0,1,236.875,724.068ZM239.041,726h-.316v-2.035c0-.169,0-.33.015-.481-.027.028-.058.056-.092.086s-.188.157-.464.381l-.172-.222.756-.584h.273Zm1.98-1.744a1.045,1.045,0,0,1,.709.224.763.763,0,0,1,.26.612.882.882,0,0,1-.283.7,1.123,1.123,0,0,1-.777.252,1.435,1.435,0,0,1-.737-.154v-.313a1.145,1.145,0,0,0,.34.139,1.746,1.746,0,0,0,.4.049.8.8,0,0,0,.533-.162.583.583,0,0,0,.191-.469q0-.6-.732-.6a2.892,2.892,0,0,0-.5.057l-.168-.108.107-1.335h1.42v.3h-1.143l-.072.858A2.272,2.272,0,0,1,241.021,724.256Z" transform="translate(326 119)"/>
    <path id="Path_583" data-name="Path 583" d="M250.4,726h-.316v-2.035c0-.169.005-.33.016-.481-.028.028-.058.056-.092.086s-.189.157-.465.381l-.172-.222.756-.584h.273Zm2.858-2.184a.653.653,0,0,1-.154.448.762.762,0,0,1-.434.232v.016a.816.816,0,0,1,.51.218.649.649,0,0,1,.166.461.752.752,0,0,1-.283.629,1.292,1.292,0,0,1-.805.219,2.328,2.328,0,0,1-.416-.035,1.394,1.394,0,0,1-.365-.119v-.309a1.839,1.839,0,0,0,.394.141,1.863,1.863,0,0,0,.4.047q.739,0,.74-.58,0-.521-.817-.52h-.281v-.279h.285a.864.864,0,0,0,.53-.147.486.486,0,0,0,.195-.41.4.4,0,0,0-.145-.328.588.588,0,0,0-.388-.119,1.2,1.2,0,0,0-.354.051,1.566,1.566,0,0,0-.379.187l-.164-.219a1.353,1.353,0,0,1,.4-.216,1.445,1.445,0,0,1,.484-.08.98.98,0,0,1,.646.191A.637.637,0,0,1,253.254,723.816Zm.621,1.977a.29.29,0,0,1,.059-.2.214.214,0,0,1,.171-.069.224.224,0,0,1,.176.069.328.328,0,0,1,0,.392.228.228,0,0,1-.176.069.241.241,0,0,1-.166-.061A.273.273,0,0,1,253.875,725.793Zm0-1.725c0-.175.077-.263.23-.263s.241.088.241.263a.276.276,0,0,1-.065.2.231.231,0,0,1-.176.068.236.236,0,0,1-.166-.061A.272.272,0,0,1,253.875,724.068Zm2.734-.252a.648.648,0,0,1-.154.448.759.759,0,0,1-.434.232v.016a.811.811,0,0,1,.51.218.644.644,0,0,1,.166.461.749.749,0,0,1-.283.629,1.292,1.292,0,0,1-.805.219,2.336,2.336,0,0,1-.416-.035,1.406,1.406,0,0,1-.365-.119v-.309a1.824,1.824,0,0,0,.793.188q.741,0,.74-.58,0-.521-.816-.52h-.281v-.279h.285a.86.86,0,0,0,.529-.147.486.486,0,0,0,.2-.41.4.4,0,0,0-.144-.328.591.591,0,0,0-.389-.119,1.191,1.191,0,0,0-.353.051,1.549,1.549,0,0,0-.379.187l-.164-.219a1.359,1.359,0,0,1,.4-.216,1.449,1.449,0,0,1,.484-.08.983.983,0,0,1,.647.191A.636.636,0,0,1,256.609,723.816Zm2.412.752a2.083,2.083,0,0,1-.234,1.106.862.862,0,0,1-1.414-.008,2.052,2.052,0,0,1-.24-1.1,2.084,2.084,0,0,1,.232-1.107.862.862,0,0,1,1.414.016A2.021,2.021,0,0,1,259.021,724.568Zm-1.56,0a2.114,2.114,0,0,0,.146.909.527.527,0,0,0,.936,0,2.1,2.1,0,0,0,.146-.905,2.068,2.068,0,0,0-.146-.9.527.527,0,0,0-.936,0A2.083,2.083,0,0,0,257.461,724.568Z" transform="translate(326 119)"/>
    <path id="Path_584" data-name="Path 584" d="M267.4,726h-.316v-2.035c0-.169.005-.33.016-.481-.028.028-.058.056-.092.086s-.189.157-.465.381l-.172-.222.756-.584h.273Zm2.858-2.184a.653.653,0,0,1-.154.448.762.762,0,0,1-.434.232v.016a.816.816,0,0,1,.51.218.648.648,0,0,1,.166.461.751.751,0,0,1-.283.629,1.292,1.292,0,0,1-.8.219,2.328,2.328,0,0,1-.416-.035,1.394,1.394,0,0,1-.365-.119v-.309a1.84,1.84,0,0,0,.394.141,1.863,1.863,0,0,0,.4.047q.74,0,.74-.58,0-.521-.817-.52h-.281v-.279h.285a.864.864,0,0,0,.53-.147.486.486,0,0,0,.2-.41.4.4,0,0,0-.145-.328.588.588,0,0,0-.388-.119,1.2,1.2,0,0,0-.354.051,1.566,1.566,0,0,0-.379.187l-.164-.219a1.353,1.353,0,0,1,.4-.216,1.445,1.445,0,0,1,.484-.08.98.98,0,0,1,.646.191A.637.637,0,0,1,270.254,723.816Zm.621,1.977a.29.29,0,0,1,.059-.2.214.214,0,0,1,.171-.069.224.224,0,0,1,.176.069.328.328,0,0,1,0,.392.228.228,0,0,1-.176.069.241.241,0,0,1-.166-.061A.273.273,0,0,1,270.875,725.793Zm0-1.725c0-.175.077-.263.23-.263s.241.088.241.263a.276.276,0,0,1-.065.2.231.231,0,0,1-.176.068.236.236,0,0,1-.166-.061A.272.272,0,0,1,270.875,724.068Zm2.977,1.276h-.424V726h-.311v-.656h-1.388v-.283l1.355-1.932h.344v1.92h.424Zm-.735-.295V724.1q0-.28.02-.631h-.016a2.78,2.78,0,0,1-.176.31l-.892,1.27Zm1.9-.793a1.045,1.045,0,0,1,.709.224.763.763,0,0,1,.26.612.882.882,0,0,1-.283.7,1.123,1.123,0,0,1-.777.252,1.435,1.435,0,0,1-.737-.154v-.313a1.145,1.145,0,0,0,.34.139,1.746,1.746,0,0,0,.4.049.8.8,0,0,0,.533-.162.583.583,0,0,0,.191-.469q0-.6-.732-.6a2.892,2.892,0,0,0-.5.057l-.168-.108.107-1.335h1.42v.3h-1.143l-.072.858A2.272,2.272,0,0,1,275.021,724.256Z" transform="translate(326 119)"/>
    <path id="Path_585" data-name="Path 585" d="M284.4,726h-.316v-2.035c0-.169.005-.33.016-.481-.028.028-.058.056-.092.086s-.189.157-.465.381l-.172-.222.756-.584h.273Zm3.1-.656h-.424V726h-.31v-.656h-1.389v-.283l1.356-1.932h.343v1.92h.424Zm-.734-.295V724.1q0-.28.019-.631h-.015a2.944,2.944,0,0,1-.176.31l-.893,1.27Zm1.113.744a.29.29,0,0,1,.059-.2.214.214,0,0,1,.171-.069.224.224,0,0,1,.176.069.328.328,0,0,1,0,.392.228.228,0,0,1-.176.069.241.241,0,0,1-.166-.061A.273.273,0,0,1,287.875,725.793Zm0-1.725c0-.175.077-.263.23-.263s.241.088.241.263a.276.276,0,0,1-.065.2.231.231,0,0,1-.176.068.236.236,0,0,1-.166-.061A.272.272,0,0,1,287.875,724.068Zm2.857.5a2.083,2.083,0,0,1-.234,1.106.862.862,0,0,1-1.414-.008,2.052,2.052,0,0,1-.24-1.1,2.084,2.084,0,0,1,.232-1.107.862.862,0,0,1,1.414.016A2.021,2.021,0,0,1,290.732,724.568Zm-1.56,0a2.114,2.114,0,0,0,.146.909.527.527,0,0,0,.936,0,2.1,2.1,0,0,0,.146-.905,2.068,2.068,0,0,0-.146-.9.527.527,0,0,0-.936,0A2.083,2.083,0,0,0,289.172,724.568Zm3.849,0a2.083,2.083,0,0,1-.234,1.106.862.862,0,0,1-1.414-.008,2.052,2.052,0,0,1-.24-1.1,2.084,2.084,0,0,1,.232-1.107.862.862,0,0,1,1.414.016A2.021,2.021,0,0,1,293.021,724.568Zm-1.56,0a2.114,2.114,0,0,0,.146.909.527.527,0,0,0,.936,0,2.1,2.1,0,0,0,.146-.905,2.068,2.068,0,0,0-.146-.9.527.527,0,0,0-.936,0A2.083,2.083,0,0,0,291.461,724.568Z" transform="translate(326 119)"/>
    <path id="Path_586" data-name="Path 586" d="M301.4,726h-.316v-2.035c0-.169.005-.33.016-.481-.028.028-.058.056-.092.086s-.189.157-.465.381l-.172-.222.756-.584h.273Zm3.1-.656h-.424V726h-.31v-.656h-1.389v-.283l1.356-1.932h.343v1.92h.424Zm-.734-.295V724.1q0-.28.019-.631h-.015a2.944,2.944,0,0,1-.176.31l-.893,1.27Zm1.113.744a.29.29,0,0,1,.059-.2.214.214,0,0,1,.171-.069.224.224,0,0,1,.176.069.328.328,0,0,1,0,.392.228.228,0,0,1-.176.069.241.241,0,0,1-.166-.061A.273.273,0,0,1,304.875,725.793Zm0-1.725c0-.175.077-.263.23-.263s.241.088.241.263a.276.276,0,0,1-.065.2.231.231,0,0,1-.176.068.236.236,0,0,1-.166-.061A.272.272,0,0,1,304.875,724.068ZM307.041,726h-.316v-2.035c0-.169.005-.33.015-.481-.027.028-.058.056-.092.086s-.188.157-.464.381l-.172-.222.756-.584h.273Zm1.98-1.744a1.045,1.045,0,0,1,.709.224.763.763,0,0,1,.26.612.882.882,0,0,1-.283.7,1.123,1.123,0,0,1-.777.252,1.435,1.435,0,0,1-.737-.154v-.313a1.145,1.145,0,0,0,.34.139,1.746,1.746,0,0,0,.4.049.8.8,0,0,0,.533-.162.583.583,0,0,0,.191-.469q0-.6-.732-.6a2.892,2.892,0,0,0-.5.057l-.168-.108.107-1.335h1.42v.3h-1.143l-.072.858A2.272,2.272,0,0,1,309.021,724.256Z" transform="translate(326 119)"/>
    <path id="Path_587" data-name="Path 587" d="M318.4,726h-.316v-2.035c0-.169.005-.33.016-.481-.028.028-.058.056-.092.086s-.189.157-.465.381l-.172-.222.756-.584h.273Zm3.1-.656h-.424V726h-.31v-.656h-1.389v-.283l1.356-1.932h.343v1.92h.424Zm-.734-.295V724.1q0-.28.019-.631h-.015a2.944,2.944,0,0,1-.176.31l-.893,1.27Zm1.113.744a.29.29,0,0,1,.059-.2.214.214,0,0,1,.171-.069.224.224,0,0,1,.176.069.328.328,0,0,1,0,.392.228.228,0,0,1-.176.069.241.241,0,0,1-.166-.061A.273.273,0,0,1,321.875,725.793Zm0-1.725c0-.175.077-.263.23-.263s.241.088.241.263a.276.276,0,0,1-.065.2.231.231,0,0,1-.176.068.236.236,0,0,1-.166-.061A.272.272,0,0,1,321.875,724.068Zm2.734-.252a.648.648,0,0,1-.154.448.759.759,0,0,1-.434.232v.016a.811.811,0,0,1,.51.218.644.644,0,0,1,.166.461.749.749,0,0,1-.283.629,1.292,1.292,0,0,1-.8.219,2.336,2.336,0,0,1-.416-.035,1.406,1.406,0,0,1-.365-.119v-.309a1.824,1.824,0,0,0,.793.188q.741,0,.74-.58,0-.521-.816-.52h-.281v-.279h.285a.86.86,0,0,0,.529-.147.486.486,0,0,0,.2-.41.4.4,0,0,0-.144-.328.591.591,0,0,0-.389-.119,1.191,1.191,0,0,0-.353.051,1.549,1.549,0,0,0-.379.187l-.164-.219a1.36,1.36,0,0,1,.4-.216,1.45,1.45,0,0,1,.484-.08.983.983,0,0,1,.647.191A.636.636,0,0,1,324.609,723.816Zm2.412.752a2.083,2.083,0,0,1-.234,1.106.862.862,0,0,1-1.414-.008,2.052,2.052,0,0,1-.24-1.1,2.084,2.084,0,0,1,.232-1.107.862.862,0,0,1,1.414.016A2.021,2.021,0,0,1,327.021,724.568Zm-1.56,0a2.114,2.114,0,0,0,.146.909.527.527,0,0,0,.936,0,2.1,2.1,0,0,0,.146-.905,2.068,2.068,0,0,0-.146-.9.527.527,0,0,0-.936,0A2.083,2.083,0,0,0,325.461,724.568Z" transform="translate(326 119)"/>
    <path id="Path_588" data-name="Path 588" d="M335.4,726h-.316v-2.035c0-.169.005-.33.016-.481-.028.028-.058.056-.092.086s-.189.157-.465.381l-.172-.222.756-.584h.273Zm3.1-.656h-.424V726h-.31v-.656h-1.389v-.283l1.356-1.932h.343v1.92h.424Zm-.734-.295V724.1q0-.28.019-.631h-.015a2.944,2.944,0,0,1-.176.31l-.893,1.27Zm1.113.744a.29.29,0,0,1,.059-.2.214.214,0,0,1,.171-.069.224.224,0,0,1,.176.069.328.328,0,0,1,0,.392.228.228,0,0,1-.176.069.241.241,0,0,1-.166-.061A.273.273,0,0,1,338.875,725.793Zm0-1.725c0-.175.077-.263.23-.263s.241.088.241.263a.276.276,0,0,1-.065.2.231.231,0,0,1-.176.068.236.236,0,0,1-.166-.061A.272.272,0,0,1,338.875,724.068Zm2.977,1.276h-.424V726h-.311v-.656h-1.388v-.283l1.355-1.932h.344v1.92h.424Zm-.735-.295V724.1q0-.28.02-.631h-.016a2.78,2.78,0,0,1-.176.31l-.892,1.27Zm1.9-.793a1.045,1.045,0,0,1,.709.224.763.763,0,0,1,.26.612.882.882,0,0,1-.283.7,1.123,1.123,0,0,1-.777.252,1.435,1.435,0,0,1-.737-.154v-.313a1.145,1.145,0,0,0,.34.139,1.746,1.746,0,0,0,.4.049.8.8,0,0,0,.533-.162.583.583,0,0,0,.191-.469q0-.6-.732-.6a2.892,2.892,0,0,0-.5.057l-.168-.108.107-1.335h1.42v.3h-1.143l-.072.858A2.272,2.272,0,0,1,343.021,724.256Z" transform="translate(326 119)"/>
    <path id="Path_589" data-name="Path 589" d="M352.4,726h-.316v-2.035c0-.169.005-.33.016-.481-.028.028-.058.056-.092.086s-.189.157-.465.381l-.172-.222.756-.584h.273Zm1.981-1.744a1.047,1.047,0,0,1,.709.224.766.766,0,0,1,.26.612.883.883,0,0,1-.284.7,1.121,1.121,0,0,1-.777.252,1.431,1.431,0,0,1-.736-.154v-.313a1.123,1.123,0,0,0,.34.139,1.737,1.737,0,0,0,.4.049.8.8,0,0,0,.533-.162.58.58,0,0,0,.192-.469q0-.6-.733-.6a2.9,2.9,0,0,0-.5.057l-.168-.108.108-1.335h1.42v.3H354l-.072.858A2.265,2.265,0,0,1,354.377,724.256Zm1.5,1.537a.29.29,0,0,1,.059-.2.214.214,0,0,1,.171-.069.224.224,0,0,1,.176.069.328.328,0,0,1,0,.392.228.228,0,0,1-.176.069.241.241,0,0,1-.166-.061A.273.273,0,0,1,355.875,725.793Zm0-1.725c0-.175.077-.263.23-.263s.241.088.241.263a.276.276,0,0,1-.065.2.231.231,0,0,1-.176.068.236.236,0,0,1-.166-.061A.272.272,0,0,1,355.875,724.068Zm2.857.5a2.083,2.083,0,0,1-.234,1.106.862.862,0,0,1-1.414-.008,2.052,2.052,0,0,1-.24-1.1,2.084,2.084,0,0,1,.232-1.107.862.862,0,0,1,1.414.016A2.021,2.021,0,0,1,358.732,724.568Zm-1.56,0a2.114,2.114,0,0,0,.146.909.527.527,0,0,0,.936,0,2.1,2.1,0,0,0,.146-.905,2.068,2.068,0,0,0-.146-.9.527.527,0,0,0-.936,0A2.083,2.083,0,0,0,357.172,724.568Zm3.849,0a2.083,2.083,0,0,1-.234,1.106.862.862,0,0,1-1.414-.008,2.052,2.052,0,0,1-.24-1.1,2.084,2.084,0,0,1,.232-1.107.862.862,0,0,1,1.414.016A2.021,2.021,0,0,1,361.021,724.568Zm-1.56,0a2.114,2.114,0,0,0,.146.909.527.527,0,0,0,.936,0,2.1,2.1,0,0,0,.146-.905,2.068,2.068,0,0,0-.146-.9.527.527,0,0,0-.936,0A2.083,2.083,0,0,0,359.461,724.568Z" transform="translate(326 119)"/>
    <path id="Path_590" data-name="Path 590" d="M369.4,726h-.316v-2.035c0-.169.005-.33.016-.481-.028.028-.058.056-.092.086s-.189.157-.465.381l-.172-.222.756-.584h.273Zm1.981-1.744a1.047,1.047,0,0,1,.709.224.766.766,0,0,1,.26.612.883.883,0,0,1-.284.7,1.121,1.121,0,0,1-.777.252,1.431,1.431,0,0,1-.736-.154v-.313a1.123,1.123,0,0,0,.34.139,1.737,1.737,0,0,0,.4.049.8.8,0,0,0,.533-.162.58.58,0,0,0,.192-.469q0-.6-.733-.6a2.9,2.9,0,0,0-.5.057l-.168-.108.108-1.335h1.42v.3H371l-.072.858A2.265,2.265,0,0,1,371.377,724.256Zm1.5,1.537a.29.29,0,0,1,.059-.2.214.214,0,0,1,.171-.069.224.224,0,0,1,.176.069.328.328,0,0,1,0,.392.228.228,0,0,1-.176.069.241.241,0,0,1-.166-.061A.273.273,0,0,1,372.875,725.793Zm0-1.725c0-.175.077-.263.23-.263s.241.088.241.263a.276.276,0,0,1-.065.2.231.231,0,0,1-.176.068.236.236,0,0,1-.166-.061A.272.272,0,0,1,372.875,724.068ZM375.041,726h-.316v-2.035c0-.169.005-.33.015-.481-.027.028-.058.056-.092.086s-.188.157-.464.381l-.172-.222.756-.584h.273Zm1.98-1.744a1.045,1.045,0,0,1,.709.224.763.763,0,0,1,.26.612.882.882,0,0,1-.283.7,1.123,1.123,0,0,1-.777.252,1.435,1.435,0,0,1-.737-.154v-.313a1.145,1.145,0,0,0,.34.139,1.746,1.746,0,0,0,.4.049.8.8,0,0,0,.533-.162.583.583,0,0,0,.191-.469q0-.6-.732-.6a2.892,2.892,0,0,0-.5.057l-.168-.108.107-1.335h1.42v.3h-1.143l-.072.858A2.272,2.272,0,0,1,377.021,724.256Z" transform="translate(326 119)"/>
    <path id="Path_591" data-name="Path 591" d="M386.4,726h-.316v-2.035c0-.169.005-.33.016-.481-.028.028-.058.056-.092.086s-.189.157-.465.381l-.172-.222.756-.584h.273Zm1.981-1.744a1.047,1.047,0,0,1,.709.224.766.766,0,0,1,.26.612.883.883,0,0,1-.284.7,1.121,1.121,0,0,1-.777.252,1.431,1.431,0,0,1-.736-.154v-.313a1.123,1.123,0,0,0,.34.139,1.737,1.737,0,0,0,.4.049.8.8,0,0,0,.533-.162.58.58,0,0,0,.192-.469q0-.6-.733-.6a2.9,2.9,0,0,0-.5.057l-.168-.108.108-1.335h1.42v.3H388l-.072.858A2.265,2.265,0,0,1,388.377,724.256Zm1.5,1.537a.29.29,0,0,1,.059-.2.214.214,0,0,1,.171-.069.224.224,0,0,1,.176.069.328.328,0,0,1,0,.392.228.228,0,0,1-.176.069.241.241,0,0,1-.166-.061A.273.273,0,0,1,389.875,725.793Zm0-1.725c0-.175.077-.263.23-.263s.241.088.241.263a.276.276,0,0,1-.065.2.231.231,0,0,1-.176.068.236.236,0,0,1-.166-.061A.272.272,0,0,1,389.875,724.068Zm2.734-.252a.648.648,0,0,1-.154.448.759.759,0,0,1-.434.232v.016a.811.811,0,0,1,.51.218.644.644,0,0,1,.166.461.749.749,0,0,1-.283.629,1.292,1.292,0,0,1-.8.219,2.336,2.336,0,0,1-.416-.035,1.406,1.406,0,0,1-.365-.119v-.309a1.824,1.824,0,0,0,.793.188q.741,0,.74-.58,0-.521-.816-.52h-.281v-.279h.285a.86.86,0,0,0,.529-.147.486.486,0,0,0,.2-.41.4.4,0,0,0-.144-.328.591.591,0,0,0-.389-.119,1.191,1.191,0,0,0-.353.051,1.549,1.549,0,0,0-.379.187l-.164-.219a1.36,1.36,0,0,1,.4-.216,1.45,1.45,0,0,1,.484-.08.983.983,0,0,1,.647.191A.636.636,0,0,1,392.609,723.816Zm2.412.752a2.083,2.083,0,0,1-.234,1.106.862.862,0,0,1-1.414-.008,2.052,2.052,0,0,1-.24-1.1,2.084,2.084,0,0,1,.232-1.107.862.862,0,0,1,1.414.016A2.021,2.021,0,0,1,395.021,724.568Zm-1.56,0a2.114,2.114,0,0,0,.146.909.527.527,0,0,0,.936,0,2.1,2.1,0,0,0,.146-.905,2.068,2.068,0,0,0-.146-.9.527.527,0,0,0-.936,0A2.083,2.083,0,0,0,393.461,724.568Z" transform="translate(326 119)"/>
    <path id="Path_592" data-name="Path 592" d="M403.4,726h-.316v-2.035c0-.169.005-.33.016-.481-.028.028-.058.056-.092.086s-.189.157-.465.381l-.172-.222.756-.584h.273Zm1.981-1.744a1.047,1.047,0,0,1,.709.224.766.766,0,0,1,.26.612.883.883,0,0,1-.284.7,1.121,1.121,0,0,1-.777.252,1.431,1.431,0,0,1-.736-.154v-.313a1.123,1.123,0,0,0,.34.139,1.737,1.737,0,0,0,.4.049.8.8,0,0,0,.533-.162.58.58,0,0,0,.192-.469q0-.6-.733-.6a2.9,2.9,0,0,0-.5.057l-.168-.108.108-1.335h1.42v.3H405l-.072.858A2.265,2.265,0,0,1,405.377,724.256Zm1.5,1.537a.29.29,0,0,1,.059-.2.214.214,0,0,1,.171-.069.224.224,0,0,1,.176.069.328.328,0,0,1,0,.392.228.228,0,0,1-.176.069.241.241,0,0,1-.166-.061A.273.273,0,0,1,406.875,725.793Zm0-1.725c0-.175.077-.263.23-.263s.241.088.241.263a.276.276,0,0,1-.065.2.231.231,0,0,1-.176.068.236.236,0,0,1-.166-.061A.272.272,0,0,1,406.875,724.068Zm2.977,1.276h-.424V726h-.311v-.656h-1.388v-.283l1.355-1.932h.344v1.92h.424Zm-.735-.295V724.1q0-.28.02-.631h-.016a2.78,2.78,0,0,1-.176.31l-.892,1.27Zm1.9-.793a1.045,1.045,0,0,1,.709.224.763.763,0,0,1,.26.612.882.882,0,0,1-.283.7,1.123,1.123,0,0,1-.777.252,1.435,1.435,0,0,1-.737-.154v-.313a1.145,1.145,0,0,0,.34.139,1.746,1.746,0,0,0,.4.049.8.8,0,0,0,.533-.162.583.583,0,0,0,.191-.469q0-.6-.732-.6a2.892,2.892,0,0,0-.5.057l-.168-.108.107-1.335h1.42v.3h-1.143l-.072.858A2.272,2.272,0,0,1,411.021,724.256Z" transform="translate(326 119)"/>
    <path id="Path_593" data-name="Path 593" d="M420.4,726h-.316v-2.035c0-.169.005-.33.016-.481-.028.028-.058.056-.092.086s-.189.157-.465.381l-.172-.222.756-.584h.273Zm1.122-1.221a2.019,2.019,0,0,1,.326-1.258,1.156,1.156,0,0,1,.968-.417,1.277,1.277,0,0,1,.348.037v.279a1.1,1.1,0,0,0-.344-.049.867.867,0,0,0-.7.287,1.463,1.463,0,0,0-.265.9h.023a.748.748,0,0,1,.68-.336.794.794,0,0,1,.6.232.871.871,0,0,1,.223.631.975.975,0,0,1-.244.7.866.866,0,0,1-.657.254.848.848,0,0,1-.7-.332A1.48,1.48,0,0,1,421.518,724.779Zm.959.985a.54.54,0,0,0,.429-.174.743.743,0,0,0,.155-.506.65.65,0,0,0-.143-.445.538.538,0,0,0-.426-.162.721.721,0,0,0-.322.072.591.591,0,0,0-.234.2.461.461,0,0,0-.086.264.906.906,0,0,0,.078.375.662.662,0,0,0,.22.275A.558.558,0,0,0,422.477,725.764Zm1.4.029a.29.29,0,0,1,.059-.2.214.214,0,0,1,.171-.069.224.224,0,0,1,.176.069.328.328,0,0,1,0,.392.228.228,0,0,1-.176.069.241.241,0,0,1-.166-.061A.273.273,0,0,1,423.875,725.793Zm0-1.725c0-.175.077-.263.23-.263s.241.088.241.263a.276.276,0,0,1-.065.2.231.231,0,0,1-.176.068.236.236,0,0,1-.166-.061A.272.272,0,0,1,423.875,724.068Zm2.857.5a2.083,2.083,0,0,1-.234,1.106.862.862,0,0,1-1.414-.008,2.052,2.052,0,0,1-.24-1.1,2.084,2.084,0,0,1,.232-1.107.862.862,0,0,1,1.414.016A2.021,2.021,0,0,1,426.732,724.568Zm-1.56,0a2.114,2.114,0,0,0,.146.909.527.527,0,0,0,.936,0,2.1,2.1,0,0,0,.146-.905,2.068,2.068,0,0,0-.146-.9.527.527,0,0,0-.936,0A2.083,2.083,0,0,0,425.172,724.568Zm3.849,0a2.083,2.083,0,0,1-.234,1.106.862.862,0,0,1-1.414-.008,2.052,2.052,0,0,1-.24-1.1,2.084,2.084,0,0,1,.232-1.107.862.862,0,0,1,1.414.016A2.021,2.021,0,0,1,429.021,724.568Zm-1.56,0a2.114,2.114,0,0,0,.146.909.527.527,0,0,0,.936,0,2.1,2.1,0,0,0,.146-.905,2.068,2.068,0,0,0-.146-.9.527.527,0,0,0-.936,0A2.083,2.083,0,0,0,427.461,724.568Z" transform="translate(326 119)"/>
    <path id="Path_594" data-name="Path 594" d="M437.4,726h-.316v-2.035c0-.169.005-.33.016-.481-.028.028-.058.056-.092.086s-.189.157-.465.381l-.172-.222.756-.584h.273Zm1.122-1.221a2.019,2.019,0,0,1,.326-1.258,1.156,1.156,0,0,1,.968-.417,1.277,1.277,0,0,1,.348.037v.279a1.1,1.1,0,0,0-.344-.049.867.867,0,0,0-.7.287,1.463,1.463,0,0,0-.265.9h.023a.748.748,0,0,1,.68-.336.794.794,0,0,1,.6.232.871.871,0,0,1,.223.631.975.975,0,0,1-.244.7.866.866,0,0,1-.657.254.848.848,0,0,1-.7-.332A1.48,1.48,0,0,1,438.518,724.779Zm.959.985a.54.54,0,0,0,.429-.174.743.743,0,0,0,.155-.506.65.65,0,0,0-.143-.445.538.538,0,0,0-.426-.162.721.721,0,0,0-.322.072.591.591,0,0,0-.234.2.461.461,0,0,0-.086.264.906.906,0,0,0,.078.375.662.662,0,0,0,.22.275A.558.558,0,0,0,439.477,725.764Zm1.4.029a.29.29,0,0,1,.059-.2.214.214,0,0,1,.171-.069.224.224,0,0,1,.176.069.328.328,0,0,1,0,.392.228.228,0,0,1-.176.069.241.241,0,0,1-.166-.061A.273.273,0,0,1,440.875,725.793Zm0-1.725c0-.175.077-.263.23-.263s.241.088.241.263a.276.276,0,0,1-.065.2.231.231,0,0,1-.176.068.236.236,0,0,1-.166-.061A.272.272,0,0,1,440.875,724.068ZM443.041,726h-.316v-2.035c0-.169.005-.33.015-.481-.027.028-.058.056-.092.086s-.188.157-.464.381l-.172-.222.756-.584h.273Zm1.98-1.744a1.045,1.045,0,0,1,.709.224.763.763,0,0,1,.26.612.882.882,0,0,1-.283.7,1.123,1.123,0,0,1-.777.252,1.435,1.435,0,0,1-.737-.154v-.313a1.145,1.145,0,0,0,.34.139,1.746,1.746,0,0,0,.4.049.8.8,0,0,0,.533-.162.583.583,0,0,0,.191-.469q0-.6-.732-.6a2.892,2.892,0,0,0-.5.057l-.168-.108.107-1.335h1.42v.3h-1.143l-.072.858A2.272,2.272,0,0,1,445.021,724.256Z" transform="translate(326 119)"/>
    <path id="Path_595" data-name="Path 595" d="M454.4,726h-.316v-2.035c0-.169.005-.33.016-.481-.028.028-.058.056-.092.086s-.189.157-.465.381l-.172-.222.756-.584h.273Zm1.122-1.221a2.019,2.019,0,0,1,.326-1.258,1.156,1.156,0,0,1,.968-.417,1.277,1.277,0,0,1,.348.037v.279a1.1,1.1,0,0,0-.344-.049.867.867,0,0,0-.7.287,1.463,1.463,0,0,0-.265.9h.023a.748.748,0,0,1,.68-.336.794.794,0,0,1,.6.232.871.871,0,0,1,.223.631.975.975,0,0,1-.244.7.866.866,0,0,1-.657.254.848.848,0,0,1-.7-.332A1.48,1.48,0,0,1,455.518,724.779Zm.959.985a.54.54,0,0,0,.429-.174.743.743,0,0,0,.155-.506.65.65,0,0,0-.143-.445.538.538,0,0,0-.426-.162.721.721,0,0,0-.322.072.591.591,0,0,0-.234.2.461.461,0,0,0-.086.264.906.906,0,0,0,.078.375.662.662,0,0,0,.22.275A.558.558,0,0,0,456.477,725.764Zm1.4.029a.29.29,0,0,1,.059-.2.214.214,0,0,1,.171-.069.224.224,0,0,1,.176.069.328.328,0,0,1,0,.392.228.228,0,0,1-.176.069.241.241,0,0,1-.166-.061A.273.273,0,0,1,457.875,725.793Zm0-1.725c0-.175.077-.263.23-.263s.241.088.241.263a.276.276,0,0,1-.065.2.231.231,0,0,1-.176.068.236.236,0,0,1-.166-.061A.272.272,0,0,1,457.875,724.068Zm2.734-.252a.648.648,0,0,1-.154.448.759.759,0,0,1-.434.232v.016a.811.811,0,0,1,.51.218.644.644,0,0,1,.166.461.749.749,0,0,1-.283.629,1.292,1.292,0,0,1-.8.219,2.336,2.336,0,0,1-.416-.035,1.406,1.406,0,0,1-.365-.119v-.309a1.824,1.824,0,0,0,.793.188q.741,0,.74-.58,0-.521-.816-.52h-.281v-.279h.285a.86.86,0,0,0,.529-.147.486.486,0,0,0,.2-.41.4.4,0,0,0-.144-.328.591.591,0,0,0-.389-.119,1.191,1.191,0,0,0-.353.051,1.549,1.549,0,0,0-.379.187l-.164-.219a1.36,1.36,0,0,1,.4-.216,1.45,1.45,0,0,1,.484-.08.983.983,0,0,1,.647.191A.636.636,0,0,1,460.609,723.816Zm2.412.752a2.083,2.083,0,0,1-.234,1.106.862.862,0,0,1-1.414-.008,2.052,2.052,0,0,1-.24-1.1,2.084,2.084,0,0,1,.232-1.107.862.862,0,0,1,1.414.016A2.021,2.021,0,0,1,463.021,724.568Zm-1.56,0a2.114,2.114,0,0,0,.146.909.527.527,0,0,0,.936,0,2.1,2.1,0,0,0,.146-.905,2.068,2.068,0,0,0-.146-.9.527.527,0,0,0-.936,0A2.083,2.083,0,0,0,461.461,724.568Z" transform="translate(326 119)"/>
    <path id="Path_596" data-name="Path 596" d="M471.4,726h-.316v-2.035c0-.169.005-.33.016-.481-.028.028-.058.056-.092.086s-.189.157-.465.381l-.172-.222.756-.584h.273Zm1.122-1.221a2.019,2.019,0,0,1,.326-1.258,1.156,1.156,0,0,1,.968-.417,1.277,1.277,0,0,1,.348.037v.279a1.1,1.1,0,0,0-.344-.049.867.867,0,0,0-.7.287,1.463,1.463,0,0,0-.265.9h.023a.748.748,0,0,1,.68-.336.794.794,0,0,1,.6.232.871.871,0,0,1,.223.631.975.975,0,0,1-.244.7.866.866,0,0,1-.657.254.848.848,0,0,1-.7-.332A1.48,1.48,0,0,1,472.518,724.779Zm.959.985a.54.54,0,0,0,.429-.174.743.743,0,0,0,.155-.506.65.65,0,0,0-.143-.445.538.538,0,0,0-.426-.162.721.721,0,0,0-.322.072.591.591,0,0,0-.234.2.461.461,0,0,0-.086.264.906.906,0,0,0,.078.375.662.662,0,0,0,.22.275A.558.558,0,0,0,473.477,725.764Zm1.4.029a.29.29,0,0,1,.059-.2.214.214,0,0,1,.171-.069.224.224,0,0,1,.176.069.328.328,0,0,1,0,.392.228.228,0,0,1-.176.069.241.241,0,0,1-.166-.061A.273.273,0,0,1,474.875,725.793Zm0-1.725c0-.175.077-.263.23-.263s.241.088.241.263a.276.276,0,0,1-.065.2.231.231,0,0,1-.176.068.236.236,0,0,1-.166-.061A.272.272,0,0,1,474.875,724.068Zm2.977,1.276h-.424V726h-.311v-.656h-1.388v-.283l1.355-1.932h.344v1.92h.424Zm-.735-.295V724.1q0-.28.02-.631h-.016a2.78,2.78,0,0,1-.176.31l-.892,1.27Zm1.9-.793a1.045,1.045,0,0,1,.709.224.763.763,0,0,1,.26.612.882.882,0,0,1-.283.7,1.123,1.123,0,0,1-.777.252,1.435,1.435,0,0,1-.737-.154v-.313a1.145,1.145,0,0,0,.34.139,1.746,1.746,0,0,0,.4.049.8.8,0,0,0,.533-.162.583.583,0,0,0,.191-.469q0-.6-.732-.6a2.892,2.892,0,0,0-.5.057l-.168-.108.107-1.335h1.42v.3h-1.143l-.072.858A2.272,2.272,0,0,1,479.021,724.256Z" transform="translate(326 119)"/>
    <path id="Path_597" data-name="Path 597" d="M488.4,726h-.316v-2.035c0-.169.005-.33.016-.481-.028.028-.058.056-.092.086s-.189.157-.465.381l-.172-.222.756-.584h.273Zm1.45,0,1.183-2.557h-1.556v-.3h1.9v.259L490.2,726Zm2.029-.207a.29.29,0,0,1,.059-.2.214.214,0,0,1,.171-.069.224.224,0,0,1,.176.069.328.328,0,0,1,0,.392.228.228,0,0,1-.176.069.241.241,0,0,1-.166-.061A.273.273,0,0,1,491.875,725.793Zm0-1.725c0-.175.077-.263.23-.263s.241.088.241.263a.276.276,0,0,1-.065.2.231.231,0,0,1-.176.068.236.236,0,0,1-.166-.061A.272.272,0,0,1,491.875,724.068Zm2.857.5a2.083,2.083,0,0,1-.234,1.106.862.862,0,0,1-1.414-.008,2.052,2.052,0,0,1-.24-1.1,2.084,2.084,0,0,1,.232-1.107.862.862,0,0,1,1.414.016A2.021,2.021,0,0,1,494.732,724.568Zm-1.56,0a2.114,2.114,0,0,0,.146.909.527.527,0,0,0,.936,0,2.1,2.1,0,0,0,.146-.905,2.068,2.068,0,0,0-.146-.9.527.527,0,0,0-.936,0A2.083,2.083,0,0,0,493.172,724.568Zm3.849,0a2.083,2.083,0,0,1-.234,1.106.862.862,0,0,1-1.414-.008,2.052,2.052,0,0,1-.24-1.1,2.084,2.084,0,0,1,.232-1.107.862.862,0,0,1,1.414.016A2.021,2.021,0,0,1,497.021,724.568Zm-1.56,0a2.114,2.114,0,0,0,.146.909.527.527,0,0,0,.936,0,2.1,2.1,0,0,0,.146-.905,2.068,2.068,0,0,0-.146-.9.527.527,0,0,0-.936,0A2.083,2.083,0,0,0,495.461,724.568Z" transform="translate(326 119)"/>
    <path id="Path_598" data-name="Path 598" d="M505.4,726h-.316v-2.035c0-.169.005-.33.016-.481-.028.028-.058.056-.092.086s-.189.157-.465.381l-.172-.222.756-.584h.273Zm1.45,0,1.183-2.557h-1.556v-.3h1.9v.259L507.2,726Zm2.029-.207a.29.29,0,0,1,.059-.2.214.214,0,0,1,.171-.069.224.224,0,0,1,.176.069.328.328,0,0,1,0,.392.228.228,0,0,1-.176.069.241.241,0,0,1-.166-.061A.273.273,0,0,1,508.875,725.793Zm0-1.725c0-.175.077-.263.23-.263s.241.088.241.263a.276.276,0,0,1-.065.2.231.231,0,0,1-.176.068.236.236,0,0,1-.166-.061A.272.272,0,0,1,508.875,724.068ZM511.041,726h-.316v-2.035c0-.169.005-.33.015-.481-.027.028-.058.056-.092.086s-.188.157-.464.381l-.172-.222.756-.584h.273Zm1.98-1.744a1.045,1.045,0,0,1,.709.224.763.763,0,0,1,.26.612.882.882,0,0,1-.283.7,1.123,1.123,0,0,1-.777.252,1.435,1.435,0,0,1-.737-.154v-.313a1.145,1.145,0,0,0,.34.139,1.746,1.746,0,0,0,.4.049.8.8,0,0,0,.533-.162.583.583,0,0,0,.191-.469q0-.6-.732-.6a2.892,2.892,0,0,0-.5.057l-.168-.108.107-1.335h1.42v.3h-1.143l-.072.858A2.273,2.273,0,0,1,513.021,724.256Z" transform="translate(326 119)"/>
    <path id="Path_599" data-name="Path 599" d="M522.4,726h-.316v-2.035c0-.169.005-.33.016-.481-.028.028-.058.056-.092.086s-.189.157-.465.381l-.172-.222.756-.584h.273Zm1.45,0,1.183-2.557h-1.556v-.3h1.9v.259l-1.168,2.6Zm2.029-.207a.29.29,0,0,1,.059-.2.214.214,0,0,1,.171-.069.224.224,0,0,1,.176.069.328.328,0,0,1,0,.392.228.228,0,0,1-.176.069.241.241,0,0,1-.166-.061A.273.273,0,0,1,525.875,725.793Zm0-1.725c0-.175.077-.263.23-.263s.241.088.241.263a.276.276,0,0,1-.065.2.231.231,0,0,1-.176.068.236.236,0,0,1-.166-.061A.271.271,0,0,1,525.875,724.068Zm2.734-.252a.649.649,0,0,1-.154.448.759.759,0,0,1-.434.232v.016a.811.811,0,0,1,.51.218.644.644,0,0,1,.166.461.749.749,0,0,1-.283.629,1.292,1.292,0,0,1-.8.219,2.336,2.336,0,0,1-.416-.035,1.406,1.406,0,0,1-.365-.119v-.309a1.824,1.824,0,0,0,.793.188q.741,0,.74-.58,0-.521-.816-.52h-.281v-.279h.285a.86.86,0,0,0,.529-.147.486.486,0,0,0,.2-.41.4.4,0,0,0-.144-.328.591.591,0,0,0-.389-.119,1.191,1.191,0,0,0-.353.051,1.549,1.549,0,0,0-.379.187l-.164-.219a1.36,1.36,0,0,1,.4-.216,1.45,1.45,0,0,1,.484-.08.983.983,0,0,1,.647.191A.636.636,0,0,1,528.609,723.816Zm2.412.752a2.083,2.083,0,0,1-.234,1.106.862.862,0,0,1-1.414-.008,2.052,2.052,0,0,1-.24-1.1,2.084,2.084,0,0,1,.232-1.107.862.862,0,0,1,1.414.016A2.021,2.021,0,0,1,531.021,724.568Zm-1.56,0a2.114,2.114,0,0,0,.146.909.527.527,0,0,0,.936,0,2.1,2.1,0,0,0,.146-.905,2.069,2.069,0,0,0-.146-.9.527.527,0,0,0-.936,0A2.083,2.083,0,0,0,529.461,724.568Z" transform="translate(326 119)"/>
    <path id="Path_600" data-name="Path 600" d="M539.4,726h-.316v-2.035c0-.169.005-.33.016-.481-.028.028-.058.056-.092.086s-.189.157-.465.381l-.172-.222.756-.584h.273Zm1.45,0,1.183-2.557h-1.556v-.3h1.9v.259l-1.168,2.6Zm2.029-.207a.29.29,0,0,1,.059-.2.214.214,0,0,1,.171-.069.224.224,0,0,1,.176.069.328.328,0,0,1,0,.392.228.228,0,0,1-.176.069.241.241,0,0,1-.166-.061A.273.273,0,0,1,542.875,725.793Zm0-1.725c0-.175.077-.263.23-.263s.241.088.241.263a.276.276,0,0,1-.065.2.231.231,0,0,1-.176.068.236.236,0,0,1-.166-.061A.271.271,0,0,1,542.875,724.068Zm2.977,1.276h-.424V726h-.311v-.656h-1.388v-.283l1.355-1.932h.344v1.92h.424Zm-.735-.295V724.1q0-.28.02-.631h-.016a2.77,2.77,0,0,1-.176.31l-.892,1.27Zm1.9-.793a1.045,1.045,0,0,1,.709.224.763.763,0,0,1,.26.612.882.882,0,0,1-.283.7,1.123,1.123,0,0,1-.777.252,1.435,1.435,0,0,1-.737-.154v-.313a1.145,1.145,0,0,0,.34.139,1.746,1.746,0,0,0,.4.049.8.8,0,0,0,.533-.162.583.583,0,0,0,.191-.469q0-.6-.732-.6a2.892,2.892,0,0,0-.5.057l-.168-.108.107-1.335h1.42v.3h-1.143l-.072.858A2.273,2.273,0,0,1,547.021,724.256Z" transform="translate(326 119)"/>
    <path id="Path_601" data-name="Path 601" d="M556.4,726h-.316v-2.035c0-.169.005-.33.016-.481-.028.028-.058.056-.092.086s-.189.157-.465.381l-.172-.222.756-.584h.273Zm2.034-2.9a.97.97,0,0,1,.619.181.607.607,0,0,1,.228.5.62.62,0,0,1-.131.385,1.15,1.15,0,0,1-.417.316,1.4,1.4,0,0,1,.494.35.656.656,0,0,1,.146.422.712.712,0,0,1-.248.568,1.014,1.014,0,0,1-.68.211,1.092,1.092,0,0,1-.7-.2.694.694,0,0,1-.246-.569.846.846,0,0,1,.6-.763,1.111,1.111,0,0,1-.387-.328.708.708,0,0,1-.117-.4.6.6,0,0,1,.228-.494A.952.952,0,0,1,558.43,723.1Zm-.618,2.175a.446.446,0,0,0,.163.366.719.719,0,0,0,.459.13.683.683,0,0,0,.453-.136.464.464,0,0,0,.162-.375.451.451,0,0,0-.153-.336,1.523,1.523,0,0,0-.531-.287,1.146,1.146,0,0,0-.422.277A.533.533,0,0,0,557.812,725.279Zm.614-1.912a.575.575,0,0,0-.383.117.391.391,0,0,0-.139.313.443.443,0,0,0,.116.308,1.191,1.191,0,0,0,.425.258,1.05,1.05,0,0,0,.4-.252.464.464,0,0,0,.117-.314.379.379,0,0,0-.143-.313A.587.587,0,0,0,558.426,723.367Zm1.449,2.426a.29.29,0,0,1,.059-.2.214.214,0,0,1,.171-.069.224.224,0,0,1,.176.069.328.328,0,0,1,0,.392.228.228,0,0,1-.176.069.241.241,0,0,1-.166-.061A.273.273,0,0,1,559.875,725.793Zm0-1.725c0-.175.077-.263.23-.263s.241.088.241.263a.276.276,0,0,1-.065.2.231.231,0,0,1-.176.068.236.236,0,0,1-.166-.061A.271.271,0,0,1,559.875,724.068Zm2.857.5a2.083,2.083,0,0,1-.234,1.106.862.862,0,0,1-1.414-.008,2.052,2.052,0,0,1-.24-1.1,2.084,2.084,0,0,1,.232-1.107.862.862,0,0,1,1.414.016A2.021,2.021,0,0,1,562.732,724.568Zm-1.56,0a2.114,2.114,0,0,0,.146.909.527.527,0,0,0,.936,0,2.1,2.1,0,0,0,.146-.905,2.069,2.069,0,0,0-.146-.9.527.527,0,0,0-.936,0A2.083,2.083,0,0,0,561.172,724.568Zm3.849,0a2.083,2.083,0,0,1-.234,1.106.862.862,0,0,1-1.414-.008,2.052,2.052,0,0,1-.24-1.1,2.084,2.084,0,0,1,.232-1.107.862.862,0,0,1,1.414.016A2.021,2.021,0,0,1,565.021,724.568Zm-1.56,0a2.114,2.114,0,0,0,.146.909.527.527,0,0,0,.936,0,2.1,2.1,0,0,0,.146-.905,2.069,2.069,0,0,0-.146-.9.527.527,0,0,0-.936,0A2.083,2.083,0,0,0,563.461,724.568Z" transform="translate(326 119)"/>
    <path id="Path_602" data-name="Path 602" d="M151.5,700.5l53-5,66,11,86,3,51.5-13,17-6,51.5,10,67,3,17-5" transform="translate(326 119)" fill="none" stroke="#2887dc" stroke-linejoin="round" stroke-width="1"/>
    <path id="Path_603" data-name="Path 603" d="M151.5,712.5l53,2,66-3,86,6,69-16,51,13,67,3,17-15" transform="translate(326 119)" fill="none" stroke="#033b6c" stroke-linejoin="round" stroke-width="1"/>
  </g>
</svg>
