<svg xmlns="http://www.w3.org/2000/svg" width="424.521" height="46.307" viewBox="0 0 424.521 46.307">
  <g id="Group_44" data-name="Group 44" transform="translate(-884.49 -483.106)">
    <rect id="Rectangle_120" data-name="Rectangle 120" width="414" height="40" transform="translate(891.99 483.356)" fill="#d9d9d9" opacity="0.24"/>
    <path id="Path_682" data-name="Path 682" d="M148.5,456h413" transform="translate(743.99 27.356)" fill="none" stroke="#00549f" stroke-width="0.5" stroke-dasharray="1 1" opacity="0.12"/>
    <path id="Path_683" data-name="Path 683" d="M148.5,458.083h413" transform="translate(743.99 27.356)" fill="none" stroke="#00549f" stroke-width="0.5" stroke-dasharray="1 1" opacity="0.12"/>
    <path id="Path_684" data-name="Path 684" d="M148.5,460.167h413" transform="translate(743.99 27.356)" fill="none" stroke="#00549f" stroke-width="0.5" stroke-dasharray="1 1" opacity="0.12"/>
    <path id="Path_685" data-name="Path 685" d="M148.5,462.25h413" transform="translate(743.99 27.356)" fill="none" stroke="#00549f" stroke-width="0.5" stroke-dasharray="1 1" opacity="0.12"/>
    <path id="Path_686" data-name="Path 686" d="M148.5,464.333h413" transform="translate(743.99 27.356)" fill="none" stroke="#00549f" stroke-width="0.5" stroke-dasharray="1 1" opacity="0.12"/>
    <path id="Path_687" data-name="Path 687" d="M148.5,466.417h413" transform="translate(743.99 27.356)" fill="none" stroke="#00549f" stroke-width="0.5" stroke-dasharray="1 1" opacity="0.12"/>
    <path id="Path_688" data-name="Path 688" d="M148.5,468.5h413" transform="translate(743.99 27.356)" fill="none" stroke="#00549f" stroke-width="0.5" stroke-dasharray="1 1" opacity="0.12"/>
    <path id="Path_689" data-name="Path 689" d="M148.5,470.583h413" transform="translate(743.99 27.356)" fill="none" stroke="#00549f" stroke-width="0.5" stroke-dasharray="1 1" opacity="0.12"/>
    <path id="Path_690" data-name="Path 690" d="M148.5,474.75h413" transform="translate(743.99 27.356)" fill="none" stroke="#00549f" stroke-width="0.5" stroke-dasharray="1 1" opacity="0.12"/>
    <path id="Path_691" data-name="Path 691" d="M148.5,476.833h413" transform="translate(743.99 27.356)" fill="none" stroke="#00549f" stroke-width="0.5" stroke-dasharray="1 1" opacity="0.12"/>
    <path id="Path_692" data-name="Path 692" d="M148.5,478.917h413" transform="translate(743.99 27.356)" fill="none" stroke="#00549f" stroke-width="0.5" stroke-dasharray="1 1" opacity="0.12"/>
    <path id="Path_693" data-name="Path 693" d="M148.5,481h413" transform="translate(743.99 27.356)" fill="none" stroke="#00549f" stroke-width="0.5" stroke-dasharray="1 1" opacity="0.12"/>
    <path id="Path_694" data-name="Path 694" d="M148.5,483.083h413" transform="translate(743.99 27.356)" fill="none" stroke="#00549f" stroke-width="0.5" stroke-dasharray="1 1" opacity="0.12"/>
    <path id="Path_695" data-name="Path 695" d="M148.5,485.167h413" transform="translate(743.99 27.356)" fill="none" stroke="#00549f" stroke-width="0.5" stroke-dasharray="1 1" opacity="0.12"/>
    <path id="Path_696" data-name="Path 696" d="M148.5,487.25h413" transform="translate(743.99 27.356)" fill="none" stroke="#00549f" stroke-width="0.5" stroke-dasharray="1 1" opacity="0.12"/>
    <path id="Path_697" data-name="Path 697" d="M148.5,489.333h413" transform="translate(743.99 27.356)" fill="none" stroke="#00549f" stroke-width="0.5" stroke-dasharray="1 1" opacity="0.12"/>
    <path id="Path_698" data-name="Path 698" d="M148.5,491.417h413" transform="translate(743.99 27.356)" fill="none" stroke="#00549f" stroke-width="0.5" stroke-dasharray="1 1" opacity="0.12"/>
    <path id="Path_699" data-name="Path 699" d="M148.5,493.5h413" transform="translate(743.99 27.356)" fill="none" stroke="#00549f" stroke-width="0.5" stroke-dasharray="1 1" opacity="0.12"/>
    <path id="Path_700" data-name="Path 700" d="M148.5,495.583h413" transform="translate(743.99 27.356)" fill="none" stroke="#00549f" stroke-width="0.5" stroke-dasharray="1 1" opacity="0.12"/>
    <rect id="Rectangle_121" data-name="Rectangle 121" width="18" height="40" transform="translate(945.99 483.356)" fill="#c3c9ce" opacity="0.64"/>
    <rect id="Rectangle_122" data-name="Rectangle 122" width="17" height="40" transform="translate(1031.99 483.356)" fill="#c3c9ce" opacity="0.64"/>
    <rect id="Rectangle_123" data-name="Rectangle 123" width="36" height="40" transform="translate(1234.99 483.356)" fill="#c3c9ce" opacity="0.64"/>
    <path id="Path_701" data-name="Path 701" d="M236.5,474.5l34,14" transform="translate(743.99 27.356)" fill="none" stroke="#686868" stroke-width="1" stroke-dasharray="2 2"/>
    <path id="Path_702" data-name="Path 702" d="M236.5,474.5l34,14" transform="translate(743.99 27.356)" fill="none" stroke="rgba(0,0,0,0.2)" stroke-width="1" stroke-dasharray="2 2"/>
    <circle id="Ellipse_178" data-name="Ellipse 178" cx="1.5" cy="1.5" r="1.5" transform="translate(947.99 522.356) rotate(180)" fill="#003463"/>
    <circle id="Ellipse_179" data-name="Ellipse 179" cx="1.5" cy="1.5" r="1.5" transform="translate(955.99 514.356) rotate(180)" fill="#003463"/>
    <circle id="Ellipse_180" data-name="Ellipse 180" cx="1.5" cy="1.5" r="1.5" transform="translate(931.99 505.356) rotate(180)" fill="#003463"/>
    <circle id="Ellipse_181" data-name="Ellipse 181" cx="1.5" cy="1.5" r="1.5" transform="translate(913.99 515.356) rotate(180)" fill="#003463"/>
    <circle id="Ellipse_182" data-name="Ellipse 182" cx="1.5" cy="1.5" r="1.5" transform="translate(898.99 524.356) rotate(180)" fill="#003463"/>
    <circle id="Ellipse_183" data-name="Ellipse 183" cx="1.5" cy="1.5" r="1.5" transform="translate(1033.99 519.356) rotate(180)" fill="#003463"/>
    <circle id="Ellipse_184" data-name="Ellipse 184" cx="1.5" cy="1.5" r="1.5" transform="translate(1049.99 494.356) rotate(180)" fill="#003463"/>
    <circle id="Ellipse_185" data-name="Ellipse 185" cx="1.5" cy="1.5" r="1.5" transform="translate(1067.99 518.356) rotate(180)" fill="#003463"/>
    <circle id="Ellipse_186" data-name="Ellipse 186" cx="1.5" cy="1.5" r="1.5" transform="translate(1082.99 492.356) rotate(180)" fill="#003463"/>
    <circle id="Ellipse_187" data-name="Ellipse 187" cx="1.5" cy="1.5" r="1.5" transform="translate(1101.99 518.356) rotate(180)" fill="#003463"/>
    <circle id="Ellipse_188" data-name="Ellipse 188" cx="1.5" cy="1.5" r="1.5" transform="translate(1118.99 522.356) rotate(180)" fill="#003463"/>
    <circle id="Ellipse_189" data-name="Ellipse 189" cx="1.5" cy="1.5" r="1.5" transform="translate(1133.99 504.356) rotate(180)" fill="#003463"/>
    <circle id="Ellipse_190" data-name="Ellipse 190" cx="1.5" cy="1.5" r="1.5" transform="translate(1150.99 520.356) rotate(180)" fill="#003463"/>
    <circle id="Ellipse_191" data-name="Ellipse 191" cx="1.5" cy="1.5" r="1.5" transform="translate(1170.99 495.356) rotate(180)" fill="#003463"/>
    <circle id="Ellipse_192" data-name="Ellipse 192" cx="1.5" cy="1.5" r="1.5" transform="translate(1186.99 517.356) rotate(180)" fill="#003463"/>
    <circle id="Ellipse_193" data-name="Ellipse 193" cx="1.5" cy="1.5" r="1.5" transform="translate(1203.99 521.356) rotate(180)" fill="#003463"/>
    <circle id="Ellipse_194" data-name="Ellipse 194" cx="1.5" cy="1.5" r="1.5" transform="translate(1219.99 522.356) rotate(180)" fill="#003463"/>
    <circle id="Ellipse_195" data-name="Ellipse 195" cx="1.5" cy="1.5" r="1.5" transform="translate(1236.99 516.356) rotate(180)" fill="#003463"/>
    <circle id="Ellipse_196" data-name="Ellipse 196" cx="1.5" cy="1.5" r="1.5" transform="translate(1256.99 500.356) rotate(180)" fill="#003463"/>
    <circle id="Ellipse_197" data-name="Ellipse 197" cx="1.5" cy="1.5" r="1.5" transform="translate(1271.99 508.356) rotate(180)" fill="#003463"/>
    <circle id="Ellipse_198" data-name="Ellipse 198" cx="1.5" cy="1.5" r="1.5" transform="translate(1288.99 521.356) rotate(180)" fill="#003463"/>
    <circle id="Ellipse_199" data-name="Ellipse 199" cx="1.5" cy="1.5" r="1.5" transform="translate(1304.99 521.356) rotate(180)" fill="#003463"/>
    <path id="Path_703" data-name="Path 703" d="M148.4,502h-.316v-2.035c0-.169.005-.33.016-.481-.028.028-.058.056-.092.086s-.189.157-.465.381l-.172-.222.756-.584h.273Zm2.965,0h-1.877v-.279l.752-.756a5.438,5.438,0,0,0,.453-.5,1.307,1.307,0,0,0,.165-.289.84.84,0,0,0,.054-.3.477.477,0,0,0-.138-.361.53.53,0,0,0-.385-.135.976.976,0,0,0-.338.058,1.38,1.38,0,0,0-.354.213l-.172-.22a1.318,1.318,0,0,1,.86-.328.907.907,0,0,1,.631.207.7.7,0,0,1,.228.552,1.074,1.074,0,0,1-.152.537,3.452,3.452,0,0,1-.57.672l-.625.612v.015h1.468Zm.514-.207a.29.29,0,0,1,.059-.2.214.214,0,0,1,.171-.069.224.224,0,0,1,.176.069.328.328,0,0,1,0,.392.228.228,0,0,1-.176.069.241.241,0,0,1-.166-.061A.273.273,0,0,1,151.875,501.793Zm0-1.725c0-.175.077-.263.23-.263s.241.088.241.263a.276.276,0,0,1-.065.2.231.231,0,0,1-.176.068.236.236,0,0,1-.166-.061A.272.272,0,0,1,151.875,500.068Zm2.857.5a2.083,2.083,0,0,1-.234,1.106.862.862,0,0,1-1.414-.008,2.052,2.052,0,0,1-.24-1.1,2.084,2.084,0,0,1,.232-1.107.862.862,0,0,1,1.414.016A2.021,2.021,0,0,1,154.732,500.568Zm-1.56,0a2.114,2.114,0,0,0,.146.909.527.527,0,0,0,.936,0,2.1,2.1,0,0,0,.146-.9,2.068,2.068,0,0,0-.146-.9.527.527,0,0,0-.936,0A2.083,2.083,0,0,0,153.172,500.568Zm3.849,0a2.083,2.083,0,0,1-.234,1.106.862.862,0,0,1-1.414-.008,2.052,2.052,0,0,1-.24-1.1,2.084,2.084,0,0,1,.232-1.107.862.862,0,0,1,1.414.016A2.021,2.021,0,0,1,157.021,500.568Zm-1.56,0a2.114,2.114,0,0,0,.146.909.527.527,0,0,0,.936,0,2.1,2.1,0,0,0,.146-.9,2.068,2.068,0,0,0-.146-.9.527.527,0,0,0-.936,0A2.083,2.083,0,0,0,155.461,500.568Z" transform="translate(743.99 27.356)"/>
    <path id="Path_704" data-name="Path 704" d="M144.629,496.344h-.424V497h-.31v-.656h-1.389v-.283l1.355-1.932h.344v1.92h.424Zm-.734-.295V495.1q0-.281.019-.631H143.9a2.963,2.963,0,0,1-.175.31l-.893,1.27Zm1.9-.793a1.046,1.046,0,0,1,.709.224.766.766,0,0,1,.26.612.883.883,0,0,1-.284.695,1.121,1.121,0,0,1-.777.252,1.428,1.428,0,0,1-.736-.154v-.313a1.122,1.122,0,0,0,.34.139,1.729,1.729,0,0,0,.4.049.8.8,0,0,0,.533-.162.58.58,0,0,0,.192-.469q0-.6-.733-.6a2.892,2.892,0,0,0-.5.057l-.168-.108.107-1.335h1.42v.3h-1.142l-.072.858A2.259,2.259,0,0,1,145.8,495.256Z" transform="translate(743.99 27.356)"/>
    <path id="Path_705" data-name="Path 705" d="M142.65,489.779a2.018,2.018,0,0,1,.327-1.258,1.156,1.156,0,0,1,.968-.417,1.285,1.285,0,0,1,.348.037v.279a1.1,1.1,0,0,0-.344-.049.868.868,0,0,0-.7.287,1.469,1.469,0,0,0-.266.9h.024a.748.748,0,0,1,.68-.336.794.794,0,0,1,.6.232.876.876,0,0,1,.223.631.976.976,0,0,1-.244.7.868.868,0,0,1-.657.254.847.847,0,0,1-.7-.332A1.48,1.48,0,0,1,142.65,489.779Zm.959.985a.541.541,0,0,0,.43-.174.743.743,0,0,0,.154-.506.65.65,0,0,0-.142-.445.537.537,0,0,0-.426-.162.718.718,0,0,0-.322.072.6.6,0,0,0-.235.2.469.469,0,0,0-.086.264.891.891,0,0,0,.079.375.662.662,0,0,0,.22.275A.557.557,0,0,0,143.609,490.764Zm3.19-1.2a2.073,2.073,0,0,1-.235,1.106.862.862,0,0,1-1.414-.008,2.052,2.052,0,0,1-.24-1.1,2.083,2.083,0,0,1,.233-1.107.862.862,0,0,1,1.414.016A2.031,2.031,0,0,1,146.8,489.568Zm-1.561,0a2.1,2.1,0,0,0,.147.909.526.526,0,0,0,.935,0,2.1,2.1,0,0,0,.147-.9,2.066,2.066,0,0,0-.147-.9.526.526,0,0,0-.935,0A2.065,2.065,0,0,0,145.238,489.568Z" transform="translate(743.99 27.356)"/>
    <path id="Path_706" data-name="Path 706" d="M144.494,477.363q0,1.676-1.3,1.676a1.317,1.317,0,0,1-.359-.039v-.279a1.145,1.145,0,0,0,.355.05.86.86,0,0,0,.707-.289,1.456,1.456,0,0,0,.262-.89h-.023a.706.706,0,0,1-.285.248.928.928,0,0,1-.4.084.8.8,0,0,1-.6-.227.862.862,0,0,1-.223-.633.975.975,0,0,1,.248-.7.953.953,0,0,1,1.164-.107.934.934,0,0,1,.336.435A1.774,1.774,0,0,1,144.494,477.363Zm-.961-.982a.532.532,0,0,0-.431.18.745.745,0,0,0-.153.5.653.653,0,0,0,.141.443.539.539,0,0,0,.428.16.738.738,0,0,0,.326-.072.589.589,0,0,0,.236-.2.46.46,0,0,0,.086-.262.9.9,0,0,0-.08-.379.655.655,0,0,0-.225-.274A.56.56,0,0,0,143.533,476.381Zm3.266,1.187a2.073,2.073,0,0,1-.235,1.106.862.862,0,0,1-1.414-.008,2.052,2.052,0,0,1-.24-1.1,2.083,2.083,0,0,1,.233-1.107.862.862,0,0,1,1.414.016A2.031,2.031,0,0,1,146.8,477.568Zm-1.561,0a2.1,2.1,0,0,0,.147.909.526.526,0,0,0,.935,0,2.1,2.1,0,0,0,.147-.9,2.066,2.066,0,0,0-.147-.9.526.526,0,0,0-.935,0A2.065,2.065,0,0,0,145.238,477.568Z" transform="translate(743.99 27.356)"/>
    <path id="Path_707" data-name="Path 707" d="M141.529,473h-.316v-2.035c0-.169.005-.33.016-.481-.028.028-.058.056-.092.086s-.189.157-.465.381l-.172-.222.756-.584h.273Zm2.981-1.432a2.072,2.072,0,0,1-.235,1.106.862.862,0,0,1-1.414-.008,2.052,2.052,0,0,1-.24-1.1,2.083,2.083,0,0,1,.233-1.107.862.862,0,0,1,1.414.016A2.031,2.031,0,0,1,144.51,471.568Zm-1.561,0a2.1,2.1,0,0,0,.147.909.526.526,0,0,0,.935,0,2.1,2.1,0,0,0,.147-.9,2.066,2.066,0,0,0-.147-.9.526.526,0,0,0-.935,0A2.065,2.065,0,0,0,142.949,471.568Zm2.85-.312a1.046,1.046,0,0,1,.709.224.766.766,0,0,1,.26.612.883.883,0,0,1-.284.695,1.121,1.121,0,0,1-.777.252,1.428,1.428,0,0,1-.736-.154v-.313a1.122,1.122,0,0,0,.34.139,1.729,1.729,0,0,0,.4.049.8.8,0,0,0,.533-.162.58.58,0,0,0,.192-.469q0-.6-.733-.6a2.892,2.892,0,0,0-.5.057l-.168-.108.107-1.335h1.42v.3h-1.142l-.072.858A2.259,2.259,0,0,1,145.8,471.256Z" transform="translate(743.99 27.356)"/>
    <path id="Path_708" data-name="Path 708" d="M142.979,485l1.183-2.557H142.6v-.3h1.9v.259l-1.168,2.6Zm2.82-1.744a1.046,1.046,0,0,1,.709.224.766.766,0,0,1,.26.612.883.883,0,0,1-.284.695,1.121,1.121,0,0,1-.777.252,1.428,1.428,0,0,1-.736-.154v-.313a1.122,1.122,0,0,0,.34.139,1.729,1.729,0,0,0,.4.049.8.8,0,0,0,.533-.162.58.58,0,0,0,.192-.469q0-.6-.733-.6a2.892,2.892,0,0,0-.5.057l-.168-.108.107-1.335h1.42v.3h-1.142l-.072.858A2.259,2.259,0,0,1,145.8,483.256Z" transform="translate(743.99 27.356)"/>
    <path id="Path_709" data-name="Path 709" d="M141.529,467h-.316v-2.035c0-.169.005-.33.016-.481-.028.028-.058.056-.092.086s-.189.157-.465.381l-.172-.222.756-.584h.273Zm2.965,0h-1.877v-.279l.752-.756a5.6,5.6,0,0,0,.453-.5,1.261,1.261,0,0,0,.164-.289.819.819,0,0,0,.055-.3.474.474,0,0,0-.139-.361.526.526,0,0,0-.384-.135.972.972,0,0,0-.338.058,1.363,1.363,0,0,0-.354.213l-.172-.22a1.316,1.316,0,0,1,.86-.328.907.907,0,0,1,.631.207.7.7,0,0,1,.228.552,1.074,1.074,0,0,1-.152.537,3.428,3.428,0,0,1-.571.672l-.625.612v.015h1.469Zm2.3-1.432a2.073,2.073,0,0,1-.235,1.106.862.862,0,0,1-1.414-.008,2.052,2.052,0,0,1-.24-1.1,2.083,2.083,0,0,1,.233-1.107.862.862,0,0,1,1.414.016A2.031,2.031,0,0,1,146.8,465.568Zm-1.561,0a2.1,2.1,0,0,0,.147.909.526.526,0,0,0,.935,0,2.1,2.1,0,0,0,.147-.9,2.066,2.066,0,0,0-.147-.9.526.526,0,0,0-.935,0A2.065,2.065,0,0,0,145.238,465.568Z" transform="translate(743.99 27.356)"/>
    <path id="Path_710" data-name="Path 710" d="M141.529,461h-.316v-2.035c0-.169.005-.33.016-.481-.028.028-.058.056-.092.086s-.189.157-.465.381l-.172-.222.756-.584h.273Zm2.858-2.184a.649.649,0,0,1-.155.448.759.759,0,0,1-.433.232v.016a.816.816,0,0,1,.51.218.648.648,0,0,1,.166.461.749.749,0,0,1-.284.629,1.289,1.289,0,0,1-.8.219,2.322,2.322,0,0,1-.416-.035,1.412,1.412,0,0,1-.366-.119v-.309a1.824,1.824,0,0,0,.793.188q.741,0,.741-.58,0-.52-.817-.52h-.281v-.279h.285a.859.859,0,0,0,.529-.147.484.484,0,0,0,.2-.41.4.4,0,0,0-.145-.328.588.588,0,0,0-.388-.119,1.2,1.2,0,0,0-.354.051,1.548,1.548,0,0,0-.379.187l-.164-.219a1.361,1.361,0,0,1,.4-.216,1.452,1.452,0,0,1,.485-.08.98.98,0,0,1,.646.191A.637.637,0,0,1,144.387,458.816Zm1.412.44a1.046,1.046,0,0,1,.709.224.766.766,0,0,1,.26.612.883.883,0,0,1-.284.695,1.121,1.121,0,0,1-.777.252,1.428,1.428,0,0,1-.736-.154v-.313a1.122,1.122,0,0,0,.34.139,1.729,1.729,0,0,0,.4.049.8.8,0,0,0,.533-.162.58.58,0,0,0,.192-.469q0-.6-.733-.6a2.892,2.892,0,0,0-.5.057l-.168-.108.107-1.335h1.42v.3h-1.142l-.072.858A2.259,2.259,0,0,1,145.8,459.256Z" transform="translate(743.99 27.356)"/>
    <path id="Path_711" data-name="Path 711" d="M165.4,502h-.316v-2.035c0-.169.005-.33.016-.481-.028.028-.058.056-.092.086s-.189.157-.465.381l-.172-.222.756-.584h.273Zm2.965,0h-1.877v-.279l.752-.756a5.438,5.438,0,0,0,.453-.5,1.307,1.307,0,0,0,.165-.289.84.84,0,0,0,.054-.3.477.477,0,0,0-.138-.361.53.53,0,0,0-.385-.135.976.976,0,0,0-.338.058,1.38,1.38,0,0,0-.354.213l-.172-.22a1.318,1.318,0,0,1,.86-.328.907.907,0,0,1,.631.207.7.7,0,0,1,.228.552,1.074,1.074,0,0,1-.152.537,3.452,3.452,0,0,1-.57.672l-.625.612v.015h1.468Zm.514-.207a.29.29,0,0,1,.059-.2.214.214,0,0,1,.171-.069.224.224,0,0,1,.176.069.328.328,0,0,1,0,.392.228.228,0,0,1-.176.069.241.241,0,0,1-.166-.061A.273.273,0,0,1,168.875,501.793Zm0-1.725c0-.175.077-.263.23-.263s.241.088.241.263a.276.276,0,0,1-.065.2.231.231,0,0,1-.176.068.236.236,0,0,1-.166-.061A.272.272,0,0,1,168.875,500.068ZM171.041,502h-.316v-2.035c0-.169,0-.33.015-.481-.027.028-.058.056-.092.086s-.188.157-.464.381l-.172-.222.756-.584h.273Zm1.98-1.744a1.045,1.045,0,0,1,.709.224.763.763,0,0,1,.26.612.882.882,0,0,1-.283.695,1.123,1.123,0,0,1-.777.252,1.435,1.435,0,0,1-.737-.154v-.313a1.144,1.144,0,0,0,.34.139,1.744,1.744,0,0,0,.4.049.8.8,0,0,0,.533-.162.583.583,0,0,0,.191-.469q0-.6-.732-.6a2.892,2.892,0,0,0-.5.057l-.168-.108.107-1.335h1.42v.3h-1.143l-.072.858A2.275,2.275,0,0,1,173.021,500.256Z" transform="translate(743.99 27.356)"/>
    <path id="Path_712" data-name="Path 712" d="M182.4,502h-.316v-2.035c0-.169.005-.33.016-.481-.028.028-.058.056-.092.086s-.189.157-.465.381l-.172-.222.756-.584h.273Zm2.965,0h-1.877v-.279l.752-.756a5.438,5.438,0,0,0,.453-.5,1.307,1.307,0,0,0,.165-.289.84.84,0,0,0,.054-.3.477.477,0,0,0-.138-.361.53.53,0,0,0-.385-.135.976.976,0,0,0-.338.058,1.38,1.38,0,0,0-.354.213l-.172-.22a1.318,1.318,0,0,1,.86-.328.907.907,0,0,1,.631.207.7.7,0,0,1,.228.552,1.074,1.074,0,0,1-.152.537,3.452,3.452,0,0,1-.57.672l-.625.612v.015h1.468Zm.514-.207a.29.29,0,0,1,.059-.2.214.214,0,0,1,.171-.069.224.224,0,0,1,.176.069.328.328,0,0,1,0,.392.228.228,0,0,1-.176.069.241.241,0,0,1-.166-.061A.273.273,0,0,1,185.875,501.793Zm0-1.725c0-.175.077-.263.23-.263s.241.088.241.263a.276.276,0,0,1-.065.2.231.231,0,0,1-.176.068.236.236,0,0,1-.166-.061A.272.272,0,0,1,185.875,500.068Zm2.734-.252a.649.649,0,0,1-.154.448.759.759,0,0,1-.434.232v.016a.811.811,0,0,1,.51.218.644.644,0,0,1,.166.461.749.749,0,0,1-.283.629,1.292,1.292,0,0,1-.805.219,2.33,2.33,0,0,1-.416-.035,1.406,1.406,0,0,1-.365-.119v-.309a1.824,1.824,0,0,0,.793.188q.741,0,.74-.58,0-.52-.816-.52h-.281v-.279h.285a.861.861,0,0,0,.529-.147.486.486,0,0,0,.195-.41.4.4,0,0,0-.144-.328.591.591,0,0,0-.389-.119,1.191,1.191,0,0,0-.353.051,1.548,1.548,0,0,0-.379.187l-.164-.219a1.361,1.361,0,0,1,.4-.216,1.45,1.45,0,0,1,.484-.08.983.983,0,0,1,.647.191A.636.636,0,0,1,188.609,499.816Zm2.412.752a2.083,2.083,0,0,1-.234,1.106.862.862,0,0,1-1.414-.008,2.052,2.052,0,0,1-.24-1.1,2.084,2.084,0,0,1,.232-1.107.862.862,0,0,1,1.414.016A2.021,2.021,0,0,1,191.021,500.568Zm-1.56,0a2.114,2.114,0,0,0,.146.909.527.527,0,0,0,.936,0,2.1,2.1,0,0,0,.146-.9,2.068,2.068,0,0,0-.146-.9.527.527,0,0,0-.936,0A2.083,2.083,0,0,0,189.461,500.568Z" transform="translate(743.99 27.356)"/>
    <path id="Path_713" data-name="Path 713" d="M199.4,502h-.316v-2.035c0-.169.005-.33.016-.481-.028.028-.058.056-.092.086s-.189.157-.465.381l-.172-.222.756-.584h.273Zm2.965,0h-1.877v-.279l.752-.756a5.438,5.438,0,0,0,.453-.5,1.307,1.307,0,0,0,.165-.289.84.84,0,0,0,.054-.3.477.477,0,0,0-.138-.361.53.53,0,0,0-.385-.135.976.976,0,0,0-.338.058,1.38,1.38,0,0,0-.354.213l-.172-.22a1.318,1.318,0,0,1,.86-.328.907.907,0,0,1,.631.207.7.7,0,0,1,.228.552,1.074,1.074,0,0,1-.152.537,3.452,3.452,0,0,1-.57.672l-.625.612v.015h1.468Zm.514-.207a.29.29,0,0,1,.059-.2.214.214,0,0,1,.171-.069.224.224,0,0,1,.176.069.328.328,0,0,1,0,.392.228.228,0,0,1-.176.069.241.241,0,0,1-.166-.061A.273.273,0,0,1,202.875,501.793Zm0-1.725c0-.175.077-.263.23-.263s.241.088.241.263a.276.276,0,0,1-.065.2.231.231,0,0,1-.176.068.236.236,0,0,1-.166-.061A.272.272,0,0,1,202.875,500.068Zm2.977,1.276h-.424V502h-.311v-.656h-1.388v-.283l1.355-1.932h.344v1.92h.424Zm-.735-.295V500.1q0-.281.02-.631h-.016a2.78,2.78,0,0,1-.176.31l-.892,1.27Zm1.9-.793a1.045,1.045,0,0,1,.709.224.763.763,0,0,1,.26.612.882.882,0,0,1-.283.695,1.123,1.123,0,0,1-.777.252,1.435,1.435,0,0,1-.737-.154v-.313a1.144,1.144,0,0,0,.34.139,1.744,1.744,0,0,0,.4.049.8.8,0,0,0,.533-.162.583.583,0,0,0,.191-.469q0-.6-.732-.6a2.892,2.892,0,0,0-.5.057l-.168-.108.107-1.335h1.42v.3h-1.143l-.072.858A2.275,2.275,0,0,1,207.021,500.256Z" transform="translate(743.99 27.356)"/>
    <path id="Path_714" data-name="Path 714" d="M216.4,502h-.316v-2.035c0-.169.005-.33.016-.481-.028.028-.058.056-.092.086s-.189.157-.465.381l-.172-.222.756-.584h.273Zm2.858-2.184a.654.654,0,0,1-.154.448.762.762,0,0,1-.434.232v.016a.816.816,0,0,1,.51.218.648.648,0,0,1,.166.461.751.751,0,0,1-.283.629,1.292,1.292,0,0,1-.805.219,2.322,2.322,0,0,1-.416-.035,1.393,1.393,0,0,1-.365-.119v-.309a1.844,1.844,0,0,0,.394.141,1.865,1.865,0,0,0,.4.047q.739,0,.74-.58,0-.52-.817-.52h-.281v-.279h.285a.864.864,0,0,0,.53-.147.486.486,0,0,0,.195-.41.4.4,0,0,0-.145-.328.588.588,0,0,0-.388-.119,1.2,1.2,0,0,0-.354.051,1.566,1.566,0,0,0-.379.187l-.164-.219a1.354,1.354,0,0,1,.4-.216,1.446,1.446,0,0,1,.484-.08.98.98,0,0,1,.646.191A.637.637,0,0,1,219.254,499.816Zm.621,1.977a.29.29,0,0,1,.059-.2.214.214,0,0,1,.171-.069.224.224,0,0,1,.176.069.328.328,0,0,1,0,.392.228.228,0,0,1-.176.069.241.241,0,0,1-.166-.061A.273.273,0,0,1,219.875,501.793Zm0-1.725c0-.175.077-.263.23-.263s.241.088.241.263a.276.276,0,0,1-.065.2.231.231,0,0,1-.176.068.236.236,0,0,1-.166-.061A.272.272,0,0,1,219.875,500.068Zm2.857.5a2.083,2.083,0,0,1-.234,1.106.862.862,0,0,1-1.414-.008,2.052,2.052,0,0,1-.24-1.1,2.084,2.084,0,0,1,.232-1.107.862.862,0,0,1,1.414.016A2.021,2.021,0,0,1,222.732,500.568Zm-1.56,0a2.114,2.114,0,0,0,.146.909.527.527,0,0,0,.936,0,2.1,2.1,0,0,0,.146-.9,2.068,2.068,0,0,0-.146-.9.527.527,0,0,0-.936,0A2.083,2.083,0,0,0,221.172,500.568Zm3.849,0a2.083,2.083,0,0,1-.234,1.106.862.862,0,0,1-1.414-.008,2.052,2.052,0,0,1-.24-1.1,2.084,2.084,0,0,1,.232-1.107.862.862,0,0,1,1.414.016A2.021,2.021,0,0,1,225.021,500.568Zm-1.56,0a2.114,2.114,0,0,0,.146.909.527.527,0,0,0,.936,0,2.1,2.1,0,0,0,.146-.9,2.068,2.068,0,0,0-.146-.9.527.527,0,0,0-.936,0A2.083,2.083,0,0,0,223.461,500.568Z" transform="translate(743.99 27.356)"/>
    <path id="Path_715" data-name="Path 715" d="M233.4,502h-.316v-2.035c0-.169.005-.33.016-.481-.028.028-.058.056-.092.086s-.189.157-.465.381l-.172-.222.756-.584h.273Zm2.858-2.184a.654.654,0,0,1-.154.448.762.762,0,0,1-.434.232v.016a.816.816,0,0,1,.51.218.648.648,0,0,1,.166.461.751.751,0,0,1-.283.629,1.292,1.292,0,0,1-.805.219,2.322,2.322,0,0,1-.416-.035,1.393,1.393,0,0,1-.365-.119v-.309a1.844,1.844,0,0,0,.394.141,1.865,1.865,0,0,0,.4.047q.739,0,.74-.58,0-.52-.817-.52h-.281v-.279h.285a.864.864,0,0,0,.53-.147.486.486,0,0,0,.195-.41.4.4,0,0,0-.145-.328.588.588,0,0,0-.388-.119,1.2,1.2,0,0,0-.354.051,1.566,1.566,0,0,0-.379.187l-.164-.219a1.354,1.354,0,0,1,.4-.216,1.446,1.446,0,0,1,.484-.08.98.98,0,0,1,.646.191A.637.637,0,0,1,236.254,499.816Zm.621,1.977a.29.29,0,0,1,.059-.2.214.214,0,0,1,.171-.069.224.224,0,0,1,.176.069.328.328,0,0,1,0,.392.228.228,0,0,1-.176.069.241.241,0,0,1-.166-.061A.273.273,0,0,1,236.875,501.793Zm0-1.725c0-.175.077-.263.23-.263s.241.088.241.263a.276.276,0,0,1-.065.2.231.231,0,0,1-.176.068.236.236,0,0,1-.166-.061A.272.272,0,0,1,236.875,500.068ZM239.041,502h-.316v-2.035c0-.169,0-.33.015-.481-.027.028-.058.056-.092.086s-.188.157-.464.381l-.172-.222.756-.584h.273Zm1.98-1.744a1.045,1.045,0,0,1,.709.224.763.763,0,0,1,.26.612.882.882,0,0,1-.283.695,1.123,1.123,0,0,1-.777.252,1.435,1.435,0,0,1-.737-.154v-.313a1.144,1.144,0,0,0,.34.139,1.744,1.744,0,0,0,.4.049.8.8,0,0,0,.533-.162.583.583,0,0,0,.191-.469q0-.6-.732-.6a2.892,2.892,0,0,0-.5.057l-.168-.108.107-1.335h1.42v.3h-1.143l-.072.858A2.275,2.275,0,0,1,241.021,500.256Z" transform="translate(743.99 27.356)"/>
    <path id="Path_716" data-name="Path 716" d="M250.4,502h-.316v-2.035c0-.169.005-.33.016-.481-.028.028-.058.056-.092.086s-.189.157-.465.381l-.172-.222.756-.584h.273Zm2.858-2.184a.654.654,0,0,1-.154.448.762.762,0,0,1-.434.232v.016a.816.816,0,0,1,.51.218.648.648,0,0,1,.166.461.751.751,0,0,1-.283.629,1.292,1.292,0,0,1-.805.219,2.322,2.322,0,0,1-.416-.035,1.393,1.393,0,0,1-.365-.119v-.309a1.844,1.844,0,0,0,.394.141,1.865,1.865,0,0,0,.4.047q.739,0,.74-.58,0-.52-.817-.52h-.281v-.279h.285a.864.864,0,0,0,.53-.147.486.486,0,0,0,.195-.41.4.4,0,0,0-.145-.328.588.588,0,0,0-.388-.119,1.2,1.2,0,0,0-.354.051,1.566,1.566,0,0,0-.379.187l-.164-.219a1.354,1.354,0,0,1,.4-.216,1.446,1.446,0,0,1,.484-.08.98.98,0,0,1,.646.191A.637.637,0,0,1,253.254,499.816Zm.621,1.977a.29.29,0,0,1,.059-.2.214.214,0,0,1,.171-.069.224.224,0,0,1,.176.069.328.328,0,0,1,0,.392.228.228,0,0,1-.176.069.241.241,0,0,1-.166-.061A.273.273,0,0,1,253.875,501.793Zm0-1.725c0-.175.077-.263.23-.263s.241.088.241.263a.276.276,0,0,1-.065.2.231.231,0,0,1-.176.068.236.236,0,0,1-.166-.061A.272.272,0,0,1,253.875,500.068Zm2.734-.252a.649.649,0,0,1-.154.448.759.759,0,0,1-.434.232v.016a.811.811,0,0,1,.51.218.644.644,0,0,1,.166.461.749.749,0,0,1-.283.629,1.292,1.292,0,0,1-.805.219,2.33,2.33,0,0,1-.416-.035,1.406,1.406,0,0,1-.365-.119v-.309a1.824,1.824,0,0,0,.793.188q.741,0,.74-.58,0-.52-.816-.52h-.281v-.279h.285a.861.861,0,0,0,.529-.147.486.486,0,0,0,.2-.41.4.4,0,0,0-.144-.328.591.591,0,0,0-.389-.119,1.191,1.191,0,0,0-.353.051,1.548,1.548,0,0,0-.379.187l-.164-.219a1.361,1.361,0,0,1,.4-.216,1.45,1.45,0,0,1,.484-.08.983.983,0,0,1,.647.191A.636.636,0,0,1,256.609,499.816Zm2.412.752a2.083,2.083,0,0,1-.234,1.106.862.862,0,0,1-1.414-.008,2.052,2.052,0,0,1-.24-1.1,2.084,2.084,0,0,1,.232-1.107.862.862,0,0,1,1.414.016A2.021,2.021,0,0,1,259.021,500.568Zm-1.56,0a2.114,2.114,0,0,0,.146.909.527.527,0,0,0,.936,0,2.1,2.1,0,0,0,.146-.9,2.068,2.068,0,0,0-.146-.9.527.527,0,0,0-.936,0A2.083,2.083,0,0,0,257.461,500.568Z" transform="translate(743.99 27.356)"/>
    <path id="Path_717" data-name="Path 717" d="M267.4,502h-.316v-2.035c0-.169.005-.33.016-.481-.028.028-.058.056-.092.086s-.189.157-.465.381l-.172-.222.756-.584h.273Zm2.858-2.184a.654.654,0,0,1-.154.448.762.762,0,0,1-.434.232v.016a.816.816,0,0,1,.51.218.648.648,0,0,1,.166.461.751.751,0,0,1-.283.629,1.292,1.292,0,0,1-.8.219,2.322,2.322,0,0,1-.416-.035,1.394,1.394,0,0,1-.365-.119v-.309a1.845,1.845,0,0,0,.394.141,1.865,1.865,0,0,0,.4.047q.74,0,.74-.58,0-.52-.817-.52h-.281v-.279h.285a.864.864,0,0,0,.53-.147.486.486,0,0,0,.2-.41.4.4,0,0,0-.145-.328.588.588,0,0,0-.388-.119,1.2,1.2,0,0,0-.354.051,1.566,1.566,0,0,0-.379.187l-.164-.219a1.354,1.354,0,0,1,.4-.216,1.446,1.446,0,0,1,.484-.08.98.98,0,0,1,.646.191A.637.637,0,0,1,270.254,499.816Zm.621,1.977a.29.29,0,0,1,.059-.2.214.214,0,0,1,.171-.069.224.224,0,0,1,.176.069.328.328,0,0,1,0,.392.228.228,0,0,1-.176.069.241.241,0,0,1-.166-.061A.273.273,0,0,1,270.875,501.793Zm0-1.725c0-.175.077-.263.23-.263s.241.088.241.263a.276.276,0,0,1-.065.2.231.231,0,0,1-.176.068.236.236,0,0,1-.166-.061A.272.272,0,0,1,270.875,500.068Zm2.977,1.276h-.424V502h-.311v-.656h-1.388v-.283l1.355-1.932h.344v1.92h.424Zm-.735-.295V500.1q0-.281.02-.631h-.016a2.783,2.783,0,0,1-.176.31l-.892,1.27Zm1.9-.793a1.045,1.045,0,0,1,.709.224.763.763,0,0,1,.26.612.882.882,0,0,1-.283.695,1.123,1.123,0,0,1-.777.252,1.435,1.435,0,0,1-.737-.154v-.313a1.144,1.144,0,0,0,.34.139,1.744,1.744,0,0,0,.4.049.8.8,0,0,0,.533-.162.583.583,0,0,0,.191-.469q0-.6-.732-.6a2.892,2.892,0,0,0-.5.057l-.168-.108.107-1.335h1.42v.3h-1.143l-.072.858A2.274,2.274,0,0,1,275.021,500.256Z" transform="translate(743.99 27.356)"/>
    <path id="Path_718" data-name="Path 718" d="M284.4,502h-.316v-2.035c0-.169.005-.33.016-.481-.028.028-.058.056-.092.086s-.189.157-.465.381l-.172-.222.756-.584h.273Zm3.1-.656h-.424V502h-.31v-.656h-1.389v-.283l1.356-1.932h.343v1.92h.424Zm-.734-.295V500.1q0-.281.019-.631h-.015a2.947,2.947,0,0,1-.176.31l-.893,1.27Zm1.113.744a.29.29,0,0,1,.059-.2.214.214,0,0,1,.171-.069.224.224,0,0,1,.176.069.328.328,0,0,1,0,.392.228.228,0,0,1-.176.069.241.241,0,0,1-.166-.061A.273.273,0,0,1,287.875,501.793Zm0-1.725c0-.175.077-.263.23-.263s.241.088.241.263a.276.276,0,0,1-.065.2.231.231,0,0,1-.176.068.236.236,0,0,1-.166-.061A.272.272,0,0,1,287.875,500.068Zm2.857.5a2.083,2.083,0,0,1-.234,1.106.862.862,0,0,1-1.414-.008,2.052,2.052,0,0,1-.24-1.1,2.084,2.084,0,0,1,.232-1.107.862.862,0,0,1,1.414.016A2.021,2.021,0,0,1,290.732,500.568Zm-1.56,0a2.114,2.114,0,0,0,.146.909.527.527,0,0,0,.936,0,2.1,2.1,0,0,0,.146-.9,2.068,2.068,0,0,0-.146-.9.527.527,0,0,0-.936,0A2.083,2.083,0,0,0,289.172,500.568Zm3.849,0a2.083,2.083,0,0,1-.234,1.106.862.862,0,0,1-1.414-.008,2.052,2.052,0,0,1-.24-1.1,2.084,2.084,0,0,1,.232-1.107.862.862,0,0,1,1.414.016A2.021,2.021,0,0,1,293.021,500.568Zm-1.56,0a2.114,2.114,0,0,0,.146.909.527.527,0,0,0,.936,0,2.1,2.1,0,0,0,.146-.9,2.068,2.068,0,0,0-.146-.9.527.527,0,0,0-.936,0A2.083,2.083,0,0,0,291.461,500.568Z" transform="translate(743.99 27.356)"/>
    <path id="Path_719" data-name="Path 719" d="M301.4,502h-.316v-2.035c0-.169.005-.33.016-.481-.028.028-.058.056-.092.086s-.189.157-.465.381l-.172-.222.756-.584h.273Zm3.1-.656h-.424V502h-.31v-.656h-1.389v-.283l1.356-1.932h.343v1.92h.424Zm-.734-.295V500.1q0-.281.019-.631h-.015a2.947,2.947,0,0,1-.176.31l-.893,1.27Zm1.113.744a.29.29,0,0,1,.059-.2.214.214,0,0,1,.171-.069.224.224,0,0,1,.176.069.328.328,0,0,1,0,.392.228.228,0,0,1-.176.069.241.241,0,0,1-.166-.061A.273.273,0,0,1,304.875,501.793Zm0-1.725c0-.175.077-.263.23-.263s.241.088.241.263a.276.276,0,0,1-.065.2.231.231,0,0,1-.176.068.236.236,0,0,1-.166-.061A.272.272,0,0,1,304.875,500.068ZM307.041,502h-.316v-2.035c0-.169.005-.33.015-.481-.027.028-.058.056-.092.086s-.188.157-.464.381l-.172-.222.756-.584h.273Zm1.98-1.744a1.045,1.045,0,0,1,.709.224.763.763,0,0,1,.26.612.882.882,0,0,1-.283.695,1.123,1.123,0,0,1-.777.252,1.435,1.435,0,0,1-.737-.154v-.313a1.144,1.144,0,0,0,.34.139,1.744,1.744,0,0,0,.4.049.8.8,0,0,0,.533-.162.583.583,0,0,0,.191-.469q0-.6-.732-.6a2.892,2.892,0,0,0-.5.057l-.168-.108.107-1.335h1.42v.3h-1.143l-.072.858A2.274,2.274,0,0,1,309.021,500.256Z" transform="translate(743.99 27.356)"/>
    <path id="Path_720" data-name="Path 720" d="M318.4,502h-.316v-2.035c0-.169.005-.33.016-.481-.028.028-.058.056-.092.086s-.189.157-.465.381l-.172-.222.756-.584h.273Zm3.1-.656h-.424V502h-.31v-.656h-1.389v-.283l1.356-1.932h.343v1.92h.424Zm-.734-.295V500.1q0-.281.019-.631h-.015a2.947,2.947,0,0,1-.176.31l-.893,1.27Zm1.113.744a.29.29,0,0,1,.059-.2.214.214,0,0,1,.171-.069.224.224,0,0,1,.176.069.328.328,0,0,1,0,.392.228.228,0,0,1-.176.069.241.241,0,0,1-.166-.061A.273.273,0,0,1,321.875,501.793Zm0-1.725c0-.175.077-.263.23-.263s.241.088.241.263a.276.276,0,0,1-.065.2.231.231,0,0,1-.176.068.236.236,0,0,1-.166-.061A.272.272,0,0,1,321.875,500.068Zm2.734-.252a.649.649,0,0,1-.154.448.759.759,0,0,1-.434.232v.016a.811.811,0,0,1,.51.218.644.644,0,0,1,.166.461.749.749,0,0,1-.283.629,1.292,1.292,0,0,1-.8.219,2.331,2.331,0,0,1-.416-.035,1.405,1.405,0,0,1-.365-.119v-.309a1.823,1.823,0,0,0,.793.188q.741,0,.74-.58,0-.52-.816-.52h-.281v-.279h.285a.861.861,0,0,0,.529-.147.486.486,0,0,0,.2-.41.4.4,0,0,0-.144-.328.591.591,0,0,0-.389-.119,1.191,1.191,0,0,0-.353.051,1.548,1.548,0,0,0-.379.187l-.164-.219a1.361,1.361,0,0,1,.4-.216,1.45,1.45,0,0,1,.484-.08.983.983,0,0,1,.647.191A.636.636,0,0,1,324.609,499.816Zm2.412.752a2.083,2.083,0,0,1-.234,1.106.862.862,0,0,1-1.414-.008,2.052,2.052,0,0,1-.24-1.1,2.084,2.084,0,0,1,.232-1.107.862.862,0,0,1,1.414.016A2.021,2.021,0,0,1,327.021,500.568Zm-1.56,0a2.114,2.114,0,0,0,.146.909.527.527,0,0,0,.936,0,2.1,2.1,0,0,0,.146-.9,2.068,2.068,0,0,0-.146-.9.527.527,0,0,0-.936,0A2.083,2.083,0,0,0,325.461,500.568Z" transform="translate(743.99 27.356)"/>
    <path id="Path_721" data-name="Path 721" d="M335.4,502h-.316v-2.035c0-.169.005-.33.016-.481-.028.028-.058.056-.092.086s-.189.157-.465.381l-.172-.222.756-.584h.273Zm3.1-.656h-.424V502h-.31v-.656h-1.389v-.283l1.356-1.932h.343v1.92h.424Zm-.734-.295V500.1q0-.281.019-.631h-.015a2.947,2.947,0,0,1-.176.31l-.893,1.27Zm1.113.744a.29.29,0,0,1,.059-.2.214.214,0,0,1,.171-.069.224.224,0,0,1,.176.069.328.328,0,0,1,0,.392.228.228,0,0,1-.176.069.241.241,0,0,1-.166-.061A.273.273,0,0,1,338.875,501.793Zm0-1.725c0-.175.077-.263.23-.263s.241.088.241.263a.276.276,0,0,1-.065.2.231.231,0,0,1-.176.068.236.236,0,0,1-.166-.061A.272.272,0,0,1,338.875,500.068Zm2.977,1.276h-.424V502h-.311v-.656h-1.388v-.283l1.355-1.932h.344v1.92h.424Zm-.735-.295V500.1q0-.281.02-.631h-.016a2.783,2.783,0,0,1-.176.31l-.892,1.27Zm1.9-.793a1.045,1.045,0,0,1,.709.224.763.763,0,0,1,.26.612.882.882,0,0,1-.283.695,1.123,1.123,0,0,1-.777.252,1.435,1.435,0,0,1-.737-.154v-.313a1.144,1.144,0,0,0,.34.139,1.744,1.744,0,0,0,.4.049.8.8,0,0,0,.533-.162.583.583,0,0,0,.191-.469q0-.6-.732-.6a2.892,2.892,0,0,0-.5.057l-.168-.108.107-1.335h1.42v.3h-1.143l-.072.858A2.274,2.274,0,0,1,343.021,500.256Z" transform="translate(743.99 27.356)"/>
    <path id="Path_722" data-name="Path 722" d="M352.4,502h-.316v-2.035c0-.169.005-.33.016-.481-.028.028-.058.056-.092.086s-.189.157-.465.381l-.172-.222.756-.584h.273Zm1.981-1.744a1.046,1.046,0,0,1,.709.224.766.766,0,0,1,.26.612.883.883,0,0,1-.284.695,1.121,1.121,0,0,1-.777.252,1.431,1.431,0,0,1-.736-.154v-.313a1.122,1.122,0,0,0,.34.139,1.735,1.735,0,0,0,.4.049.8.8,0,0,0,.533-.162.58.58,0,0,0,.192-.469q0-.6-.733-.6a2.9,2.9,0,0,0-.5.057l-.168-.108.108-1.335h1.42v.3H354l-.072.858A2.267,2.267,0,0,1,354.377,500.256Zm1.5,1.537a.29.29,0,0,1,.059-.2.214.214,0,0,1,.171-.069.224.224,0,0,1,.176.069.328.328,0,0,1,0,.392.228.228,0,0,1-.176.069.241.241,0,0,1-.166-.061A.273.273,0,0,1,355.875,501.793Zm0-1.725c0-.175.077-.263.23-.263s.241.088.241.263a.276.276,0,0,1-.065.2.231.231,0,0,1-.176.068.236.236,0,0,1-.166-.061A.272.272,0,0,1,355.875,500.068Zm2.857.5a2.083,2.083,0,0,1-.234,1.106.862.862,0,0,1-1.414-.008,2.052,2.052,0,0,1-.24-1.1,2.084,2.084,0,0,1,.232-1.107.862.862,0,0,1,1.414.016A2.021,2.021,0,0,1,358.732,500.568Zm-1.56,0a2.114,2.114,0,0,0,.146.909.527.527,0,0,0,.936,0,2.1,2.1,0,0,0,.146-.9,2.068,2.068,0,0,0-.146-.9.527.527,0,0,0-.936,0A2.083,2.083,0,0,0,357.172,500.568Zm3.849,0a2.083,2.083,0,0,1-.234,1.106.862.862,0,0,1-1.414-.008,2.052,2.052,0,0,1-.24-1.1,2.084,2.084,0,0,1,.232-1.107.862.862,0,0,1,1.414.016A2.021,2.021,0,0,1,361.021,500.568Zm-1.56,0a2.114,2.114,0,0,0,.146.909.527.527,0,0,0,.936,0,2.1,2.1,0,0,0,.146-.9,2.068,2.068,0,0,0-.146-.9.527.527,0,0,0-.936,0A2.083,2.083,0,0,0,359.461,500.568Z" transform="translate(743.99 27.356)"/>
    <path id="Path_723" data-name="Path 723" d="M369.4,502h-.316v-2.035c0-.169.005-.33.016-.481-.028.028-.058.056-.092.086s-.189.157-.465.381l-.172-.222.756-.584h.273Zm1.981-1.744a1.046,1.046,0,0,1,.709.224.766.766,0,0,1,.26.612.883.883,0,0,1-.284.695,1.121,1.121,0,0,1-.777.252,1.431,1.431,0,0,1-.736-.154v-.313a1.122,1.122,0,0,0,.34.139,1.735,1.735,0,0,0,.4.049.8.8,0,0,0,.533-.162.58.58,0,0,0,.192-.469q0-.6-.733-.6a2.9,2.9,0,0,0-.5.057l-.168-.108.108-1.335h1.42v.3H371l-.072.858A2.267,2.267,0,0,1,371.377,500.256Zm1.5,1.537a.29.29,0,0,1,.059-.2.214.214,0,0,1,.171-.069.224.224,0,0,1,.176.069.328.328,0,0,1,0,.392.228.228,0,0,1-.176.069.241.241,0,0,1-.166-.061A.273.273,0,0,1,372.875,501.793Zm0-1.725c0-.175.077-.263.23-.263s.241.088.241.263a.276.276,0,0,1-.065.2.231.231,0,0,1-.176.068.236.236,0,0,1-.166-.061A.272.272,0,0,1,372.875,500.068ZM375.041,502h-.316v-2.035c0-.169.005-.33.015-.481-.027.028-.058.056-.092.086s-.188.157-.464.381l-.172-.222.756-.584h.273Zm1.98-1.744a1.045,1.045,0,0,1,.709.224.763.763,0,0,1,.26.612.882.882,0,0,1-.283.695,1.123,1.123,0,0,1-.777.252,1.435,1.435,0,0,1-.737-.154v-.313a1.144,1.144,0,0,0,.34.139,1.744,1.744,0,0,0,.4.049.8.8,0,0,0,.533-.162.583.583,0,0,0,.191-.469q0-.6-.732-.6a2.892,2.892,0,0,0-.5.057l-.168-.108.107-1.335h1.42v.3h-1.143l-.072.858A2.274,2.274,0,0,1,377.021,500.256Z" transform="translate(743.99 27.356)"/>
    <path id="Path_724" data-name="Path 724" d="M386.4,502h-.316v-2.035c0-.169.005-.33.016-.481-.028.028-.058.056-.092.086s-.189.157-.465.381l-.172-.222.756-.584h.273Zm1.981-1.744a1.046,1.046,0,0,1,.709.224.766.766,0,0,1,.26.612.883.883,0,0,1-.284.695,1.121,1.121,0,0,1-.777.252,1.431,1.431,0,0,1-.736-.154v-.313a1.122,1.122,0,0,0,.34.139,1.735,1.735,0,0,0,.4.049.8.8,0,0,0,.533-.162.58.58,0,0,0,.192-.469q0-.6-.733-.6a2.9,2.9,0,0,0-.5.057l-.168-.108.108-1.335h1.42v.3H388l-.072.858A2.267,2.267,0,0,1,388.377,500.256Zm1.5,1.537a.29.29,0,0,1,.059-.2.214.214,0,0,1,.171-.069.224.224,0,0,1,.176.069.328.328,0,0,1,0,.392.228.228,0,0,1-.176.069.241.241,0,0,1-.166-.061A.273.273,0,0,1,389.875,501.793Zm0-1.725c0-.175.077-.263.23-.263s.241.088.241.263a.276.276,0,0,1-.065.2.231.231,0,0,1-.176.068.236.236,0,0,1-.166-.061A.272.272,0,0,1,389.875,500.068Zm2.734-.252a.649.649,0,0,1-.154.448.759.759,0,0,1-.434.232v.016a.811.811,0,0,1,.51.218.644.644,0,0,1,.166.461.749.749,0,0,1-.283.629,1.292,1.292,0,0,1-.8.219,2.331,2.331,0,0,1-.416-.035,1.405,1.405,0,0,1-.365-.119v-.309a1.823,1.823,0,0,0,.793.188q.741,0,.74-.58,0-.52-.816-.52h-.281v-.279h.285a.861.861,0,0,0,.529-.147.486.486,0,0,0,.2-.41.4.4,0,0,0-.144-.328.591.591,0,0,0-.389-.119,1.191,1.191,0,0,0-.353.051,1.548,1.548,0,0,0-.379.187l-.164-.219a1.361,1.361,0,0,1,.4-.216,1.45,1.45,0,0,1,.484-.08.983.983,0,0,1,.647.191A.636.636,0,0,1,392.609,499.816Zm2.412.752a2.083,2.083,0,0,1-.234,1.106.862.862,0,0,1-1.414-.008,2.052,2.052,0,0,1-.24-1.1,2.084,2.084,0,0,1,.232-1.107.862.862,0,0,1,1.414.016A2.021,2.021,0,0,1,395.021,500.568Zm-1.56,0a2.114,2.114,0,0,0,.146.909.527.527,0,0,0,.936,0,2.1,2.1,0,0,0,.146-.9,2.068,2.068,0,0,0-.146-.9.527.527,0,0,0-.936,0A2.083,2.083,0,0,0,393.461,500.568Z" transform="translate(743.99 27.356)"/>
    <path id="Path_725" data-name="Path 725" d="M403.4,502h-.316v-2.035c0-.169.005-.33.016-.481-.028.028-.058.056-.092.086s-.189.157-.465.381l-.172-.222.756-.584h.273Zm1.981-1.744a1.046,1.046,0,0,1,.709.224.766.766,0,0,1,.26.612.883.883,0,0,1-.284.695,1.121,1.121,0,0,1-.777.252,1.431,1.431,0,0,1-.736-.154v-.313a1.122,1.122,0,0,0,.34.139,1.735,1.735,0,0,0,.4.049.8.8,0,0,0,.533-.162.58.58,0,0,0,.192-.469q0-.6-.733-.6a2.9,2.9,0,0,0-.5.057l-.168-.108.108-1.335h1.42v.3H405l-.072.858A2.267,2.267,0,0,1,405.377,500.256Zm1.5,1.537a.29.29,0,0,1,.059-.2.214.214,0,0,1,.171-.069.224.224,0,0,1,.176.069.328.328,0,0,1,0,.392.228.228,0,0,1-.176.069.241.241,0,0,1-.166-.061A.273.273,0,0,1,406.875,501.793Zm0-1.725c0-.175.077-.263.23-.263s.241.088.241.263a.276.276,0,0,1-.065.2.231.231,0,0,1-.176.068.236.236,0,0,1-.166-.061A.272.272,0,0,1,406.875,500.068Zm2.977,1.276h-.424V502h-.311v-.656h-1.388v-.283l1.355-1.932h.344v1.92h.424Zm-.735-.295V500.1q0-.281.02-.631h-.016a2.783,2.783,0,0,1-.176.31l-.892,1.27Zm1.9-.793a1.045,1.045,0,0,1,.709.224.763.763,0,0,1,.26.612.882.882,0,0,1-.283.695,1.123,1.123,0,0,1-.777.252,1.435,1.435,0,0,1-.737-.154v-.313a1.144,1.144,0,0,0,.34.139,1.744,1.744,0,0,0,.4.049.8.8,0,0,0,.533-.162.583.583,0,0,0,.191-.469q0-.6-.732-.6a2.892,2.892,0,0,0-.5.057l-.168-.108.107-1.335h1.42v.3h-1.143l-.072.858A2.274,2.274,0,0,1,411.021,500.256Z" transform="translate(743.99 27.356)"/>
    <path id="Path_726" data-name="Path 726" d="M420.4,502h-.316v-2.035c0-.169.005-.33.016-.481-.028.028-.058.056-.092.086s-.189.157-.465.381l-.172-.222.756-.584h.273Zm1.122-1.221a2.019,2.019,0,0,1,.326-1.258,1.156,1.156,0,0,1,.968-.417,1.275,1.275,0,0,1,.348.037v.279a1.1,1.1,0,0,0-.344-.049.868.868,0,0,0-.7.287,1.463,1.463,0,0,0-.265.9h.023a.748.748,0,0,1,.68-.336.794.794,0,0,1,.6.232.871.871,0,0,1,.223.631.975.975,0,0,1-.244.7.866.866,0,0,1-.657.254.848.848,0,0,1-.7-.332A1.48,1.48,0,0,1,421.518,500.779Zm.959.985a.54.54,0,0,0,.429-.174.743.743,0,0,0,.155-.506.65.65,0,0,0-.143-.445.537.537,0,0,0-.426-.162.721.721,0,0,0-.322.072.591.591,0,0,0-.234.2.461.461,0,0,0-.086.264.906.906,0,0,0,.078.375.662.662,0,0,0,.22.275A.558.558,0,0,0,422.477,501.764Zm1.4.029a.29.29,0,0,1,.059-.2.214.214,0,0,1,.171-.069.224.224,0,0,1,.176.069.328.328,0,0,1,0,.392.228.228,0,0,1-.176.069.241.241,0,0,1-.166-.061A.273.273,0,0,1,423.875,501.793Zm0-1.725c0-.175.077-.263.23-.263s.241.088.241.263a.276.276,0,0,1-.065.2.231.231,0,0,1-.176.068.236.236,0,0,1-.166-.061A.272.272,0,0,1,423.875,500.068Zm2.857.5a2.083,2.083,0,0,1-.234,1.106.862.862,0,0,1-1.414-.008,2.052,2.052,0,0,1-.24-1.1,2.084,2.084,0,0,1,.232-1.107.862.862,0,0,1,1.414.016A2.021,2.021,0,0,1,426.732,500.568Zm-1.56,0a2.114,2.114,0,0,0,.146.909.527.527,0,0,0,.936,0,2.1,2.1,0,0,0,.146-.9,2.068,2.068,0,0,0-.146-.9.527.527,0,0,0-.936,0A2.083,2.083,0,0,0,425.172,500.568Zm3.849,0a2.083,2.083,0,0,1-.234,1.106.862.862,0,0,1-1.414-.008,2.052,2.052,0,0,1-.24-1.1,2.084,2.084,0,0,1,.232-1.107.862.862,0,0,1,1.414.016A2.021,2.021,0,0,1,429.021,500.568Zm-1.56,0a2.114,2.114,0,0,0,.146.909.527.527,0,0,0,.936,0,2.1,2.1,0,0,0,.146-.9,2.068,2.068,0,0,0-.146-.9.527.527,0,0,0-.936,0A2.083,2.083,0,0,0,427.461,500.568Z" transform="translate(743.99 27.356)"/>
    <path id="Path_727" data-name="Path 727" d="M437.4,502h-.316v-2.035c0-.169.005-.33.016-.481-.028.028-.058.056-.092.086s-.189.157-.465.381l-.172-.222.756-.584h.273Zm1.122-1.221a2.019,2.019,0,0,1,.326-1.258,1.156,1.156,0,0,1,.968-.417,1.275,1.275,0,0,1,.348.037v.279a1.1,1.1,0,0,0-.344-.049.868.868,0,0,0-.7.287,1.463,1.463,0,0,0-.265.9h.023a.748.748,0,0,1,.68-.336.794.794,0,0,1,.6.232.871.871,0,0,1,.223.631.975.975,0,0,1-.244.7.866.866,0,0,1-.657.254.848.848,0,0,1-.7-.332A1.48,1.48,0,0,1,438.518,500.779Zm.959.985a.54.54,0,0,0,.429-.174.743.743,0,0,0,.155-.506.65.65,0,0,0-.143-.445.537.537,0,0,0-.426-.162.721.721,0,0,0-.322.072.591.591,0,0,0-.234.2.461.461,0,0,0-.086.264.906.906,0,0,0,.078.375.662.662,0,0,0,.22.275A.558.558,0,0,0,439.477,501.764Zm1.4.029a.29.29,0,0,1,.059-.2.214.214,0,0,1,.171-.069.224.224,0,0,1,.176.069.328.328,0,0,1,0,.392.228.228,0,0,1-.176.069.241.241,0,0,1-.166-.061A.273.273,0,0,1,440.875,501.793Zm0-1.725c0-.175.077-.263.23-.263s.241.088.241.263a.276.276,0,0,1-.065.2.231.231,0,0,1-.176.068.236.236,0,0,1-.166-.061A.272.272,0,0,1,440.875,500.068ZM443.041,502h-.316v-2.035c0-.169.005-.33.015-.481-.027.028-.058.056-.092.086s-.188.157-.464.381l-.172-.222.756-.584h.273Zm1.98-1.744a1.045,1.045,0,0,1,.709.224.763.763,0,0,1,.26.612.882.882,0,0,1-.283.695,1.123,1.123,0,0,1-.777.252,1.435,1.435,0,0,1-.737-.154v-.313a1.144,1.144,0,0,0,.34.139,1.744,1.744,0,0,0,.4.049.8.8,0,0,0,.533-.162.583.583,0,0,0,.191-.469q0-.6-.732-.6a2.892,2.892,0,0,0-.5.057l-.168-.108.107-1.335h1.42v.3h-1.143l-.072.858A2.274,2.274,0,0,1,445.021,500.256Z" transform="translate(743.99 27.356)"/>
    <path id="Path_728" data-name="Path 728" d="M454.4,502h-.316v-2.035c0-.169.005-.33.016-.481-.028.028-.058.056-.092.086s-.189.157-.465.381l-.172-.222.756-.584h.273Zm1.122-1.221a2.019,2.019,0,0,1,.326-1.258,1.156,1.156,0,0,1,.968-.417,1.275,1.275,0,0,1,.348.037v.279a1.1,1.1,0,0,0-.344-.049.868.868,0,0,0-.7.287,1.463,1.463,0,0,0-.265.9h.023a.748.748,0,0,1,.68-.336.794.794,0,0,1,.6.232.871.871,0,0,1,.223.631.975.975,0,0,1-.244.7.866.866,0,0,1-.657.254.848.848,0,0,1-.7-.332A1.48,1.48,0,0,1,455.518,500.779Zm.959.985a.54.54,0,0,0,.429-.174.743.743,0,0,0,.155-.506.65.65,0,0,0-.143-.445.537.537,0,0,0-.426-.162.721.721,0,0,0-.322.072.591.591,0,0,0-.234.2.461.461,0,0,0-.086.264.906.906,0,0,0,.078.375.662.662,0,0,0,.22.275A.558.558,0,0,0,456.477,501.764Zm1.4.029a.29.29,0,0,1,.059-.2.214.214,0,0,1,.171-.069.224.224,0,0,1,.176.069.328.328,0,0,1,0,.392.228.228,0,0,1-.176.069.241.241,0,0,1-.166-.061A.273.273,0,0,1,457.875,501.793Zm0-1.725c0-.175.077-.263.23-.263s.241.088.241.263a.276.276,0,0,1-.065.2.231.231,0,0,1-.176.068.236.236,0,0,1-.166-.061A.272.272,0,0,1,457.875,500.068Zm2.734-.252a.649.649,0,0,1-.154.448.759.759,0,0,1-.434.232v.016a.811.811,0,0,1,.51.218.644.644,0,0,1,.166.461.749.749,0,0,1-.283.629,1.292,1.292,0,0,1-.8.219,2.331,2.331,0,0,1-.416-.035,1.405,1.405,0,0,1-.365-.119v-.309a1.823,1.823,0,0,0,.793.188q.741,0,.74-.58,0-.52-.816-.52h-.281v-.279h.285a.861.861,0,0,0,.529-.147.486.486,0,0,0,.2-.41.4.4,0,0,0-.144-.328.591.591,0,0,0-.389-.119,1.191,1.191,0,0,0-.353.051,1.548,1.548,0,0,0-.379.187l-.164-.219a1.361,1.361,0,0,1,.4-.216,1.45,1.45,0,0,1,.484-.08.983.983,0,0,1,.647.191A.636.636,0,0,1,460.609,499.816Zm2.412.752a2.083,2.083,0,0,1-.234,1.106.862.862,0,0,1-1.414-.008,2.052,2.052,0,0,1-.24-1.1,2.084,2.084,0,0,1,.232-1.107.862.862,0,0,1,1.414.016A2.021,2.021,0,0,1,463.021,500.568Zm-1.56,0a2.114,2.114,0,0,0,.146.909.527.527,0,0,0,.936,0,2.1,2.1,0,0,0,.146-.9,2.068,2.068,0,0,0-.146-.9.527.527,0,0,0-.936,0A2.083,2.083,0,0,0,461.461,500.568Z" transform="translate(743.99 27.356)"/>
    <path id="Path_729" data-name="Path 729" d="M471.4,502h-.316v-2.035c0-.169.005-.33.016-.481-.028.028-.058.056-.092.086s-.189.157-.465.381l-.172-.222.756-.584h.273Zm1.122-1.221a2.019,2.019,0,0,1,.326-1.258,1.156,1.156,0,0,1,.968-.417,1.275,1.275,0,0,1,.348.037v.279a1.1,1.1,0,0,0-.344-.049.868.868,0,0,0-.7.287,1.463,1.463,0,0,0-.265.9h.023a.748.748,0,0,1,.68-.336.794.794,0,0,1,.6.232.871.871,0,0,1,.223.631.975.975,0,0,1-.244.7.866.866,0,0,1-.657.254.848.848,0,0,1-.7-.332A1.48,1.48,0,0,1,472.518,500.779Zm.959.985a.54.54,0,0,0,.429-.174.743.743,0,0,0,.155-.506.65.65,0,0,0-.143-.445.537.537,0,0,0-.426-.162.721.721,0,0,0-.322.072.591.591,0,0,0-.234.2.461.461,0,0,0-.086.264.906.906,0,0,0,.078.375.662.662,0,0,0,.22.275A.558.558,0,0,0,473.477,501.764Zm1.4.029a.29.29,0,0,1,.059-.2.214.214,0,0,1,.171-.069.224.224,0,0,1,.176.069.328.328,0,0,1,0,.392.228.228,0,0,1-.176.069.241.241,0,0,1-.166-.061A.273.273,0,0,1,474.875,501.793Zm0-1.725c0-.175.077-.263.23-.263s.241.088.241.263a.276.276,0,0,1-.065.2.231.231,0,0,1-.176.068.236.236,0,0,1-.166-.061A.272.272,0,0,1,474.875,500.068Zm2.977,1.276h-.424V502h-.311v-.656h-1.388v-.283l1.355-1.932h.344v1.92h.424Zm-.735-.295V500.1q0-.281.02-.631h-.016a2.783,2.783,0,0,1-.176.31l-.892,1.27Zm1.9-.793a1.045,1.045,0,0,1,.709.224.763.763,0,0,1,.26.612.882.882,0,0,1-.283.695,1.123,1.123,0,0,1-.777.252,1.435,1.435,0,0,1-.737-.154v-.313a1.144,1.144,0,0,0,.34.139,1.744,1.744,0,0,0,.4.049.8.8,0,0,0,.533-.162.583.583,0,0,0,.191-.469q0-.6-.732-.6a2.892,2.892,0,0,0-.5.057l-.168-.108.107-1.335h1.42v.3h-1.143l-.072.858A2.274,2.274,0,0,1,479.021,500.256Z" transform="translate(743.99 27.356)"/>
    <path id="Path_730" data-name="Path 730" d="M488.4,502h-.316v-2.035c0-.169.005-.33.016-.481-.028.028-.058.056-.092.086s-.189.157-.465.381l-.172-.222.756-.584h.273Zm1.45,0,1.183-2.557h-1.556v-.3h1.9v.259L490.2,502Zm2.029-.207a.29.29,0,0,1,.059-.2.214.214,0,0,1,.171-.069.224.224,0,0,1,.176.069.328.328,0,0,1,0,.392.228.228,0,0,1-.176.069.241.241,0,0,1-.166-.061A.273.273,0,0,1,491.875,501.793Zm0-1.725c0-.175.077-.263.23-.263s.241.088.241.263a.276.276,0,0,1-.065.2.231.231,0,0,1-.176.068.236.236,0,0,1-.166-.061A.272.272,0,0,1,491.875,500.068Zm2.857.5a2.083,2.083,0,0,1-.234,1.106.862.862,0,0,1-1.414-.008,2.052,2.052,0,0,1-.24-1.1,2.084,2.084,0,0,1,.232-1.107.862.862,0,0,1,1.414.016A2.021,2.021,0,0,1,494.732,500.568Zm-1.56,0a2.114,2.114,0,0,0,.146.909.527.527,0,0,0,.936,0,2.1,2.1,0,0,0,.146-.9,2.068,2.068,0,0,0-.146-.9.527.527,0,0,0-.936,0A2.083,2.083,0,0,0,493.172,500.568Zm3.849,0a2.083,2.083,0,0,1-.234,1.106.862.862,0,0,1-1.414-.008,2.052,2.052,0,0,1-.24-1.1,2.084,2.084,0,0,1,.232-1.107.862.862,0,0,1,1.414.016A2.021,2.021,0,0,1,497.021,500.568Zm-1.56,0a2.114,2.114,0,0,0,.146.909.527.527,0,0,0,.936,0,2.1,2.1,0,0,0,.146-.9,2.068,2.068,0,0,0-.146-.9.527.527,0,0,0-.936,0A2.083,2.083,0,0,0,495.461,500.568Z" transform="translate(743.99 27.356)"/>
    <path id="Path_731" data-name="Path 731" d="M505.4,502h-.316v-2.035c0-.169.005-.33.016-.481-.028.028-.058.056-.092.086s-.189.157-.465.381l-.172-.222.756-.584h.273Zm1.45,0,1.183-2.557h-1.556v-.3h1.9v.259L507.2,502Zm2.029-.207a.29.29,0,0,1,.059-.2.214.214,0,0,1,.171-.069.224.224,0,0,1,.176.069.328.328,0,0,1,0,.392.228.228,0,0,1-.176.069.241.241,0,0,1-.166-.061A.273.273,0,0,1,508.875,501.793Zm0-1.725c0-.175.077-.263.23-.263s.241.088.241.263a.276.276,0,0,1-.065.2.231.231,0,0,1-.176.068.236.236,0,0,1-.166-.061A.272.272,0,0,1,508.875,500.068ZM511.041,502h-.316v-2.035c0-.169.005-.33.015-.481-.027.028-.058.056-.092.086s-.188.157-.464.381l-.172-.222.756-.584h.273Zm1.98-1.744a1.044,1.044,0,0,1,.709.224.763.763,0,0,1,.26.612.882.882,0,0,1-.283.695,1.123,1.123,0,0,1-.777.252,1.435,1.435,0,0,1-.737-.154v-.313a1.143,1.143,0,0,0,.34.139,1.744,1.744,0,0,0,.4.049.8.8,0,0,0,.533-.162.583.583,0,0,0,.191-.469q0-.6-.732-.6a2.892,2.892,0,0,0-.5.057l-.168-.108.107-1.335h1.42v.3h-1.143l-.072.858A2.275,2.275,0,0,1,513.021,500.256Z" transform="translate(743.99 27.356)"/>
    <path id="Path_732" data-name="Path 732" d="M522.4,502h-.316v-2.035c0-.169.005-.33.016-.481-.028.028-.058.056-.092.086s-.189.157-.465.381l-.172-.222.756-.584h.273Zm1.45,0,1.183-2.557h-1.556v-.3h1.9v.259l-1.168,2.6Zm2.029-.207a.29.29,0,0,1,.059-.2.214.214,0,0,1,.171-.069.224.224,0,0,1,.176.069.328.328,0,0,1,0,.392.228.228,0,0,1-.176.069.241.241,0,0,1-.166-.061A.273.273,0,0,1,525.875,501.793Zm0-1.725c0-.175.077-.263.23-.263s.241.088.241.263a.276.276,0,0,1-.065.2.231.231,0,0,1-.176.068.236.236,0,0,1-.166-.061A.271.271,0,0,1,525.875,500.068Zm2.734-.252a.649.649,0,0,1-.154.448.759.759,0,0,1-.434.232v.016a.811.811,0,0,1,.51.218.644.644,0,0,1,.166.461.749.749,0,0,1-.283.629,1.292,1.292,0,0,1-.8.219,2.331,2.331,0,0,1-.416-.035,1.406,1.406,0,0,1-.365-.119v-.309a1.824,1.824,0,0,0,.793.188q.741,0,.74-.58,0-.52-.816-.52h-.281v-.279h.285a.861.861,0,0,0,.529-.147.486.486,0,0,0,.2-.41.4.4,0,0,0-.144-.328.591.591,0,0,0-.389-.119,1.191,1.191,0,0,0-.353.051,1.549,1.549,0,0,0-.379.187l-.164-.219a1.361,1.361,0,0,1,.4-.216,1.45,1.45,0,0,1,.484-.08.983.983,0,0,1,.647.191A.636.636,0,0,1,528.609,499.816Zm2.412.752a2.083,2.083,0,0,1-.234,1.106.862.862,0,0,1-1.414-.008,2.052,2.052,0,0,1-.24-1.1,2.084,2.084,0,0,1,.232-1.107.862.862,0,0,1,1.414.016A2.021,2.021,0,0,1,531.021,500.568Zm-1.56,0a2.114,2.114,0,0,0,.146.909.527.527,0,0,0,.936,0,2.1,2.1,0,0,0,.146-.9,2.069,2.069,0,0,0-.146-.9.527.527,0,0,0-.936,0A2.083,2.083,0,0,0,529.461,500.568Z" transform="translate(743.99 27.356)"/>
    <path id="Path_733" data-name="Path 733" d="M539.4,502h-.316v-2.035c0-.169.005-.33.016-.481-.028.028-.058.056-.092.086s-.189.157-.465.381l-.172-.222.756-.584h.273Zm1.45,0,1.183-2.557h-1.556v-.3h1.9v.259l-1.168,2.6Zm2.029-.207a.29.29,0,0,1,.059-.2.214.214,0,0,1,.171-.069.224.224,0,0,1,.176.069.328.328,0,0,1,0,.392.228.228,0,0,1-.176.069.241.241,0,0,1-.166-.061A.273.273,0,0,1,542.875,501.793Zm0-1.725c0-.175.077-.263.23-.263s.241.088.241.263a.276.276,0,0,1-.065.2.231.231,0,0,1-.176.068.236.236,0,0,1-.166-.061A.271.271,0,0,1,542.875,500.068Zm2.977,1.276h-.424V502h-.311v-.656h-1.388v-.283l1.355-1.932h.344v1.92h.424Zm-.735-.295V500.1q0-.281.02-.631h-.016a2.773,2.773,0,0,1-.176.31l-.892,1.27Zm1.9-.793a1.044,1.044,0,0,1,.709.224.763.763,0,0,1,.26.612.882.882,0,0,1-.283.695,1.123,1.123,0,0,1-.777.252,1.435,1.435,0,0,1-.737-.154v-.313a1.143,1.143,0,0,0,.34.139,1.744,1.744,0,0,0,.4.049.8.8,0,0,0,.533-.162.583.583,0,0,0,.191-.469q0-.6-.732-.6a2.892,2.892,0,0,0-.5.057l-.168-.108.107-1.335h1.42v.3h-1.143l-.072.858A2.275,2.275,0,0,1,547.021,500.256Z" transform="translate(743.99 27.356)"/>
    <path id="Path_734" data-name="Path 734" d="M556.4,502h-.316v-2.035c0-.169.005-.33.016-.481-.028.028-.058.056-.092.086s-.189.157-.465.381l-.172-.222.756-.584h.273Zm2.034-2.9a.97.97,0,0,1,.619.181.607.607,0,0,1,.228.5.62.62,0,0,1-.131.385,1.151,1.151,0,0,1-.417.316,1.4,1.4,0,0,1,.494.35.656.656,0,0,1,.146.422.712.712,0,0,1-.248.568,1.014,1.014,0,0,1-.68.211,1.092,1.092,0,0,1-.7-.2.694.694,0,0,1-.246-.569.846.846,0,0,1,.6-.763,1.111,1.111,0,0,1-.387-.328.708.708,0,0,1-.117-.4.6.6,0,0,1,.228-.494A.952.952,0,0,1,558.43,499.1Zm-.618,2.175a.446.446,0,0,0,.163.366.719.719,0,0,0,.459.13.683.683,0,0,0,.453-.136.464.464,0,0,0,.162-.375.451.451,0,0,0-.153-.336,1.524,1.524,0,0,0-.531-.287,1.146,1.146,0,0,0-.422.277A.533.533,0,0,0,557.812,501.279Zm.614-1.912a.575.575,0,0,0-.383.117.391.391,0,0,0-.139.313.444.444,0,0,0,.116.308,1.191,1.191,0,0,0,.425.258,1.05,1.05,0,0,0,.4-.252.463.463,0,0,0,.117-.314.379.379,0,0,0-.143-.313A.587.587,0,0,0,558.426,499.367Zm1.449,2.426a.29.29,0,0,1,.059-.2.214.214,0,0,1,.171-.069.224.224,0,0,1,.176.069.328.328,0,0,1,0,.392.228.228,0,0,1-.176.069.241.241,0,0,1-.166-.061A.273.273,0,0,1,559.875,501.793Zm0-1.725c0-.175.077-.263.23-.263s.241.088.241.263a.276.276,0,0,1-.065.2.231.231,0,0,1-.176.068.236.236,0,0,1-.166-.061A.271.271,0,0,1,559.875,500.068Zm2.857.5a2.083,2.083,0,0,1-.234,1.106.862.862,0,0,1-1.414-.008,2.052,2.052,0,0,1-.24-1.1,2.084,2.084,0,0,1,.232-1.107.862.862,0,0,1,1.414.016A2.021,2.021,0,0,1,562.732,500.568Zm-1.56,0a2.114,2.114,0,0,0,.146.909.527.527,0,0,0,.936,0,2.1,2.1,0,0,0,.146-.9,2.069,2.069,0,0,0-.146-.9.527.527,0,0,0-.936,0A2.083,2.083,0,0,0,561.172,500.568Zm3.849,0a2.083,2.083,0,0,1-.234,1.106.862.862,0,0,1-1.414-.008,2.052,2.052,0,0,1-.24-1.1,2.084,2.084,0,0,1,.232-1.107.862.862,0,0,1,1.414.016A2.021,2.021,0,0,1,565.021,500.568Zm-1.56,0a2.114,2.114,0,0,0,.146.909.527.527,0,0,0,.936,0,2.1,2.1,0,0,0,.146-.9,2.069,2.069,0,0,0-.146-.9.527.527,0,0,0-.936,0A2.083,2.083,0,0,0,563.461,500.568Z" transform="translate(743.99 27.356)"/>
    <circle id="Ellipse_200" data-name="Ellipse 200" cx="1.5" cy="1.5" r="1.5" transform="translate(981.99 503.356) rotate(180)" fill="#003463"/>
    <circle id="Ellipse_201" data-name="Ellipse 201" cx="1.5" cy="1.5" r="1.5" transform="translate(1015.99 517.356) rotate(180)" fill="#003463"/>
    <circle id="Ellipse_202" data-name="Ellipse 202" cx="1.5" cy="1.5" r="1.5" transform="translate(1040.99 499.356) rotate(180)" fill="#003463"/>
    <circle id="Ellipse_203" data-name="Ellipse 203" cx="1.5" cy="1.5" r="1.5" transform="translate(964.99 490.356) rotate(180)" fill="#003463"/>
    <path id="Path_735" data-name="Path 735" d="M559.5,492.5h-16l-17-13-15-8.5-20,16.5-17,6-16-1-17-4-16-22-20,25-17-16-15,18-17-4-19-26-15,26-18-24-9,5-7,20-18-2m-117,7,15-9,18-10,3.925,11.835L202.5,493.5l8-8,9-24,17,13" transform="translate(743.99 27.356)" fill="none" stroke="#00549f" stroke-linecap="round" stroke-linejoin="round" stroke-width="1"/>
    <path id="Path_736" data-name="Path 736" d="M236.5,456v40" transform="translate(743.99 27.356)" fill="none" stroke="#7ad9a2" stroke-width="1"/>
    <path id="Path_737" data-name="Path 737" d="M306,456v40" transform="translate(743.99 27.356)" fill="none" stroke="#7ad9a2" stroke-width="1"/>
  </g>
</svg>
