<svg xmlns="http://www.w3.org/2000/svg" width="424.521" height="46.057" viewBox="0 0 424.521 46.057">
  <g id="Group_41" data-name="Group 41" transform="translate(-466.5 -743)">
    <rect id="Rectangle_108" data-name="Rectangle 108" width="414" height="40" transform="translate(474 743)" fill="#d9d9d9" opacity="0.24"/>
    <path id="Path_485" data-name="Path 485" d="M148.5,628.167h413" transform="translate(326 119)" fill="none" stroke="#00549f" stroke-width="0.5" stroke-dasharray="1 1" opacity="0.12"/>
    <path id="Path_486" data-name="Path 486" d="M148.5,630.25h413" transform="translate(326 119)" fill="none" stroke="#00549f" stroke-width="0.5" stroke-dasharray="1 1" opacity="0.12"/>
    <path id="Path_487" data-name="Path 487" d="M148.5,632.333h413" transform="translate(326 119)" fill="none" stroke="#00549f" stroke-width="0.5" stroke-dasharray="1 1" opacity="0.12"/>
    <path id="Path_488" data-name="Path 488" d="M148.5,634.417h413" transform="translate(326 119)" fill="none" stroke="#00549f" stroke-width="0.5" stroke-dasharray="1 1" opacity="0.12"/>
    <path id="Path_489" data-name="Path 489" d="M148.5,636.5h413" transform="translate(326 119)" fill="none" stroke="#00549f" stroke-width="0.5" stroke-dasharray="1 1" opacity="0.12"/>
    <path id="Path_490" data-name="Path 490" d="M148.5,638.583h413" transform="translate(326 119)" fill="none" stroke="#00549f" stroke-width="0.5" stroke-dasharray="1 1" opacity="0.12"/>
    <path id="Path_491" data-name="Path 491" d="M148.5,640.667h413" transform="translate(326 119)" fill="none" stroke="#00549f" stroke-width="0.5" stroke-dasharray="1 1" opacity="0.12"/>
    <path id="Path_492" data-name="Path 492" d="M148.5,642.75h413" transform="translate(326 119)" fill="none" stroke="#00549f" stroke-width="0.5" stroke-dasharray="1 1" opacity="0.12"/>
    <path id="Path_493" data-name="Path 493" d="M148.5,644.833h413" transform="translate(326 119)" fill="none" stroke="#00549f" stroke-width="0.5" stroke-dasharray="1 1" opacity="0.12"/>
    <path id="Path_494" data-name="Path 494" d="M148.5,646.917h413" transform="translate(326 119)" fill="none" stroke="#00549f" stroke-width="0.5" stroke-dasharray="1 1" opacity="0.12"/>
    <path id="Path_495" data-name="Path 495" d="M148.5,649h413" transform="translate(326 119)" fill="none" stroke="#00549f" stroke-width="0.5" stroke-dasharray="1 1" opacity="0.12"/>
    <path id="Path_496" data-name="Path 496" d="M148.5,651.083h413" transform="translate(326 119)" fill="none" stroke="#00549f" stroke-width="0.5" stroke-dasharray="1 1" opacity="0.12"/>
    <path id="Path_497" data-name="Path 497" d="M148.5,653.167h413" transform="translate(326 119)" fill="none" stroke="#00549f" stroke-width="0.5" stroke-dasharray="1 1" opacity="0.12"/>
    <path id="Path_498" data-name="Path 498" d="M148.5,655.25h413" transform="translate(326 119)" fill="none" stroke="#00549f" stroke-width="0.5" stroke-dasharray="1 1" opacity="0.12"/>
    <path id="Path_499" data-name="Path 499" d="M148.5,657.333h413" transform="translate(326 119)" fill="none" stroke="#00549f" stroke-width="0.5" stroke-dasharray="1 1" opacity="0.12"/>
    <path id="Path_500" data-name="Path 500" d="M148.5,659.417h413" transform="translate(326 119)" fill="none" stroke="#00549f" stroke-width="0.5" stroke-dasharray="1 1" opacity="0.12"/>
    <path id="Path_501" data-name="Path 501" d="M148.5,661.5h413" transform="translate(326 119)" fill="none" stroke="#00549f" stroke-width="0.5" stroke-dasharray="1 1" opacity="0.12"/>
    <path id="Path_502" data-name="Path 502" d="M148.5,663.583h413" transform="translate(326 119)" fill="none" stroke="#00549f" stroke-width="0.5" stroke-dasharray="1 1" opacity="0.12"/>
    <path id="Path_503" data-name="Path 503" d="M236,650l35-16" transform="translate(326 119)" fill="none" stroke="#686868" stroke-width="1" stroke-dasharray="2 2"/>
    <path id="Path_504" data-name="Path 504" d="M236,650l35-16" transform="translate(326 119)" fill="none" stroke="rgba(0,0,0,0.2)" stroke-width="1" stroke-dasharray="2 2"/>
    <circle id="Ellipse_138" data-name="Ellipse 138" cx="1.5" cy="1.5" r="1.5" transform="translate(480 777) rotate(180)" fill="#003463"/>
    <circle id="Ellipse_139" data-name="Ellipse 139" cx="1.5" cy="1.5" r="1.5" transform="translate(496 752) rotate(180)" fill="#003463"/>
    <circle id="Ellipse_140" data-name="Ellipse 140" cx="1.5" cy="1.5" r="1.5" transform="translate(514 782) rotate(180)" fill="#003463"/>
    <circle id="Ellipse_141" data-name="Ellipse 141" cx="1.5" cy="1.5" r="1.5" transform="translate(531 775) rotate(180)" fill="#003463"/>
    <circle id="Ellipse_142" data-name="Ellipse 142" cx="1.5" cy="1.5" r="1.5" transform="translate(549 756) rotate(180)" fill="#003463"/>
    <circle id="Ellipse_143" data-name="Ellipse 143" cx="1.5" cy="1.5" r="1.5" transform="translate(563 771) rotate(180)" fill="#003463"/>
    <circle id="Ellipse_144" data-name="Ellipse 144" cx="1.5" cy="1.5" r="1.5" transform="translate(598 754) rotate(180)" fill="#003463"/>
    <circle id="Ellipse_145" data-name="Ellipse 145" cx="1.5" cy="1.5" r="1.5" transform="translate(632 775) rotate(180)" fill="#003463"/>
    <circle id="Ellipse_146" data-name="Ellipse 146" cx="1.5" cy="1.5" r="1.5" transform="translate(651 783) rotate(180)" fill="#003463"/>
    <circle id="Ellipse_147" data-name="Ellipse 147" cx="1.5" cy="1.5" r="1.5" transform="translate(664 750) rotate(180)" fill="#003463"/>
    <circle id="Ellipse_148" data-name="Ellipse 148" cx="1.5" cy="1.5" r="1.5" transform="translate(683 775) rotate(180)" fill="#003463"/>
    <circle id="Ellipse_149" data-name="Ellipse 149" cx="1.5" cy="1.5" r="1.5" transform="translate(700 780) rotate(180)" fill="#003463"/>
    <circle id="Ellipse_150" data-name="Ellipse 150" cx="1.5" cy="1.5" r="1.5" transform="translate(717 768) rotate(180)" fill="#003463"/>
    <circle id="Ellipse_151" data-name="Ellipse 151" cx="1.5" cy="1.5" r="1.5" transform="translate(733 775) rotate(180)" fill="#003463"/>
    <circle id="Ellipse_152" data-name="Ellipse 152" cx="1.5" cy="1.5" r="1.5" transform="translate(752 769) rotate(180)" fill="#003463"/>
    <circle id="Ellipse_153" data-name="Ellipse 153" cx="1.5" cy="1.5" r="1.5" transform="translate(786 774) rotate(180)" fill="#003463"/>
    <rect id="Rectangle_109" data-name="Rectangle 109" width="18" height="40" transform="translate(819 743)" fill="#c3c9ce" opacity="0.64"/>
    <circle id="Ellipse_154" data-name="Ellipse 154" cx="1.5" cy="1.5" r="1.5" transform="translate(770 782) rotate(180)" fill="#003463"/>
    <circle id="Ellipse_156" data-name="Ellipse 156" cx="1.5" cy="1.5" r="1.5" transform="translate(821 783) rotate(180)" fill="#003463"/>
    <circle id="Ellipse_157" data-name="Ellipse 157" cx="1.5" cy="1.5" r="1.5" transform="translate(830 775) rotate(180)" fill="#003463"/>
    <circle id="Ellipse_158" data-name="Ellipse 158" cx="1.5" cy="1.5" r="1.5" transform="translate(838 779) rotate(180)" fill="#003463"/>
    <circle id="Ellipse_159" data-name="Ellipse 159" cx="1.5" cy="1.5" r="1.5" transform="translate(854 778) rotate(180)" fill="#003463"/>
    <circle id="Ellipse_160" data-name="Ellipse 160" cx="1.5" cy="1.5" r="1.5" transform="translate(870 781) rotate(180)" fill="#003463"/>
    <circle id="Ellipse_161" data-name="Ellipse 161" cx="1.5" cy="1.5" r="1.5" transform="translate(887 763) rotate(180)" fill="#003463"/>
    <circle id="Ellipse_162" data-name="Ellipse 162" cx="1.5" cy="1.5" r="1.5" transform="translate(616 780) rotate(180)" fill="#003463"/>
    <path id="Path_505" data-name="Path 505" d="M236.5,625v40" transform="translate(326 119)" fill="none" stroke="#7ad9a2" stroke-width="1"/>
    <path id="Path_506" data-name="Path 506" d="M306,625v40" transform="translate(326 119)" fill="none" stroke="#7ad9a2" stroke-width="1"/>
    <path id="Path_507" data-name="Path 507" d="M148.4,670h-.316v-2.035c0-.169.005-.33.016-.481-.028.028-.058.056-.092.086s-.189.157-.465.381l-.172-.222.756-.584h.273Zm2.965,0h-1.877v-.279l.752-.756a5.446,5.446,0,0,0,.453-.5,1.307,1.307,0,0,0,.165-.289.84.84,0,0,0,.054-.3.477.477,0,0,0-.138-.361.53.53,0,0,0-.385-.135.976.976,0,0,0-.338.058,1.379,1.379,0,0,0-.354.213l-.172-.22a1.318,1.318,0,0,1,.86-.328.907.907,0,0,1,.631.207.705.705,0,0,1,.228.552,1.074,1.074,0,0,1-.152.537,3.452,3.452,0,0,1-.57.672l-.625.612v.015h1.468Zm.514-.207a.29.29,0,0,1,.059-.2.214.214,0,0,1,.171-.069.224.224,0,0,1,.176.069.328.328,0,0,1,0,.392.228.228,0,0,1-.176.069.241.241,0,0,1-.166-.061A.273.273,0,0,1,151.875,669.793Zm0-1.725c0-.175.077-.263.23-.263s.241.088.241.263a.276.276,0,0,1-.065.2.231.231,0,0,1-.176.068.236.236,0,0,1-.166-.061A.272.272,0,0,1,151.875,668.068Zm2.857.5a2.083,2.083,0,0,1-.234,1.106.862.862,0,0,1-1.414-.008,2.052,2.052,0,0,1-.24-1.1,2.084,2.084,0,0,1,.232-1.107.862.862,0,0,1,1.414.016A2.021,2.021,0,0,1,154.732,668.568Zm-1.56,0a2.114,2.114,0,0,0,.146.909.527.527,0,0,0,.936,0,2.1,2.1,0,0,0,.146-.905,2.068,2.068,0,0,0-.146-.9.527.527,0,0,0-.936,0A2.083,2.083,0,0,0,153.172,668.568Zm3.849,0a2.083,2.083,0,0,1-.234,1.106.862.862,0,0,1-1.414-.008,2.052,2.052,0,0,1-.24-1.1,2.084,2.084,0,0,1,.232-1.107.862.862,0,0,1,1.414.016A2.021,2.021,0,0,1,157.021,668.568Zm-1.56,0a2.114,2.114,0,0,0,.146.909.527.527,0,0,0,.936,0,2.1,2.1,0,0,0,.146-.905,2.068,2.068,0,0,0-.146-.9.527.527,0,0,0-.936,0A2.083,2.083,0,0,0,155.461,668.568Z" transform="translate(326 119)"/>
    <path id="Path_508" data-name="Path 508" d="M144.494,663.363q0,1.676-1.3,1.676a1.317,1.317,0,0,1-.359-.039v-.279a1.145,1.145,0,0,0,.355.05.86.86,0,0,0,.707-.289,1.456,1.456,0,0,0,.262-.89h-.023a.706.706,0,0,1-.285.248.929.929,0,0,1-.4.084.8.8,0,0,1-.6-.227.862.862,0,0,1-.223-.633.975.975,0,0,1,.248-.7.953.953,0,0,1,1.164-.107.934.934,0,0,1,.336.435A1.773,1.773,0,0,1,144.494,663.363Zm-.961-.982a.532.532,0,0,0-.431.18.745.745,0,0,0-.153.5.653.653,0,0,0,.141.443.539.539,0,0,0,.428.16.738.738,0,0,0,.326-.072.588.588,0,0,0,.236-.2.46.46,0,0,0,.086-.262.9.9,0,0,0-.08-.379.656.656,0,0,0-.225-.274A.56.56,0,0,0,143.533,662.381Zm3.266,1.187a2.073,2.073,0,0,1-.235,1.106.862.862,0,0,1-1.414-.008,2.052,2.052,0,0,1-.24-1.1,2.083,2.083,0,0,1,.233-1.107.862.862,0,0,1,1.414.016A2.031,2.031,0,0,1,146.8,663.568Zm-1.561,0a2.1,2.1,0,0,0,.147.909.526.526,0,0,0,.935,0,2.1,2.1,0,0,0,.147-.905,2.066,2.066,0,0,0-.147-.9.526.526,0,0,0-.935,0A2.065,2.065,0,0,0,145.238,663.568Z" transform="translate(326 119)"/>
    <path id="Path_509" data-name="Path 509" d="M144.494,657.363q0,1.676-1.3,1.676a1.317,1.317,0,0,1-.359-.039v-.279a1.145,1.145,0,0,0,.355.05.86.86,0,0,0,.707-.289,1.456,1.456,0,0,0,.262-.89h-.023a.706.706,0,0,1-.285.248.929.929,0,0,1-.4.084.8.8,0,0,1-.6-.227.862.862,0,0,1-.223-.633.975.975,0,0,1,.248-.7.953.953,0,0,1,1.164-.107.934.934,0,0,1,.336.435A1.773,1.773,0,0,1,144.494,657.363Zm-.961-.982a.532.532,0,0,0-.431.18.745.745,0,0,0-.153.5.653.653,0,0,0,.141.443.539.539,0,0,0,.428.16.738.738,0,0,0,.326-.072.588.588,0,0,0,.236-.2.46.46,0,0,0,.086-.262.9.9,0,0,0-.08-.379.656.656,0,0,0-.225-.274A.56.56,0,0,0,143.533,656.381Zm3.25,2.619h-1.877v-.279l.752-.756a5.608,5.608,0,0,0,.453-.5,1.261,1.261,0,0,0,.164-.289.819.819,0,0,0,.055-.3.474.474,0,0,0-.139-.361.526.526,0,0,0-.384-.135.976.976,0,0,0-.338.058,1.363,1.363,0,0,0-.354.213l-.172-.22a1.316,1.316,0,0,1,.86-.328.907.907,0,0,1,.631.207.705.705,0,0,1,.228.552,1.074,1.074,0,0,1-.152.537,3.428,3.428,0,0,1-.571.672l-.625.612v.015h1.469Z" transform="translate(326 119)"/>
    <path id="Path_510" data-name="Path 510" d="M144.494,651.363q0,1.676-1.3,1.676a1.317,1.317,0,0,1-.359-.039v-.279a1.145,1.145,0,0,0,.355.05.86.86,0,0,0,.707-.289,1.456,1.456,0,0,0,.262-.89h-.023a.706.706,0,0,1-.285.248.929.929,0,0,1-.4.084.8.8,0,0,1-.6-.227.862.862,0,0,1-.223-.633.975.975,0,0,1,.248-.7.953.953,0,0,1,1.164-.107.934.934,0,0,1,.336.435A1.773,1.773,0,0,1,144.494,651.363Zm-.961-.982a.532.532,0,0,0-.431.18.745.745,0,0,0-.153.5.653.653,0,0,0,.141.443.539.539,0,0,0,.428.16.738.738,0,0,0,.326-.072.588.588,0,0,0,.236-.2.46.46,0,0,0,.086-.262.9.9,0,0,0-.08-.379.656.656,0,0,0-.225-.274A.56.56,0,0,0,143.533,650.381Zm3.385,1.963h-.424V653h-.31v-.656h-1.389v-.283l1.355-1.932h.344v1.92h.424Zm-.734-.295V651.1q0-.28.019-.631h-.015a3.135,3.135,0,0,1-.176.31l-.893,1.27Z" transform="translate(326 119)"/>
    <path id="Path_511" data-name="Path 511" d="M144.494,645.363q0,1.676-1.3,1.676a1.317,1.317,0,0,1-.359-.039v-.279a1.145,1.145,0,0,0,.355.05.86.86,0,0,0,.707-.289,1.456,1.456,0,0,0,.262-.89h-.023a.706.706,0,0,1-.285.248.929.929,0,0,1-.4.084.8.8,0,0,1-.6-.227.862.862,0,0,1-.223-.633.975.975,0,0,1,.248-.7.953.953,0,0,1,1.164-.107.934.934,0,0,1,.336.435A1.773,1.773,0,0,1,144.494,645.363Zm-.961-.982a.532.532,0,0,0-.431.18.745.745,0,0,0-.153.5.653.653,0,0,0,.141.443.539.539,0,0,0,.428.16.738.738,0,0,0,.326-.072.588.588,0,0,0,.236-.2.46.46,0,0,0,.086-.262.9.9,0,0,0-.08-.379.656.656,0,0,0-.225-.274A.56.56,0,0,0,143.533,644.381Zm1.406,1.4a2.018,2.018,0,0,1,.327-1.258,1.156,1.156,0,0,1,.968-.417,1.281,1.281,0,0,1,.348.037v.279a1.1,1.1,0,0,0-.344-.049.867.867,0,0,0-.7.287,1.469,1.469,0,0,0-.266.9h.024a.748.748,0,0,1,.68-.336.794.794,0,0,1,.6.232.871.871,0,0,1,.223.631.976.976,0,0,1-.244.7.868.868,0,0,1-.657.254.847.847,0,0,1-.7-.332A1.48,1.48,0,0,1,144.939,645.779Zm.959.985a.541.541,0,0,0,.43-.174.743.743,0,0,0,.154-.506.65.65,0,0,0-.142-.445.538.538,0,0,0-.426-.162.718.718,0,0,0-.322.072.6.6,0,0,0-.235.2.469.469,0,0,0-.086.264.907.907,0,0,0,.079.375.662.662,0,0,0,.22.275A.557.557,0,0,0,145.9,646.764Z" transform="translate(326 119)"/>
    <path id="Path_512" data-name="Path 512" d="M144.494,639.363q0,1.676-1.3,1.676a1.317,1.317,0,0,1-.359-.039v-.279a1.145,1.145,0,0,0,.355.05.86.86,0,0,0,.707-.289,1.456,1.456,0,0,0,.262-.89h-.023a.706.706,0,0,1-.285.248.929.929,0,0,1-.4.084.8.8,0,0,1-.6-.227.862.862,0,0,1-.223-.633.975.975,0,0,1,.248-.7.953.953,0,0,1,1.164-.107.934.934,0,0,1,.336.435A1.773,1.773,0,0,1,144.494,639.363Zm-.961-.982a.532.532,0,0,0-.431.18.745.745,0,0,0-.153.5.653.653,0,0,0,.141.443.539.539,0,0,0,.428.16.738.738,0,0,0,.326-.072.588.588,0,0,0,.236-.2.46.46,0,0,0,.086-.262.9.9,0,0,0-.08-.379.656.656,0,0,0-.225-.274A.56.56,0,0,0,143.533,638.381Zm2.319-.277a.97.97,0,0,1,.619.181.607.607,0,0,1,.228.5.62.62,0,0,1-.131.385,1.146,1.146,0,0,1-.418.316,1.4,1.4,0,0,1,.5.35.656.656,0,0,1,.146.422.712.712,0,0,1-.248.568,1.014,1.014,0,0,1-.68.211,1.092,1.092,0,0,1-.7-.2.694.694,0,0,1-.246-.569.846.846,0,0,1,.6-.763,1.112,1.112,0,0,1-.387-.328.708.708,0,0,1-.117-.4.6.6,0,0,1,.228-.494A.952.952,0,0,1,145.852,638.1Zm-.618,2.175a.445.445,0,0,0,.162.366.723.723,0,0,0,.459.13.685.685,0,0,0,.454-.136.464.464,0,0,0,.162-.375.451.451,0,0,0-.153-.336,1.523,1.523,0,0,0-.531-.287,1.137,1.137,0,0,0-.422.277A.533.533,0,0,0,145.234,640.279Zm.614-1.912a.575.575,0,0,0-.383.117.388.388,0,0,0-.139.313.447.447,0,0,0,.115.308,1.207,1.207,0,0,0,.426.258,1.058,1.058,0,0,0,.395-.252.464.464,0,0,0,.117-.314.381.381,0,0,0-.143-.313A.587.587,0,0,0,145.848,638.367Z" transform="translate(326 119)"/>
    <path id="Path_513" data-name="Path 513" d="M141.529,635h-.316v-2.035c0-.169.005-.33.016-.481-.028.028-.058.056-.092.086s-.189.157-.465.381l-.172-.222.756-.584h.273Zm2.981-1.432a2.072,2.072,0,0,1-.235,1.106.862.862,0,0,1-1.414-.008,2.052,2.052,0,0,1-.24-1.1,2.083,2.083,0,0,1,.233-1.107.862.862,0,0,1,1.414.016A2.031,2.031,0,0,1,144.51,633.568Zm-1.561,0a2.1,2.1,0,0,0,.147.909.526.526,0,0,0,.935,0,2.1,2.1,0,0,0,.147-.905,2.066,2.066,0,0,0-.147-.9.526.526,0,0,0-.935,0A2.065,2.065,0,0,0,142.949,633.568Zm3.85,0a2.073,2.073,0,0,1-.235,1.106.862.862,0,0,1-1.414-.008,2.052,2.052,0,0,1-.24-1.1,2.083,2.083,0,0,1,.233-1.107.862.862,0,0,1,1.414.016A2.031,2.031,0,0,1,146.8,633.568Zm-1.561,0a2.1,2.1,0,0,0,.147.909.526.526,0,0,0,.935,0,2.1,2.1,0,0,0,.147-.905,2.066,2.066,0,0,0-.147-.9.526.526,0,0,0-.935,0A2.065,2.065,0,0,0,145.238,633.568Z" transform="translate(326 119)"/>
    <path id="Path_514" data-name="Path 514" d="M141.529,629h-.316v-2.035c0-.169.005-.33.016-.481-.028.028-.058.056-.092.086s-.189.157-.465.381l-.172-.222.756-.584h.273Zm2.981-1.432a2.072,2.072,0,0,1-.235,1.106.862.862,0,0,1-1.414-.008,2.052,2.052,0,0,1-.24-1.1,2.083,2.083,0,0,1,.233-1.107.862.862,0,0,1,1.414.016A2.031,2.031,0,0,1,144.51,627.568Zm-1.561,0a2.1,2.1,0,0,0,.147.909.526.526,0,0,0,.935,0,2.1,2.1,0,0,0,.147-.905,2.066,2.066,0,0,0-.147-.9.526.526,0,0,0-.935,0A2.065,2.065,0,0,0,142.949,627.568ZM146.783,629h-1.877v-.279l.752-.756a5.608,5.608,0,0,0,.453-.5,1.261,1.261,0,0,0,.164-.289.819.819,0,0,0,.055-.3.474.474,0,0,0-.139-.361.526.526,0,0,0-.384-.135.976.976,0,0,0-.338.058,1.363,1.363,0,0,0-.354.213l-.172-.22a1.316,1.316,0,0,1,.86-.328.907.907,0,0,1,.631.207.705.705,0,0,1,.228.552,1.074,1.074,0,0,1-.152.537,3.428,3.428,0,0,1-.571.672l-.625.612v.015h1.469Z" transform="translate(326 119)"/>
    <path id="Path_515" data-name="Path 515" d="M165.4,670h-.316v-2.035c0-.169.005-.33.016-.481-.028.028-.058.056-.092.086s-.189.157-.465.381l-.172-.222.756-.584h.273Zm2.965,0h-1.877v-.279l.752-.756a5.446,5.446,0,0,0,.453-.5,1.307,1.307,0,0,0,.165-.289.84.84,0,0,0,.054-.3.477.477,0,0,0-.138-.361.53.53,0,0,0-.385-.135.976.976,0,0,0-.338.058,1.379,1.379,0,0,0-.354.213l-.172-.22a1.318,1.318,0,0,1,.86-.328.907.907,0,0,1,.631.207.705.705,0,0,1,.228.552,1.074,1.074,0,0,1-.152.537,3.452,3.452,0,0,1-.57.672l-.625.612v.015h1.468Zm.514-.207a.29.29,0,0,1,.059-.2.214.214,0,0,1,.171-.069.224.224,0,0,1,.176.069.328.328,0,0,1,0,.392.228.228,0,0,1-.176.069.241.241,0,0,1-.166-.061A.273.273,0,0,1,168.875,669.793Zm0-1.725c0-.175.077-.263.23-.263s.241.088.241.263a.276.276,0,0,1-.065.2.231.231,0,0,1-.176.068.236.236,0,0,1-.166-.061A.272.272,0,0,1,168.875,668.068ZM171.041,670h-.316v-2.035c0-.169,0-.33.015-.481-.027.028-.058.056-.092.086s-.188.157-.464.381l-.172-.222.756-.584h.273Zm1.98-1.744a1.045,1.045,0,0,1,.709.224.763.763,0,0,1,.26.612.882.882,0,0,1-.283.7,1.123,1.123,0,0,1-.777.252,1.435,1.435,0,0,1-.737-.154v-.313a1.145,1.145,0,0,0,.34.139,1.746,1.746,0,0,0,.4.049.8.8,0,0,0,.533-.162.583.583,0,0,0,.191-.469q0-.6-.732-.6a2.892,2.892,0,0,0-.5.057l-.168-.108.107-1.335h1.42v.3h-1.143l-.072.858A2.272,2.272,0,0,1,173.021,668.256Z" transform="translate(326 119)"/>
    <path id="Path_516" data-name="Path 516" d="M182.4,670h-.316v-2.035c0-.169.005-.33.016-.481-.028.028-.058.056-.092.086s-.189.157-.465.381l-.172-.222.756-.584h.273Zm2.965,0h-1.877v-.279l.752-.756a5.446,5.446,0,0,0,.453-.5,1.307,1.307,0,0,0,.165-.289.84.84,0,0,0,.054-.3.477.477,0,0,0-.138-.361.53.53,0,0,0-.385-.135.976.976,0,0,0-.338.058,1.379,1.379,0,0,0-.354.213l-.172-.22a1.318,1.318,0,0,1,.86-.328.907.907,0,0,1,.631.207.705.705,0,0,1,.228.552,1.074,1.074,0,0,1-.152.537,3.452,3.452,0,0,1-.57.672l-.625.612v.015h1.468Zm.514-.207a.29.29,0,0,1,.059-.2.214.214,0,0,1,.171-.069.224.224,0,0,1,.176.069.328.328,0,0,1,0,.392.228.228,0,0,1-.176.069.241.241,0,0,1-.166-.061A.273.273,0,0,1,185.875,669.793Zm0-1.725c0-.175.077-.263.23-.263s.241.088.241.263a.276.276,0,0,1-.065.2.231.231,0,0,1-.176.068.236.236,0,0,1-.166-.061A.272.272,0,0,1,185.875,668.068Zm2.734-.252a.649.649,0,0,1-.154.448.759.759,0,0,1-.434.232v.016a.811.811,0,0,1,.51.218.644.644,0,0,1,.166.461.749.749,0,0,1-.283.629,1.292,1.292,0,0,1-.805.219,2.336,2.336,0,0,1-.416-.035,1.406,1.406,0,0,1-.365-.119v-.309a1.824,1.824,0,0,0,.793.188q.741,0,.74-.58,0-.521-.816-.52h-.281v-.279h.285a.86.86,0,0,0,.529-.147.486.486,0,0,0,.195-.41.4.4,0,0,0-.144-.328.591.591,0,0,0-.389-.119,1.191,1.191,0,0,0-.353.051,1.549,1.549,0,0,0-.379.187l-.164-.219a1.359,1.359,0,0,1,.4-.216,1.449,1.449,0,0,1,.484-.08.983.983,0,0,1,.647.191A.636.636,0,0,1,188.609,667.816Zm2.412.752a2.083,2.083,0,0,1-.234,1.106.862.862,0,0,1-1.414-.008,2.052,2.052,0,0,1-.24-1.1,2.084,2.084,0,0,1,.232-1.107.862.862,0,0,1,1.414.016A2.021,2.021,0,0,1,191.021,668.568Zm-1.56,0a2.114,2.114,0,0,0,.146.909.527.527,0,0,0,.936,0,2.1,2.1,0,0,0,.146-.905,2.068,2.068,0,0,0-.146-.9.527.527,0,0,0-.936,0A2.083,2.083,0,0,0,189.461,668.568Z" transform="translate(326 119)"/>
    <path id="Path_517" data-name="Path 517" d="M199.4,670h-.316v-2.035c0-.169.005-.33.016-.481-.028.028-.058.056-.092.086s-.189.157-.465.381l-.172-.222.756-.584h.273Zm2.965,0h-1.877v-.279l.752-.756a5.446,5.446,0,0,0,.453-.5,1.307,1.307,0,0,0,.165-.289.84.84,0,0,0,.054-.3.477.477,0,0,0-.138-.361.53.53,0,0,0-.385-.135.976.976,0,0,0-.338.058,1.379,1.379,0,0,0-.354.213l-.172-.22a1.318,1.318,0,0,1,.86-.328.907.907,0,0,1,.631.207.705.705,0,0,1,.228.552,1.074,1.074,0,0,1-.152.537,3.452,3.452,0,0,1-.57.672l-.625.612v.015h1.468Zm.514-.207a.29.29,0,0,1,.059-.2.214.214,0,0,1,.171-.069.224.224,0,0,1,.176.069.328.328,0,0,1,0,.392.228.228,0,0,1-.176.069.241.241,0,0,1-.166-.061A.273.273,0,0,1,202.875,669.793Zm0-1.725c0-.175.077-.263.23-.263s.241.088.241.263a.276.276,0,0,1-.065.2.231.231,0,0,1-.176.068.236.236,0,0,1-.166-.061A.272.272,0,0,1,202.875,668.068Zm2.977,1.276h-.424V670h-.311v-.656h-1.388v-.283l1.355-1.932h.344v1.92h.424Zm-.735-.295V668.1q0-.28.02-.631h-.016a2.777,2.777,0,0,1-.176.31l-.892,1.27Zm1.9-.793a1.045,1.045,0,0,1,.709.224.763.763,0,0,1,.26.612.882.882,0,0,1-.283.7,1.123,1.123,0,0,1-.777.252,1.435,1.435,0,0,1-.737-.154v-.313a1.145,1.145,0,0,0,.34.139,1.746,1.746,0,0,0,.4.049.8.8,0,0,0,.533-.162.583.583,0,0,0,.191-.469q0-.6-.732-.6a2.892,2.892,0,0,0-.5.057l-.168-.108.107-1.335h1.42v.3h-1.143l-.072.858A2.272,2.272,0,0,1,207.021,668.256Z" transform="translate(326 119)"/>
    <path id="Path_518" data-name="Path 518" d="M216.4,670h-.316v-2.035c0-.169.005-.33.016-.481-.028.028-.058.056-.092.086s-.189.157-.465.381l-.172-.222.756-.584h.273Zm2.858-2.184a.653.653,0,0,1-.154.448.762.762,0,0,1-.434.232v.016a.816.816,0,0,1,.51.218.649.649,0,0,1,.166.461.752.752,0,0,1-.283.629,1.292,1.292,0,0,1-.805.219,2.328,2.328,0,0,1-.416-.035,1.394,1.394,0,0,1-.365-.119v-.309a1.839,1.839,0,0,0,.394.141,1.863,1.863,0,0,0,.4.047q.739,0,.74-.58,0-.521-.817-.52h-.281v-.279h.285a.864.864,0,0,0,.53-.147.486.486,0,0,0,.195-.41.4.4,0,0,0-.145-.328.588.588,0,0,0-.388-.119,1.2,1.2,0,0,0-.354.051,1.566,1.566,0,0,0-.379.187l-.164-.219a1.353,1.353,0,0,1,.4-.216,1.445,1.445,0,0,1,.484-.08.98.98,0,0,1,.646.191A.637.637,0,0,1,219.254,667.816Zm.621,1.977a.29.29,0,0,1,.059-.2.214.214,0,0,1,.171-.069.224.224,0,0,1,.176.069.328.328,0,0,1,0,.392.228.228,0,0,1-.176.069.241.241,0,0,1-.166-.061A.273.273,0,0,1,219.875,669.793Zm0-1.725c0-.175.077-.263.23-.263s.241.088.241.263a.276.276,0,0,1-.065.2.231.231,0,0,1-.176.068.236.236,0,0,1-.166-.061A.272.272,0,0,1,219.875,668.068Zm2.857.5a2.083,2.083,0,0,1-.234,1.106.862.862,0,0,1-1.414-.008,2.052,2.052,0,0,1-.24-1.1,2.084,2.084,0,0,1,.232-1.107.862.862,0,0,1,1.414.016A2.021,2.021,0,0,1,222.732,668.568Zm-1.56,0a2.114,2.114,0,0,0,.146.909.527.527,0,0,0,.936,0,2.1,2.1,0,0,0,.146-.905,2.068,2.068,0,0,0-.146-.9.527.527,0,0,0-.936,0A2.083,2.083,0,0,0,221.172,668.568Zm3.849,0a2.083,2.083,0,0,1-.234,1.106.862.862,0,0,1-1.414-.008,2.052,2.052,0,0,1-.24-1.1,2.084,2.084,0,0,1,.232-1.107.862.862,0,0,1,1.414.016A2.021,2.021,0,0,1,225.021,668.568Zm-1.56,0a2.114,2.114,0,0,0,.146.909.527.527,0,0,0,.936,0,2.1,2.1,0,0,0,.146-.905,2.068,2.068,0,0,0-.146-.9.527.527,0,0,0-.936,0A2.083,2.083,0,0,0,223.461,668.568Z" transform="translate(326 119)"/>
    <path id="Path_519" data-name="Path 519" d="M233.4,670h-.316v-2.035c0-.169.005-.33.016-.481-.028.028-.058.056-.092.086s-.189.157-.465.381l-.172-.222.756-.584h.273Zm2.858-2.184a.653.653,0,0,1-.154.448.762.762,0,0,1-.434.232v.016a.816.816,0,0,1,.51.218.649.649,0,0,1,.166.461.752.752,0,0,1-.283.629,1.292,1.292,0,0,1-.805.219,2.328,2.328,0,0,1-.416-.035,1.394,1.394,0,0,1-.365-.119v-.309a1.839,1.839,0,0,0,.394.141,1.863,1.863,0,0,0,.4.047q.739,0,.74-.58,0-.521-.817-.52h-.281v-.279h.285a.864.864,0,0,0,.53-.147.486.486,0,0,0,.195-.41.4.4,0,0,0-.145-.328.588.588,0,0,0-.388-.119,1.2,1.2,0,0,0-.354.051,1.566,1.566,0,0,0-.379.187l-.164-.219a1.353,1.353,0,0,1,.4-.216,1.445,1.445,0,0,1,.484-.08.98.98,0,0,1,.646.191A.637.637,0,0,1,236.254,667.816Zm.621,1.977a.29.29,0,0,1,.059-.2.214.214,0,0,1,.171-.069.224.224,0,0,1,.176.069.328.328,0,0,1,0,.392.228.228,0,0,1-.176.069.241.241,0,0,1-.166-.061A.273.273,0,0,1,236.875,669.793Zm0-1.725c0-.175.077-.263.23-.263s.241.088.241.263a.276.276,0,0,1-.065.2.231.231,0,0,1-.176.068.236.236,0,0,1-.166-.061A.272.272,0,0,1,236.875,668.068ZM239.041,670h-.316v-2.035c0-.169,0-.33.015-.481-.027.028-.058.056-.092.086s-.188.157-.464.381l-.172-.222.756-.584h.273Zm1.98-1.744a1.045,1.045,0,0,1,.709.224.763.763,0,0,1,.26.612.882.882,0,0,1-.283.7,1.123,1.123,0,0,1-.777.252,1.435,1.435,0,0,1-.737-.154v-.313a1.145,1.145,0,0,0,.34.139,1.746,1.746,0,0,0,.4.049.8.8,0,0,0,.533-.162.583.583,0,0,0,.191-.469q0-.6-.732-.6a2.892,2.892,0,0,0-.5.057l-.168-.108.107-1.335h1.42v.3h-1.143l-.072.858A2.272,2.272,0,0,1,241.021,668.256Z" transform="translate(326 119)"/>
    <path id="Path_520" data-name="Path 520" d="M250.4,670h-.316v-2.035c0-.169.005-.33.016-.481-.028.028-.058.056-.092.086s-.189.157-.465.381l-.172-.222.756-.584h.273Zm2.858-2.184a.653.653,0,0,1-.154.448.762.762,0,0,1-.434.232v.016a.816.816,0,0,1,.51.218.649.649,0,0,1,.166.461.752.752,0,0,1-.283.629,1.292,1.292,0,0,1-.805.219,2.328,2.328,0,0,1-.416-.035,1.394,1.394,0,0,1-.365-.119v-.309a1.839,1.839,0,0,0,.394.141,1.863,1.863,0,0,0,.4.047q.739,0,.74-.58,0-.521-.817-.52h-.281v-.279h.285a.864.864,0,0,0,.53-.147.486.486,0,0,0,.195-.41.4.4,0,0,0-.145-.328.588.588,0,0,0-.388-.119,1.2,1.2,0,0,0-.354.051,1.566,1.566,0,0,0-.379.187l-.164-.219a1.353,1.353,0,0,1,.4-.216,1.445,1.445,0,0,1,.484-.08.98.98,0,0,1,.646.191A.637.637,0,0,1,253.254,667.816Zm.621,1.977a.29.29,0,0,1,.059-.2.214.214,0,0,1,.171-.069.224.224,0,0,1,.176.069.328.328,0,0,1,0,.392.228.228,0,0,1-.176.069.241.241,0,0,1-.166-.061A.273.273,0,0,1,253.875,669.793Zm0-1.725c0-.175.077-.263.23-.263s.241.088.241.263a.276.276,0,0,1-.065.2.231.231,0,0,1-.176.068.236.236,0,0,1-.166-.061A.272.272,0,0,1,253.875,668.068Zm2.734-.252a.648.648,0,0,1-.154.448.759.759,0,0,1-.434.232v.016a.811.811,0,0,1,.51.218.644.644,0,0,1,.166.461.749.749,0,0,1-.283.629,1.292,1.292,0,0,1-.805.219,2.336,2.336,0,0,1-.416-.035,1.406,1.406,0,0,1-.365-.119v-.309a1.824,1.824,0,0,0,.793.188q.741,0,.74-.58,0-.521-.816-.52h-.281v-.279h.285a.86.86,0,0,0,.529-.147.486.486,0,0,0,.2-.41.4.4,0,0,0-.144-.328.591.591,0,0,0-.389-.119,1.191,1.191,0,0,0-.353.051,1.549,1.549,0,0,0-.379.187l-.164-.219a1.359,1.359,0,0,1,.4-.216,1.449,1.449,0,0,1,.484-.08.983.983,0,0,1,.647.191A.636.636,0,0,1,256.609,667.816Zm2.412.752a2.083,2.083,0,0,1-.234,1.106.862.862,0,0,1-1.414-.008,2.052,2.052,0,0,1-.24-1.1,2.084,2.084,0,0,1,.232-1.107.862.862,0,0,1,1.414.016A2.021,2.021,0,0,1,259.021,668.568Zm-1.56,0a2.114,2.114,0,0,0,.146.909.527.527,0,0,0,.936,0,2.1,2.1,0,0,0,.146-.905,2.068,2.068,0,0,0-.146-.9.527.527,0,0,0-.936,0A2.083,2.083,0,0,0,257.461,668.568Z" transform="translate(326 119)"/>
    <path id="Path_521" data-name="Path 521" d="M267.4,670h-.316v-2.035c0-.169.005-.33.016-.481-.028.028-.058.056-.092.086s-.189.157-.465.381l-.172-.222.756-.584h.273Zm2.858-2.184a.653.653,0,0,1-.154.448.762.762,0,0,1-.434.232v.016a.816.816,0,0,1,.51.218.648.648,0,0,1,.166.461.751.751,0,0,1-.283.629,1.292,1.292,0,0,1-.8.219,2.328,2.328,0,0,1-.416-.035,1.394,1.394,0,0,1-.365-.119v-.309a1.84,1.84,0,0,0,.394.141,1.863,1.863,0,0,0,.4.047q.74,0,.74-.58,0-.521-.817-.52h-.281v-.279h.285a.864.864,0,0,0,.53-.147.486.486,0,0,0,.2-.41.4.4,0,0,0-.145-.328.588.588,0,0,0-.388-.119,1.2,1.2,0,0,0-.354.051,1.566,1.566,0,0,0-.379.187l-.164-.219a1.353,1.353,0,0,1,.4-.216,1.445,1.445,0,0,1,.484-.08.98.98,0,0,1,.646.191A.637.637,0,0,1,270.254,667.816Zm.621,1.977a.29.29,0,0,1,.059-.2.214.214,0,0,1,.171-.069.224.224,0,0,1,.176.069.328.328,0,0,1,0,.392.228.228,0,0,1-.176.069.241.241,0,0,1-.166-.061A.273.273,0,0,1,270.875,669.793Zm0-1.725c0-.175.077-.263.23-.263s.241.088.241.263a.276.276,0,0,1-.065.2.231.231,0,0,1-.176.068.236.236,0,0,1-.166-.061A.272.272,0,0,1,270.875,668.068Zm2.977,1.276h-.424V670h-.311v-.656h-1.388v-.283l1.355-1.932h.344v1.92h.424Zm-.735-.295V668.1q0-.28.02-.631h-.016a2.78,2.78,0,0,1-.176.31l-.892,1.27Zm1.9-.793a1.045,1.045,0,0,1,.709.224.763.763,0,0,1,.26.612.882.882,0,0,1-.283.7,1.123,1.123,0,0,1-.777.252,1.435,1.435,0,0,1-.737-.154v-.313a1.145,1.145,0,0,0,.34.139,1.746,1.746,0,0,0,.4.049.8.8,0,0,0,.533-.162.583.583,0,0,0,.191-.469q0-.6-.732-.6a2.892,2.892,0,0,0-.5.057l-.168-.108.107-1.335h1.42v.3h-1.143l-.072.858A2.272,2.272,0,0,1,275.021,668.256Z" transform="translate(326 119)"/>
    <path id="Path_522" data-name="Path 522" d="M284.4,670h-.316v-2.035c0-.169.005-.33.016-.481-.028.028-.058.056-.092.086s-.189.157-.465.381l-.172-.222.756-.584h.273Zm3.1-.656h-.424V670h-.31v-.656h-1.389v-.283l1.356-1.932h.343v1.92h.424Zm-.734-.295V668.1q0-.28.019-.631h-.015a2.944,2.944,0,0,1-.176.31l-.893,1.27Zm1.113.744a.29.29,0,0,1,.059-.2.214.214,0,0,1,.171-.069.224.224,0,0,1,.176.069.328.328,0,0,1,0,.392.228.228,0,0,1-.176.069.241.241,0,0,1-.166-.061A.273.273,0,0,1,287.875,669.793Zm0-1.725c0-.175.077-.263.23-.263s.241.088.241.263a.276.276,0,0,1-.065.2.231.231,0,0,1-.176.068.236.236,0,0,1-.166-.061A.272.272,0,0,1,287.875,668.068Zm2.857.5a2.083,2.083,0,0,1-.234,1.106.862.862,0,0,1-1.414-.008,2.052,2.052,0,0,1-.24-1.1,2.084,2.084,0,0,1,.232-1.107.862.862,0,0,1,1.414.016A2.021,2.021,0,0,1,290.732,668.568Zm-1.56,0a2.114,2.114,0,0,0,.146.909.527.527,0,0,0,.936,0,2.1,2.1,0,0,0,.146-.905,2.068,2.068,0,0,0-.146-.9.527.527,0,0,0-.936,0A2.083,2.083,0,0,0,289.172,668.568Zm3.849,0a2.083,2.083,0,0,1-.234,1.106.862.862,0,0,1-1.414-.008,2.052,2.052,0,0,1-.24-1.1,2.084,2.084,0,0,1,.232-1.107.862.862,0,0,1,1.414.016A2.021,2.021,0,0,1,293.021,668.568Zm-1.56,0a2.114,2.114,0,0,0,.146.909.527.527,0,0,0,.936,0,2.1,2.1,0,0,0,.146-.905,2.068,2.068,0,0,0-.146-.9.527.527,0,0,0-.936,0A2.083,2.083,0,0,0,291.461,668.568Z" transform="translate(326 119)"/>
    <path id="Path_523" data-name="Path 523" d="M301.4,670h-.316v-2.035c0-.169.005-.33.016-.481-.028.028-.058.056-.092.086s-.189.157-.465.381l-.172-.222.756-.584h.273Zm3.1-.656h-.424V670h-.31v-.656h-1.389v-.283l1.356-1.932h.343v1.92h.424Zm-.734-.295V668.1q0-.28.019-.631h-.015a2.944,2.944,0,0,1-.176.31l-.893,1.27Zm1.113.744a.29.29,0,0,1,.059-.2.214.214,0,0,1,.171-.069.224.224,0,0,1,.176.069.328.328,0,0,1,0,.392.228.228,0,0,1-.176.069.241.241,0,0,1-.166-.061A.273.273,0,0,1,304.875,669.793Zm0-1.725c0-.175.077-.263.23-.263s.241.088.241.263a.276.276,0,0,1-.065.2.231.231,0,0,1-.176.068.236.236,0,0,1-.166-.061A.272.272,0,0,1,304.875,668.068ZM307.041,670h-.316v-2.035c0-.169.005-.33.015-.481-.027.028-.058.056-.092.086s-.188.157-.464.381l-.172-.222.756-.584h.273Zm1.98-1.744a1.045,1.045,0,0,1,.709.224.763.763,0,0,1,.26.612.882.882,0,0,1-.283.7,1.123,1.123,0,0,1-.777.252,1.435,1.435,0,0,1-.737-.154v-.313a1.145,1.145,0,0,0,.34.139,1.746,1.746,0,0,0,.4.049.8.8,0,0,0,.533-.162.583.583,0,0,0,.191-.469q0-.6-.732-.6a2.892,2.892,0,0,0-.5.057l-.168-.108.107-1.335h1.42v.3h-1.143l-.072.858A2.272,2.272,0,0,1,309.021,668.256Z" transform="translate(326 119)"/>
    <path id="Path_524" data-name="Path 524" d="M318.4,670h-.316v-2.035c0-.169.005-.33.016-.481-.028.028-.058.056-.092.086s-.189.157-.465.381l-.172-.222.756-.584h.273Zm3.1-.656h-.424V670h-.31v-.656h-1.389v-.283l1.356-1.932h.343v1.92h.424Zm-.734-.295V668.1q0-.28.019-.631h-.015a2.944,2.944,0,0,1-.176.31l-.893,1.27Zm1.113.744a.29.29,0,0,1,.059-.2.214.214,0,0,1,.171-.069.224.224,0,0,1,.176.069.328.328,0,0,1,0,.392.228.228,0,0,1-.176.069.241.241,0,0,1-.166-.061A.273.273,0,0,1,321.875,669.793Zm0-1.725c0-.175.077-.263.23-.263s.241.088.241.263a.276.276,0,0,1-.065.2.231.231,0,0,1-.176.068.236.236,0,0,1-.166-.061A.272.272,0,0,1,321.875,668.068Zm2.734-.252a.648.648,0,0,1-.154.448.759.759,0,0,1-.434.232v.016a.811.811,0,0,1,.51.218.644.644,0,0,1,.166.461.749.749,0,0,1-.283.629,1.292,1.292,0,0,1-.8.219,2.336,2.336,0,0,1-.416-.035,1.406,1.406,0,0,1-.365-.119v-.309a1.824,1.824,0,0,0,.793.188q.741,0,.74-.58,0-.521-.816-.52h-.281v-.279h.285a.86.86,0,0,0,.529-.147.486.486,0,0,0,.2-.41.4.4,0,0,0-.144-.328.591.591,0,0,0-.389-.119,1.191,1.191,0,0,0-.353.051,1.549,1.549,0,0,0-.379.187l-.164-.219a1.36,1.36,0,0,1,.4-.216,1.45,1.45,0,0,1,.484-.08.983.983,0,0,1,.647.191A.636.636,0,0,1,324.609,667.816Zm2.412.752a2.083,2.083,0,0,1-.234,1.106.862.862,0,0,1-1.414-.008,2.052,2.052,0,0,1-.24-1.1,2.084,2.084,0,0,1,.232-1.107.862.862,0,0,1,1.414.016A2.021,2.021,0,0,1,327.021,668.568Zm-1.56,0a2.114,2.114,0,0,0,.146.909.527.527,0,0,0,.936,0,2.1,2.1,0,0,0,.146-.905,2.068,2.068,0,0,0-.146-.9.527.527,0,0,0-.936,0A2.083,2.083,0,0,0,325.461,668.568Z" transform="translate(326 119)"/>
    <path id="Path_525" data-name="Path 525" d="M335.4,670h-.316v-2.035c0-.169.005-.33.016-.481-.028.028-.058.056-.092.086s-.189.157-.465.381l-.172-.222.756-.584h.273Zm3.1-.656h-.424V670h-.31v-.656h-1.389v-.283l1.356-1.932h.343v1.92h.424Zm-.734-.295V668.1q0-.28.019-.631h-.015a2.944,2.944,0,0,1-.176.31l-.893,1.27Zm1.113.744a.29.29,0,0,1,.059-.2.214.214,0,0,1,.171-.069.224.224,0,0,1,.176.069.328.328,0,0,1,0,.392.228.228,0,0,1-.176.069.241.241,0,0,1-.166-.061A.273.273,0,0,1,338.875,669.793Zm0-1.725c0-.175.077-.263.23-.263s.241.088.241.263a.276.276,0,0,1-.065.2.231.231,0,0,1-.176.068.236.236,0,0,1-.166-.061A.272.272,0,0,1,338.875,668.068Zm2.977,1.276h-.424V670h-.311v-.656h-1.388v-.283l1.355-1.932h.344v1.92h.424Zm-.735-.295V668.1q0-.28.02-.631h-.016a2.78,2.78,0,0,1-.176.31l-.892,1.27Zm1.9-.793a1.045,1.045,0,0,1,.709.224.763.763,0,0,1,.26.612.882.882,0,0,1-.283.7,1.123,1.123,0,0,1-.777.252,1.435,1.435,0,0,1-.737-.154v-.313a1.145,1.145,0,0,0,.34.139,1.746,1.746,0,0,0,.4.049.8.8,0,0,0,.533-.162.583.583,0,0,0,.191-.469q0-.6-.732-.6a2.892,2.892,0,0,0-.5.057l-.168-.108.107-1.335h1.42v.3h-1.143l-.072.858A2.272,2.272,0,0,1,343.021,668.256Z" transform="translate(326 119)"/>
    <path id="Path_526" data-name="Path 526" d="M352.4,670h-.316v-2.035c0-.169.005-.33.016-.481-.028.028-.058.056-.092.086s-.189.157-.465.381l-.172-.222.756-.584h.273Zm1.981-1.744a1.047,1.047,0,0,1,.709.224.766.766,0,0,1,.26.612.883.883,0,0,1-.284.7,1.121,1.121,0,0,1-.777.252,1.431,1.431,0,0,1-.736-.154v-.313a1.123,1.123,0,0,0,.34.139,1.737,1.737,0,0,0,.4.049.8.8,0,0,0,.533-.162.58.58,0,0,0,.192-.469q0-.6-.733-.6a2.9,2.9,0,0,0-.5.057l-.168-.108.108-1.335h1.42v.3H354l-.072.858A2.265,2.265,0,0,1,354.377,668.256Zm1.5,1.537a.29.29,0,0,1,.059-.2.214.214,0,0,1,.171-.069.224.224,0,0,1,.176.069.328.328,0,0,1,0,.392.228.228,0,0,1-.176.069.241.241,0,0,1-.166-.061A.273.273,0,0,1,355.875,669.793Zm0-1.725c0-.175.077-.263.23-.263s.241.088.241.263a.276.276,0,0,1-.065.2.231.231,0,0,1-.176.068.236.236,0,0,1-.166-.061A.272.272,0,0,1,355.875,668.068Zm2.857.5a2.083,2.083,0,0,1-.234,1.106.862.862,0,0,1-1.414-.008,2.052,2.052,0,0,1-.24-1.1,2.084,2.084,0,0,1,.232-1.107.862.862,0,0,1,1.414.016A2.021,2.021,0,0,1,358.732,668.568Zm-1.56,0a2.114,2.114,0,0,0,.146.909.527.527,0,0,0,.936,0,2.1,2.1,0,0,0,.146-.905,2.068,2.068,0,0,0-.146-.9.527.527,0,0,0-.936,0A2.083,2.083,0,0,0,357.172,668.568Zm3.849,0a2.083,2.083,0,0,1-.234,1.106.862.862,0,0,1-1.414-.008,2.052,2.052,0,0,1-.24-1.1,2.084,2.084,0,0,1,.232-1.107.862.862,0,0,1,1.414.016A2.021,2.021,0,0,1,361.021,668.568Zm-1.56,0a2.114,2.114,0,0,0,.146.909.527.527,0,0,0,.936,0,2.1,2.1,0,0,0,.146-.905,2.068,2.068,0,0,0-.146-.9.527.527,0,0,0-.936,0A2.083,2.083,0,0,0,359.461,668.568Z" transform="translate(326 119)"/>
    <path id="Path_527" data-name="Path 527" d="M369.4,670h-.316v-2.035c0-.169.005-.33.016-.481-.028.028-.058.056-.092.086s-.189.157-.465.381l-.172-.222.756-.584h.273Zm1.981-1.744a1.047,1.047,0,0,1,.709.224.766.766,0,0,1,.26.612.883.883,0,0,1-.284.7,1.121,1.121,0,0,1-.777.252,1.431,1.431,0,0,1-.736-.154v-.313a1.123,1.123,0,0,0,.34.139,1.737,1.737,0,0,0,.4.049.8.8,0,0,0,.533-.162.58.58,0,0,0,.192-.469q0-.6-.733-.6a2.9,2.9,0,0,0-.5.057l-.168-.108.108-1.335h1.42v.3H371l-.072.858A2.265,2.265,0,0,1,371.377,668.256Zm1.5,1.537a.29.29,0,0,1,.059-.2.214.214,0,0,1,.171-.069.224.224,0,0,1,.176.069.328.328,0,0,1,0,.392.228.228,0,0,1-.176.069.241.241,0,0,1-.166-.061A.273.273,0,0,1,372.875,669.793Zm0-1.725c0-.175.077-.263.23-.263s.241.088.241.263a.276.276,0,0,1-.065.2.231.231,0,0,1-.176.068.236.236,0,0,1-.166-.061A.272.272,0,0,1,372.875,668.068ZM375.041,670h-.316v-2.035c0-.169.005-.33.015-.481-.027.028-.058.056-.092.086s-.188.157-.464.381l-.172-.222.756-.584h.273Zm1.98-1.744a1.045,1.045,0,0,1,.709.224.763.763,0,0,1,.26.612.882.882,0,0,1-.283.7,1.123,1.123,0,0,1-.777.252,1.435,1.435,0,0,1-.737-.154v-.313a1.145,1.145,0,0,0,.34.139,1.746,1.746,0,0,0,.4.049.8.8,0,0,0,.533-.162.583.583,0,0,0,.191-.469q0-.6-.732-.6a2.892,2.892,0,0,0-.5.057l-.168-.108.107-1.335h1.42v.3h-1.143l-.072.858A2.272,2.272,0,0,1,377.021,668.256Z" transform="translate(326 119)"/>
    <path id="Path_528" data-name="Path 528" d="M386.4,670h-.316v-2.035c0-.169.005-.33.016-.481-.028.028-.058.056-.092.086s-.189.157-.465.381l-.172-.222.756-.584h.273Zm1.981-1.744a1.047,1.047,0,0,1,.709.224.766.766,0,0,1,.26.612.883.883,0,0,1-.284.7,1.121,1.121,0,0,1-.777.252,1.431,1.431,0,0,1-.736-.154v-.313a1.123,1.123,0,0,0,.34.139,1.737,1.737,0,0,0,.4.049.8.8,0,0,0,.533-.162.58.58,0,0,0,.192-.469q0-.6-.733-.6a2.9,2.9,0,0,0-.5.057l-.168-.108.108-1.335h1.42v.3H388l-.072.858A2.265,2.265,0,0,1,388.377,668.256Zm1.5,1.537a.29.29,0,0,1,.059-.2.214.214,0,0,1,.171-.069.224.224,0,0,1,.176.069.328.328,0,0,1,0,.392.228.228,0,0,1-.176.069.241.241,0,0,1-.166-.061A.273.273,0,0,1,389.875,669.793Zm0-1.725c0-.175.077-.263.23-.263s.241.088.241.263a.276.276,0,0,1-.065.2.231.231,0,0,1-.176.068.236.236,0,0,1-.166-.061A.272.272,0,0,1,389.875,668.068Zm2.734-.252a.648.648,0,0,1-.154.448.759.759,0,0,1-.434.232v.016a.811.811,0,0,1,.51.218.644.644,0,0,1,.166.461.749.749,0,0,1-.283.629,1.292,1.292,0,0,1-.8.219,2.336,2.336,0,0,1-.416-.035,1.406,1.406,0,0,1-.365-.119v-.309a1.824,1.824,0,0,0,.793.188q.741,0,.74-.58,0-.521-.816-.52h-.281v-.279h.285a.86.86,0,0,0,.529-.147.486.486,0,0,0,.2-.41.4.4,0,0,0-.144-.328.591.591,0,0,0-.389-.119,1.191,1.191,0,0,0-.353.051,1.549,1.549,0,0,0-.379.187l-.164-.219a1.36,1.36,0,0,1,.4-.216,1.45,1.45,0,0,1,.484-.08.983.983,0,0,1,.647.191A.636.636,0,0,1,392.609,667.816Zm2.412.752a2.083,2.083,0,0,1-.234,1.106.862.862,0,0,1-1.414-.008,2.052,2.052,0,0,1-.24-1.1,2.084,2.084,0,0,1,.232-1.107.862.862,0,0,1,1.414.016A2.021,2.021,0,0,1,395.021,668.568Zm-1.56,0a2.114,2.114,0,0,0,.146.909.527.527,0,0,0,.936,0,2.1,2.1,0,0,0,.146-.905,2.068,2.068,0,0,0-.146-.9.527.527,0,0,0-.936,0A2.083,2.083,0,0,0,393.461,668.568Z" transform="translate(326 119)"/>
    <path id="Path_529" data-name="Path 529" d="M403.4,670h-.316v-2.035c0-.169.005-.33.016-.481-.028.028-.058.056-.092.086s-.189.157-.465.381l-.172-.222.756-.584h.273Zm1.981-1.744a1.047,1.047,0,0,1,.709.224.766.766,0,0,1,.26.612.883.883,0,0,1-.284.7,1.121,1.121,0,0,1-.777.252,1.431,1.431,0,0,1-.736-.154v-.313a1.123,1.123,0,0,0,.34.139,1.737,1.737,0,0,0,.4.049.8.8,0,0,0,.533-.162.58.58,0,0,0,.192-.469q0-.6-.733-.6a2.9,2.9,0,0,0-.5.057l-.168-.108.108-1.335h1.42v.3H405l-.072.858A2.265,2.265,0,0,1,405.377,668.256Zm1.5,1.537a.29.29,0,0,1,.059-.2.214.214,0,0,1,.171-.069.224.224,0,0,1,.176.069.328.328,0,0,1,0,.392.228.228,0,0,1-.176.069.241.241,0,0,1-.166-.061A.273.273,0,0,1,406.875,669.793Zm0-1.725c0-.175.077-.263.23-.263s.241.088.241.263a.276.276,0,0,1-.065.2.231.231,0,0,1-.176.068.236.236,0,0,1-.166-.061A.272.272,0,0,1,406.875,668.068Zm2.977,1.276h-.424V670h-.311v-.656h-1.388v-.283l1.355-1.932h.344v1.92h.424Zm-.735-.295V668.1q0-.28.02-.631h-.016a2.78,2.78,0,0,1-.176.31l-.892,1.27Zm1.9-.793a1.045,1.045,0,0,1,.709.224.763.763,0,0,1,.26.612.882.882,0,0,1-.283.7,1.123,1.123,0,0,1-.777.252,1.435,1.435,0,0,1-.737-.154v-.313a1.145,1.145,0,0,0,.34.139,1.746,1.746,0,0,0,.4.049.8.8,0,0,0,.533-.162.583.583,0,0,0,.191-.469q0-.6-.732-.6a2.892,2.892,0,0,0-.5.057l-.168-.108.107-1.335h1.42v.3h-1.143l-.072.858A2.272,2.272,0,0,1,411.021,668.256Z" transform="translate(326 119)"/>
    <path id="Path_530" data-name="Path 530" d="M420.4,670h-.316v-2.035c0-.169.005-.33.016-.481-.028.028-.058.056-.092.086s-.189.157-.465.381l-.172-.222.756-.584h.273Zm1.122-1.221a2.019,2.019,0,0,1,.326-1.258,1.156,1.156,0,0,1,.968-.417,1.277,1.277,0,0,1,.348.037v.279a1.1,1.1,0,0,0-.344-.049.867.867,0,0,0-.7.287,1.463,1.463,0,0,0-.265.9h.023a.748.748,0,0,1,.68-.336.794.794,0,0,1,.6.232.871.871,0,0,1,.223.631.975.975,0,0,1-.244.7.866.866,0,0,1-.657.254.848.848,0,0,1-.7-.332A1.48,1.48,0,0,1,421.518,668.779Zm.959.985a.54.54,0,0,0,.429-.174.743.743,0,0,0,.155-.506.65.65,0,0,0-.143-.445.538.538,0,0,0-.426-.162.721.721,0,0,0-.322.072.591.591,0,0,0-.234.2.461.461,0,0,0-.086.264.906.906,0,0,0,.078.375.662.662,0,0,0,.22.275A.558.558,0,0,0,422.477,669.764Zm1.4.029a.29.29,0,0,1,.059-.2.214.214,0,0,1,.171-.069.224.224,0,0,1,.176.069.328.328,0,0,1,0,.392.228.228,0,0,1-.176.069.241.241,0,0,1-.166-.061A.273.273,0,0,1,423.875,669.793Zm0-1.725c0-.175.077-.263.23-.263s.241.088.241.263a.276.276,0,0,1-.065.2.231.231,0,0,1-.176.068.236.236,0,0,1-.166-.061A.272.272,0,0,1,423.875,668.068Zm2.857.5a2.083,2.083,0,0,1-.234,1.106.862.862,0,0,1-1.414-.008,2.052,2.052,0,0,1-.24-1.1,2.084,2.084,0,0,1,.232-1.107.862.862,0,0,1,1.414.016A2.021,2.021,0,0,1,426.732,668.568Zm-1.56,0a2.114,2.114,0,0,0,.146.909.527.527,0,0,0,.936,0,2.1,2.1,0,0,0,.146-.905,2.068,2.068,0,0,0-.146-.9.527.527,0,0,0-.936,0A2.083,2.083,0,0,0,425.172,668.568Zm3.849,0a2.083,2.083,0,0,1-.234,1.106.862.862,0,0,1-1.414-.008,2.052,2.052,0,0,1-.24-1.1,2.084,2.084,0,0,1,.232-1.107.862.862,0,0,1,1.414.016A2.021,2.021,0,0,1,429.021,668.568Zm-1.56,0a2.114,2.114,0,0,0,.146.909.527.527,0,0,0,.936,0,2.1,2.1,0,0,0,.146-.905,2.068,2.068,0,0,0-.146-.9.527.527,0,0,0-.936,0A2.083,2.083,0,0,0,427.461,668.568Z" transform="translate(326 119)"/>
    <path id="Path_531" data-name="Path 531" d="M437.4,670h-.316v-2.035c0-.169.005-.33.016-.481-.028.028-.058.056-.092.086s-.189.157-.465.381l-.172-.222.756-.584h.273Zm1.122-1.221a2.019,2.019,0,0,1,.326-1.258,1.156,1.156,0,0,1,.968-.417,1.277,1.277,0,0,1,.348.037v.279a1.1,1.1,0,0,0-.344-.049.867.867,0,0,0-.7.287,1.463,1.463,0,0,0-.265.9h.023a.748.748,0,0,1,.68-.336.794.794,0,0,1,.6.232.871.871,0,0,1,.223.631.975.975,0,0,1-.244.7.866.866,0,0,1-.657.254.848.848,0,0,1-.7-.332A1.48,1.48,0,0,1,438.518,668.779Zm.959.985a.54.54,0,0,0,.429-.174.743.743,0,0,0,.155-.506.65.65,0,0,0-.143-.445.538.538,0,0,0-.426-.162.721.721,0,0,0-.322.072.591.591,0,0,0-.234.2.461.461,0,0,0-.086.264.906.906,0,0,0,.078.375.662.662,0,0,0,.22.275A.558.558,0,0,0,439.477,669.764Zm1.4.029a.29.29,0,0,1,.059-.2.214.214,0,0,1,.171-.069.224.224,0,0,1,.176.069.328.328,0,0,1,0,.392.228.228,0,0,1-.176.069.241.241,0,0,1-.166-.061A.273.273,0,0,1,440.875,669.793Zm0-1.725c0-.175.077-.263.23-.263s.241.088.241.263a.276.276,0,0,1-.065.2.231.231,0,0,1-.176.068.236.236,0,0,1-.166-.061A.272.272,0,0,1,440.875,668.068ZM443.041,670h-.316v-2.035c0-.169.005-.33.015-.481-.027.028-.058.056-.092.086s-.188.157-.464.381l-.172-.222.756-.584h.273Zm1.98-1.744a1.045,1.045,0,0,1,.709.224.763.763,0,0,1,.26.612.882.882,0,0,1-.283.7,1.123,1.123,0,0,1-.777.252,1.435,1.435,0,0,1-.737-.154v-.313a1.145,1.145,0,0,0,.34.139,1.746,1.746,0,0,0,.4.049.8.8,0,0,0,.533-.162.583.583,0,0,0,.191-.469q0-.6-.732-.6a2.892,2.892,0,0,0-.5.057l-.168-.108.107-1.335h1.42v.3h-1.143l-.072.858A2.272,2.272,0,0,1,445.021,668.256Z" transform="translate(326 119)"/>
    <path id="Path_532" data-name="Path 532" d="M454.4,670h-.316v-2.035c0-.169.005-.33.016-.481-.028.028-.058.056-.092.086s-.189.157-.465.381l-.172-.222.756-.584h.273Zm1.122-1.221a2.019,2.019,0,0,1,.326-1.258,1.156,1.156,0,0,1,.968-.417,1.277,1.277,0,0,1,.348.037v.279a1.1,1.1,0,0,0-.344-.049.867.867,0,0,0-.7.287,1.463,1.463,0,0,0-.265.9h.023a.748.748,0,0,1,.68-.336.794.794,0,0,1,.6.232.871.871,0,0,1,.223.631.975.975,0,0,1-.244.7.866.866,0,0,1-.657.254.848.848,0,0,1-.7-.332A1.48,1.48,0,0,1,455.518,668.779Zm.959.985a.54.54,0,0,0,.429-.174.743.743,0,0,0,.155-.506.65.65,0,0,0-.143-.445.538.538,0,0,0-.426-.162.721.721,0,0,0-.322.072.591.591,0,0,0-.234.2.461.461,0,0,0-.086.264.906.906,0,0,0,.078.375.662.662,0,0,0,.22.275A.558.558,0,0,0,456.477,669.764Zm1.4.029a.29.29,0,0,1,.059-.2.214.214,0,0,1,.171-.069.224.224,0,0,1,.176.069.328.328,0,0,1,0,.392.228.228,0,0,1-.176.069.241.241,0,0,1-.166-.061A.273.273,0,0,1,457.875,669.793Zm0-1.725c0-.175.077-.263.23-.263s.241.088.241.263a.276.276,0,0,1-.065.2.231.231,0,0,1-.176.068.236.236,0,0,1-.166-.061A.272.272,0,0,1,457.875,668.068Zm2.734-.252a.648.648,0,0,1-.154.448.759.759,0,0,1-.434.232v.016a.811.811,0,0,1,.51.218.644.644,0,0,1,.166.461.749.749,0,0,1-.283.629,1.292,1.292,0,0,1-.8.219,2.336,2.336,0,0,1-.416-.035,1.406,1.406,0,0,1-.365-.119v-.309a1.824,1.824,0,0,0,.793.188q.741,0,.74-.58,0-.521-.816-.52h-.281v-.279h.285a.86.86,0,0,0,.529-.147.486.486,0,0,0,.2-.41.4.4,0,0,0-.144-.328.591.591,0,0,0-.389-.119,1.191,1.191,0,0,0-.353.051,1.549,1.549,0,0,0-.379.187l-.164-.219a1.36,1.36,0,0,1,.4-.216,1.45,1.45,0,0,1,.484-.08.983.983,0,0,1,.647.191A.636.636,0,0,1,460.609,667.816Zm2.412.752a2.083,2.083,0,0,1-.234,1.106.862.862,0,0,1-1.414-.008,2.052,2.052,0,0,1-.24-1.1,2.084,2.084,0,0,1,.232-1.107.862.862,0,0,1,1.414.016A2.021,2.021,0,0,1,463.021,668.568Zm-1.56,0a2.114,2.114,0,0,0,.146.909.527.527,0,0,0,.936,0,2.1,2.1,0,0,0,.146-.905,2.068,2.068,0,0,0-.146-.9.527.527,0,0,0-.936,0A2.083,2.083,0,0,0,461.461,668.568Z" transform="translate(326 119)"/>
    <path id="Path_533" data-name="Path 533" d="M471.4,670h-.316v-2.035c0-.169.005-.33.016-.481-.028.028-.058.056-.092.086s-.189.157-.465.381l-.172-.222.756-.584h.273Zm1.122-1.221a2.019,2.019,0,0,1,.326-1.258,1.156,1.156,0,0,1,.968-.417,1.277,1.277,0,0,1,.348.037v.279a1.1,1.1,0,0,0-.344-.049.867.867,0,0,0-.7.287,1.463,1.463,0,0,0-.265.9h.023a.748.748,0,0,1,.68-.336.794.794,0,0,1,.6.232.871.871,0,0,1,.223.631.975.975,0,0,1-.244.7.866.866,0,0,1-.657.254.848.848,0,0,1-.7-.332A1.48,1.48,0,0,1,472.518,668.779Zm.959.985a.54.54,0,0,0,.429-.174.743.743,0,0,0,.155-.506.65.65,0,0,0-.143-.445.538.538,0,0,0-.426-.162.721.721,0,0,0-.322.072.591.591,0,0,0-.234.2.461.461,0,0,0-.086.264.906.906,0,0,0,.078.375.662.662,0,0,0,.22.275A.558.558,0,0,0,473.477,669.764Zm1.4.029a.29.29,0,0,1,.059-.2.214.214,0,0,1,.171-.069.224.224,0,0,1,.176.069.328.328,0,0,1,0,.392.228.228,0,0,1-.176.069.241.241,0,0,1-.166-.061A.273.273,0,0,1,474.875,669.793Zm0-1.725c0-.175.077-.263.23-.263s.241.088.241.263a.276.276,0,0,1-.065.2.231.231,0,0,1-.176.068.236.236,0,0,1-.166-.061A.272.272,0,0,1,474.875,668.068Zm2.977,1.276h-.424V670h-.311v-.656h-1.388v-.283l1.355-1.932h.344v1.92h.424Zm-.735-.295V668.1q0-.28.02-.631h-.016a2.78,2.78,0,0,1-.176.31l-.892,1.27Zm1.9-.793a1.045,1.045,0,0,1,.709.224.763.763,0,0,1,.26.612.882.882,0,0,1-.283.7,1.123,1.123,0,0,1-.777.252,1.435,1.435,0,0,1-.737-.154v-.313a1.145,1.145,0,0,0,.34.139,1.746,1.746,0,0,0,.4.049.8.8,0,0,0,.533-.162.583.583,0,0,0,.191-.469q0-.6-.732-.6a2.892,2.892,0,0,0-.5.057l-.168-.108.107-1.335h1.42v.3h-1.143l-.072.858A2.272,2.272,0,0,1,479.021,668.256Z" transform="translate(326 119)"/>
    <path id="Path_534" data-name="Path 534" d="M488.4,670h-.316v-2.035c0-.169.005-.33.016-.481-.028.028-.058.056-.092.086s-.189.157-.465.381l-.172-.222.756-.584h.273Zm1.45,0,1.183-2.557h-1.556v-.3h1.9v.259L490.2,670Zm2.029-.207a.29.29,0,0,1,.059-.2.214.214,0,0,1,.171-.069.224.224,0,0,1,.176.069.328.328,0,0,1,0,.392.228.228,0,0,1-.176.069.241.241,0,0,1-.166-.061A.273.273,0,0,1,491.875,669.793Zm0-1.725c0-.175.077-.263.23-.263s.241.088.241.263a.276.276,0,0,1-.065.2.231.231,0,0,1-.176.068.236.236,0,0,1-.166-.061A.272.272,0,0,1,491.875,668.068Zm2.857.5a2.083,2.083,0,0,1-.234,1.106.862.862,0,0,1-1.414-.008,2.052,2.052,0,0,1-.24-1.1,2.084,2.084,0,0,1,.232-1.107.862.862,0,0,1,1.414.016A2.021,2.021,0,0,1,494.732,668.568Zm-1.56,0a2.114,2.114,0,0,0,.146.909.527.527,0,0,0,.936,0,2.1,2.1,0,0,0,.146-.905,2.068,2.068,0,0,0-.146-.9.527.527,0,0,0-.936,0A2.083,2.083,0,0,0,493.172,668.568Zm3.849,0a2.083,2.083,0,0,1-.234,1.106.862.862,0,0,1-1.414-.008,2.052,2.052,0,0,1-.24-1.1,2.084,2.084,0,0,1,.232-1.107.862.862,0,0,1,1.414.016A2.021,2.021,0,0,1,497.021,668.568Zm-1.56,0a2.114,2.114,0,0,0,.146.909.527.527,0,0,0,.936,0,2.1,2.1,0,0,0,.146-.905,2.068,2.068,0,0,0-.146-.9.527.527,0,0,0-.936,0A2.083,2.083,0,0,0,495.461,668.568Z" transform="translate(326 119)"/>
    <path id="Path_535" data-name="Path 535" d="M505.4,670h-.316v-2.035c0-.169.005-.33.016-.481-.028.028-.058.056-.092.086s-.189.157-.465.381l-.172-.222.756-.584h.273Zm1.45,0,1.183-2.557h-1.556v-.3h1.9v.259L507.2,670Zm2.029-.207a.29.29,0,0,1,.059-.2.214.214,0,0,1,.171-.069.224.224,0,0,1,.176.069.328.328,0,0,1,0,.392.228.228,0,0,1-.176.069.241.241,0,0,1-.166-.061A.273.273,0,0,1,508.875,669.793Zm0-1.725c0-.175.077-.263.23-.263s.241.088.241.263a.276.276,0,0,1-.065.2.231.231,0,0,1-.176.068.236.236,0,0,1-.166-.061A.272.272,0,0,1,508.875,668.068ZM511.041,670h-.316v-2.035c0-.169.005-.33.015-.481-.027.028-.058.056-.092.086s-.188.157-.464.381l-.172-.222.756-.584h.273Zm1.98-1.744a1.045,1.045,0,0,1,.709.224.763.763,0,0,1,.26.612.882.882,0,0,1-.283.7,1.123,1.123,0,0,1-.777.252,1.435,1.435,0,0,1-.737-.154v-.313a1.145,1.145,0,0,0,.34.139,1.746,1.746,0,0,0,.4.049.8.8,0,0,0,.533-.162.583.583,0,0,0,.191-.469q0-.6-.732-.6a2.892,2.892,0,0,0-.5.057l-.168-.108.107-1.335h1.42v.3h-1.143l-.072.858A2.273,2.273,0,0,1,513.021,668.256Z" transform="translate(326 119)"/>
    <path id="Path_536" data-name="Path 536" d="M522.4,670h-.316v-2.035c0-.169.005-.33.016-.481-.028.028-.058.056-.092.086s-.189.157-.465.381l-.172-.222.756-.584h.273Zm1.45,0,1.183-2.557h-1.556v-.3h1.9v.259l-1.168,2.6Zm2.029-.207a.29.29,0,0,1,.059-.2.214.214,0,0,1,.171-.069.224.224,0,0,1,.176.069.328.328,0,0,1,0,.392.228.228,0,0,1-.176.069.241.241,0,0,1-.166-.061A.273.273,0,0,1,525.875,669.793Zm0-1.725c0-.175.077-.263.23-.263s.241.088.241.263a.276.276,0,0,1-.065.2.231.231,0,0,1-.176.068.236.236,0,0,1-.166-.061A.271.271,0,0,1,525.875,668.068Zm2.734-.252a.649.649,0,0,1-.154.448.759.759,0,0,1-.434.232v.016a.811.811,0,0,1,.51.218.644.644,0,0,1,.166.461.749.749,0,0,1-.283.629,1.292,1.292,0,0,1-.8.219,2.336,2.336,0,0,1-.416-.035,1.406,1.406,0,0,1-.365-.119v-.309a1.824,1.824,0,0,0,.793.188q.741,0,.74-.58,0-.521-.816-.52h-.281v-.279h.285a.86.86,0,0,0,.529-.147.486.486,0,0,0,.2-.41.4.4,0,0,0-.144-.328.591.591,0,0,0-.389-.119,1.191,1.191,0,0,0-.353.051,1.549,1.549,0,0,0-.379.187l-.164-.219a1.36,1.36,0,0,1,.4-.216,1.45,1.45,0,0,1,.484-.08.983.983,0,0,1,.647.191A.636.636,0,0,1,528.609,667.816Zm2.412.752a2.083,2.083,0,0,1-.234,1.106.862.862,0,0,1-1.414-.008,2.052,2.052,0,0,1-.24-1.1,2.084,2.084,0,0,1,.232-1.107.862.862,0,0,1,1.414.016A2.021,2.021,0,0,1,531.021,668.568Zm-1.56,0a2.114,2.114,0,0,0,.146.909.527.527,0,0,0,.936,0,2.1,2.1,0,0,0,.146-.905,2.069,2.069,0,0,0-.146-.9.527.527,0,0,0-.936,0A2.083,2.083,0,0,0,529.461,668.568Z" transform="translate(326 119)"/>
    <path id="Path_537" data-name="Path 537" d="M539.4,670h-.316v-2.035c0-.169.005-.33.016-.481-.028.028-.058.056-.092.086s-.189.157-.465.381l-.172-.222.756-.584h.273Zm1.45,0,1.183-2.557h-1.556v-.3h1.9v.259l-1.168,2.6Zm2.029-.207a.29.29,0,0,1,.059-.2.214.214,0,0,1,.171-.069.224.224,0,0,1,.176.069.328.328,0,0,1,0,.392.228.228,0,0,1-.176.069.241.241,0,0,1-.166-.061A.273.273,0,0,1,542.875,669.793Zm0-1.725c0-.175.077-.263.23-.263s.241.088.241.263a.276.276,0,0,1-.065.2.231.231,0,0,1-.176.068.236.236,0,0,1-.166-.061A.271.271,0,0,1,542.875,668.068Zm2.977,1.276h-.424V670h-.311v-.656h-1.388v-.283l1.355-1.932h.344v1.92h.424Zm-.735-.295V668.1q0-.28.02-.631h-.016a2.77,2.77,0,0,1-.176.31l-.892,1.27Zm1.9-.793a1.045,1.045,0,0,1,.709.224.763.763,0,0,1,.26.612.882.882,0,0,1-.283.7,1.123,1.123,0,0,1-.777.252,1.435,1.435,0,0,1-.737-.154v-.313a1.145,1.145,0,0,0,.34.139,1.746,1.746,0,0,0,.4.049.8.8,0,0,0,.533-.162.583.583,0,0,0,.191-.469q0-.6-.732-.6a2.892,2.892,0,0,0-.5.057l-.168-.108.107-1.335h1.42v.3h-1.143l-.072.858A2.273,2.273,0,0,1,547.021,668.256Z" transform="translate(326 119)"/>
    <path id="Path_538" data-name="Path 538" d="M556.4,670h-.316v-2.035c0-.169.005-.33.016-.481-.028.028-.058.056-.092.086s-.189.157-.465.381l-.172-.222.756-.584h.273Zm2.034-2.9a.97.97,0,0,1,.619.181.607.607,0,0,1,.228.5.62.62,0,0,1-.131.385,1.15,1.15,0,0,1-.417.316,1.4,1.4,0,0,1,.494.35.656.656,0,0,1,.146.422.712.712,0,0,1-.248.568,1.014,1.014,0,0,1-.68.211,1.092,1.092,0,0,1-.7-.2.694.694,0,0,1-.246-.569.846.846,0,0,1,.6-.763,1.111,1.111,0,0,1-.387-.328.708.708,0,0,1-.117-.4.6.6,0,0,1,.228-.494A.952.952,0,0,1,558.43,667.1Zm-.618,2.175a.446.446,0,0,0,.163.366.719.719,0,0,0,.459.13.683.683,0,0,0,.453-.136.464.464,0,0,0,.162-.375.451.451,0,0,0-.153-.336,1.523,1.523,0,0,0-.531-.287,1.146,1.146,0,0,0-.422.277A.533.533,0,0,0,557.812,669.279Zm.614-1.912a.575.575,0,0,0-.383.117.391.391,0,0,0-.139.313.443.443,0,0,0,.116.308,1.191,1.191,0,0,0,.425.258,1.05,1.05,0,0,0,.4-.252.464.464,0,0,0,.117-.314.379.379,0,0,0-.143-.313A.587.587,0,0,0,558.426,667.367Zm1.449,2.426a.29.29,0,0,1,.059-.2.214.214,0,0,1,.171-.069.224.224,0,0,1,.176.069.328.328,0,0,1,0,.392.228.228,0,0,1-.176.069.241.241,0,0,1-.166-.061A.273.273,0,0,1,559.875,669.793Zm0-1.725c0-.175.077-.263.23-.263s.241.088.241.263a.276.276,0,0,1-.065.2.231.231,0,0,1-.176.068.236.236,0,0,1-.166-.061A.271.271,0,0,1,559.875,668.068Zm2.857.5a2.083,2.083,0,0,1-.234,1.106.862.862,0,0,1-1.414-.008,2.052,2.052,0,0,1-.24-1.1,2.084,2.084,0,0,1,.232-1.107.862.862,0,0,1,1.414.016A2.021,2.021,0,0,1,562.732,668.568Zm-1.56,0a2.114,2.114,0,0,0,.146.909.527.527,0,0,0,.936,0,2.1,2.1,0,0,0,.146-.905,2.069,2.069,0,0,0-.146-.9.527.527,0,0,0-.936,0A2.083,2.083,0,0,0,561.172,668.568Zm3.849,0a2.083,2.083,0,0,1-.234,1.106.862.862,0,0,1-1.414-.008,2.052,2.052,0,0,1-.24-1.1,2.084,2.084,0,0,1,.232-1.107.862.862,0,0,1,1.414.016A2.021,2.021,0,0,1,565.021,668.568Zm-1.56,0a2.114,2.114,0,0,0,.146.909.527.527,0,0,0,.936,0,2.1,2.1,0,0,0,.146-.905,2.069,2.069,0,0,0-.146-.9.527.527,0,0,0-.936,0A2.083,2.083,0,0,0,563.461,668.568Z" transform="translate(326 119)"/>
    <path id="Path_539" data-name="Path 539" d="M559.5,642.5l-17,18-15.888-2.882L510.5,658.5l-8-4-9,8-17-38-18,29-16,8-18-13-19,6-16-7-17,12-17-5-19-25-13,33-19-8-16,5-18-26m-118,23,16-25,18,30,17-7,18-19,14,15" transform="translate(326 119)" fill="none" stroke="#00549f" stroke-linecap="round" stroke-linejoin="round" stroke-width="1"/>
  </g>
</svg>
