<svg xmlns="http://www.w3.org/2000/svg" width="439.328" height="46.307" viewBox="0 0 439.328 46.307">
  <g id="Group_43" data-name="Group 43" transform="translate(-451.693 -854.75)">
    <rect id="Rectangle_113" data-name="Rectangle 113" width="414" height="40" transform="translate(474 855)" fill="#d9d9d9" opacity="0.24"/>
    <path id="Path_607" data-name="Path 607" d="M148.5,736h413" transform="translate(326 119)" fill="none" stroke="#00549f" stroke-width="0.5" stroke-dasharray="1 1" opacity="0.12"/>
    <path id="Path_608" data-name="Path 608" d="M148.5,738.083h413" transform="translate(326 119)" fill="none" stroke="#00549f" stroke-width="0.5" stroke-dasharray="1 1" opacity="0.12"/>
    <path id="Path_609" data-name="Path 609" d="M148.5,740.167h413" transform="translate(326 119)" fill="none" stroke="#00549f" stroke-width="0.5" stroke-dasharray="1 1" opacity="0.12"/>
    <path id="Path_610" data-name="Path 610" d="M148.5,742.25h413" transform="translate(326 119)" fill="none" stroke="#00549f" stroke-width="0.5" stroke-dasharray="1 1" opacity="0.12"/>
    <path id="Path_611" data-name="Path 611" d="M148.5,744.333h413" transform="translate(326 119)" fill="none" stroke="#00549f" stroke-width="0.5" stroke-dasharray="1 1" opacity="0.12"/>
    <path id="Path_612" data-name="Path 612" d="M148.5,746.417h413" transform="translate(326 119)" fill="none" stroke="#00549f" stroke-width="0.5" stroke-dasharray="1 1" opacity="0.12"/>
    <path id="Path_613" data-name="Path 613" d="M148.5,748.5h413" transform="translate(326 119)" fill="none" stroke="#00549f" stroke-width="0.5" stroke-dasharray="1 1" opacity="0.12"/>
    <path id="Path_614" data-name="Path 614" d="M148.5,750.583h413" transform="translate(326 119)" fill="none" stroke="#00549f" stroke-width="0.5" stroke-dasharray="1 1" opacity="0.12"/>
    <path id="Path_615" data-name="Path 615" d="M148.5,752.667h413" transform="translate(326 119)" fill="none" stroke="#00549f" stroke-width="0.5" stroke-dasharray="1 1" opacity="0.12"/>
    <path id="Path_616" data-name="Path 616" d="M148.5,754.75h413" transform="translate(326 119)" fill="none" stroke="#00549f" stroke-width="0.5" stroke-dasharray="1 1" opacity="0.12"/>
    <path id="Path_617" data-name="Path 617" d="M148.5,756.833h413" transform="translate(326 119)" fill="none" stroke="#00549f" stroke-width="0.5" stroke-dasharray="1 1" opacity="0.12"/>
    <path id="Path_618" data-name="Path 618" d="M148.5,758.917h413" transform="translate(326 119)" fill="none" stroke="#00549f" stroke-width="0.5" stroke-dasharray="1 1" opacity="0.12"/>
    <path id="Path_619" data-name="Path 619" d="M148.5,761h413" transform="translate(326 119)" fill="none" stroke="#00549f" stroke-width="0.5" stroke-dasharray="1 1" opacity="0.12"/>
    <path id="Path_620" data-name="Path 620" d="M148.5,763.083h413" transform="translate(326 119)" fill="none" stroke="#00549f" stroke-width="0.5" stroke-dasharray="1 1" opacity="0.12"/>
    <path id="Path_621" data-name="Path 621" d="M148.5,765.167h413" transform="translate(326 119)" fill="none" stroke="#00549f" stroke-width="0.5" stroke-dasharray="1 1" opacity="0.12"/>
    <path id="Path_622" data-name="Path 622" d="M148.5,767.25h413" transform="translate(326 119)" fill="none" stroke="#00549f" stroke-width="0.5" stroke-dasharray="1 1" opacity="0.12"/>
    <path id="Path_623" data-name="Path 623" d="M148.5,769.333h413" transform="translate(326 119)" fill="none" stroke="#00549f" stroke-width="0.5" stroke-dasharray="1 1" opacity="0.12"/>
    <path id="Path_624" data-name="Path 624" d="M148.5,771.417h413" transform="translate(326 119)" fill="none" stroke="#00549f" stroke-width="0.5" stroke-dasharray="1 1" opacity="0.12"/>
    <path id="Path_625" data-name="Path 625" d="M148.5,773.5h413" transform="translate(326 119)" fill="none" stroke="#00549f" stroke-width="0.5" stroke-dasharray="1 1" opacity="0.12"/>
    <path id="Path_626" data-name="Path 626" d="M148.5,775.583h413" transform="translate(326 119)" fill="none" stroke="#00549f" stroke-width="0.5" stroke-dasharray="1 1" opacity="0.12"/>
    <path id="Path_627" data-name="Path 627" d="M152,740h33v33h86V756h17.5V740H306v16h15.5V740H356v16h16v17h52.5V756H441v17h16V740h17.5v33H527V756h31" transform="translate(326 119)" fill="none" stroke="#00549f" stroke-width="1"/>
    <path id="Path_628" data-name="Path 628" d="M236.5,737v40" transform="translate(326 119)" fill="none" stroke="#7ad9a2" stroke-width="1"/>
    <path id="Path_629" data-name="Path 629" d="M306,737v40" transform="translate(326 119)" fill="none" stroke="#7ad9a2" stroke-width="1"/>
    <path id="Path_630" data-name="Path 630" d="M148.4,782h-.316v-2.035c0-.169.005-.33.016-.481-.028.028-.058.056-.092.086s-.189.157-.465.381l-.172-.222.756-.584h.273Zm2.965,0h-1.877v-.279l.752-.756a5.446,5.446,0,0,0,.453-.5,1.307,1.307,0,0,0,.165-.289.84.84,0,0,0,.054-.3.477.477,0,0,0-.138-.361.53.53,0,0,0-.385-.135.976.976,0,0,0-.338.058,1.379,1.379,0,0,0-.354.213l-.172-.22a1.318,1.318,0,0,1,.86-.328.907.907,0,0,1,.631.207.705.705,0,0,1,.228.552,1.074,1.074,0,0,1-.152.537,3.452,3.452,0,0,1-.57.672l-.625.612v.015h1.468Zm.514-.207a.29.29,0,0,1,.059-.2.214.214,0,0,1,.171-.069.224.224,0,0,1,.176.069.328.328,0,0,1,0,.392.228.228,0,0,1-.176.069.241.241,0,0,1-.166-.061A.273.273,0,0,1,151.875,781.793Zm0-1.725c0-.175.077-.263.23-.263s.241.088.241.263a.276.276,0,0,1-.065.2.231.231,0,0,1-.176.068.236.236,0,0,1-.166-.061A.272.272,0,0,1,151.875,780.068Zm2.857.5a2.083,2.083,0,0,1-.234,1.106.862.862,0,0,1-1.414-.008,2.052,2.052,0,0,1-.24-1.1,2.084,2.084,0,0,1,.232-1.107.862.862,0,0,1,1.414.016A2.021,2.021,0,0,1,154.732,780.568Zm-1.56,0a2.114,2.114,0,0,0,.146.909.527.527,0,0,0,.936,0,2.1,2.1,0,0,0,.146-.905,2.068,2.068,0,0,0-.146-.9.527.527,0,0,0-.936,0A2.083,2.083,0,0,0,153.172,780.568Zm3.849,0a2.083,2.083,0,0,1-.234,1.106.862.862,0,0,1-1.414-.008,2.052,2.052,0,0,1-.24-1.1,2.084,2.084,0,0,1,.232-1.107.862.862,0,0,1,1.414.016A2.021,2.021,0,0,1,157.021,780.568Zm-1.56,0a2.114,2.114,0,0,0,.146.909.527.527,0,0,0,.936,0,2.1,2.1,0,0,0,.146-.905,2.068,2.068,0,0,0-.146-.9.527.527,0,0,0-.936,0A2.083,2.083,0,0,0,155.461,780.568Z" transform="translate(326 119)"/>
    <path id="Path_631" data-name="Path 631" d="M125.693,776v-2.855h.332V775.7h1.26v.3Zm1.69-2.141h.347l.469,1.221a4.7,4.7,0,0,1,.192.6h.015c.017-.067.052-.18.106-.34s.231-.656.531-1.485h.348l-.92,2.438a1.2,1.2,0,0,1-.321.512.675.675,0,0,1-.447.152,1.314,1.314,0,0,1-.293-.033v-.26a1.112,1.112,0,0,0,.24.023.5.5,0,0,0,.477-.375l.119-.3ZM130.062,776h-.324v-2.141h.324Zm-.351-2.721a.21.21,0,0,1,.055-.162.189.189,0,0,1,.136-.053.193.193,0,0,1,.135.053.21.21,0,0,1,.057.162.216.216,0,0,1-.057.164.189.189,0,0,1-.135.053.185.185,0,0,1-.136-.053A.22.22,0,0,1,129.711,773.279Zm2.5,2.721v-1.385a.56.56,0,0,0-.119-.39.486.486,0,0,0-.373-.129.618.618,0,0,0-.493.181.919.919,0,0,0-.156.6V776h-.324v-2.141h.264l.052.293h.016a.658.658,0,0,1,.279-.244.91.91,0,0,1,.4-.088.81.81,0,0,1,.582.188.792.792,0,0,1,.2.6V776Zm2.744-2.141v.205l-.4.047a.657.657,0,0,1,.1.18.669.669,0,0,1,.043.248.63.63,0,0,1-.215.5.867.867,0,0,1-.59.188,1.018,1.018,0,0,1-.179-.016.319.319,0,0,0-.207.275.142.142,0,0,0,.072.131.544.544,0,0,0,.248.041h.379a.841.841,0,0,1,.533.147.506.506,0,0,1,.188.425.6.6,0,0,1-.286.541,1.518,1.518,0,0,1-.832.188,1.143,1.143,0,0,1-.648-.156.507.507,0,0,1-.227-.442.5.5,0,0,1,.125-.338.641.641,0,0,1,.352-.193.348.348,0,0,1-.139-.115.312.312,0,0,1-.054-.182.343.343,0,0,1,.062-.2.67.67,0,0,1,.2-.17.582.582,0,0,1-.271-.232.77.77,0,0,1,.107-.916.858.858,0,0,1,.6-.192,1.091,1.091,0,0,1,.3.039Zm-1.707,2.5a.292.292,0,0,0,.146.264.809.809,0,0,0,.42.09,1.161,1.161,0,0,0,.6-.123.373.373,0,0,0,.2-.33.264.264,0,0,0-.107-.242.839.839,0,0,0-.4-.067h-.388a.509.509,0,0,0-.344.106A.376.376,0,0,0,133.252,776.359Zm.176-1.814a.435.435,0,0,0,.127.34.5.5,0,0,0,.353.115.414.414,0,0,0,.475-.461.425.425,0,0,0-.481-.482.475.475,0,0,0-.351.123A.494.494,0,0,0,133.428,774.545Zm5.338,0a1.446,1.446,0,0,1-.385,1.082,1.516,1.516,0,0,1-1.1.373h-.791v-2.855h.875a1.283,1.283,0,0,1,1.405,1.4Zm-.352.012a1.149,1.149,0,0,0-.281-.842,1.119,1.119,0,0,0-.832-.283h-.483v2.281h.405a1.231,1.231,0,0,0,.892-.291A1.16,1.16,0,0,0,138.414,774.557Zm2.789.371a1.183,1.183,0,0,1-.264.818.929.929,0,0,1-.728.293.967.967,0,0,1-.51-.135.893.893,0,0,1-.344-.386,1.36,1.36,0,0,1-.121-.59,1.179,1.179,0,0,1,.262-.815.927.927,0,0,1,.727-.293.9.9,0,0,1,.713.3A1.173,1.173,0,0,1,141.2,774.928Zm-1.631,0a1.019,1.019,0,0,0,.164.625.651.651,0,0,0,.965,0,1.012,1.012,0,0,0,.166-.627.982.982,0,0,0-.166-.619.659.659,0,0,0-.967,0A1.006,1.006,0,0,0,139.572,774.928ZM143.521,776l-.392-1.256q-.037-.116-.139-.523h-.015c-.052.228-.1.4-.137.527l-.4,1.252h-.375l-.584-2.141h.339l.315,1.229a5.042,5.042,0,0,1,.125.568h.016c.014-.074.037-.17.068-.287s.06-.212.084-.281l.392-1.229h.352l.383,1.229a4.129,4.129,0,0,1,.148.564h.016a2.119,2.119,0,0,1,.041-.216q.034-.147.408-1.577h.336L143.906,776Zm2.831,0v-1.385a.555.555,0,0,0-.12-.39.483.483,0,0,0-.373-.129.615.615,0,0,0-.492.181.919.919,0,0,0-.156.6V776h-.324v-2.141h.263l.053.293h.016a.652.652,0,0,1,.279-.244.906.906,0,0,1,.4-.088.81.81,0,0,1,.582.188.788.788,0,0,1,.2.6V776Z" transform="translate(326 119)"/>
    <path id="Path_632" data-name="Path 632" d="M137.309,757.24a.7.7,0,0,1-.274.588,1.183,1.183,0,0,1-.742.211,1.859,1.859,0,0,1-.781-.131v-.32a2.118,2.118,0,0,0,.383.117,1.984,1.984,0,0,0,.41.043.836.836,0,0,0,.5-.125.417.417,0,0,0,.168-.352.445.445,0,0,0-.061-.242.529.529,0,0,0-.2-.175,2.731,2.731,0,0,0-.424-.182,1.358,1.358,0,0,1-.57-.338.745.745,0,0,1-.17-.51.634.634,0,0,1,.248-.525,1.031,1.031,0,0,1,.656-.2,1.934,1.934,0,0,1,.783.156l-.1.289a1.773,1.773,0,0,0-.688-.149.664.664,0,0,0-.412.114.372.372,0,0,0-.148.314.493.493,0,0,0,.054.244.526.526,0,0,0,.184.174,2.415,2.415,0,0,0,.4.174,1.559,1.559,0,0,1,.618.344A.674.674,0,0,1,137.309,757.24Zm.859.76h-.324v-2.141h.324Zm-.352-2.721a.214.214,0,0,1,.055-.162.191.191,0,0,1,.137-.053.193.193,0,0,1,.135.053.213.213,0,0,1,.056.162.22.22,0,0,1-.056.164.2.2,0,0,1-.272,0A.224.224,0,0,1,137.816,755.279Zm1.731,2.492a1.12,1.12,0,0,0,.166-.011.976.976,0,0,0,.127-.028v.248a.553.553,0,0,1-.156.041,1.063,1.063,0,0,1-.184.018q-.621,0-.621-.654v-1.274h-.307v-.156l.307-.135.137-.457h.187v.5h.621v.252H139.2v1.26a.435.435,0,0,0,.092.3A.319.319,0,0,0,139.547,757.771Zm1.414,0a1.12,1.12,0,0,0,.166-.011.976.976,0,0,0,.127-.028v.248a.553.553,0,0,1-.156.041,1.063,1.063,0,0,1-.184.018q-.621,0-.621-.654v-1.274h-.307v-.156l.307-.135.137-.457h.187v.5h.621v.252h-.621v1.26a.435.435,0,0,0,.092.3A.319.319,0,0,0,140.961,757.771Zm1.047.229h-.324v-2.141h.324Zm-.352-2.721a.21.21,0,0,1,.055-.162.2.2,0,0,1,.271,0,.21.21,0,0,1,.057.162.216.216,0,0,1-.057.164.2.2,0,0,1-.271,0A.22.22,0,0,1,141.656,755.279Zm2.5,2.721v-1.385a.56.56,0,0,0-.119-.39.485.485,0,0,0-.373-.129.615.615,0,0,0-.492.181.919.919,0,0,0-.156.6V758H142.7v-2.141h.264l.053.293h.015a.661.661,0,0,1,.28-.244.9.9,0,0,1,.4-.088.81.81,0,0,1,.582.188.792.792,0,0,1,.195.6V758Zm2.744-2.141v.205l-.4.047a.684.684,0,0,1,.1.18.668.668,0,0,1,.043.248.632.632,0,0,1-.214.5.869.869,0,0,1-.59.188,1.02,1.02,0,0,1-.18-.016.319.319,0,0,0-.207.275.142.142,0,0,0,.072.131.544.544,0,0,0,.248.041h.379a.839.839,0,0,1,.533.147.506.506,0,0,1,.188.425.6.6,0,0,1-.285.541,1.521,1.521,0,0,1-.832.188,1.146,1.146,0,0,1-.649-.156.506.506,0,0,1-.226-.442.493.493,0,0,1,.125-.338.635.635,0,0,1,.351-.193.346.346,0,0,1-.138-.115.306.306,0,0,1-.055-.182.35.35,0,0,1,.062-.2.663.663,0,0,1,.2-.17.584.584,0,0,1-.272-.232.772.772,0,0,1,.108-.916.855.855,0,0,1,.6-.192,1.091,1.091,0,0,1,.3.039Zm-1.707,2.5a.291.291,0,0,0,.147.264.8.8,0,0,0,.42.09,1.157,1.157,0,0,0,.6-.123.371.371,0,0,0,.2-.33.262.262,0,0,0-.107-.242.834.834,0,0,0-.4-.067h-.389a.509.509,0,0,0-.344.106A.376.376,0,0,0,145.2,758.359Zm.176-1.814a.435.435,0,0,0,.127.34.506.506,0,0,0,.354.115.413.413,0,0,0,.474-.461.425.425,0,0,0-.48-.482.476.476,0,0,0-.352.123A.494.494,0,0,0,145.373,756.545Z" transform="translate(326 119)"/>
    <path id="Path_633" data-name="Path 633" d="M135.475,738.145v1.847a1.009,1.009,0,0,1-.3.768,1.133,1.133,0,0,1-.811.279,1.087,1.087,0,0,1-.8-.281,1.049,1.049,0,0,1-.281-.774v-1.839h.332v1.863a.736.736,0,0,0,.195.549.793.793,0,0,0,.575.191.762.762,0,0,0,.556-.191.746.746,0,0,0,.2-.553v-1.859Zm1.7,2.894a.939.939,0,0,1-.383-.076.729.729,0,0,1-.289-.238h-.024a2.8,2.8,0,0,1,.024.355v.881h-.324v-3.1h.263l.045.293h.016a.758.758,0,0,1,.291-.254.885.885,0,0,1,.381-.078.788.788,0,0,1,.656.291,1.548,1.548,0,0,1,0,1.637A.791.791,0,0,1,137.18,741.039Zm-.047-1.943a.576.576,0,0,0-.475.181.935.935,0,0,0-.15.578v.073a1.076,1.076,0,0,0,.15.646.573.573,0,0,0,.483.194.5.5,0,0,0,.433-.225,1.056,1.056,0,0,0,.158-.619,1.009,1.009,0,0,0-.158-.613A.511.511,0,0,0,137.133,739.1Zm2.48-.276a1.239,1.239,0,0,1,.256.024l-.045.3a1.07,1.07,0,0,0-.234-.03.574.574,0,0,0-.445.211.771.771,0,0,0-.184.526V741h-.324v-2.141h.267l.037.4h.016a.933.933,0,0,1,.287-.322A.643.643,0,0,1,139.613,738.82Zm.981,2.18h-.324v-2.141h.324Zm-.352-2.721a.21.21,0,0,1,.055-.162.2.2,0,0,1,.271,0,.21.21,0,0,1,.057.162.216.216,0,0,1-.057.164.2.2,0,0,1-.271,0A.22.22,0,0,1,140.242,738.279Zm2.791.58v.205l-.4.047a.684.684,0,0,1,.1.18.668.668,0,0,1,.043.248.63.63,0,0,1-.215.5.864.864,0,0,1-.589.188,1.02,1.02,0,0,1-.18-.016.319.319,0,0,0-.207.275.142.142,0,0,0,.072.131.544.544,0,0,0,.248.041h.379a.839.839,0,0,1,.533.147.506.506,0,0,1,.188.425.6.6,0,0,1-.285.541,1.52,1.52,0,0,1-.832.188,1.146,1.146,0,0,1-.649-.156.506.506,0,0,1-.226-.442.493.493,0,0,1,.125-.338.635.635,0,0,1,.351-.193.346.346,0,0,1-.138-.115.306.306,0,0,1-.055-.182.35.35,0,0,1,.062-.2.663.663,0,0,1,.2-.17.579.579,0,0,1-.272-.232.772.772,0,0,1,.108-.916.853.853,0,0,1,.6-.192,1.091,1.091,0,0,1,.3.039Zm-1.707,2.5a.291.291,0,0,0,.147.264.8.8,0,0,0,.42.09,1.157,1.157,0,0,0,.6-.123.371.371,0,0,0,.2-.33.262.262,0,0,0-.107-.242.834.834,0,0,0-.4-.067h-.389a.509.509,0,0,0-.344.106A.376.376,0,0,0,141.326,741.359Zm.176-1.814a.435.435,0,0,0,.127.34.505.505,0,0,0,.353.115.414.414,0,0,0,.475-.461.425.425,0,0,0-.48-.482.476.476,0,0,0-.352.123A.494.494,0,0,0,141.5,739.545ZM144.938,741v-1.385a.555.555,0,0,0-.12-.39.483.483,0,0,0-.373-.129.615.615,0,0,0-.494.183.935.935,0,0,0-.154.6V741h-.324v-3.039h.324v.92a1.9,1.9,0,0,1-.016.275h.02a.658.658,0,0,1,.271-.242.887.887,0,0,1,.4-.09.818.818,0,0,1,.587.188.777.777,0,0,1,.2.592V741Zm1.683-.229a1.121,1.121,0,0,0,.166-.011.977.977,0,0,0,.127-.028v.248a.553.553,0,0,1-.156.041,1.063,1.063,0,0,1-.184.018q-.621,0-.621-.654v-1.274h-.307v-.156l.307-.135.137-.457h.187v.5h.621v.252h-.621v1.26a.435.435,0,0,0,.092.3A.319.319,0,0,0,146.621,740.771Z" transform="translate(326 119)"/>
    <path id="Path_634" data-name="Path 634" d="M165.4,782h-.316v-2.035c0-.169.005-.33.016-.481-.028.028-.058.056-.092.086s-.189.157-.465.381l-.172-.222.756-.584h.273Zm2.965,0h-1.877v-.279l.752-.756a5.446,5.446,0,0,0,.453-.5,1.307,1.307,0,0,0,.165-.289.84.84,0,0,0,.054-.3.477.477,0,0,0-.138-.361.53.53,0,0,0-.385-.135.976.976,0,0,0-.338.058,1.379,1.379,0,0,0-.354.213l-.172-.22a1.318,1.318,0,0,1,.86-.328.907.907,0,0,1,.631.207.705.705,0,0,1,.228.552,1.074,1.074,0,0,1-.152.537,3.452,3.452,0,0,1-.57.672l-.625.612v.015h1.468Zm.514-.207a.29.29,0,0,1,.059-.2.214.214,0,0,1,.171-.069.224.224,0,0,1,.176.069.328.328,0,0,1,0,.392.228.228,0,0,1-.176.069.241.241,0,0,1-.166-.061A.273.273,0,0,1,168.875,781.793Zm0-1.725c0-.175.077-.263.23-.263s.241.088.241.263a.276.276,0,0,1-.065.2.231.231,0,0,1-.176.068.236.236,0,0,1-.166-.061A.272.272,0,0,1,168.875,780.068ZM171.041,782h-.316v-2.035c0-.169,0-.33.015-.481-.027.028-.058.056-.092.086s-.188.157-.464.381l-.172-.222.756-.584h.273Zm1.98-1.744a1.045,1.045,0,0,1,.709.224.763.763,0,0,1,.26.612.882.882,0,0,1-.283.7,1.123,1.123,0,0,1-.777.252,1.435,1.435,0,0,1-.737-.154v-.313a1.145,1.145,0,0,0,.34.139,1.746,1.746,0,0,0,.4.049.8.8,0,0,0,.533-.162.583.583,0,0,0,.191-.469q0-.6-.732-.6a2.892,2.892,0,0,0-.5.057l-.168-.108.107-1.335h1.42v.3h-1.143l-.072.858A2.272,2.272,0,0,1,173.021,780.256Z" transform="translate(326 119)"/>
    <path id="Path_635" data-name="Path 635" d="M182.4,782h-.316v-2.035c0-.169.005-.33.016-.481-.028.028-.058.056-.092.086s-.189.157-.465.381l-.172-.222.756-.584h.273Zm2.965,0h-1.877v-.279l.752-.756a5.446,5.446,0,0,0,.453-.5,1.307,1.307,0,0,0,.165-.289.84.84,0,0,0,.054-.3.477.477,0,0,0-.138-.361.53.53,0,0,0-.385-.135.976.976,0,0,0-.338.058,1.379,1.379,0,0,0-.354.213l-.172-.22a1.318,1.318,0,0,1,.86-.328.907.907,0,0,1,.631.207.705.705,0,0,1,.228.552,1.074,1.074,0,0,1-.152.537,3.452,3.452,0,0,1-.57.672l-.625.612v.015h1.468Zm.514-.207a.29.29,0,0,1,.059-.2.214.214,0,0,1,.171-.069.224.224,0,0,1,.176.069.328.328,0,0,1,0,.392.228.228,0,0,1-.176.069.241.241,0,0,1-.166-.061A.273.273,0,0,1,185.875,781.793Zm0-1.725c0-.175.077-.263.23-.263s.241.088.241.263a.276.276,0,0,1-.065.2.231.231,0,0,1-.176.068.236.236,0,0,1-.166-.061A.272.272,0,0,1,185.875,780.068Zm2.734-.252a.649.649,0,0,1-.154.448.759.759,0,0,1-.434.232v.016a.811.811,0,0,1,.51.218.644.644,0,0,1,.166.461.749.749,0,0,1-.283.629,1.292,1.292,0,0,1-.805.219,2.336,2.336,0,0,1-.416-.035,1.406,1.406,0,0,1-.365-.119v-.309a1.824,1.824,0,0,0,.793.188q.741,0,.74-.58,0-.521-.816-.52h-.281v-.279h.285a.86.86,0,0,0,.529-.147.486.486,0,0,0,.195-.41.4.4,0,0,0-.144-.328.591.591,0,0,0-.389-.119,1.191,1.191,0,0,0-.353.051,1.549,1.549,0,0,0-.379.187l-.164-.219a1.359,1.359,0,0,1,.4-.216,1.449,1.449,0,0,1,.484-.08.983.983,0,0,1,.647.191A.636.636,0,0,1,188.609,779.816Zm2.412.752a2.083,2.083,0,0,1-.234,1.106.862.862,0,0,1-1.414-.008,2.052,2.052,0,0,1-.24-1.1,2.084,2.084,0,0,1,.232-1.107.862.862,0,0,1,1.414.016A2.021,2.021,0,0,1,191.021,780.568Zm-1.56,0a2.114,2.114,0,0,0,.146.909.527.527,0,0,0,.936,0,2.1,2.1,0,0,0,.146-.905,2.068,2.068,0,0,0-.146-.9.527.527,0,0,0-.936,0A2.083,2.083,0,0,0,189.461,780.568Z" transform="translate(326 119)"/>
    <path id="Path_636" data-name="Path 636" d="M199.4,782h-.316v-2.035c0-.169.005-.33.016-.481-.028.028-.058.056-.092.086s-.189.157-.465.381l-.172-.222.756-.584h.273Zm2.965,0h-1.877v-.279l.752-.756a5.446,5.446,0,0,0,.453-.5,1.307,1.307,0,0,0,.165-.289.84.84,0,0,0,.054-.3.477.477,0,0,0-.138-.361.53.53,0,0,0-.385-.135.976.976,0,0,0-.338.058,1.379,1.379,0,0,0-.354.213l-.172-.22a1.318,1.318,0,0,1,.86-.328.907.907,0,0,1,.631.207.705.705,0,0,1,.228.552,1.074,1.074,0,0,1-.152.537,3.452,3.452,0,0,1-.57.672l-.625.612v.015h1.468Zm.514-.207a.29.29,0,0,1,.059-.2.214.214,0,0,1,.171-.069.224.224,0,0,1,.176.069.328.328,0,0,1,0,.392.228.228,0,0,1-.176.069.241.241,0,0,1-.166-.061A.273.273,0,0,1,202.875,781.793Zm0-1.725c0-.175.077-.263.23-.263s.241.088.241.263a.276.276,0,0,1-.065.2.231.231,0,0,1-.176.068.236.236,0,0,1-.166-.061A.272.272,0,0,1,202.875,780.068Zm2.977,1.276h-.424V782h-.311v-.656h-1.388v-.283l1.355-1.932h.344v1.92h.424Zm-.735-.295V780.1q0-.28.02-.631h-.016a2.777,2.777,0,0,1-.176.31l-.892,1.27Zm1.9-.793a1.045,1.045,0,0,1,.709.224.763.763,0,0,1,.26.612.882.882,0,0,1-.283.7,1.123,1.123,0,0,1-.777.252,1.435,1.435,0,0,1-.737-.154v-.313a1.145,1.145,0,0,0,.34.139,1.746,1.746,0,0,0,.4.049.8.8,0,0,0,.533-.162.583.583,0,0,0,.191-.469q0-.6-.732-.6a2.892,2.892,0,0,0-.5.057l-.168-.108.107-1.335h1.42v.3h-1.143l-.072.858A2.272,2.272,0,0,1,207.021,780.256Z" transform="translate(326 119)"/>
    <path id="Path_637" data-name="Path 637" d="M216.4,782h-.316v-2.035c0-.169.005-.33.016-.481-.028.028-.058.056-.092.086s-.189.157-.465.381l-.172-.222.756-.584h.273Zm2.858-2.184a.653.653,0,0,1-.154.448.762.762,0,0,1-.434.232v.016a.816.816,0,0,1,.51.218.649.649,0,0,1,.166.461.752.752,0,0,1-.283.629,1.292,1.292,0,0,1-.805.219,2.328,2.328,0,0,1-.416-.035,1.394,1.394,0,0,1-.365-.119v-.309a1.839,1.839,0,0,0,.394.141,1.863,1.863,0,0,0,.4.047q.739,0,.74-.58,0-.521-.817-.52h-.281v-.279h.285a.864.864,0,0,0,.53-.147.486.486,0,0,0,.195-.41.4.4,0,0,0-.145-.328.588.588,0,0,0-.388-.119,1.2,1.2,0,0,0-.354.051,1.566,1.566,0,0,0-.379.187l-.164-.219a1.353,1.353,0,0,1,.4-.216,1.445,1.445,0,0,1,.484-.08.98.98,0,0,1,.646.191A.637.637,0,0,1,219.254,779.816Zm.621,1.977a.29.29,0,0,1,.059-.2.214.214,0,0,1,.171-.069.224.224,0,0,1,.176.069.328.328,0,0,1,0,.392.228.228,0,0,1-.176.069.241.241,0,0,1-.166-.061A.273.273,0,0,1,219.875,781.793Zm0-1.725c0-.175.077-.263.23-.263s.241.088.241.263a.276.276,0,0,1-.065.2.231.231,0,0,1-.176.068.236.236,0,0,1-.166-.061A.272.272,0,0,1,219.875,780.068Zm2.857.5a2.083,2.083,0,0,1-.234,1.106.862.862,0,0,1-1.414-.008,2.052,2.052,0,0,1-.24-1.1,2.084,2.084,0,0,1,.232-1.107.862.862,0,0,1,1.414.016A2.021,2.021,0,0,1,222.732,780.568Zm-1.56,0a2.114,2.114,0,0,0,.146.909.527.527,0,0,0,.936,0,2.1,2.1,0,0,0,.146-.905,2.068,2.068,0,0,0-.146-.9.527.527,0,0,0-.936,0A2.083,2.083,0,0,0,221.172,780.568Zm3.849,0a2.083,2.083,0,0,1-.234,1.106.862.862,0,0,1-1.414-.008,2.052,2.052,0,0,1-.24-1.1,2.084,2.084,0,0,1,.232-1.107.862.862,0,0,1,1.414.016A2.021,2.021,0,0,1,225.021,780.568Zm-1.56,0a2.114,2.114,0,0,0,.146.909.527.527,0,0,0,.936,0,2.1,2.1,0,0,0,.146-.905,2.068,2.068,0,0,0-.146-.9.527.527,0,0,0-.936,0A2.083,2.083,0,0,0,223.461,780.568Z" transform="translate(326 119)"/>
    <path id="Path_638" data-name="Path 638" d="M233.4,782h-.316v-2.035c0-.169.005-.33.016-.481-.028.028-.058.056-.092.086s-.189.157-.465.381l-.172-.222.756-.584h.273Zm2.858-2.184a.653.653,0,0,1-.154.448.762.762,0,0,1-.434.232v.016a.816.816,0,0,1,.51.218.649.649,0,0,1,.166.461.752.752,0,0,1-.283.629,1.292,1.292,0,0,1-.805.219,2.328,2.328,0,0,1-.416-.035,1.394,1.394,0,0,1-.365-.119v-.309a1.839,1.839,0,0,0,.394.141,1.863,1.863,0,0,0,.4.047q.739,0,.74-.58,0-.521-.817-.52h-.281v-.279h.285a.864.864,0,0,0,.53-.147.486.486,0,0,0,.195-.41.4.4,0,0,0-.145-.328.588.588,0,0,0-.388-.119,1.2,1.2,0,0,0-.354.051,1.566,1.566,0,0,0-.379.187l-.164-.219a1.353,1.353,0,0,1,.4-.216,1.445,1.445,0,0,1,.484-.08.98.98,0,0,1,.646.191A.637.637,0,0,1,236.254,779.816Zm.621,1.977a.29.29,0,0,1,.059-.2.214.214,0,0,1,.171-.069.224.224,0,0,1,.176.069.328.328,0,0,1,0,.392.228.228,0,0,1-.176.069.241.241,0,0,1-.166-.061A.273.273,0,0,1,236.875,781.793Zm0-1.725c0-.175.077-.263.23-.263s.241.088.241.263a.276.276,0,0,1-.065.2.231.231,0,0,1-.176.068.236.236,0,0,1-.166-.061A.272.272,0,0,1,236.875,780.068ZM239.041,782h-.316v-2.035c0-.169,0-.33.015-.481-.027.028-.058.056-.092.086s-.188.157-.464.381l-.172-.222.756-.584h.273Zm1.98-1.744a1.045,1.045,0,0,1,.709.224.763.763,0,0,1,.26.612.882.882,0,0,1-.283.7,1.123,1.123,0,0,1-.777.252,1.435,1.435,0,0,1-.737-.154v-.313a1.145,1.145,0,0,0,.34.139,1.746,1.746,0,0,0,.4.049.8.8,0,0,0,.533-.162.583.583,0,0,0,.191-.469q0-.6-.732-.6a2.892,2.892,0,0,0-.5.057l-.168-.108.107-1.335h1.42v.3h-1.143l-.072.858A2.272,2.272,0,0,1,241.021,780.256Z" transform="translate(326 119)"/>
    <path id="Path_639" data-name="Path 639" d="M250.4,782h-.316v-2.035c0-.169.005-.33.016-.481-.028.028-.058.056-.092.086s-.189.157-.465.381l-.172-.222.756-.584h.273Zm2.858-2.184a.653.653,0,0,1-.154.448.762.762,0,0,1-.434.232v.016a.816.816,0,0,1,.51.218.649.649,0,0,1,.166.461.752.752,0,0,1-.283.629,1.292,1.292,0,0,1-.805.219,2.328,2.328,0,0,1-.416-.035,1.394,1.394,0,0,1-.365-.119v-.309a1.839,1.839,0,0,0,.394.141,1.863,1.863,0,0,0,.4.047q.739,0,.74-.58,0-.521-.817-.52h-.281v-.279h.285a.864.864,0,0,0,.53-.147.486.486,0,0,0,.195-.41.4.4,0,0,0-.145-.328.588.588,0,0,0-.388-.119,1.2,1.2,0,0,0-.354.051,1.566,1.566,0,0,0-.379.187l-.164-.219a1.353,1.353,0,0,1,.4-.216,1.445,1.445,0,0,1,.484-.08.98.98,0,0,1,.646.191A.637.637,0,0,1,253.254,779.816Zm.621,1.977a.29.29,0,0,1,.059-.2.214.214,0,0,1,.171-.069.224.224,0,0,1,.176.069.328.328,0,0,1,0,.392.228.228,0,0,1-.176.069.241.241,0,0,1-.166-.061A.273.273,0,0,1,253.875,781.793Zm0-1.725c0-.175.077-.263.23-.263s.241.088.241.263a.276.276,0,0,1-.065.2.231.231,0,0,1-.176.068.236.236,0,0,1-.166-.061A.272.272,0,0,1,253.875,780.068Zm2.734-.252a.648.648,0,0,1-.154.448.759.759,0,0,1-.434.232v.016a.811.811,0,0,1,.51.218.644.644,0,0,1,.166.461.749.749,0,0,1-.283.629,1.292,1.292,0,0,1-.805.219,2.336,2.336,0,0,1-.416-.035,1.406,1.406,0,0,1-.365-.119v-.309a1.824,1.824,0,0,0,.793.188q.741,0,.74-.58,0-.521-.816-.52h-.281v-.279h.285a.86.86,0,0,0,.529-.147.486.486,0,0,0,.2-.41.4.4,0,0,0-.144-.328.591.591,0,0,0-.389-.119,1.191,1.191,0,0,0-.353.051,1.549,1.549,0,0,0-.379.187l-.164-.219a1.359,1.359,0,0,1,.4-.216,1.449,1.449,0,0,1,.484-.08.983.983,0,0,1,.647.191A.636.636,0,0,1,256.609,779.816Zm2.412.752a2.083,2.083,0,0,1-.234,1.106.862.862,0,0,1-1.414-.008,2.052,2.052,0,0,1-.24-1.1,2.084,2.084,0,0,1,.232-1.107.862.862,0,0,1,1.414.016A2.021,2.021,0,0,1,259.021,780.568Zm-1.56,0a2.114,2.114,0,0,0,.146.909.527.527,0,0,0,.936,0,2.1,2.1,0,0,0,.146-.905,2.068,2.068,0,0,0-.146-.9.527.527,0,0,0-.936,0A2.083,2.083,0,0,0,257.461,780.568Z" transform="translate(326 119)"/>
    <path id="Path_640" data-name="Path 640" d="M267.4,782h-.316v-2.035c0-.169.005-.33.016-.481-.028.028-.058.056-.092.086s-.189.157-.465.381l-.172-.222.756-.584h.273Zm2.858-2.184a.653.653,0,0,1-.154.448.762.762,0,0,1-.434.232v.016a.816.816,0,0,1,.51.218.648.648,0,0,1,.166.461.751.751,0,0,1-.283.629,1.292,1.292,0,0,1-.8.219,2.328,2.328,0,0,1-.416-.035,1.394,1.394,0,0,1-.365-.119v-.309a1.84,1.84,0,0,0,.394.141,1.863,1.863,0,0,0,.4.047q.74,0,.74-.58,0-.521-.817-.52h-.281v-.279h.285a.864.864,0,0,0,.53-.147.486.486,0,0,0,.2-.41.4.4,0,0,0-.145-.328.588.588,0,0,0-.388-.119,1.2,1.2,0,0,0-.354.051,1.566,1.566,0,0,0-.379.187l-.164-.219a1.353,1.353,0,0,1,.4-.216,1.445,1.445,0,0,1,.484-.08.98.98,0,0,1,.646.191A.637.637,0,0,1,270.254,779.816Zm.621,1.977a.29.29,0,0,1,.059-.2.214.214,0,0,1,.171-.069.224.224,0,0,1,.176.069.328.328,0,0,1,0,.392.228.228,0,0,1-.176.069.241.241,0,0,1-.166-.061A.273.273,0,0,1,270.875,781.793Zm0-1.725c0-.175.077-.263.23-.263s.241.088.241.263a.276.276,0,0,1-.065.2.231.231,0,0,1-.176.068.236.236,0,0,1-.166-.061A.272.272,0,0,1,270.875,780.068Zm2.977,1.276h-.424V782h-.311v-.656h-1.388v-.283l1.355-1.932h.344v1.92h.424Zm-.735-.295V780.1q0-.28.02-.631h-.016a2.78,2.78,0,0,1-.176.31l-.892,1.27Zm1.9-.793a1.045,1.045,0,0,1,.709.224.763.763,0,0,1,.26.612.882.882,0,0,1-.283.7,1.123,1.123,0,0,1-.777.252,1.435,1.435,0,0,1-.737-.154v-.313a1.145,1.145,0,0,0,.34.139,1.746,1.746,0,0,0,.4.049.8.8,0,0,0,.533-.162.583.583,0,0,0,.191-.469q0-.6-.732-.6a2.892,2.892,0,0,0-.5.057l-.168-.108.107-1.335h1.42v.3h-1.143l-.072.858A2.272,2.272,0,0,1,275.021,780.256Z" transform="translate(326 119)"/>
    <path id="Path_641" data-name="Path 641" d="M284.4,782h-.316v-2.035c0-.169.005-.33.016-.481-.028.028-.058.056-.092.086s-.189.157-.465.381l-.172-.222.756-.584h.273Zm3.1-.656h-.424V782h-.31v-.656h-1.389v-.283l1.356-1.932h.343v1.92h.424Zm-.734-.295V780.1q0-.28.019-.631h-.015a2.944,2.944,0,0,1-.176.31l-.893,1.27Zm1.113.744a.29.29,0,0,1,.059-.2.214.214,0,0,1,.171-.069.224.224,0,0,1,.176.069.328.328,0,0,1,0,.392.228.228,0,0,1-.176.069.241.241,0,0,1-.166-.061A.273.273,0,0,1,287.875,781.793Zm0-1.725c0-.175.077-.263.23-.263s.241.088.241.263a.276.276,0,0,1-.065.2.231.231,0,0,1-.176.068.236.236,0,0,1-.166-.061A.272.272,0,0,1,287.875,780.068Zm2.857.5a2.083,2.083,0,0,1-.234,1.106.862.862,0,0,1-1.414-.008,2.052,2.052,0,0,1-.24-1.1,2.084,2.084,0,0,1,.232-1.107.862.862,0,0,1,1.414.016A2.021,2.021,0,0,1,290.732,780.568Zm-1.56,0a2.114,2.114,0,0,0,.146.909.527.527,0,0,0,.936,0,2.1,2.1,0,0,0,.146-.905,2.068,2.068,0,0,0-.146-.9.527.527,0,0,0-.936,0A2.083,2.083,0,0,0,289.172,780.568Zm3.849,0a2.083,2.083,0,0,1-.234,1.106.862.862,0,0,1-1.414-.008,2.052,2.052,0,0,1-.24-1.1,2.084,2.084,0,0,1,.232-1.107.862.862,0,0,1,1.414.016A2.021,2.021,0,0,1,293.021,780.568Zm-1.56,0a2.114,2.114,0,0,0,.146.909.527.527,0,0,0,.936,0,2.1,2.1,0,0,0,.146-.905,2.068,2.068,0,0,0-.146-.9.527.527,0,0,0-.936,0A2.083,2.083,0,0,0,291.461,780.568Z" transform="translate(326 119)"/>
    <path id="Path_642" data-name="Path 642" d="M301.4,782h-.316v-2.035c0-.169.005-.33.016-.481-.028.028-.058.056-.092.086s-.189.157-.465.381l-.172-.222.756-.584h.273Zm3.1-.656h-.424V782h-.31v-.656h-1.389v-.283l1.356-1.932h.343v1.92h.424Zm-.734-.295V780.1q0-.28.019-.631h-.015a2.944,2.944,0,0,1-.176.31l-.893,1.27Zm1.113.744a.29.29,0,0,1,.059-.2.214.214,0,0,1,.171-.069.224.224,0,0,1,.176.069.328.328,0,0,1,0,.392.228.228,0,0,1-.176.069.241.241,0,0,1-.166-.061A.273.273,0,0,1,304.875,781.793Zm0-1.725c0-.175.077-.263.23-.263s.241.088.241.263a.276.276,0,0,1-.065.2.231.231,0,0,1-.176.068.236.236,0,0,1-.166-.061A.272.272,0,0,1,304.875,780.068ZM307.041,782h-.316v-2.035c0-.169.005-.33.015-.481-.027.028-.058.056-.092.086s-.188.157-.464.381l-.172-.222.756-.584h.273Zm1.98-1.744a1.045,1.045,0,0,1,.709.224.763.763,0,0,1,.26.612.882.882,0,0,1-.283.7,1.123,1.123,0,0,1-.777.252,1.435,1.435,0,0,1-.737-.154v-.313a1.145,1.145,0,0,0,.34.139,1.746,1.746,0,0,0,.4.049.8.8,0,0,0,.533-.162.583.583,0,0,0,.191-.469q0-.6-.732-.6a2.892,2.892,0,0,0-.5.057l-.168-.108.107-1.335h1.42v.3h-1.143l-.072.858A2.272,2.272,0,0,1,309.021,780.256Z" transform="translate(326 119)"/>
    <path id="Path_643" data-name="Path 643" d="M318.4,782h-.316v-2.035c0-.169.005-.33.016-.481-.028.028-.058.056-.092.086s-.189.157-.465.381l-.172-.222.756-.584h.273Zm3.1-.656h-.424V782h-.31v-.656h-1.389v-.283l1.356-1.932h.343v1.92h.424Zm-.734-.295V780.1q0-.28.019-.631h-.015a2.944,2.944,0,0,1-.176.31l-.893,1.27Zm1.113.744a.29.29,0,0,1,.059-.2.214.214,0,0,1,.171-.069.224.224,0,0,1,.176.069.328.328,0,0,1,0,.392.228.228,0,0,1-.176.069.241.241,0,0,1-.166-.061A.273.273,0,0,1,321.875,781.793Zm0-1.725c0-.175.077-.263.23-.263s.241.088.241.263a.276.276,0,0,1-.065.2.231.231,0,0,1-.176.068.236.236,0,0,1-.166-.061A.272.272,0,0,1,321.875,780.068Zm2.734-.252a.648.648,0,0,1-.154.448.759.759,0,0,1-.434.232v.016a.811.811,0,0,1,.51.218.644.644,0,0,1,.166.461.749.749,0,0,1-.283.629,1.292,1.292,0,0,1-.8.219,2.336,2.336,0,0,1-.416-.035,1.406,1.406,0,0,1-.365-.119v-.309a1.824,1.824,0,0,0,.793.188q.741,0,.74-.58,0-.521-.816-.52h-.281v-.279h.285a.86.86,0,0,0,.529-.147.486.486,0,0,0,.2-.41.4.4,0,0,0-.144-.328.591.591,0,0,0-.389-.119,1.191,1.191,0,0,0-.353.051,1.549,1.549,0,0,0-.379.187l-.164-.219a1.36,1.36,0,0,1,.4-.216,1.45,1.45,0,0,1,.484-.08.983.983,0,0,1,.647.191A.636.636,0,0,1,324.609,779.816Zm2.412.752a2.083,2.083,0,0,1-.234,1.106.862.862,0,0,1-1.414-.008,2.052,2.052,0,0,1-.24-1.1,2.084,2.084,0,0,1,.232-1.107.862.862,0,0,1,1.414.016A2.021,2.021,0,0,1,327.021,780.568Zm-1.56,0a2.114,2.114,0,0,0,.146.909.527.527,0,0,0,.936,0,2.1,2.1,0,0,0,.146-.905,2.068,2.068,0,0,0-.146-.9.527.527,0,0,0-.936,0A2.083,2.083,0,0,0,325.461,780.568Z" transform="translate(326 119)"/>
    <path id="Path_644" data-name="Path 644" d="M335.4,782h-.316v-2.035c0-.169.005-.33.016-.481-.028.028-.058.056-.092.086s-.189.157-.465.381l-.172-.222.756-.584h.273Zm3.1-.656h-.424V782h-.31v-.656h-1.389v-.283l1.356-1.932h.343v1.92h.424Zm-.734-.295V780.1q0-.28.019-.631h-.015a2.944,2.944,0,0,1-.176.31l-.893,1.27Zm1.113.744a.29.29,0,0,1,.059-.2.214.214,0,0,1,.171-.069.224.224,0,0,1,.176.069.328.328,0,0,1,0,.392.228.228,0,0,1-.176.069.241.241,0,0,1-.166-.061A.273.273,0,0,1,338.875,781.793Zm0-1.725c0-.175.077-.263.23-.263s.241.088.241.263a.276.276,0,0,1-.065.2.231.231,0,0,1-.176.068.236.236,0,0,1-.166-.061A.272.272,0,0,1,338.875,780.068Zm2.977,1.276h-.424V782h-.311v-.656h-1.388v-.283l1.355-1.932h.344v1.92h.424Zm-.735-.295V780.1q0-.28.02-.631h-.016a2.78,2.78,0,0,1-.176.31l-.892,1.27Zm1.9-.793a1.045,1.045,0,0,1,.709.224.763.763,0,0,1,.26.612.882.882,0,0,1-.283.7,1.123,1.123,0,0,1-.777.252,1.435,1.435,0,0,1-.737-.154v-.313a1.145,1.145,0,0,0,.34.139,1.746,1.746,0,0,0,.4.049.8.8,0,0,0,.533-.162.583.583,0,0,0,.191-.469q0-.6-.732-.6a2.892,2.892,0,0,0-.5.057l-.168-.108.107-1.335h1.42v.3h-1.143l-.072.858A2.272,2.272,0,0,1,343.021,780.256Z" transform="translate(326 119)"/>
    <path id="Path_645" data-name="Path 645" d="M352.4,782h-.316v-2.035c0-.169.005-.33.016-.481-.028.028-.058.056-.092.086s-.189.157-.465.381l-.172-.222.756-.584h.273Zm1.981-1.744a1.047,1.047,0,0,1,.709.224.766.766,0,0,1,.26.612.883.883,0,0,1-.284.7,1.121,1.121,0,0,1-.777.252,1.431,1.431,0,0,1-.736-.154v-.313a1.123,1.123,0,0,0,.34.139,1.737,1.737,0,0,0,.4.049.8.8,0,0,0,.533-.162.58.58,0,0,0,.192-.469q0-.6-.733-.6a2.9,2.9,0,0,0-.5.057l-.168-.108.108-1.335h1.42v.3H354l-.072.858A2.265,2.265,0,0,1,354.377,780.256Zm1.5,1.537a.29.29,0,0,1,.059-.2.214.214,0,0,1,.171-.069.224.224,0,0,1,.176.069.328.328,0,0,1,0,.392.228.228,0,0,1-.176.069.241.241,0,0,1-.166-.061A.273.273,0,0,1,355.875,781.793Zm0-1.725c0-.175.077-.263.23-.263s.241.088.241.263a.276.276,0,0,1-.065.2.231.231,0,0,1-.176.068.236.236,0,0,1-.166-.061A.272.272,0,0,1,355.875,780.068Zm2.857.5a2.083,2.083,0,0,1-.234,1.106.862.862,0,0,1-1.414-.008,2.052,2.052,0,0,1-.24-1.1,2.084,2.084,0,0,1,.232-1.107.862.862,0,0,1,1.414.016A2.021,2.021,0,0,1,358.732,780.568Zm-1.56,0a2.114,2.114,0,0,0,.146.909.527.527,0,0,0,.936,0,2.1,2.1,0,0,0,.146-.905,2.068,2.068,0,0,0-.146-.9.527.527,0,0,0-.936,0A2.083,2.083,0,0,0,357.172,780.568Zm3.849,0a2.083,2.083,0,0,1-.234,1.106.862.862,0,0,1-1.414-.008,2.052,2.052,0,0,1-.24-1.1,2.084,2.084,0,0,1,.232-1.107.862.862,0,0,1,1.414.016A2.021,2.021,0,0,1,361.021,780.568Zm-1.56,0a2.114,2.114,0,0,0,.146.909.527.527,0,0,0,.936,0,2.1,2.1,0,0,0,.146-.905,2.068,2.068,0,0,0-.146-.9.527.527,0,0,0-.936,0A2.083,2.083,0,0,0,359.461,780.568Z" transform="translate(326 119)"/>
    <path id="Path_646" data-name="Path 646" d="M369.4,782h-.316v-2.035c0-.169.005-.33.016-.481-.028.028-.058.056-.092.086s-.189.157-.465.381l-.172-.222.756-.584h.273Zm1.981-1.744a1.047,1.047,0,0,1,.709.224.766.766,0,0,1,.26.612.883.883,0,0,1-.284.7,1.121,1.121,0,0,1-.777.252,1.431,1.431,0,0,1-.736-.154v-.313a1.123,1.123,0,0,0,.34.139,1.737,1.737,0,0,0,.4.049.8.8,0,0,0,.533-.162.58.58,0,0,0,.192-.469q0-.6-.733-.6a2.9,2.9,0,0,0-.5.057l-.168-.108.108-1.335h1.42v.3H371l-.072.858A2.265,2.265,0,0,1,371.377,780.256Zm1.5,1.537a.29.29,0,0,1,.059-.2.214.214,0,0,1,.171-.069.224.224,0,0,1,.176.069.328.328,0,0,1,0,.392.228.228,0,0,1-.176.069.241.241,0,0,1-.166-.061A.273.273,0,0,1,372.875,781.793Zm0-1.725c0-.175.077-.263.23-.263s.241.088.241.263a.276.276,0,0,1-.065.2.231.231,0,0,1-.176.068.236.236,0,0,1-.166-.061A.272.272,0,0,1,372.875,780.068ZM375.041,782h-.316v-2.035c0-.169.005-.33.015-.481-.027.028-.058.056-.092.086s-.188.157-.464.381l-.172-.222.756-.584h.273Zm1.98-1.744a1.045,1.045,0,0,1,.709.224.763.763,0,0,1,.26.612.882.882,0,0,1-.283.7,1.123,1.123,0,0,1-.777.252,1.435,1.435,0,0,1-.737-.154v-.313a1.145,1.145,0,0,0,.34.139,1.746,1.746,0,0,0,.4.049.8.8,0,0,0,.533-.162.583.583,0,0,0,.191-.469q0-.6-.732-.6a2.892,2.892,0,0,0-.5.057l-.168-.108.107-1.335h1.42v.3h-1.143l-.072.858A2.272,2.272,0,0,1,377.021,780.256Z" transform="translate(326 119)"/>
    <path id="Path_647" data-name="Path 647" d="M386.4,782h-.316v-2.035c0-.169.005-.33.016-.481-.028.028-.058.056-.092.086s-.189.157-.465.381l-.172-.222.756-.584h.273Zm1.981-1.744a1.047,1.047,0,0,1,.709.224.766.766,0,0,1,.26.612.883.883,0,0,1-.284.7,1.121,1.121,0,0,1-.777.252,1.431,1.431,0,0,1-.736-.154v-.313a1.123,1.123,0,0,0,.34.139,1.737,1.737,0,0,0,.4.049.8.8,0,0,0,.533-.162.58.58,0,0,0,.192-.469q0-.6-.733-.6a2.9,2.9,0,0,0-.5.057l-.168-.108.108-1.335h1.42v.3H388l-.072.858A2.265,2.265,0,0,1,388.377,780.256Zm1.5,1.537a.29.29,0,0,1,.059-.2.214.214,0,0,1,.171-.069.224.224,0,0,1,.176.069.328.328,0,0,1,0,.392.228.228,0,0,1-.176.069.241.241,0,0,1-.166-.061A.273.273,0,0,1,389.875,781.793Zm0-1.725c0-.175.077-.263.23-.263s.241.088.241.263a.276.276,0,0,1-.065.2.231.231,0,0,1-.176.068.236.236,0,0,1-.166-.061A.272.272,0,0,1,389.875,780.068Zm2.734-.252a.648.648,0,0,1-.154.448.759.759,0,0,1-.434.232v.016a.811.811,0,0,1,.51.218.644.644,0,0,1,.166.461.749.749,0,0,1-.283.629,1.292,1.292,0,0,1-.8.219,2.336,2.336,0,0,1-.416-.035,1.406,1.406,0,0,1-.365-.119v-.309a1.824,1.824,0,0,0,.793.188q.741,0,.74-.58,0-.521-.816-.52h-.281v-.279h.285a.86.86,0,0,0,.529-.147.486.486,0,0,0,.2-.41.4.4,0,0,0-.144-.328.591.591,0,0,0-.389-.119,1.191,1.191,0,0,0-.353.051,1.549,1.549,0,0,0-.379.187l-.164-.219a1.36,1.36,0,0,1,.4-.216,1.45,1.45,0,0,1,.484-.08.983.983,0,0,1,.647.191A.636.636,0,0,1,392.609,779.816Zm2.412.752a2.083,2.083,0,0,1-.234,1.106.862.862,0,0,1-1.414-.008,2.052,2.052,0,0,1-.24-1.1,2.084,2.084,0,0,1,.232-1.107.862.862,0,0,1,1.414.016A2.021,2.021,0,0,1,395.021,780.568Zm-1.56,0a2.114,2.114,0,0,0,.146.909.527.527,0,0,0,.936,0,2.1,2.1,0,0,0,.146-.905,2.068,2.068,0,0,0-.146-.9.527.527,0,0,0-.936,0A2.083,2.083,0,0,0,393.461,780.568Z" transform="translate(326 119)"/>
    <path id="Path_648" data-name="Path 648" d="M403.4,782h-.316v-2.035c0-.169.005-.33.016-.481-.028.028-.058.056-.092.086s-.189.157-.465.381l-.172-.222.756-.584h.273Zm1.981-1.744a1.047,1.047,0,0,1,.709.224.766.766,0,0,1,.26.612.883.883,0,0,1-.284.7,1.121,1.121,0,0,1-.777.252,1.431,1.431,0,0,1-.736-.154v-.313a1.123,1.123,0,0,0,.34.139,1.737,1.737,0,0,0,.4.049.8.8,0,0,0,.533-.162.58.58,0,0,0,.192-.469q0-.6-.733-.6a2.9,2.9,0,0,0-.5.057l-.168-.108.108-1.335h1.42v.3H405l-.072.858A2.265,2.265,0,0,1,405.377,780.256Zm1.5,1.537a.29.29,0,0,1,.059-.2.214.214,0,0,1,.171-.069.224.224,0,0,1,.176.069.328.328,0,0,1,0,.392.228.228,0,0,1-.176.069.241.241,0,0,1-.166-.061A.273.273,0,0,1,406.875,781.793Zm0-1.725c0-.175.077-.263.23-.263s.241.088.241.263a.276.276,0,0,1-.065.2.231.231,0,0,1-.176.068.236.236,0,0,1-.166-.061A.272.272,0,0,1,406.875,780.068Zm2.977,1.276h-.424V782h-.311v-.656h-1.388v-.283l1.355-1.932h.344v1.92h.424Zm-.735-.295V780.1q0-.28.02-.631h-.016a2.78,2.78,0,0,1-.176.31l-.892,1.27Zm1.9-.793a1.045,1.045,0,0,1,.709.224.763.763,0,0,1,.26.612.882.882,0,0,1-.283.7,1.123,1.123,0,0,1-.777.252,1.435,1.435,0,0,1-.737-.154v-.313a1.145,1.145,0,0,0,.34.139,1.746,1.746,0,0,0,.4.049.8.8,0,0,0,.533-.162.583.583,0,0,0,.191-.469q0-.6-.732-.6a2.892,2.892,0,0,0-.5.057l-.168-.108.107-1.335h1.42v.3h-1.143l-.072.858A2.272,2.272,0,0,1,411.021,780.256Z" transform="translate(326 119)"/>
    <path id="Path_649" data-name="Path 649" d="M420.4,782h-.316v-2.035c0-.169.005-.33.016-.481-.028.028-.058.056-.092.086s-.189.157-.465.381l-.172-.222.756-.584h.273Zm1.122-1.221a2.019,2.019,0,0,1,.326-1.258,1.156,1.156,0,0,1,.968-.417,1.277,1.277,0,0,1,.348.037v.279a1.1,1.1,0,0,0-.344-.049.867.867,0,0,0-.7.287,1.463,1.463,0,0,0-.265.9h.023a.748.748,0,0,1,.68-.336.794.794,0,0,1,.6.232.871.871,0,0,1,.223.631.975.975,0,0,1-.244.7.866.866,0,0,1-.657.254.848.848,0,0,1-.7-.332A1.48,1.48,0,0,1,421.518,780.779Zm.959.985a.54.54,0,0,0,.429-.174.743.743,0,0,0,.155-.506.65.65,0,0,0-.143-.445.538.538,0,0,0-.426-.162.721.721,0,0,0-.322.072.591.591,0,0,0-.234.2.461.461,0,0,0-.086.264.906.906,0,0,0,.078.375.662.662,0,0,0,.22.275A.558.558,0,0,0,422.477,781.764Zm1.4.029a.29.29,0,0,1,.059-.2.214.214,0,0,1,.171-.069.224.224,0,0,1,.176.069.328.328,0,0,1,0,.392.228.228,0,0,1-.176.069.241.241,0,0,1-.166-.061A.273.273,0,0,1,423.875,781.793Zm0-1.725c0-.175.077-.263.23-.263s.241.088.241.263a.276.276,0,0,1-.065.2.231.231,0,0,1-.176.068.236.236,0,0,1-.166-.061A.272.272,0,0,1,423.875,780.068Zm2.857.5a2.083,2.083,0,0,1-.234,1.106.862.862,0,0,1-1.414-.008,2.052,2.052,0,0,1-.24-1.1,2.084,2.084,0,0,1,.232-1.107.862.862,0,0,1,1.414.016A2.021,2.021,0,0,1,426.732,780.568Zm-1.56,0a2.114,2.114,0,0,0,.146.909.527.527,0,0,0,.936,0,2.1,2.1,0,0,0,.146-.905,2.068,2.068,0,0,0-.146-.9.527.527,0,0,0-.936,0A2.083,2.083,0,0,0,425.172,780.568Zm3.849,0a2.083,2.083,0,0,1-.234,1.106.862.862,0,0,1-1.414-.008,2.052,2.052,0,0,1-.24-1.1,2.084,2.084,0,0,1,.232-1.107.862.862,0,0,1,1.414.016A2.021,2.021,0,0,1,429.021,780.568Zm-1.56,0a2.114,2.114,0,0,0,.146.909.527.527,0,0,0,.936,0,2.1,2.1,0,0,0,.146-.905,2.068,2.068,0,0,0-.146-.9.527.527,0,0,0-.936,0A2.083,2.083,0,0,0,427.461,780.568Z" transform="translate(326 119)"/>
    <path id="Path_650" data-name="Path 650" d="M437.4,782h-.316v-2.035c0-.169.005-.33.016-.481-.028.028-.058.056-.092.086s-.189.157-.465.381l-.172-.222.756-.584h.273Zm1.122-1.221a2.019,2.019,0,0,1,.326-1.258,1.156,1.156,0,0,1,.968-.417,1.277,1.277,0,0,1,.348.037v.279a1.1,1.1,0,0,0-.344-.049.867.867,0,0,0-.7.287,1.463,1.463,0,0,0-.265.9h.023a.748.748,0,0,1,.68-.336.794.794,0,0,1,.6.232.871.871,0,0,1,.223.631.975.975,0,0,1-.244.7.866.866,0,0,1-.657.254.848.848,0,0,1-.7-.332A1.48,1.48,0,0,1,438.518,780.779Zm.959.985a.54.54,0,0,0,.429-.174.743.743,0,0,0,.155-.506.65.65,0,0,0-.143-.445.538.538,0,0,0-.426-.162.721.721,0,0,0-.322.072.591.591,0,0,0-.234.2.461.461,0,0,0-.086.264.906.906,0,0,0,.078.375.662.662,0,0,0,.22.275A.558.558,0,0,0,439.477,781.764Zm1.4.029a.29.29,0,0,1,.059-.2.214.214,0,0,1,.171-.069.224.224,0,0,1,.176.069.328.328,0,0,1,0,.392.228.228,0,0,1-.176.069.241.241,0,0,1-.166-.061A.273.273,0,0,1,440.875,781.793Zm0-1.725c0-.175.077-.263.23-.263s.241.088.241.263a.276.276,0,0,1-.065.2.231.231,0,0,1-.176.068.236.236,0,0,1-.166-.061A.272.272,0,0,1,440.875,780.068ZM443.041,782h-.316v-2.035c0-.169.005-.33.015-.481-.027.028-.058.056-.092.086s-.188.157-.464.381l-.172-.222.756-.584h.273Zm1.98-1.744a1.045,1.045,0,0,1,.709.224.763.763,0,0,1,.26.612.882.882,0,0,1-.283.7,1.123,1.123,0,0,1-.777.252,1.435,1.435,0,0,1-.737-.154v-.313a1.145,1.145,0,0,0,.34.139,1.746,1.746,0,0,0,.4.049.8.8,0,0,0,.533-.162.583.583,0,0,0,.191-.469q0-.6-.732-.6a2.892,2.892,0,0,0-.5.057l-.168-.108.107-1.335h1.42v.3h-1.143l-.072.858A2.272,2.272,0,0,1,445.021,780.256Z" transform="translate(326 119)"/>
    <path id="Path_651" data-name="Path 651" d="M454.4,782h-.316v-2.035c0-.169.005-.33.016-.481-.028.028-.058.056-.092.086s-.189.157-.465.381l-.172-.222.756-.584h.273Zm1.122-1.221a2.019,2.019,0,0,1,.326-1.258,1.156,1.156,0,0,1,.968-.417,1.277,1.277,0,0,1,.348.037v.279a1.1,1.1,0,0,0-.344-.049.867.867,0,0,0-.7.287,1.463,1.463,0,0,0-.265.9h.023a.748.748,0,0,1,.68-.336.794.794,0,0,1,.6.232.871.871,0,0,1,.223.631.975.975,0,0,1-.244.7.866.866,0,0,1-.657.254.848.848,0,0,1-.7-.332A1.48,1.48,0,0,1,455.518,780.779Zm.959.985a.54.54,0,0,0,.429-.174.743.743,0,0,0,.155-.506.65.65,0,0,0-.143-.445.538.538,0,0,0-.426-.162.721.721,0,0,0-.322.072.591.591,0,0,0-.234.2.461.461,0,0,0-.086.264.906.906,0,0,0,.078.375.662.662,0,0,0,.22.275A.558.558,0,0,0,456.477,781.764Zm1.4.029a.29.29,0,0,1,.059-.2.214.214,0,0,1,.171-.069.224.224,0,0,1,.176.069.328.328,0,0,1,0,.392.228.228,0,0,1-.176.069.241.241,0,0,1-.166-.061A.273.273,0,0,1,457.875,781.793Zm0-1.725c0-.175.077-.263.23-.263s.241.088.241.263a.276.276,0,0,1-.065.2.231.231,0,0,1-.176.068.236.236,0,0,1-.166-.061A.272.272,0,0,1,457.875,780.068Zm2.734-.252a.648.648,0,0,1-.154.448.759.759,0,0,1-.434.232v.016a.811.811,0,0,1,.51.218.644.644,0,0,1,.166.461.749.749,0,0,1-.283.629,1.292,1.292,0,0,1-.8.219,2.336,2.336,0,0,1-.416-.035,1.406,1.406,0,0,1-.365-.119v-.309a1.824,1.824,0,0,0,.793.188q.741,0,.74-.58,0-.521-.816-.52h-.281v-.279h.285a.86.86,0,0,0,.529-.147.486.486,0,0,0,.2-.41.4.4,0,0,0-.144-.328.591.591,0,0,0-.389-.119,1.191,1.191,0,0,0-.353.051,1.549,1.549,0,0,0-.379.187l-.164-.219a1.36,1.36,0,0,1,.4-.216,1.45,1.45,0,0,1,.484-.08.983.983,0,0,1,.647.191A.636.636,0,0,1,460.609,779.816Zm2.412.752a2.083,2.083,0,0,1-.234,1.106.862.862,0,0,1-1.414-.008,2.052,2.052,0,0,1-.24-1.1,2.084,2.084,0,0,1,.232-1.107.862.862,0,0,1,1.414.016A2.021,2.021,0,0,1,463.021,780.568Zm-1.56,0a2.114,2.114,0,0,0,.146.909.527.527,0,0,0,.936,0,2.1,2.1,0,0,0,.146-.905,2.068,2.068,0,0,0-.146-.9.527.527,0,0,0-.936,0A2.083,2.083,0,0,0,461.461,780.568Z" transform="translate(326 119)"/>
    <path id="Path_652" data-name="Path 652" d="M471.4,782h-.316v-2.035c0-.169.005-.33.016-.481-.028.028-.058.056-.092.086s-.189.157-.465.381l-.172-.222.756-.584h.273Zm1.122-1.221a2.019,2.019,0,0,1,.326-1.258,1.156,1.156,0,0,1,.968-.417,1.277,1.277,0,0,1,.348.037v.279a1.1,1.1,0,0,0-.344-.049.867.867,0,0,0-.7.287,1.463,1.463,0,0,0-.265.9h.023a.748.748,0,0,1,.68-.336.794.794,0,0,1,.6.232.871.871,0,0,1,.223.631.975.975,0,0,1-.244.7.866.866,0,0,1-.657.254.848.848,0,0,1-.7-.332A1.48,1.48,0,0,1,472.518,780.779Zm.959.985a.54.54,0,0,0,.429-.174.743.743,0,0,0,.155-.506.65.65,0,0,0-.143-.445.538.538,0,0,0-.426-.162.721.721,0,0,0-.322.072.591.591,0,0,0-.234.2.461.461,0,0,0-.086.264.906.906,0,0,0,.078.375.662.662,0,0,0,.22.275A.558.558,0,0,0,473.477,781.764Zm1.4.029a.29.29,0,0,1,.059-.2.214.214,0,0,1,.171-.069.224.224,0,0,1,.176.069.328.328,0,0,1,0,.392.228.228,0,0,1-.176.069.241.241,0,0,1-.166-.061A.273.273,0,0,1,474.875,781.793Zm0-1.725c0-.175.077-.263.23-.263s.241.088.241.263a.276.276,0,0,1-.065.2.231.231,0,0,1-.176.068.236.236,0,0,1-.166-.061A.272.272,0,0,1,474.875,780.068Zm2.977,1.276h-.424V782h-.311v-.656h-1.388v-.283l1.355-1.932h.344v1.92h.424Zm-.735-.295V780.1q0-.28.02-.631h-.016a2.78,2.78,0,0,1-.176.31l-.892,1.27Zm1.9-.793a1.045,1.045,0,0,1,.709.224.763.763,0,0,1,.26.612.882.882,0,0,1-.283.7,1.123,1.123,0,0,1-.777.252,1.435,1.435,0,0,1-.737-.154v-.313a1.145,1.145,0,0,0,.34.139,1.746,1.746,0,0,0,.4.049.8.8,0,0,0,.533-.162.583.583,0,0,0,.191-.469q0-.6-.732-.6a2.892,2.892,0,0,0-.5.057l-.168-.108.107-1.335h1.42v.3h-1.143l-.072.858A2.272,2.272,0,0,1,479.021,780.256Z" transform="translate(326 119)"/>
    <path id="Path_653" data-name="Path 653" d="M488.4,782h-.316v-2.035c0-.169.005-.33.016-.481-.028.028-.058.056-.092.086s-.189.157-.465.381l-.172-.222.756-.584h.273Zm1.45,0,1.183-2.557h-1.556v-.3h1.9v.259L490.2,782Zm2.029-.207a.29.29,0,0,1,.059-.2.214.214,0,0,1,.171-.069.224.224,0,0,1,.176.069.328.328,0,0,1,0,.392.228.228,0,0,1-.176.069.241.241,0,0,1-.166-.061A.273.273,0,0,1,491.875,781.793Zm0-1.725c0-.175.077-.263.23-.263s.241.088.241.263a.276.276,0,0,1-.065.2.231.231,0,0,1-.176.068.236.236,0,0,1-.166-.061A.272.272,0,0,1,491.875,780.068Zm2.857.5a2.083,2.083,0,0,1-.234,1.106.862.862,0,0,1-1.414-.008,2.052,2.052,0,0,1-.24-1.1,2.084,2.084,0,0,1,.232-1.107.862.862,0,0,1,1.414.016A2.021,2.021,0,0,1,494.732,780.568Zm-1.56,0a2.114,2.114,0,0,0,.146.909.527.527,0,0,0,.936,0,2.1,2.1,0,0,0,.146-.905,2.068,2.068,0,0,0-.146-.9.527.527,0,0,0-.936,0A2.083,2.083,0,0,0,493.172,780.568Zm3.849,0a2.083,2.083,0,0,1-.234,1.106.862.862,0,0,1-1.414-.008,2.052,2.052,0,0,1-.24-1.1,2.084,2.084,0,0,1,.232-1.107.862.862,0,0,1,1.414.016A2.021,2.021,0,0,1,497.021,780.568Zm-1.56,0a2.114,2.114,0,0,0,.146.909.527.527,0,0,0,.936,0,2.1,2.1,0,0,0,.146-.905,2.068,2.068,0,0,0-.146-.9.527.527,0,0,0-.936,0A2.083,2.083,0,0,0,495.461,780.568Z" transform="translate(326 119)"/>
    <path id="Path_654" data-name="Path 654" d="M505.4,782h-.316v-2.035c0-.169.005-.33.016-.481-.028.028-.058.056-.092.086s-.189.157-.465.381l-.172-.222.756-.584h.273Zm1.45,0,1.183-2.557h-1.556v-.3h1.9v.259L507.2,782Zm2.029-.207a.29.29,0,0,1,.059-.2.214.214,0,0,1,.171-.069.224.224,0,0,1,.176.069.328.328,0,0,1,0,.392.228.228,0,0,1-.176.069.241.241,0,0,1-.166-.061A.273.273,0,0,1,508.875,781.793Zm0-1.725c0-.175.077-.263.23-.263s.241.088.241.263a.276.276,0,0,1-.065.2.231.231,0,0,1-.176.068.236.236,0,0,1-.166-.061A.272.272,0,0,1,508.875,780.068ZM511.041,782h-.316v-2.035c0-.169.005-.33.015-.481-.027.028-.058.056-.092.086s-.188.157-.464.381l-.172-.222.756-.584h.273Zm1.98-1.744a1.045,1.045,0,0,1,.709.224.763.763,0,0,1,.26.612.882.882,0,0,1-.283.7,1.123,1.123,0,0,1-.777.252,1.435,1.435,0,0,1-.737-.154v-.313a1.145,1.145,0,0,0,.34.139,1.746,1.746,0,0,0,.4.049.8.8,0,0,0,.533-.162.583.583,0,0,0,.191-.469q0-.6-.732-.6a2.892,2.892,0,0,0-.5.057l-.168-.108.107-1.335h1.42v.3h-1.143l-.072.858A2.273,2.273,0,0,1,513.021,780.256Z" transform="translate(326 119)"/>
    <path id="Path_655" data-name="Path 655" d="M522.4,782h-.316v-2.035c0-.169.005-.33.016-.481-.028.028-.058.056-.092.086s-.189.157-.465.381l-.172-.222.756-.584h.273Zm1.45,0,1.183-2.557h-1.556v-.3h1.9v.259l-1.168,2.6Zm2.029-.207a.29.29,0,0,1,.059-.2.214.214,0,0,1,.171-.069.224.224,0,0,1,.176.069.328.328,0,0,1,0,.392.228.228,0,0,1-.176.069.241.241,0,0,1-.166-.061A.273.273,0,0,1,525.875,781.793Zm0-1.725c0-.175.077-.263.23-.263s.241.088.241.263a.276.276,0,0,1-.065.2.231.231,0,0,1-.176.068.236.236,0,0,1-.166-.061A.271.271,0,0,1,525.875,780.068Zm2.734-.252a.649.649,0,0,1-.154.448.759.759,0,0,1-.434.232v.016a.811.811,0,0,1,.51.218.644.644,0,0,1,.166.461.749.749,0,0,1-.283.629,1.292,1.292,0,0,1-.8.219,2.336,2.336,0,0,1-.416-.035,1.406,1.406,0,0,1-.365-.119v-.309a1.824,1.824,0,0,0,.793.188q.741,0,.74-.58,0-.521-.816-.52h-.281v-.279h.285a.86.86,0,0,0,.529-.147.486.486,0,0,0,.2-.41.4.4,0,0,0-.144-.328.591.591,0,0,0-.389-.119,1.191,1.191,0,0,0-.353.051,1.549,1.549,0,0,0-.379.187l-.164-.219a1.36,1.36,0,0,1,.4-.216,1.45,1.45,0,0,1,.484-.08.983.983,0,0,1,.647.191A.636.636,0,0,1,528.609,779.816Zm2.412.752a2.083,2.083,0,0,1-.234,1.106.862.862,0,0,1-1.414-.008,2.052,2.052,0,0,1-.24-1.1,2.084,2.084,0,0,1,.232-1.107.862.862,0,0,1,1.414.016A2.021,2.021,0,0,1,531.021,780.568Zm-1.56,0a2.114,2.114,0,0,0,.146.909.527.527,0,0,0,.936,0,2.1,2.1,0,0,0,.146-.905,2.069,2.069,0,0,0-.146-.9.527.527,0,0,0-.936,0A2.083,2.083,0,0,0,529.461,780.568Z" transform="translate(326 119)"/>
    <path id="Path_656" data-name="Path 656" d="M539.4,782h-.316v-2.035c0-.169.005-.33.016-.481-.028.028-.058.056-.092.086s-.189.157-.465.381l-.172-.222.756-.584h.273Zm1.45,0,1.183-2.557h-1.556v-.3h1.9v.259l-1.168,2.6Zm2.029-.207a.29.29,0,0,1,.059-.2.214.214,0,0,1,.171-.069.224.224,0,0,1,.176.069.328.328,0,0,1,0,.392.228.228,0,0,1-.176.069.241.241,0,0,1-.166-.061A.273.273,0,0,1,542.875,781.793Zm0-1.725c0-.175.077-.263.23-.263s.241.088.241.263a.276.276,0,0,1-.065.2.231.231,0,0,1-.176.068.236.236,0,0,1-.166-.061A.271.271,0,0,1,542.875,780.068Zm2.977,1.276h-.424V782h-.311v-.656h-1.388v-.283l1.355-1.932h.344v1.92h.424Zm-.735-.295V780.1q0-.28.02-.631h-.016a2.77,2.77,0,0,1-.176.31l-.892,1.27Zm1.9-.793a1.045,1.045,0,0,1,.709.224.763.763,0,0,1,.26.612.882.882,0,0,1-.283.7,1.123,1.123,0,0,1-.777.252,1.435,1.435,0,0,1-.737-.154v-.313a1.145,1.145,0,0,0,.34.139,1.746,1.746,0,0,0,.4.049.8.8,0,0,0,.533-.162.583.583,0,0,0,.191-.469q0-.6-.732-.6a2.892,2.892,0,0,0-.5.057l-.168-.108.107-1.335h1.42v.3h-1.143l-.072.858A2.273,2.273,0,0,1,547.021,780.256Z" transform="translate(326 119)"/>
    <path id="Path_657" data-name="Path 657" d="M556.4,782h-.316v-2.035c0-.169.005-.33.016-.481-.028.028-.058.056-.092.086s-.189.157-.465.381l-.172-.222.756-.584h.273Zm2.034-2.9a.97.97,0,0,1,.619.181.607.607,0,0,1,.228.5.62.62,0,0,1-.131.385,1.15,1.15,0,0,1-.417.316,1.4,1.4,0,0,1,.494.35.656.656,0,0,1,.146.422.712.712,0,0,1-.248.568,1.014,1.014,0,0,1-.68.211,1.092,1.092,0,0,1-.7-.2.694.694,0,0,1-.246-.569.846.846,0,0,1,.6-.763,1.111,1.111,0,0,1-.387-.328.708.708,0,0,1-.117-.4.6.6,0,0,1,.228-.494A.952.952,0,0,1,558.43,779.1Zm-.618,2.175a.446.446,0,0,0,.163.366.719.719,0,0,0,.459.13.683.683,0,0,0,.453-.136.464.464,0,0,0,.162-.375.451.451,0,0,0-.153-.336,1.523,1.523,0,0,0-.531-.287,1.146,1.146,0,0,0-.422.277A.533.533,0,0,0,557.812,781.279Zm.614-1.912a.575.575,0,0,0-.383.117.391.391,0,0,0-.139.313.443.443,0,0,0,.116.308,1.191,1.191,0,0,0,.425.258,1.05,1.05,0,0,0,.4-.252.464.464,0,0,0,.117-.314.379.379,0,0,0-.143-.313A.587.587,0,0,0,558.426,779.367Zm1.449,2.426a.29.29,0,0,1,.059-.2.214.214,0,0,1,.171-.069.224.224,0,0,1,.176.069.328.328,0,0,1,0,.392.228.228,0,0,1-.176.069.241.241,0,0,1-.166-.061A.273.273,0,0,1,559.875,781.793Zm0-1.725c0-.175.077-.263.23-.263s.241.088.241.263a.276.276,0,0,1-.065.2.231.231,0,0,1-.176.068.236.236,0,0,1-.166-.061A.271.271,0,0,1,559.875,780.068Zm2.857.5a2.083,2.083,0,0,1-.234,1.106.862.862,0,0,1-1.414-.008,2.052,2.052,0,0,1-.24-1.1,2.084,2.084,0,0,1,.232-1.107.862.862,0,0,1,1.414.016A2.021,2.021,0,0,1,562.732,780.568Zm-1.56,0a2.114,2.114,0,0,0,.146.909.527.527,0,0,0,.936,0,2.1,2.1,0,0,0,.146-.905,2.069,2.069,0,0,0-.146-.9.527.527,0,0,0-.936,0A2.083,2.083,0,0,0,561.172,780.568Zm3.849,0a2.083,2.083,0,0,1-.234,1.106.862.862,0,0,1-1.414-.008,2.052,2.052,0,0,1-.24-1.1,2.084,2.084,0,0,1,.232-1.107.862.862,0,0,1,1.414.016A2.021,2.021,0,0,1,565.021,780.568Zm-1.56,0a2.114,2.114,0,0,0,.146.909.527.527,0,0,0,.936,0,2.1,2.1,0,0,0,.146-.905,2.069,2.069,0,0,0-.146-.9.527.527,0,0,0-.936,0A2.083,2.083,0,0,0,563.461,780.568Z" transform="translate(326 119)"/>
  </g>
</svg>
