<svg xmlns="http://www.w3.org/2000/svg" width="28.838" height="16.584" viewBox="0 0 28.838 16.584">
  <g id="Group_1" data-name="Group 1" transform="translate(-199.193 -258.846)">
    <path id="Path_682" data-name="Path 682" d="M170.01,147.273a4.752,4.752,0,0,1,4.651,4.848,4.928,4.928,0,0,1-1.467,3.532h0l-.563.562a4.03,4.03,0,0,1-.8-.028.228.228,0,0,0-.036-.033c-.021-.015-.377-.334-.477-.425-.157-.144-.484-.434-.536-.475a.168.168,0,0,0-.142-.049H170.6c-.076.008-.147.066-.672.5-.26.21-.465.379-.579.472-.058.048-.126.1-.151.117l-.045.03-.374-.015c-.206-.007-.516-.015-.688-.017h0c-.312,0-.312,0-.358.028a.284.284,0,0,0-.069.062,1.651,1.651,0,0,0-.078.449,2.333,2.333,0,0,1-.036.258c-.008.041-.024.145-.034.234-.005.038-.01.083-.015.126s-.014.11-.018.145c-.027.2-.05.379-.076.588a1.534,1.534,0,0,1-.032.213c-.018.012-.045-.117-.054-.247-.005-.076-.022-.242-.036-.37s-.034-.306-.043-.393c-.006-.061-.015-.143-.023-.216,0-.034-.007-.066-.01-.092-.036-.329-.074-.686-.089-.837-.009-.089-.019-.191-.024-.228s-.019-.192-.035-.344-.034-.318-.044-.367a1.251,1.251,0,0,1-.016-.187.824.824,0,0,0-.015-.156,2.094,2.094,0,0,1-.036-.287c-.011-.126-.026-.272-.035-.326s-.026-.185-.034-.289c-.038-.41-.052-.555-.078-.757-.015-.116-.034-.3-.045-.413s-.022-.269-.032-.35c0-.029-.008-.069-.013-.115l-.029-.273,0-.031c-.014-.121-.028-.236-.033-.264-.008-.066-.019-.165-.043-.443-.01-.112-.026-.248-.034-.3s-.021-.162-.026-.24c-.014-.184-.033-.237-.107-.283a.187.187,0,0,0-.2-.013c-.085.039-.1.067-.117.214-.005.04-.012.093-.018.146s-.011.092-.015.127c-.01.074-.024.217-.029.317a.7.7,0,0,1-.026.189.294.294,0,0,0-.014.117,5.109,5.109,0,0,1-.052.565c-.01.084-.027.236-.036.338-.008.084-.017.177-.022.227,0,.01,0,.019,0,.025,0,.029-.011.116-.019.211,0,.026-.005.052-.007.078-.01.122-.026.277-.036.345s-.031.3-.05.517-.046.493-.06.615-.033.308-.043.412c0,.029-.006.062-.01.1-.008.093-.019.2-.026.267s-.013.131-.02.2c-.005.05-.009.1-.013.135s-.006.05-.009.077c-.008.079-.018.165-.025.218-.009.072-.021.178-.026.237l-.012.107-.047-.025a1.333,1.333,0,0,0-.313-.057l-.267-.032-.031-.05c-.017-.028-.077-.13-.134-.229s-.114-.2-.126-.215l-.02-.034c-.017-.031-.043-.074-.066-.114-.034-.061-.076-.133-.093-.16s-.036-.061-.043-.076a.276.276,0,0,0-.158-.1.252.252,0,0,0-.262.169c-.029.067-.117.245-.289.595-.018.035-.042.085-.062.127l-.017.036a.2.2,0,0,1-.055.084c-.011,0-.162,0-.334-.006-.474-.017-.482-.012-.587.256-.011.026-.021.015-.072-.078a.657.657,0,0,0-.112-.153l-.055-.045-.412,0a2.531,2.531,0,0,1-.435-.009,1.976,1.976,0,0,1-.25-.075l-.05-.016c-.035-.01-.07-.021-.089-.028L161,156.07l-.009,0-.17-.055c-.034-.01-.12-.039-.191-.064a.533.533,0,0,0-.439,0c-.174.067-.41.156-.713.267l-.043.016-.583-.582h0a4.929,4.929,0,0,1-1.468-3.532,4.752,4.752,0,0,1,4.651-4.848,4.613,4.613,0,0,1,3.986,2.35A4.613,4.613,0,0,1,170.01,147.273Zm-10.339,9.2-.174.066-.181.068-1.6-.01-1.605-.009-.043.047a.377.377,0,0,1-.175.117.738.738,0,0,1-.429,0,.465.465,0,0,1-.215-.166.533.533,0,0,0-.038-.058c-.038-.053.007-.187.086-.267a.558.558,0,0,1,.432-.133.51.51,0,0,1,.31.115l.072.06.682.007c.377.005,1.076.009,1.554.01h.871l.222-.081Zm0,0c.171-.065.362-.136.554-.207l.187-.07.221.069c.122.038.315.1.432.14s.27.09.341.112l.129.041.329-.009.33-.009.081.139c.045.077.1.162.112.189s.046.08.069.117c.086.152.167.2.292.173s.159-.079.209-.272c.027-.107.05-.192.072-.258s.024-.068.081-.073c.033,0,.177,0,.318.011.248.014.262.014.339-.01.107-.033.143-.077.245-.291l.091-.191c0-.006.016-.031.032-.064s.021-.045.034-.069a.372.372,0,0,1,.068-.115,2.626,2.626,0,0,1,.252.414c.1.174.1.178.172.229a.325.325,0,0,0,.2.06c.389.045.415.048.434.067a2.658,2.658,0,0,1,.177.222.276.276,0,0,0,.243.142c.16,0,.2-.058.22-.308.012-.157.033-.379.058-.627.006-.045.018-.167.026-.271l.035-.351c.008-.088.026-.268.036-.4a2.814,2.814,0,0,1,.034-.293.64.64,0,0,0,.017-.168,1.067,1.067,0,0,1,.018-.2c.008-.046.026-.174.036-.286s.026-.272.034-.357.023-.234.031-.333c.035-.377.054-.562.066-.621s.012-.058.025.053v0c.014.11.038.34.053.484,0,.022,0,.041.006.058.019.194.043.415.067.6.014.108.026.235.026.283a1.113,1.113,0,0,0,.017.178c.009.051.024.184.035.3s.025.249.034.307.024.2.034.326c.019.234.03.347.087.831.018.166.041.39.051.5s.021.224.026.256c.012.075.055.44.077.674.031.316.052.507.069.652.033.253.054.445.069.621,0,.015,0,.03,0,.045.008.084.016.173.02.214v.006c.006.052.022.2.035.338s.035.3.043.351a1.214,1.214,0,0,1,.018.209.374.374,0,0,0,.081.273.362.362,0,0,0,.093.048l.063.023.069-.036a.336.336,0,0,0,.09-.062,1.656,1.656,0,0,0,.077-.455c.014-.125.038-.305.052-.4s.038-.269.051-.388.03-.24.035-.27c.05-.331.105-.735.127-.942l0-.019c.011-.087.031-.249.049-.375.006-.042.011-.079.015-.112.026-.188.033-.237.054-.411,0-.024.006-.051.009-.077.008-.064.015-.127.02-.16l.012-.083h.131c.072,0,.351.007.621.014a2.268,2.268,0,0,0,.553-.006,1.1,1.1,0,0,0,.249-.17l.118-.1.237-.191c.043-.034.1-.077.119-.1s.045-.038.078-.064l.049-.041c.048-.037.167-.133.265-.213l.179-.145.036.025c.019.014.071.059.114.1.076.073.6.543.675.6.02.018.063.056.1.087a.937.937,0,0,0,.112.086l.055.03.641,0-5.844,5.829a.645.645,0,0,1-.993-.032Zm12.678.029.284-.283,1.5.01c1.333.007,1.562.006,1.579-.009a.541.541,0,0,1,.444-.177.381.381,0,0,1,.208.033.494.494,0,0,1,.262.248c.029.054.022.082-.047.181a.38.38,0,0,1-.149.137.672.672,0,0,1-.508.035.628.628,0,0,1-.2-.139c-.014-.016-.244-.02-2.012-.028Z" transform="translate(44 111.574)" fill="#36a0ff" fill-rule="evenodd"/>
    <path id="Path_683" data-name="Path 683" d="M174.718,163.857v-4.582h1.014v1.839h2.1v-1.839h1.021v4.582h-1.021v-1.9h-2.1v1.9Zm5.315,0v-4.582h2.08a1.755,1.755,0,0,1,1.2.37,1.275,1.275,0,0,1,.423,1.021,1.369,1.369,0,0,1-.195.741,1.246,1.246,0,0,1-.546.474,1.99,1.99,0,0,1-.845.163l.078-.143h.266a.845.845,0,0,1,.494.149,1.1,1.1,0,0,1,.364.436l.683,1.371h-1.118l-.709-1.475a.408.408,0,0,0-.247-.247,1.016,1.016,0,0,0-.377-.065h-.533v1.787Zm1.014-2.515h.891a.96.96,0,0,0,.6-.163.571.571,0,0,0,.208-.481.553.553,0,0,0-.208-.474.966.966,0,0,0-.6-.163h-.891Z" transform="translate(44 111.574)" fill="#36a0ff"/>
  </g>
</svg>
