<svg xmlns="http://www.w3.org/2000/svg" width="35.625" height="14" viewBox="0 0 35.625 14">
  <path id="Path_421" data-name="Path 421" d="M46.125,538.884a7.97,7.97,0,0,1-2.318-.316A5.7,5.7,0,0,1,42,537.634l.527-1.234a5.428,5.428,0,0,0,2.228,1.039,7.356,7.356,0,0,0,1.37.12,3.046,3.046,0,0,0,1.852-.451,1.418,1.418,0,0,0,.6-1.19,1.2,1.2,0,0,0-.421-.978,3.325,3.325,0,0,0-1.445-.557l-1.641-.331a4.464,4.464,0,0,1-2.183-.979,2.513,2.513,0,0,1-.708-1.882,2.843,2.843,0,0,1,.512-1.686,3.294,3.294,0,0,1,1.415-1.114A5.416,5.416,0,0,1,46.245,528a6.258,6.258,0,0,1,2.077.331,4.1,4.1,0,0,1,1.6.949l-.512,1.189a4.459,4.459,0,0,0-1.445-.858,4.97,4.97,0,0,0-1.746-.286,3.044,3.044,0,0,0-1.822.481,1.548,1.548,0,0,0-.647,1.31,1.346,1.346,0,0,0,.406,1.039,2.994,2.994,0,0,0,1.385.572l1.641.316a4.717,4.717,0,0,1,2.243.979,2.28,2.28,0,0,1,.723,1.791,2.693,2.693,0,0,1-.5,1.611,3.174,3.174,0,0,1-1.385,1.084A5.554,5.554,0,0,1,46.125,538.884ZM52.184,542v-9.017q0-.436-.045-.888c-.02-.311-.045-.623-.075-.934h1.475l.151,1.716h-.166a2.368,2.368,0,0,1,.963-1.354,3.045,3.045,0,0,1,1.746-.5,3.189,3.189,0,0,1,1.761.482,3.036,3.036,0,0,1,1.159,1.339,4.814,4.814,0,0,1,.422,2.108,4.871,4.871,0,0,1-.422,2.107,3.025,3.025,0,0,1-1.159,1.355,3.275,3.275,0,0,1-1.761.467A3.1,3.1,0,0,1,54.5,538.4a2.369,2.369,0,0,1-.963-1.34H53.7V542Zm3.673-4.3A1.965,1.965,0,0,0,57.437,537a3.039,3.039,0,0,0,.6-2.047,2.978,2.978,0,0,0-.6-2.032,1.965,1.965,0,0,0-1.581-.693,2.01,2.01,0,0,0-1.6.693,3.031,3.031,0,0,0-.587,2.032A3.093,3.093,0,0,0,54.261,537,2.01,2.01,0,0,0,55.857,537.7Zm5.525-4.261a6.6,6.6,0,0,1,.587-2.89,4.307,4.307,0,0,1,1.7-1.882A5.208,5.208,0,0,1,66.35,528a5.1,5.1,0,0,1,2.649.662,4.4,4.4,0,0,1,1.716,1.882,6.292,6.292,0,0,1,.617,2.875,6.427,6.427,0,0,1-.617,2.906,4.467,4.467,0,0,1-1.731,1.9,5.065,5.065,0,0,1-2.634.662,5.126,5.126,0,0,1-2.665-.662,4.5,4.5,0,0,1-1.716-1.9A6.667,6.667,0,0,1,61.382,533.434Zm1.641,0a4.794,4.794,0,0,0,.843,3.011,2.953,2.953,0,0,0,2.484,1.084,3.006,3.006,0,0,0,2.469-1.069,4.7,4.7,0,0,0,.873-3.026,4.637,4.637,0,0,0-.873-3.01,3.4,3.4,0,0,0-4.953,0A4.754,4.754,0,0,0,63.023,533.434Zm10.236,8.319V541l2.168-2.2a4.472,4.472,0,0,0,.617-.828,1.677,1.677,0,0,0,.2-.783q0-.978-1.114-.978a2.485,2.485,0,0,0-.9.181,2.534,2.534,0,0,0-.828.481l-.331-.783a3.226,3.226,0,0,1,.979-.557,3.728,3.728,0,0,1,1.264-.21,2.164,2.164,0,0,1,1.49.481,1.6,1.6,0,0,1,.542,1.28,2.185,2.185,0,0,1-.256,1.009,3.962,3.962,0,0,1-.783,1.038l-1.867,1.882v-.15h3.191v.888Z" transform="translate(-42 -528)" fill="#36a0ff"/>
</svg>
