<svg xmlns="http://www.w3.org/2000/svg" width="21" height="27" viewBox="0 0 21 27">
  <g id="Group_35" data-name="Group 35" transform="translate(-368 -750)">
    <path id="Path_540" data-name="Path 540" d="M53.667,646.219V635.5a4.67,4.67,0,0,0-9.333,0v10.719A6.631,6.631,0,0,0,42,651.25a7,7,0,0,0,14,0A6.631,6.631,0,0,0,53.667,646.219ZM49,655.75a4.586,4.586,0,0,1-4.667-4.5,4.414,4.414,0,0,1,1.556-3.355l.777-.67V635.5a2.335,2.335,0,0,1,4.667,0v11.725l.777.67a4.414,4.414,0,0,1,1.556,3.355A4.586,4.586,0,0,1,49,655.75Z" transform="translate(326 119)" fill="#36a0ff"/>
    <path id="Path_541" data-name="Path 541" d="M50,638.154a1.01,1.01,0,1,0-2,0V652h2Z" transform="translate(326 119)" fill="#36a0ff"/>
    <path id="Path_542" data-name="Path 542" d="M49,654a3,3,0,1,0-3-3A3,3,0,0,0,49,654Z" transform="translate(326 119)" fill="#36a0ff"/>
    <path id="Path_543" data-name="Path 543" d="M60.163,633.9H58.468l-.009-.731h1.423a2.112,2.112,0,0,0,.616-.075.741.741,0,0,0,.358-.224.551.551,0,0,0,.122-.362.614.614,0,0,0-.118-.391.651.651,0,0,0-.358-.217,2.357,2.357,0,0,0-.621-.067H58.94v4.338H57.58V631h2.3a5.584,5.584,0,0,1,1.029.085,2.606,2.606,0,0,1,.775.26,1.292,1.292,0,0,1,.485.44,1.138,1.138,0,0,1,.168.625,1.02,1.02,0,0,1-.186.59,1.281,1.281,0,0,1-.576.441,2.787,2.787,0,0,1-1.02.188Zm-.059,2.271H58.1l.53-.832H60.1a1.6,1.6,0,0,0,.585-.089.727.727,0,0,0,.335-.248.613.613,0,0,0,.109-.359.752.752,0,0,0-.1-.394.6.6,0,0,0-.308-.256,1.422,1.422,0,0,0-.562-.093h-1.31l.009-.731h1.631l.313.287a2.232,2.232,0,0,1,.97.167,1.194,1.194,0,0,1,.539.444,1.084,1.084,0,0,1,.172.587,1.288,1.288,0,0,1-.276.838A1.673,1.673,0,0,1,61.4,636,4.262,4.262,0,0,1,60.1,636.173Zm2.9,4.568v.245a2.627,2.627,0,0,1-.2,1.059,2.269,2.269,0,0,1-.575.8,2.58,2.58,0,0,1-.888.5,3.8,3.8,0,0,1-2.275,0,2.636,2.636,0,0,1-.888-.5,2.292,2.292,0,0,1-.585-.8,2.627,2.627,0,0,1-.2-1.059v-.245a2.612,2.612,0,0,1,.2-1.058,2.268,2.268,0,0,1,.576-.8,2.6,2.6,0,0,1,.888-.5,3.8,3.8,0,0,1,2.275,0,2.541,2.541,0,0,1,.888.5,2.243,2.243,0,0,1,.58.8A2.563,2.563,0,0,1,63,640.741Zm-1.373.245v-.252a2.5,2.5,0,0,0-.1-.725,1.413,1.413,0,0,0-.281-.525,1.164,1.164,0,0,0-.453-.32,1.757,1.757,0,0,0-1.224,0,1.171,1.171,0,0,0-.449.32,1.452,1.452,0,0,0-.276.525,2.5,2.5,0,0,0-.1.725v.252a2.518,2.518,0,0,0,.1.725,1.452,1.452,0,0,0,.281.53,1.2,1.2,0,0,0,.453.323,1.756,1.756,0,0,0,1.223,0,1.165,1.165,0,0,0,.449-.323,1.492,1.492,0,0,0,.276-.53A2.512,2.512,0,0,0,61.627,640.986Zm-2.021,9.738H58.169l.009-.831h1.427a1.966,1.966,0,0,0,.9-.188,1.26,1.26,0,0,0,.553-.558,1.9,1.9,0,0,0,.19-.885v-.252a2.062,2.062,0,0,0-.109-.7,1.3,1.3,0,0,0-.313-.508,1.327,1.327,0,0,0-.512-.309,2.1,2.1,0,0,0-.7-.107H58.142v-.834h1.477a3.923,3.923,0,0,1,1.21.177,2.866,2.866,0,0,1,.956.5,2.254,2.254,0,0,1,.843,1.787v.245a2.25,2.25,0,0,1-.843,1.787,2.88,2.88,0,0,1-.956.5A4.061,4.061,0,0,1,59.606,650.724Zm-.666-5.172v5.172H57.58v-5.172Zm-.453,7.275,1.378,2.359,1.378-2.359h1.482l-2.171,3.29V658H59.175v-1.883L57,652.827Z" transform="translate(326 119)" fill="#36a0ff"/>
  </g>
</svg>
