<svg xmlns="http://www.w3.org/2000/svg" xmlns:xlink="http://www.w3.org/1999/xlink" width="39" height="28" viewBox="0 0 39 28">
  <defs>
    <clipPath id="clip-path">
      <rect id="Rectangle_106" data-name="Rectangle 106" width="39" height="28" transform="translate(42 575)" fill="#fff"/>
    </clipPath>
  </defs>
  <g id="Group_24" data-name="Group 24" transform="translate(-42 -575)" clip-path="url(#clip-path)">
    <path id="Path_480" data-name="Path 480" d="M63.866,596.764a40.215,40.215,0,0,0-3.507-9.926c-.76-1.486-1.24-2.713-2.752-2.713a2.64,2.64,0,0,0-2.408,2.823v2.583l-1.13-.942a.646.646,0,0,1-.18-.247.828.828,0,0,1-.065-.324v-7.331a.63.63,0,0,0-.55-.687h-.55a.63.63,0,0,0-.55.687v7.331a.745.745,0,0,1-.245.571l-1.13.942v-2.583a2.64,2.64,0,0,0-2.408-2.823c-1.512,0-1.991,1.227-2.752,2.713a40.215,40.215,0,0,0-3.507,9.926A6.1,6.1,0,0,0,42,598.037c0,2.631,2.148,4.531,4.305,3.808l2.045-.685a3.924,3.924,0,0,0,2.45-3.808v-3.759l-2.951,2.459a.252.252,0,0,1-.1.051.217.217,0,0,1-.107,0,.241.241,0,0,1-.1-.052.312.312,0,0,1-.076-.1l-.305-.572a.385.385,0,0,1-.041-.123.434.434,0,0,1,0-.135.388.388,0,0,1,.041-.123.312.312,0,0,1,.076-.095l5.761-4.8,5.761,4.8a.312.312,0,0,1,.076.095.388.388,0,0,1,.041.123.434.434,0,0,1,0,.135.385.385,0,0,1-.041.123l-.305.572a.312.312,0,0,1-.076.1.254.254,0,0,1-.1.052.217.217,0,0,1-.107,0,.251.251,0,0,1-.1-.051L55.2,593.593v3.759a3.924,3.924,0,0,0,2.45,3.808l2.045.685c2.157.723,4.305-1.177,4.305-3.808A6.1,6.1,0,0,0,63.866,596.764Z" fill="#36a0ff"/>
    <path id="Path_481" data-name="Path 481" d="M66.468,602v-4.583h2.08a1.757,1.757,0,0,1,1.2.371,1.275,1.275,0,0,1,.422,1.02,1.37,1.37,0,0,1-.195.741,1.25,1.25,0,0,1-.546.475,2,2,0,0,1-.845.162l.078-.143h.267a.841.841,0,0,1,.494.15,1.115,1.115,0,0,1,.364.435L70.465,602H69.348l-.709-1.476a.411.411,0,0,0-.247-.247,1.018,1.018,0,0,0-.377-.065h-.533V602Zm1.014-2.516h.89a.969.969,0,0,0,.6-.162.573.573,0,0,0,.208-.481.556.556,0,0,0-.208-.475.968.968,0,0,0-.6-.162h-.89ZM71.32,602v-4.583H73.4a1.757,1.757,0,0,1,1.2.371,1.275,1.275,0,0,1,.423,1.02,1.37,1.37,0,0,1-.195.741,1.25,1.25,0,0,1-.546.475,2,2,0,0,1-.845.162l.078-.143h.267a.841.841,0,0,1,.494.15,1.115,1.115,0,0,1,.364.435L75.318,602H74.2l-.709-1.476a.411.411,0,0,0-.247-.247,1.018,1.018,0,0,0-.377-.065h-.533V602Zm1.014-2.516h.891a.969.969,0,0,0,.6-.162.573.573,0,0,0,.208-.481.556.556,0,0,0-.208-.475.968.968,0,0,0-.6-.162h-.891Z" fill="#36a0ff"/>
  </g>
</svg>
