<svg xmlns="http://www.w3.org/2000/svg" xmlns:xlink="http://www.w3.org/1999/xlink" width="41" height="24" viewBox="0 0 41 24">
  <defs>
    <clipPath id="clip-path">
      <rect id="Rectangle_99" data-name="Rectangle 99" width="41" height="24" transform="translate(40 467)" fill="#fff"/>
    </clipPath>
  </defs>
  <g id="Group_23" data-name="Group 23" transform="translate(-40 -467)" clip-path="url(#clip-path)">
    <path id="Path_359" data-name="Path 359" d="M62.373,470.272a6.473,6.473,0,0,1,6.334,6.6,6.712,6.712,0,0,1-2,4.811h0l-.766.765a5.5,5.5,0,0,1-1.088-.038.329.329,0,0,0-.049-.046c-.028-.02-.513-.454-.649-.578-.213-.2-.659-.591-.729-.647a.231.231,0,0,0-.195-.067.545.545,0,0,0-.059,0c-.1.011-.2.09-.917.674-.354.286-.633.516-.788.643-.08.066-.171.138-.206.159l-.061.041-.509-.02c-.281-.01-.7-.021-.938-.024-.353,0-.412,0-.459.021l-.029.018a.419.419,0,0,0-.094.083,2.279,2.279,0,0,0-.105.612c-.014.138-.035.3-.049.352s-.033.2-.047.319c-.006.052-.014.113-.021.172-.009.076-.018.149-.024.2-.037.274-.068.517-.1.8a2.147,2.147,0,0,1-.045.29c-.023.016-.061-.16-.073-.337-.007-.1-.03-.329-.049-.5s-.047-.418-.059-.537c-.008-.081-.02-.194-.031-.292l-.014-.127c-.049-.447-.1-.933-.122-1.139-.012-.121-.026-.26-.033-.31s-.026-.262-.047-.47-.047-.432-.061-.5a1.785,1.785,0,0,1-.021-.255,1.07,1.07,0,0,0-.021-.213,3.011,3.011,0,0,1-.049-.39c-.014-.171-.035-.371-.047-.444s-.035-.252-.047-.394c-.052-.558-.07-.756-.105-1.031-.021-.158-.047-.409-.061-.562s-.03-.367-.044-.477l-.017-.157c-.012-.115-.027-.255-.04-.371l0-.043c-.019-.164-.038-.321-.044-.359-.012-.089-.026-.225-.059-.6-.014-.152-.035-.337-.047-.41s-.028-.222-.035-.327c-.019-.252-.044-.324-.145-.386a.257.257,0,0,0-.272-.018c-.115.053-.136.092-.159.291-.006.055-.015.128-.024.2s-.015.125-.021.173c-.014.1-.033.295-.04.433a.857.857,0,0,1-.035.256.414.414,0,0,0-.019.16,6.862,6.862,0,0,1-.07.769c-.014.116-.037.322-.049.461-.012.114-.023.241-.03.309l0,.034c-.005.04-.015.158-.026.288l-.009.106c-.014.166-.035.377-.049.47s-.042.409-.068.7-.063.672-.082.838-.045.419-.059.561l-.013.131c-.012.126-.026.27-.036.363-.007.076-.017.18-.027.277-.007.068-.013.133-.018.184l-.012.106c-.012.107-.025.225-.035.3-.012.1-.028.241-.035.321l-.016.146-.063-.033a1.732,1.732,0,0,0-.427-.077l-.363-.044-.042-.069c-.023-.038-.105-.177-.183-.311s-.155-.267-.171-.294l-.027-.046c-.024-.041-.059-.1-.09-.155-.047-.084-.1-.181-.126-.218s-.049-.084-.059-.1a.384.384,0,0,0-.216-.132.343.343,0,0,0-.356.231c-.04.091-.159.334-.394.81-.025.048-.057.116-.084.172l-.024.051a.291.291,0,0,1-.075.114c-.014,0-.22,0-.455-.009-.645-.023-.657-.016-.8.349-.014.035-.028.02-.1-.106a.883.883,0,0,0-.152-.209l-.075-.061-.56.006a3.678,3.678,0,0,1-.593-.012,3.112,3.112,0,0,1-.341-.1l-.069-.022-.121-.039-.232-.074-.013,0-.231-.074c-.047-.014-.164-.054-.26-.087a.725.725,0,0,0-.6,0c-.237.092-.558.212-.971.363l-.059.022-.794-.792h0a6.713,6.713,0,0,1-2-4.811,6.473,6.473,0,0,1,6.334-6.6,6.284,6.284,0,0,1,5.429,3.2A6.284,6.284,0,0,1,62.373,470.272ZM48.291,482.8l-.237.09-.246.092-2.185-.013-2.185-.012-.059.064a.522.522,0,0,1-.239.159,1,1,0,0,1-.584,0,.625.625,0,0,1-.293-.226.928.928,0,0,0-.051-.079c-.052-.072.009-.255.117-.363a.759.759,0,0,1,.588-.181.69.69,0,0,1,.422.157l.1.081.928.01c.513.006,1.465.011,2.117.013l1.186,0,.3-.111Zm0,0c.234-.089.493-.185.755-.282l.256-.1.3.094c.167.052.429.138.588.191s.368.123.464.153l.176.055.448-.012.45-.011.11.189c.061.1.129.22.152.257l.094.159c.117.208.227.273.4.236s.216-.107.284-.37c.038-.146.068-.262.1-.352s.033-.093.11-.1c.044,0,.241,0,.434.015.338.018.356.018.462-.014.145-.045.195-.105.333-.4.061-.129.117-.246.124-.26s.022-.042.043-.086l.046-.1a.479.479,0,0,1,.094-.155,3.5,3.5,0,0,1,.342.563c.136.236.141.243.234.311a.445.445,0,0,0,.27.083c.53.06.565.065.591.09s.091.107.241.3a.374.374,0,0,0,.331.193c.218,0,.274-.079.3-.419.016-.214.044-.516.08-.855.007-.06.023-.226.035-.368l.047-.478c.012-.121.035-.365.049-.545a3.613,3.613,0,0,1,.047-.4.916.916,0,0,0,.023-.229,1.53,1.53,0,0,1,.023-.272c.012-.063.035-.238.049-.39s.035-.371.047-.486.031-.319.042-.453c.047-.514.073-.766.089-.846s.016-.079.035.072v0c.018.149.051.462.071.659l.008.079c.026.264.059.564.091.812.019.148.035.321.035.386a1.468,1.468,0,0,0,.024.243c.012.069.033.25.047.4s.035.34.047.419.033.278.047.444c.026.319.04.473.117,1.132.026.226.056.531.07.679s.028.305.035.348c.016.1.075.6.105.917.042.431.07.691.094.888.045.346.073.607.094.847l.006.06c.01.114.021.236.027.292v.007c.008.072.03.275.048.462s.047.409.059.478a1.747,1.747,0,0,1,.023.285.515.515,0,0,0,.11.372.579.579,0,0,0,.127.065l.087.03.094-.048a.465.465,0,0,0,.122-.084,2.231,2.231,0,0,0,.105-.62c.019-.171.052-.416.07-.545s.052-.367.07-.528.04-.327.047-.369c.068-.451.143-1,.174-1.282l0-.025c.015-.119.043-.34.067-.511l.021-.153c.035-.256.045-.323.073-.56,0-.033.008-.07.013-.106.01-.087.021-.172.027-.217l.016-.112h.178c.1,0,.478.008.846.018a3.058,3.058,0,0,0,.753-.008,1.509,1.509,0,0,0,.34-.232l.161-.13.322-.26c.059-.047.131-.106.162-.134s.062-.052.106-.088l.067-.055c.066-.05.227-.181.361-.29l.244-.2.049.033c.026.02.1.081.155.136.1.1.823.739.919.821.028.024.087.076.131.117a1.091,1.091,0,0,0,.152.118l.075.042.873.005L57.6,490.775a.877.877,0,0,1-1.353-.043Zm17.267.04.387-.386,2.037.014c1.815.01,2.126.008,2.15-.012a.737.737,0,0,1,.6-.241.516.516,0,0,1,.284.045.673.673,0,0,1,.356.337c.04.073.031.112-.063.246a.533.533,0,0,1-.2.188.915.915,0,0,1-.692.047.854.854,0,0,1-.272-.19c-.019-.021-.333-.026-2.741-.038Z" fill="#36a0ff" fill-rule="evenodd"/>
    <path id="Path_360" data-name="Path 360" d="M68.468,490v-4.583h1.014v1.84h2.1v-1.84H72.6V490H71.581v-1.9h-2.1V490Zm5.315,0v-4.583h2.08a1.756,1.756,0,0,1,1.2.371,1.275,1.275,0,0,1,.423,1.02,1.37,1.37,0,0,1-.195.741,1.249,1.249,0,0,1-.546.475,2,2,0,0,1-.845.162l.078-.143h.267a.84.84,0,0,1,.494.15,1.113,1.113,0,0,1,.364.435L77.781,490H76.663l-.709-1.476a.411.411,0,0,0-.247-.247,1.017,1.017,0,0,0-.377-.065H74.8V490Zm1.014-2.516h.89a.968.968,0,0,0,.6-.162.573.573,0,0,0,.208-.481.556.556,0,0,0-.208-.475.968.968,0,0,0-.6-.162H74.8Z" fill="#36a0ff"/>
  </g>
</svg>
