<svg xmlns="http://www.w3.org/2000/svg" width="28.955" height="24" viewBox="0 0 28.955 24">
  <g id="Group_36" data-name="Group 36" transform="translate(-368 -810)">
    <path id="Path_604" data-name="Path 604" d="M49.754,697.762c0-6.079.006-6.128.771-6.538a52.242,52.242,0,0,1,9.59-.007,1.947,1.947,0,0,1,.42.235c.469.387.465,1.289.465,6.166,0,5.842-.009,5.93-.7,6.406a1.65,1.65,0,0,1-.8.207h-.5l-.042,3.006c-.042,2.987-.045,3.011-.418,3.761a4.845,4.845,0,0,1-.978,1.278c-1.037.9-1.418.978-5.2,1.041l-3.341.056-.51.572A3.359,3.359,0,0,1,45.671,715a3.316,3.316,0,0,1-1.838-.372c-.964-.467-1.375-1.008-1.375-1.808,0-1.284,1.322-2.181,3.213-2.181a3.354,3.354,0,0,1,2.859,1.068l.521.584h3.28c3.691,0,3.887-.038,4.783-.923.825-.814.952-1.446.909-4.505l-.036-2.566-2.014-.037-2.015-.036-.142.961a4.658,4.658,0,0,1-2.7,3.776,3.7,3.7,0,0,1-1.9.353,3.563,3.563,0,0,1-1.89-.344,4.623,4.623,0,0,1-2.749-3.843c-.082-.872-.093-.891-.551-1.04a3.677,3.677,0,0,1-1.789-1.64,3.064,3.064,0,0,1,.585-3.259,3.177,3.177,0,0,1,4.3-.137,3.028,3.028,0,0,1-1.163,5.076l-.514.153.091.735a3.619,3.619,0,0,0,3.616,3.367,3.232,3.232,0,0,0,2.452-.9,3.56,3.56,0,0,0,1.228-2.56v-.693H51.749c-1.055,0-1.1-.013-1.54-.45l-.455-.449Zm-2.678,3.5A1.917,1.917,0,0,0,46,699.441a2.061,2.061,0,0,0-2.734,2.889A2.055,2.055,0,0,0,47.077,701.258Zm-2.46.167c-.121-.189-.033-.342.516-.892.684-.685.992-.8,1.267-.473.2.243.059.512-.637,1.177C45.209,701.767,44.87,701.823,44.617,701.425ZM59.507,694c0-2.4-2.356-2.2-3.533-1.8a3,3,0,0,0-.421.046c0,.042,2.517.083,2.888,1.754.147,2.2.263,6.84-.453,7.8-.473.633-2.012.778-2.829.855-.731.069-.886.084.815.345,2.882.443,3.556-1.7,3.533-2.823Z" transform="translate(326 119)" fill="#36a0ff" fill-rule="evenodd"/>
    <path id="Path_605" data-name="Path 605" d="M62.468,713.429v-4.583H64.58a1.855,1.855,0,0,1,1.164.319,1.042,1.042,0,0,1,.41.871,1.027,1.027,0,0,1-.247.7,1.182,1.182,0,0,1-.663.384v-.1a1.283,1.283,0,0,1,.76.377,1.035,1.035,0,0,1,.273.747,1.152,1.152,0,0,1-.436.956,1.879,1.879,0,0,1-1.189.338Zm.969-.754h1.092a.994.994,0,0,0,.578-.143.52.52,0,0,0,.2-.455.509.509,0,0,0-.2-.455.987.987,0,0,0-.578-.143H63.437Zm0-1.944H64.4a.971.971,0,0,0,.585-.143.5.5,0,0,0,.188-.429.5.5,0,0,0-.188-.422.964.964,0,0,0-.585-.143h-.962Zm3.807,2.7v-4.583h2.139a1.639,1.639,0,0,1,1.17.377,1.318,1.318,0,0,1,.4,1.021,1.352,1.352,0,0,1-.4,1.027,1.639,1.639,0,0,1-1.17.377H68.258v1.781Zm1.014-2.568h.995a.774.774,0,0,0,.539-.162.579.579,0,0,0,.182-.455.56.56,0,0,0-.182-.449.774.774,0,0,0-.539-.162h-.995Z" transform="translate(326 119)" fill="#36a0ff"/>
  </g>
</svg>
