<svg xmlns="http://www.w3.org/2000/svg" xmlns:xlink="http://www.w3.org/1999/xlink" width="115" height="30" viewBox="0 0 115 30">
  <defs>
    <clipPath id="clip-path">
      <rect id="Rectangle_117" data-name="Rectangle 117" width="115" height="30" transform="translate(29 60)" fill="#fff"/>
    </clipPath>
  </defs>
  <g id="logo" transform="translate(-29 -60)" clip-path="url(#clip-path)">
    <path id="Path_599" data-name="Path 599" d="M55.546,61.814H57.36v8.752c0,2.629,1.443,4.289,4.129,4.289s4.129-1.66,4.129-4.289V61.814h1.814v8.773c0,3.577-1.988,5.861-5.941,5.861s-5.941-2.306-5.941-5.84V61.814Z" fill="#004b96"/>
    <path id="Path_600" data-name="Path 600" d="M70.77,76.191V61.814h1.638v5.541a4.393,4.393,0,0,1,3.56-1.831c2.753,0,4.7,2.154,4.7,5.473s-1.944,5.451-4.7,5.451a4.459,4.459,0,0,1-3.56-1.809v1.551Zm1.638-2.825A3.9,3.9,0,0,0,75.554,75C77.7,75,78.962,73.3,78.962,71s-1.266-4.031-3.408-4.031a3.94,3.94,0,0,0-3.147,1.681Z" fill="#004b96"/>
    <path id="Path_601" data-name="Path 601" d="M83.045,62.936a1.088,1.088,0,0,1,1.093-1.078,1.09,1.09,0,1,1,0,2.178A1.1,1.1,0,0,1,83.045,62.936Zm.284,13.255V65.78h1.638V76.191Z" fill="#004b96"/>
    <path id="Path_602" data-name="Path 602" d="M97.506,80.157H95.868V74.618a4.325,4.325,0,0,1-3.537,1.831c-2.775,0-4.7-2.113-4.7-5.473s1.922-5.454,4.7-5.454a4.379,4.379,0,0,1,3.537,1.812V65.783h1.638Zm-1.638-11.53a3.885,3.885,0,0,0-3.146-1.66c-2.12,0-3.386,1.7-3.386,4.009s1.266,4.031,3.386,4.031a3.907,3.907,0,0,0,3.146-1.681Z" fill="#004b96"/>
    <path id="Path_603" data-name="Path 603" d="M104.669,76.191,99.034,61.814h3.538l4.041,11.058,4.019-11.058h3.538l-5.614,14.374h-3.887Z" fill="#0bbbef"/>
    <path id="Path_604" data-name="Path 604" d="M121.357,76.191V74.876a4.962,4.962,0,0,1-3.714,1.573c-2.315,0-3.408-1.249-3.408-3.276V65.78h2.775V72.1c0,1.445.766,1.918,1.944,1.918a3.121,3.121,0,0,0,2.4-1.184V65.78h2.775V76.191Z" fill="#0bbbef"/>
    <path id="Path_605" data-name="Path 605" d="M131.667,65.522c3.146,0,5.285,2.328,5.285,5.734v.6h-7.843a2.833,2.833,0,0,0,3.037,2.415,4.353,4.353,0,0,0,2.819-1.035l1.222,1.768a6.562,6.562,0,0,1-4.347,1.445,5.465,5.465,0,1,1-.173-10.927ZM129.068,70h5.2a2.431,2.431,0,0,0-2.6-2.306A2.519,2.519,0,0,0,129.068,70Z" fill="#0bbbef"/>
    <path id="Path_606" data-name="Path 606" d="M30.522,63.007A1.5,1.5,0,1,0,29,61.5a1.512,1.512,0,0,0,1.522,1.5Z" fill="#0bbbef"/>
    <path id="Path_607" data-name="Path 607" d="M37.719,63.007A1.5,1.5,0,1,0,36.2,61.5a1.512,1.512,0,0,0,1.522,1.5Z" fill="#004b96"/>
    <path id="Path_608" data-name="Path 608" d="M37.719,77.807a1.5,1.5,0,1,0-1.522-1.5A1.512,1.512,0,0,0,37.719,77.807Z" fill="#004b96"/>
    <path id="Path_609" data-name="Path 609" d="M44.912,63.007a1.5,1.5,0,1,0-1.522-1.5A1.512,1.512,0,0,0,44.912,63.007Z" fill="#0bbbef"/>
    <path id="Path_610" data-name="Path 610" d="M30.522,70.408A1.5,1.5,0,1,0,29,68.9a1.512,1.512,0,0,0,1.522,1.5Z" fill="#004b96"/>
    <path id="Path_611" data-name="Path 611" d="M44.912,70.408a1.5,1.5,0,1,0-1.522-1.5A1.512,1.512,0,0,0,44.912,70.408Z" fill="#004b96"/>
    <path id="Path_612" data-name="Path 612" d="M30.522,77.807A1.5,1.5,0,1,0,29,76.305,1.512,1.512,0,0,0,30.522,77.807Z" fill="#0bbbef"/>
    <path id="Path_613" data-name="Path 613" d="M44.912,77.807a1.5,1.5,0,1,0-1.522-1.5A1.512,1.512,0,0,0,44.912,77.807Z" fill="#0bbbef"/>
    <path id="Path_614" data-name="Path 614" d="M37.719,70.408a1.5,1.5,0,1,0-1.522-1.5A1.512,1.512,0,0,0,37.719,70.408Z" fill="#0bbbef"/>
    <path id="Path_615" data-name="Path 615" d="M138.023,60.625v3.667h-.537V60.625H136.3v-.492h2.912v.492Zm5.443,3.667V60.853l-1.437,3.441h-.155l-1.437-3.441v3.439H139.9V60.133h.823l1.225,3.026,1.225-3.026H144v4.158h-.531Z" fill="#004b96"/>
    <path id="Path_616" data-name="Path 616" d="M137.872,81.909v1.679h-.245V81.909h-.542v-.225h1.332v.225h-.545Zm2.489,1.679V82.012l-.658,1.575h-.069l-.658-1.575v1.575h-.245v-1.9h.377l.562,1.382.562-1.382h.377v1.9h-.248Z" fill="#004b96"/>
    <path id="Path_617" data-name="Path 617" d="M85.347,88.346V82.718h.641v2.167a1.717,1.717,0,0,1,1.393-.717,2.163,2.163,0,0,1,0,4.278,1.744,1.744,0,0,1-1.393-.709v.608Zm.641-1.105a1.529,1.529,0,0,0,1.231.641,1.386,1.386,0,0,0,1.335-1.57c0-.9-.5-1.578-1.335-1.578a1.539,1.539,0,0,0-1.231.657v1.85Z" fill="#004b96"/>
    <path id="Path_618" data-name="Path 618" d="M90.136,89.367a.964.964,0,0,0,.35.068A.593.593,0,0,0,91.1,89l.272-.617-1.729-4.118h.694l1.376,3.341,1.368-3.341h.7l-2.07,4.9A1.227,1.227,0,0,1,90.5,90a2.029,2.029,0,0,1-.471-.06l.1-.573Z" fill="#004b96"/>
    <path id="Path_619" data-name="Path 619" d="M96.688,88.346V82.718h.71v5h2.651v.625Z" fill="#004b96"/>
    <path id="Path_620" data-name="Path 620" d="M100.914,83.155a.425.425,0,0,1,.427-.421.426.426,0,1,1,0,.853A.426.426,0,0,1,100.914,83.155Zm.11,5.191V84.269h.642v4.077Z" fill="#004b96"/>
    <path id="Path_621" data-name="Path 621" d="M103.772,84.826v3.52h-.641v-3.52h-.686v-.557h.686v-.312a1.171,1.171,0,0,1,1.2-1.326,1.2,1.2,0,0,1,.625.144l-.162.473a.714.714,0,0,0-.369-.092c-.419,0-.65.288-.65.8v.312h.837v.557Z" fill="#004b96"/>
    <path id="Path_622" data-name="Path 622" d="M107.166,84.168a1.99,1.99,0,0,1,1.985,2.186v.16h-3.345a1.448,1.448,0,0,0,1.49,1.41,1.816,1.816,0,0,0,1.274-.513l.309.413a2.261,2.261,0,0,1-1.641.625,2.14,2.14,0,0,1-.069-4.278Zm-1.36,1.882h2.712a1.327,1.327,0,0,0-1.36-1.358A1.369,1.369,0,0,0,105.806,86.051Z" fill="#004b96"/>
    <path id="Path_623" data-name="Path 623" d="M110.288,87.02a2.427,2.427,0,0,0,1.795.8c1.019,0,1.344-.541,1.344-.97,0-.674-.694-.861-1.446-1.062-.914-.236-1.932-.489-1.932-1.594,0-.929.837-1.562,1.957-1.562a2.7,2.7,0,0,1,2.026.785l-.426.513a2.2,2.2,0,0,0-1.652-.676c-.686,0-1.173.364-1.173.894,0,.565.658.733,1.385.929.933.244,1.993.532,1.993,1.714,0,.818-.564,1.654-2.1,1.654a2.85,2.85,0,0,1-2.189-.894l.419-.532Z" fill="#004b96"/>
    <path id="Path_624" data-name="Path 624" d="M115.086,83.155a.424.424,0,0,1,.427-.421.426.426,0,1,1,0,.853A.426.426,0,0,1,115.086,83.155Zm.11,5.191V84.269h.641v4.077Z" fill="#004b96"/>
    <path id="Path_625" data-name="Path 625" d="M117.44,88.919a1.585,1.585,0,0,0,1.343.557,1.174,1.174,0,0,0,1.324-1.222v-.581a1.732,1.732,0,0,1-1.384.725,2.135,2.135,0,0,1,0-4.229,1.712,1.712,0,0,1,1.384.717v-.617h.642v3.957c0,1.35-.958,1.771-1.966,1.771a2.126,2.126,0,0,1-1.668-.608l.325-.473Zm2.667-3.526a1.529,1.529,0,0,0-1.23-.657c-.829,0-1.327.649-1.327,1.554s.5,1.551,1.327,1.551a1.532,1.532,0,0,0,1.23-.665V85.393Z" fill="#004b96"/>
    <path id="Path_626" data-name="Path 626" d="M124.821,88.346V85.679c0-.717-.369-.945-.925-.945a1.6,1.6,0,0,0-1.222.633v2.98h-.642V84.269h.642v.589a2.064,2.064,0,0,1,1.47-.693,1.165,1.165,0,0,1,1.316,1.317v2.86h-.642Z" fill="#004b96"/>
    <path id="Path_627" data-name="Path 627" d="M129.327,88.346v-.465a1.793,1.793,0,0,1-1.368.565,1.349,1.349,0,1,1,0-2.692,1.736,1.736,0,0,1,1.368.557v-.733c0-.549-.446-.861-1.043-.861a1.654,1.654,0,0,0-1.267.565l-.3-.44a2.178,2.178,0,0,1,1.652-.676c.873,0,1.6.388,1.6,1.374v2.8h-.642Zm0-1.63a1.4,1.4,0,0,0-1.137-.508.9.9,0,1,0,0,1.779,1.385,1.385,0,0,0,1.137-.508v-.763Z" fill="#004b96"/>
    <path id="Path_628" data-name="Path 628" d="M131.254,88.346V82.718h.641v5.628Z" fill="#004b96"/>
    <path id="Path_629" data-name="Path 629" d="M133.15,87.349a1.882,1.882,0,0,0,1.36.581c.634,0,.975-.28.975-.674,0-.448-.5-.592-1.06-.725-.7-.16-1.5-.345-1.5-1.19,0-.633.557-1.173,1.539-1.173A2.094,2.094,0,0,1,136,84.76l-.3.44a1.618,1.618,0,0,0-1.231-.516c-.564,0-.914.253-.914.617,0,.4.471.524,1.011.649.718.16,1.547.364,1.547,1.266,0,.685-.556,1.233-1.624,1.233a2.222,2.222,0,0,1-1.669-.641l.333-.456Z" fill="#004b96"/>
  </g>
</svg>
