<svg xmlns="http://www.w3.org/2000/svg" width="28.027" height="17.548" viewBox="0 0 28.027 17.548">
  <g id="Group_2" data-name="Group 2" transform="translate(-199.193 -306.317)">
    <path id="Path_685" data-name="Path 685" d="M172.442,247.372a32.093,32.093,0,0,0-2.8-7.918c-.607-1.185-.989-2.164-2.2-2.164a2.107,2.107,0,0,0-1.921,2.252V241.6l-.9-.752a.526.526,0,0,1-.143-.2.666.666,0,0,1-.052-.259v-5.847a.5.5,0,0,0-.438-.548h-.439a.5.5,0,0,0-.439.548V240.4a.592.592,0,0,1-.195.456l-.9.752v-2.061a2.107,2.107,0,0,0-1.92-2.252c-1.206,0-1.589.979-2.195,2.164a32.053,32.053,0,0,0-2.8,7.918,4.862,4.862,0,0,0-.107,1.016c0,2.1,1.713,3.613,3.434,3.037l1.631-.547a3.128,3.128,0,0,0,1.954-3.037v-3l-2.353,1.962a.2.2,0,0,1-.079.041.179.179,0,0,1-.086,0,.2.2,0,0,1-.079-.042.248.248,0,0,1-.06-.075l-.244-.457a.315.315,0,0,1-.033-.1.349.349,0,0,1,0-.107.3.3,0,0,1,.032-.1.255.255,0,0,1,.061-.076l4.6-3.829,4.6,3.829a.255.255,0,0,1,.061.076.33.33,0,0,1,.033.206.315.315,0,0,1-.033.1l-.243.457a.251.251,0,0,1-.061.075.193.193,0,0,1-.079.041.163.163,0,0,1-.085,0,.2.2,0,0,1-.079-.041l-2.354-1.962v3a3.128,3.128,0,0,0,1.954,3.037l1.631.547c1.721.576,3.434-.939,3.434-3.037A4.861,4.861,0,0,0,172.442,247.372Z" transform="translate(44.193 72.317)" fill="#36a0ff"/>
    <path id="Path_686" data-name="Path 686" d="M174.177,250.807v-4.583h2.08a1.757,1.757,0,0,1,1.2.371,1.271,1.271,0,0,1,.422,1.02,1.369,1.369,0,0,1-.2.741,1.243,1.243,0,0,1-.546.475,2,2,0,0,1-.845.162l.078-.143h.267a.841.841,0,0,1,.494.15,1.1,1.1,0,0,1,.364.435l.682,1.372h-1.118l-.708-1.476a.408.408,0,0,0-.247-.247,1.016,1.016,0,0,0-.377-.065h-.533v1.788Zm1.014-2.516h.89a.969.969,0,0,0,.605-.162.573.573,0,0,0,.208-.481.554.554,0,0,0-.208-.475.969.969,0,0,0-.605-.162h-.89Zm3.838,2.516v-4.583h2.08a1.757,1.757,0,0,1,1.2.371,1.271,1.271,0,0,1,.423,1.02,1.37,1.37,0,0,1-.195.741,1.254,1.254,0,0,1-.546.475,2.006,2.006,0,0,1-.845.162l.078-.143h.266a.841.841,0,0,1,.494.15,1.1,1.1,0,0,1,.364.435l.683,1.372h-1.118l-.709-1.476a.408.408,0,0,0-.247-.247,1.016,1.016,0,0,0-.377-.065h-.533v1.788Zm1.014-2.516h.891a.968.968,0,0,0,.6-.162.573.573,0,0,0,.208-.481.554.554,0,0,0-.208-.475.968.968,0,0,0-.6-.162h-.891Z" transform="translate(44.193 72.317)" fill="#36a0ff"/>
  </g>
</svg>
