<svg xmlns="http://www.w3.org/2000/svg" width="106.304" height="137.162" viewBox="0 0 106.304 137.162">
  <g id="pie-chart-image" transform="translate(-457.052 -646.75)">
    <path id="Path_52" data-name="Path 52" d="M80,215V165a49.478,49.478,0,0,1,47,34.549Z" transform="translate(433 482)" fill="#b7efff" stroke="#fff" stroke-width="0.5"/>
    <path id="Path_53" data-name="Path 53" d="M80,215.166,127.544,200a48.784,48.784,0,0,1-27.211,60Z" transform="translate(433 482)" fill="#71e0ff" stroke="#fff" stroke-width="0.5"/>
    <path id="Path_54" data-name="Path 54" d="M79.93,215,100,260.666a49.1,49.1,0,0,1-65.149-25.334A50.428,50.428,0,0,1,33,230.447Z" transform="translate(433 482)" fill="#37d4ff" stroke="#fff" stroke-width="0.5"/>
    <path id="Path_55" data-name="Path 55" d="M80,214.721,32.447,230A48.957,48.957,0,0,1,36.7,190Z" transform="translate(433 482)" fill="#00aad9" stroke="#fff" stroke-width="0.5"/>
    <path id="Path_56" data-name="Path 56" d="M80,215,36,190a50.963,50.963,0,0,1,44-25Z" transform="translate(433 482)" fill="#80c685" stroke="#fff" stroke-width="0.5"/>
    <g id="Group_3" data-name="Group 3" transform="translate(433 482)" opacity="0.4">
      <g id="Group_2" data-name="Group 2">
        <path id="Path_57" data-name="Path 57" d="M79.333,169.67l2.429-2.429" fill="none" stroke="#4ea2ef" stroke-linecap="round" stroke-width="1" stroke-dasharray="2 2"/>
        <path id="Path_58" data-name="Path 58" d="M85.809,169.67l2.429-2.429" fill="none" stroke="#4ea2ef" stroke-linecap="round" stroke-width="1" stroke-dasharray="2 2"/>
        <path id="Path_59" data-name="Path 59" d="M92.285,169.67l2.428-2.429" fill="none" stroke="#4ea2ef" stroke-linecap="round" stroke-width="1" stroke-dasharray="2 2"/>
        <path id="Path_60" data-name="Path 60" d="M98.761,169.67l2.428-2.429" fill="none" stroke="#4ea2ef" stroke-linecap="round" stroke-width="1" stroke-dasharray="2 2"/>
        <path id="Path_61" data-name="Path 61" d="M105.236,169.67l2.429-2.429" fill="none" stroke="#4ea2ef" stroke-linecap="round" stroke-width="1" stroke-dasharray="2 2"/>
        <path id="Path_62" data-name="Path 62" d="M111.711,169.67l2.429-2.429" fill="none" stroke="#4ea2ef" stroke-linecap="round" stroke-width="1" stroke-dasharray="2 2"/>
        <path id="Path_63" data-name="Path 63" d="M118.188,169.67l2.429-2.429" fill="none" stroke="#4ea2ef" stroke-linecap="round" stroke-width="1" stroke-dasharray="2 2"/>
        <path id="Path_64" data-name="Path 64" d="M124.663,169.67l2.429-2.429" fill="none" stroke="#4ea2ef" stroke-linecap="round" stroke-width="1" stroke-dasharray="2 2"/>
        <path id="Path_65" data-name="Path 65" d="M79.333,176.146l2.429-2.429" fill="none" stroke="#4ea2ef" stroke-linecap="round" stroke-width="1" stroke-dasharray="2 2"/>
        <path id="Path_66" data-name="Path 66" d="M85.809,176.146l2.429-2.429" fill="none" stroke="#4ea2ef" stroke-linecap="round" stroke-width="1" stroke-dasharray="2 2"/>
        <path id="Path_67" data-name="Path 67" d="M92.285,176.146l2.428-2.429" fill="none" stroke="#4ea2ef" stroke-linecap="round" stroke-width="1" stroke-dasharray="2 2"/>
        <path id="Path_68" data-name="Path 68" d="M98.761,176.146l2.428-2.429" fill="none" stroke="#4ea2ef" stroke-linecap="round" stroke-width="1" stroke-dasharray="2 2"/>
        <path id="Path_69" data-name="Path 69" d="M105.236,176.146l2.429-2.429" fill="none" stroke="#4ea2ef" stroke-linecap="round" stroke-width="1" stroke-dasharray="2 2"/>
        <path id="Path_70" data-name="Path 70" d="M111.711,176.146l2.429-2.429" fill="none" stroke="#4ea2ef" stroke-linecap="round" stroke-width="1" stroke-dasharray="2 2"/>
        <path id="Path_71" data-name="Path 71" d="M118.188,176.146l2.429-2.429" fill="none" stroke="#4ea2ef" stroke-linecap="round" stroke-width="1" stroke-dasharray="2 2"/>
        <path id="Path_72" data-name="Path 72" d="M124.663,176.146l2.429-2.429" fill="none" stroke="#4ea2ef" stroke-linecap="round" stroke-width="1" stroke-dasharray="2 2"/>
        <path id="Path_73" data-name="Path 73" d="M79.333,182.621l2.429-2.428" fill="none" stroke="#4ea2ef" stroke-linecap="round" stroke-width="1" stroke-dasharray="2 2"/>
        <path id="Path_74" data-name="Path 74" d="M85.809,182.621l2.429-2.428" fill="none" stroke="#4ea2ef" stroke-linecap="round" stroke-width="1" stroke-dasharray="2 2"/>
        <path id="Path_75" data-name="Path 75" d="M92.285,182.621l2.428-2.428" fill="none" stroke="#4ea2ef" stroke-linecap="round" stroke-width="1" stroke-dasharray="2 2"/>
        <path id="Path_76" data-name="Path 76" d="M98.761,182.621l2.428-2.428" fill="none" stroke="#4ea2ef" stroke-linecap="round" stroke-width="1" stroke-dasharray="2 2"/>
        <path id="Path_77" data-name="Path 77" d="M105.236,182.621l2.429-2.428" fill="none" stroke="#4ea2ef" stroke-linecap="round" stroke-width="1" stroke-dasharray="2 2"/>
        <path id="Path_78" data-name="Path 78" d="M111.711,182.621l2.429-2.428" fill="none" stroke="#4ea2ef" stroke-linecap="round" stroke-width="1" stroke-dasharray="2 2"/>
        <path id="Path_79" data-name="Path 79" d="M118.188,182.621l2.429-2.428" fill="none" stroke="#4ea2ef" stroke-linecap="round" stroke-width="1" stroke-dasharray="2 2"/>
        <path id="Path_80" data-name="Path 80" d="M124.663,182.621l2.429-2.428" fill="none" stroke="#4ea2ef" stroke-linecap="round" stroke-width="1" stroke-dasharray="2 2"/>
        <path id="Path_81" data-name="Path 81" d="M79.333,189.1l2.429-2.428" fill="none" stroke="#4ea2ef" stroke-linecap="round" stroke-width="1" stroke-dasharray="2 2"/>
        <path id="Path_82" data-name="Path 82" d="M85.809,189.1l2.429-2.428" fill="none" stroke="#4ea2ef" stroke-linecap="round" stroke-width="1" stroke-dasharray="2 2"/>
        <path id="Path_83" data-name="Path 83" d="M92.285,189.1l2.428-2.428" fill="none" stroke="#4ea2ef" stroke-linecap="round" stroke-width="1" stroke-dasharray="2 2"/>
        <path id="Path_84" data-name="Path 84" d="M98.761,189.1l2.428-2.428" fill="none" stroke="#4ea2ef" stroke-linecap="round" stroke-width="1" stroke-dasharray="2 2"/>
        <path id="Path_85" data-name="Path 85" d="M105.236,189.1l2.429-2.428" fill="none" stroke="#4ea2ef" stroke-linecap="round" stroke-width="1" stroke-dasharray="2 2"/>
        <path id="Path_86" data-name="Path 86" d="M111.711,189.1l2.429-2.428" fill="none" stroke="#4ea2ef" stroke-linecap="round" stroke-width="1" stroke-dasharray="2 2"/>
        <path id="Path_87" data-name="Path 87" d="M118.188,189.1l2.429-2.428" fill="none" stroke="#4ea2ef" stroke-linecap="round" stroke-width="1" stroke-dasharray="2 2"/>
        <path id="Path_88" data-name="Path 88" d="M124.663,189.1l2.429-2.428" fill="none" stroke="#4ea2ef" stroke-linecap="round" stroke-width="1" stroke-dasharray="2 2"/>
        <path id="Path_89" data-name="Path 89" d="M79.333,195.573l2.429-2.429" fill="none" stroke="#4ea2ef" stroke-linecap="round" stroke-width="1" stroke-dasharray="2 2"/>
        <path id="Path_90" data-name="Path 90" d="M85.809,195.573l2.429-2.429" fill="none" stroke="#4ea2ef" stroke-linecap="round" stroke-width="1" stroke-dasharray="2 2"/>
        <path id="Path_91" data-name="Path 91" d="M92.285,195.573l2.428-2.429" fill="none" stroke="#4ea2ef" stroke-linecap="round" stroke-width="1" stroke-dasharray="2 2"/>
        <path id="Path_92" data-name="Path 92" d="M98.761,195.573l2.428-2.429" fill="none" stroke="#4ea2ef" stroke-linecap="round" stroke-width="1" stroke-dasharray="2 2"/>
        <path id="Path_93" data-name="Path 93" d="M105.236,195.573l2.429-2.429" fill="none" stroke="#4ea2ef" stroke-linecap="round" stroke-width="1" stroke-dasharray="2 2"/>
        <path id="Path_94" data-name="Path 94" d="M111.711,195.573l2.429-2.429" fill="none" stroke="#4ea2ef" stroke-linecap="round" stroke-width="1" stroke-dasharray="2 2"/>
        <path id="Path_95" data-name="Path 95" d="M118.188,195.573l2.429-2.429" fill="none" stroke="#4ea2ef" stroke-linecap="round" stroke-width="1" stroke-dasharray="2 2"/>
        <path id="Path_96" data-name="Path 96" d="M124.663,195.573l2.429-2.429" fill="none" stroke="#4ea2ef" stroke-linecap="round" stroke-width="1" stroke-dasharray="2 2"/>
        <path id="Path_97" data-name="Path 97" d="M79.333,202.049l2.429-2.429" fill="none" stroke="#4ea2ef" stroke-linecap="round" stroke-width="1" stroke-dasharray="2 2"/>
        <path id="Path_98" data-name="Path 98" d="M85.809,202.049l2.429-2.429" fill="none" stroke="#4ea2ef" stroke-linecap="round" stroke-width="1" stroke-dasharray="2 2"/>
        <path id="Path_99" data-name="Path 99" d="M92.285,202.049l2.428-2.429" fill="none" stroke="#4ea2ef" stroke-linecap="round" stroke-width="1" stroke-dasharray="2 2"/>
        <path id="Path_100" data-name="Path 100" d="M98.761,202.049l2.428-2.429" fill="none" stroke="#4ea2ef" stroke-linecap="round" stroke-width="1" stroke-dasharray="2 2"/>
        <path id="Path_101" data-name="Path 101" d="M105.236,202.049l2.429-2.429" fill="none" stroke="#4ea2ef" stroke-linecap="round" stroke-width="1" stroke-dasharray="2 2"/>
        <path id="Path_102" data-name="Path 102" d="M111.711,202.049l2.429-2.429" fill="none" stroke="#4ea2ef" stroke-linecap="round" stroke-width="1" stroke-dasharray="2 2"/>
        <path id="Path_103" data-name="Path 103" d="M118.188,202.049l2.429-2.429" fill="none" stroke="#4ea2ef" stroke-linecap="round" stroke-width="1" stroke-dasharray="2 2"/>
        <path id="Path_104" data-name="Path 104" d="M124.663,202.049l2.429-2.429" fill="none" stroke="#4ea2ef" stroke-linecap="round" stroke-width="1" stroke-dasharray="2 2"/>
        <path id="Path_105" data-name="Path 105" d="M79.333,208.525l2.429-2.429" fill="none" stroke="#4ea2ef" stroke-linecap="round" stroke-width="1" stroke-dasharray="2 2"/>
        <path id="Path_106" data-name="Path 106" d="M85.809,208.525l2.429-2.429" fill="none" stroke="#4ea2ef" stroke-linecap="round" stroke-width="1" stroke-dasharray="2 2"/>
        <path id="Path_107" data-name="Path 107" d="M92.285,208.525l2.428-2.429" fill="none" stroke="#4ea2ef" stroke-linecap="round" stroke-width="1" stroke-dasharray="2 2"/>
        <path id="Path_108" data-name="Path 108" d="M98.761,208.525l2.428-2.429" fill="none" stroke="#4ea2ef" stroke-linecap="round" stroke-width="1" stroke-dasharray="2 2"/>
        <path id="Path_109" data-name="Path 109" d="M105.236,208.525l2.429-2.429" fill="none" stroke="#4ea2ef" stroke-linecap="round" stroke-width="1" stroke-dasharray="2 2"/>
        <path id="Path_110" data-name="Path 110" d="M111.711,208.525l2.429-2.429" fill="none" stroke="#4ea2ef" stroke-linecap="round" stroke-width="1" stroke-dasharray="2 2"/>
        <path id="Path_111" data-name="Path 111" d="M118.188,208.525l2.429-2.429" fill="none" stroke="#4ea2ef" stroke-linecap="round" stroke-width="1" stroke-dasharray="2 2"/>
        <path id="Path_112" data-name="Path 112" d="M124.663,208.525l2.429-2.429" fill="none" stroke="#4ea2ef" stroke-linecap="round" stroke-width="1" stroke-dasharray="2 2"/>
        <path id="Path_113" data-name="Path 113" d="M79.333,215l2.429-2.428" fill="none" stroke="#4ea2ef" stroke-linecap="round" stroke-width="1" stroke-dasharray="2 2"/>
        <path id="Path_114" data-name="Path 114" d="M85.809,215l2.429-2.428" fill="none" stroke="#4ea2ef" stroke-linecap="round" stroke-width="1" stroke-dasharray="2 2"/>
        <path id="Path_115" data-name="Path 115" d="M92.285,215l2.428-2.428" fill="none" stroke="#4ea2ef" stroke-linecap="round" stroke-width="1" stroke-dasharray="2 2"/>
        <path id="Path_116" data-name="Path 116" d="M98.761,215l2.428-2.428" fill="none" stroke="#4ea2ef" stroke-linecap="round" stroke-width="1" stroke-dasharray="2 2"/>
        <path id="Path_117" data-name="Path 117" d="M105.236,215l2.429-2.428" fill="none" stroke="#4ea2ef" stroke-linecap="round" stroke-width="1" stroke-dasharray="2 2"/>
        <path id="Path_118" data-name="Path 118" d="M111.711,215l2.429-2.428" fill="none" stroke="#4ea2ef" stroke-linecap="round" stroke-width="1" stroke-dasharray="2 2"/>
        <path id="Path_119" data-name="Path 119" d="M118.188,215l2.429-2.428" fill="none" stroke="#4ea2ef" stroke-linecap="round" stroke-width="1" stroke-dasharray="2 2"/>
        <path id="Path_120" data-name="Path 120" d="M124.663,215l2.429-2.428" fill="none" stroke="#4ea2ef" stroke-linecap="round" stroke-width="1" stroke-dasharray="2 2"/>
      </g>
    </g>
    <g id="Group_6" data-name="Group 6" transform="translate(433 482)" opacity="0.4">
      <g id="Group_5" data-name="Group 5">
        <g id="Group_4" data-name="Group 4" opacity="0.6">
          <path id="Path_121" data-name="Path 121" d="M80,197.144V265" fill="none" stroke="#fff" stroke-linecap="round" stroke-width="1"/>
          <path id="Path_122" data-name="Path 122" d="M85.952,197.144V265" fill="none" stroke="#fff" stroke-linecap="round" stroke-width="1"/>
          <path id="Path_123" data-name="Path 123" d="M91.9,197.144V265" fill="none" stroke="#fff" stroke-linecap="round" stroke-width="1"/>
          <path id="Path_124" data-name="Path 124" d="M97.856,197.144V265" fill="none" stroke="#fff" stroke-linecap="round" stroke-width="1"/>
          <path id="Path_125" data-name="Path 125" d="M103.809,197.144V265" fill="none" stroke="#fff" stroke-linecap="round" stroke-width="1"/>
          <path id="Path_126" data-name="Path 126" d="M109.761,197.144V265" fill="none" stroke="#fff" stroke-linecap="round" stroke-width="1"/>
          <path id="Path_127" data-name="Path 127" d="M115.711,197.144V265" fill="none" stroke="#fff" stroke-linecap="round" stroke-width="1"/>
          <path id="Path_128" data-name="Path 128" d="M121.664,197.144V265" fill="none" stroke="#fff" stroke-linecap="round" stroke-width="1"/>
          <path id="Path_129" data-name="Path 129" d="M127.616,197.144V265" fill="none" stroke="#fff" stroke-linecap="round" stroke-width="1"/>
        </g>
      </g>
    </g>
    <g id="Group_9" data-name="Group 9" transform="translate(433 482)" opacity="0.4">
      <g id="Group_8" data-name="Group 8">
        <g id="Group_7" data-name="Group 7" opacity="0.6">
          <rect id="Rectangle_6" data-name="Rectangle 6" width="8.712" height="1.871" rx="0.935" transform="translate(24.052 215)" fill="#fff"/>
          <rect id="Rectangle_7" data-name="Rectangle 7" width="8.712" height="1.871" rx="0.935" transform="translate(35.253 215)" fill="#fff"/>
          <rect id="Rectangle_8" data-name="Rectangle 8" width="8.712" height="1.871" rx="0.935" transform="translate(46.453 215)" fill="#fff"/>
          <rect id="Rectangle_9" data-name="Rectangle 9" width="8.712" height="1.871" rx="0.935" transform="translate(57.654 215)" fill="#fff"/>
          <rect id="Rectangle_10" data-name="Rectangle 10" width="8.712" height="1.871" rx="0.935" transform="translate(68.854 215)" fill="#fff"/>
          <rect id="Rectangle_11" data-name="Rectangle 11" width="8.712" height="1.871" rx="0.935" transform="translate(80.056 215)" fill="#fff"/>
          <rect id="Rectangle_12" data-name="Rectangle 12" width="8.712" height="1.871" rx="0.935" transform="translate(91.255 215)" fill="#fff"/>
          <rect id="Rectangle_13" data-name="Rectangle 13" width="8.712" height="1.871" rx="0.935" transform="translate(24.052 220.612)" fill="#fff"/>
          <rect id="Rectangle_14" data-name="Rectangle 14" width="8.712" height="1.871" rx="0.935" transform="translate(35.253 220.612)" fill="#fff"/>
          <rect id="Rectangle_15" data-name="Rectangle 15" width="8.712" height="1.871" rx="0.935" transform="translate(46.453 220.612)" fill="#fff"/>
          <rect id="Rectangle_16" data-name="Rectangle 16" width="8.712" height="1.871" rx="0.935" transform="translate(57.654 220.612)" fill="#fff"/>
          <rect id="Rectangle_17" data-name="Rectangle 17" width="8.712" height="1.871" rx="0.935" transform="translate(68.854 220.612)" fill="#fff"/>
          <rect id="Rectangle_18" data-name="Rectangle 18" width="8.712" height="1.871" rx="0.935" transform="translate(80.056 220.612)" fill="#fff"/>
          <rect id="Rectangle_19" data-name="Rectangle 19" width="8.712" height="1.871" rx="0.935" transform="translate(91.255 220.612)" fill="#fff"/>
          <rect id="Rectangle_20" data-name="Rectangle 20" width="8.712" height="1.871" rx="0.935" transform="translate(24.052 226.224)" fill="#fff"/>
          <rect id="Rectangle_21" data-name="Rectangle 21" width="8.712" height="1.871" rx="0.935" transform="translate(35.253 226.224)" fill="#fff"/>
          <rect id="Rectangle_22" data-name="Rectangle 22" width="8.712" height="1.871" rx="0.935" transform="translate(46.453 226.224)" fill="#fff"/>
          <rect id="Rectangle_23" data-name="Rectangle 23" width="8.712" height="1.871" rx="0.935" transform="translate(57.654 226.224)" fill="#fff"/>
          <rect id="Rectangle_24" data-name="Rectangle 24" width="8.712" height="1.871" rx="0.935" transform="translate(68.854 226.224)" fill="#fff"/>
          <rect id="Rectangle_25" data-name="Rectangle 25" width="8.712" height="1.871" rx="0.935" transform="translate(80.056 226.224)" fill="#fff"/>
          <rect id="Rectangle_26" data-name="Rectangle 26" width="8.712" height="1.871" rx="0.935" transform="translate(91.255 226.224)" fill="#fff"/>
          <rect id="Rectangle_27" data-name="Rectangle 27" width="8.712" height="1.871" rx="0.935" transform="translate(24.052 231.836)" fill="#fff"/>
          <rect id="Rectangle_28" data-name="Rectangle 28" width="8.712" height="1.871" rx="0.935" transform="translate(35.253 231.836)" fill="#fff"/>
          <rect id="Rectangle_29" data-name="Rectangle 29" width="8.712" height="1.871" rx="0.935" transform="translate(46.453 231.836)" fill="#fff"/>
          <rect id="Rectangle_30" data-name="Rectangle 30" width="8.712" height="1.871" rx="0.935" transform="translate(57.654 231.836)" fill="#fff"/>
          <rect id="Rectangle_31" data-name="Rectangle 31" width="8.712" height="1.871" rx="0.935" transform="translate(68.854 231.836)" fill="#fff"/>
          <rect id="Rectangle_32" data-name="Rectangle 32" width="8.712" height="1.871" rx="0.935" transform="translate(80.056 231.836)" fill="#fff"/>
          <rect id="Rectangle_33" data-name="Rectangle 33" width="8.712" height="1.871" rx="0.935" transform="translate(91.255 231.836)" fill="#fff"/>
          <rect id="Rectangle_34" data-name="Rectangle 34" width="8.712" height="1.871" rx="0.935" transform="translate(24.052 237.448)" fill="#fff"/>
          <rect id="Rectangle_35" data-name="Rectangle 35" width="8.712" height="1.871" rx="0.935" transform="translate(35.253 237.448)" fill="#fff"/>
          <rect id="Rectangle_36" data-name="Rectangle 36" width="8.712" height="1.871" rx="0.935" transform="translate(46.453 237.448)" fill="#fff"/>
          <rect id="Rectangle_37" data-name="Rectangle 37" width="8.712" height="1.871" rx="0.935" transform="translate(57.654 237.448)" fill="#fff"/>
          <rect id="Rectangle_38" data-name="Rectangle 38" width="8.712" height="1.871" rx="0.935" transform="translate(68.854 237.448)" fill="#fff"/>
          <rect id="Rectangle_39" data-name="Rectangle 39" width="8.712" height="1.871" rx="0.935" transform="translate(80.056 237.448)" fill="#fff"/>
          <rect id="Rectangle_40" data-name="Rectangle 40" width="8.712" height="1.871" rx="0.935" transform="translate(91.255 237.448)" fill="#fff"/>
          <rect id="Rectangle_41" data-name="Rectangle 41" width="8.712" height="1.871" rx="0.935" transform="translate(24.052 243.06)" fill="#fff"/>
          <rect id="Rectangle_42" data-name="Rectangle 42" width="8.712" height="1.871" rx="0.935" transform="translate(35.253 243.06)" fill="#fff"/>
          <rect id="Rectangle_43" data-name="Rectangle 43" width="8.712" height="1.871" rx="0.935" transform="translate(46.453 243.06)" fill="#fff"/>
          <rect id="Rectangle_44" data-name="Rectangle 44" width="8.712" height="1.871" rx="0.935" transform="translate(57.654 243.06)" fill="#fff"/>
          <rect id="Rectangle_45" data-name="Rectangle 45" width="8.712" height="1.871" rx="0.935" transform="translate(68.854 243.06)" fill="#fff"/>
          <rect id="Rectangle_46" data-name="Rectangle 46" width="8.712" height="1.871" rx="0.935" transform="translate(80.056 243.06)" fill="#fff"/>
          <rect id="Rectangle_47" data-name="Rectangle 47" width="8.712" height="1.871" rx="0.935" transform="translate(91.255 243.06)" fill="#fff"/>
          <rect id="Rectangle_48" data-name="Rectangle 48" width="8.712" height="1.871" rx="0.935" transform="translate(24.052 248.672)" fill="#fff"/>
          <rect id="Rectangle_49" data-name="Rectangle 49" width="8.712" height="1.871" rx="0.935" transform="translate(35.253 248.672)" fill="#fff"/>
          <rect id="Rectangle_50" data-name="Rectangle 50" width="8.712" height="1.871" rx="0.935" transform="translate(46.453 248.672)" fill="#fff"/>
          <rect id="Rectangle_51" data-name="Rectangle 51" width="8.712" height="1.871" rx="0.935" transform="translate(57.654 248.672)" fill="#fff"/>
          <rect id="Rectangle_52" data-name="Rectangle 52" width="8.712" height="1.871" rx="0.935" transform="translate(68.854 248.672)" fill="#fff"/>
          <rect id="Rectangle_53" data-name="Rectangle 53" width="8.712" height="1.871" rx="0.935" transform="translate(80.056 248.672)" fill="#fff"/>
          <rect id="Rectangle_54" data-name="Rectangle 54" width="8.712" height="1.871" rx="0.935" transform="translate(91.255 248.672)" fill="#fff"/>
          <rect id="Rectangle_55" data-name="Rectangle 55" width="8.712" height="1.871" rx="0.935" transform="translate(24.052 254.283)" fill="#fff"/>
          <rect id="Rectangle_56" data-name="Rectangle 56" width="8.712" height="1.871" rx="0.935" transform="translate(35.253 254.283)" fill="#fff"/>
          <rect id="Rectangle_57" data-name="Rectangle 57" width="8.712" height="1.871" rx="0.935" transform="translate(46.453 254.283)" fill="#fff"/>
          <rect id="Rectangle_58" data-name="Rectangle 58" width="8.712" height="1.871" rx="0.935" transform="translate(57.654 254.283)" fill="#fff"/>
          <rect id="Rectangle_59" data-name="Rectangle 59" width="8.712" height="1.871" rx="0.935" transform="translate(68.854 254.283)" fill="#fff"/>
          <rect id="Rectangle_60" data-name="Rectangle 60" width="8.712" height="1.871" rx="0.935" transform="translate(80.056 254.283)" fill="#fff"/>
          <rect id="Rectangle_61" data-name="Rectangle 61" width="8.712" height="1.871" rx="0.935" transform="translate(91.255 254.283)" fill="#fff"/>
          <rect id="Rectangle_62" data-name="Rectangle 62" width="8.712" height="1.871" rx="0.935" transform="translate(24.052 259.895)" fill="#fff"/>
          <rect id="Rectangle_63" data-name="Rectangle 63" width="8.712" height="1.871" rx="0.935" transform="translate(35.253 259.895)" fill="#fff"/>
          <rect id="Rectangle_64" data-name="Rectangle 64" width="8.712" height="1.871" rx="0.935" transform="translate(46.453 259.895)" fill="#fff"/>
          <rect id="Rectangle_65" data-name="Rectangle 65" width="8.712" height="1.871" rx="0.935" transform="translate(57.654 259.895)" fill="#fff"/>
          <rect id="Rectangle_66" data-name="Rectangle 66" width="8.712" height="1.871" rx="0.935" transform="translate(68.854 259.895)" fill="#fff"/>
          <rect id="Rectangle_67" data-name="Rectangle 67" width="8.712" height="1.871" rx="0.935" transform="translate(80.056 259.895)" fill="#fff"/>
          <rect id="Rectangle_68" data-name="Rectangle 68" width="8.712" height="1.871" rx="0.935" transform="translate(91.255 259.895)" fill="#fff"/>
        </g>
      </g>
    </g>
    <g id="Group_11" data-name="Group 11" transform="translate(433 482)" opacity="0.4">
      <g id="Group_10" data-name="Group 10">
        <circle id="Ellipse_1" data-name="Ellipse 1" cx="2.381" cy="2.381" r="2.381" transform="translate(31.193 185.24)" fill="rgba(255,255,255,0.6)"/>
        <circle id="Ellipse_2" data-name="Ellipse 2" cx="2.381" cy="2.381" r="2.381" transform="translate(38.336 185.24)" fill="rgba(255,255,255,0.6)"/>
        <circle id="Ellipse_3" data-name="Ellipse 3" cx="2.381" cy="2.381" r="2.381" transform="translate(45.478 185.24)" fill="rgba(255,255,255,0.6)"/>
        <circle id="Ellipse_4" data-name="Ellipse 4" cx="2.381" cy="2.381" r="2.381" transform="translate(52.621 185.24)" fill="rgba(255,255,255,0.6)"/>
        <circle id="Ellipse_5" data-name="Ellipse 5" cx="2.381" cy="2.381" r="2.381" transform="translate(59.764 185.24)" fill="rgba(255,255,255,0.6)"/>
        <circle id="Ellipse_6" data-name="Ellipse 6" cx="2.381" cy="2.381" r="2.381" transform="translate(66.906 185.24)" fill="rgba(255,255,255,0.6)"/>
        <circle id="Ellipse_7" data-name="Ellipse 7" cx="2.381" cy="2.381" r="2.381" transform="translate(74.048 185.24)" fill="rgba(255,255,255,0.6)"/>
        <circle id="Ellipse_8" data-name="Ellipse 8" cx="2.381" cy="2.381" r="2.381" transform="translate(31.193 192.382)" fill="rgba(255,255,255,0.6)"/>
        <circle id="Ellipse_9" data-name="Ellipse 9" cx="2.381" cy="2.381" r="2.381" transform="translate(38.336 192.382)" fill="rgba(255,255,255,0.6)"/>
        <circle id="Ellipse_10" data-name="Ellipse 10" cx="2.381" cy="2.381" r="2.381" transform="translate(45.478 192.382)" fill="rgba(255,255,255,0.6)"/>
        <circle id="Ellipse_11" data-name="Ellipse 11" cx="2.381" cy="2.381" r="2.381" transform="translate(52.621 192.382)" fill="rgba(255,255,255,0.6)"/>
        <circle id="Ellipse_12" data-name="Ellipse 12" cx="2.381" cy="2.381" r="2.381" transform="translate(59.764 192.382)" fill="rgba(255,255,255,0.6)"/>
        <circle id="Ellipse_13" data-name="Ellipse 13" cx="2.381" cy="2.381" r="2.381" transform="translate(66.906 192.382)" fill="rgba(255,255,255,0.6)"/>
        <circle id="Ellipse_14" data-name="Ellipse 14" cx="2.381" cy="2.381" r="2.381" transform="translate(74.048 192.382)" fill="rgba(255,255,255,0.6)"/>
        <circle id="Ellipse_15" data-name="Ellipse 15" cx="2.381" cy="2.381" r="2.381" transform="translate(31.193 199.525)" fill="rgba(255,255,255,0.6)"/>
        <circle id="Ellipse_16" data-name="Ellipse 16" cx="2.381" cy="2.381" r="2.381" transform="translate(38.336 199.525)" fill="rgba(255,255,255,0.6)"/>
        <circle id="Ellipse_17" data-name="Ellipse 17" cx="2.381" cy="2.381" r="2.381" transform="translate(45.478 199.525)" fill="rgba(255,255,255,0.6)"/>
        <circle id="Ellipse_18" data-name="Ellipse 18" cx="2.381" cy="2.381" r="2.381" transform="translate(52.621 199.525)" fill="rgba(255,255,255,0.6)"/>
        <circle id="Ellipse_19" data-name="Ellipse 19" cx="2.381" cy="2.381" r="2.381" transform="translate(59.764 199.525)" fill="rgba(255,255,255,0.6)"/>
        <circle id="Ellipse_20" data-name="Ellipse 20" cx="2.381" cy="2.381" r="2.381" transform="translate(66.906 199.525)" fill="rgba(255,255,255,0.6)"/>
        <circle id="Ellipse_21" data-name="Ellipse 21" cx="2.381" cy="2.381" r="2.381" transform="translate(74.048 199.525)" fill="rgba(255,255,255,0.6)"/>
        <circle id="Ellipse_22" data-name="Ellipse 22" cx="2.381" cy="2.381" r="2.381" transform="translate(31.193 206.667)" fill="rgba(255,255,255,0.6)"/>
        <circle id="Ellipse_23" data-name="Ellipse 23" cx="2.381" cy="2.381" r="2.381" transform="translate(38.336 206.667)" fill="rgba(255,255,255,0.6)"/>
        <circle id="Ellipse_24" data-name="Ellipse 24" cx="2.381" cy="2.381" r="2.381" transform="translate(45.478 206.667)" fill="rgba(255,255,255,0.6)"/>
        <circle id="Ellipse_25" data-name="Ellipse 25" cx="2.381" cy="2.381" r="2.381" transform="translate(52.621 206.667)" fill="rgba(255,255,255,0.6)"/>
        <circle id="Ellipse_26" data-name="Ellipse 26" cx="2.381" cy="2.381" r="2.381" transform="translate(59.764 206.667)" fill="rgba(255,255,255,0.6)"/>
        <circle id="Ellipse_27" data-name="Ellipse 27" cx="2.381" cy="2.381" r="2.381" transform="translate(66.906 206.667)" fill="rgba(255,255,255,0.6)"/>
        <circle id="Ellipse_28" data-name="Ellipse 28" cx="2.381" cy="2.381" r="2.381" transform="translate(74.048 206.667)" fill="rgba(255,255,255,0.6)"/>
        <circle id="Ellipse_29" data-name="Ellipse 29" cx="2.381" cy="2.381" r="2.381" transform="translate(31.193 213.81)" fill="rgba(255,255,255,0.6)"/>
        <circle id="Ellipse_30" data-name="Ellipse 30" cx="2.381" cy="2.381" r="2.381" transform="translate(38.336 213.81)" fill="rgba(255,255,255,0.6)"/>
        <circle id="Ellipse_31" data-name="Ellipse 31" cx="2.381" cy="2.381" r="2.381" transform="translate(45.478 213.81)" fill="rgba(255,255,255,0.6)"/>
        <circle id="Ellipse_32" data-name="Ellipse 32" cx="2.381" cy="2.381" r="2.381" transform="translate(52.621 213.81)" fill="rgba(255,255,255,0.6)"/>
        <circle id="Ellipse_33" data-name="Ellipse 33" cx="2.381" cy="2.381" r="2.381" transform="translate(59.764 213.81)" fill="rgba(255,255,255,0.6)"/>
        <circle id="Ellipse_34" data-name="Ellipse 34" cx="2.381" cy="2.381" r="2.381" transform="translate(66.906 213.81)" fill="rgba(255,255,255,0.6)"/>
        <circle id="Ellipse_35" data-name="Ellipse 35" cx="2.381" cy="2.381" r="2.381" transform="translate(74.048 213.81)" fill="rgba(255,255,255,0.6)"/>
        <circle id="Ellipse_36" data-name="Ellipse 36" cx="2.381" cy="2.381" r="2.381" transform="translate(31.193 220.952)" fill="rgba(255,255,255,0.6)"/>
        <circle id="Ellipse_37" data-name="Ellipse 37" cx="2.381" cy="2.381" r="2.381" transform="translate(38.336 220.952)" fill="rgba(255,255,255,0.6)"/>
        <circle id="Ellipse_38" data-name="Ellipse 38" cx="2.381" cy="2.381" r="2.381" transform="translate(45.478 220.952)" fill="rgba(255,255,255,0.6)"/>
        <circle id="Ellipse_39" data-name="Ellipse 39" cx="2.381" cy="2.381" r="2.381" transform="translate(52.621 220.952)" fill="rgba(255,255,255,0.6)"/>
        <circle id="Ellipse_40" data-name="Ellipse 40" cx="2.381" cy="2.381" r="2.381" transform="translate(59.764 220.952)" fill="rgba(255,255,255,0.6)"/>
        <circle id="Ellipse_41" data-name="Ellipse 41" cx="2.381" cy="2.381" r="2.381" transform="translate(66.906 220.952)" fill="rgba(255,255,255,0.6)"/>
        <circle id="Ellipse_42" data-name="Ellipse 42" cx="2.381" cy="2.381" r="2.381" transform="translate(74.048 220.952)" fill="rgba(255,255,255,0.6)"/>
        <circle id="Ellipse_43" data-name="Ellipse 43" cx="2.381" cy="2.381" r="2.381" transform="translate(31.193 228.095)" fill="rgba(255,255,255,0.6)"/>
        <circle id="Ellipse_44" data-name="Ellipse 44" cx="2.381" cy="2.381" r="2.381" transform="translate(38.336 228.095)" fill="rgba(255,255,255,0.6)"/>
        <circle id="Ellipse_45" data-name="Ellipse 45" cx="2.381" cy="2.381" r="2.381" transform="translate(45.478 228.095)" fill="rgba(255,255,255,0.6)"/>
        <circle id="Ellipse_46" data-name="Ellipse 46" cx="2.381" cy="2.381" r="2.381" transform="translate(52.621 228.095)" fill="rgba(255,255,255,0.6)"/>
        <circle id="Ellipse_47" data-name="Ellipse 47" cx="2.381" cy="2.381" r="2.381" transform="translate(59.764 228.095)" fill="rgba(255,255,255,0.6)"/>
        <circle id="Ellipse_48" data-name="Ellipse 48" cx="2.381" cy="2.381" r="2.381" transform="translate(66.906 228.095)" fill="rgba(255,255,255,0.6)"/>
        <circle id="Ellipse_49" data-name="Ellipse 49" cx="2.381" cy="2.381" r="2.381" transform="translate(74.048 228.095)" fill="rgba(255,255,255,0.6)"/>
      </g>
    </g>
    <path id="Path_130" data-name="Path 130" d="M51.008,182.481a1.4,1.4,0,0,1-.547,1.176,2.372,2.372,0,0,1-1.484.421,3.727,3.727,0,0,1-1.562-.261v-.641a4.161,4.161,0,0,0,.766.235,4.046,4.046,0,0,0,.82.085,1.663,1.663,0,0,0,1-.25.831.831,0,0,0,.336-.7.876.876,0,0,0-.121-.484,1.075,1.075,0,0,0-.4-.352,5.618,5.618,0,0,0-.848-.363,2.723,2.723,0,0,1-1.141-.676,1.5,1.5,0,0,1-.34-1.019,1.268,1.268,0,0,1,.5-1.051,2.064,2.064,0,0,1,1.313-.391,3.874,3.874,0,0,1,1.566.313l-.207.578a3.538,3.538,0,0,0-1.375-.3,1.331,1.331,0,0,0-.824.227.746.746,0,0,0-.3.629.975.975,0,0,0,.109.488,1.058,1.058,0,0,0,.367.348,4.768,4.768,0,0,0,.8.347,3.13,3.13,0,0,1,1.234.688A1.347,1.347,0,0,1,51.008,182.481ZM52.727,184h-.649v-4.281h.649Zm-.7-5.441a.423.423,0,0,1,.109-.324.4.4,0,0,1,.543,0,.422.422,0,0,1,.113.324.436.436,0,0,1-.113.328.384.384,0,0,1-.27.106.38.38,0,0,1-.273-.106A.445.445,0,0,1,52.023,178.559ZM57.031,184v-2.769a1.115,1.115,0,0,0-.238-.781.97.97,0,0,0-.746-.258,1.231,1.231,0,0,0-.984.363,1.834,1.834,0,0,0-.312,1.2V184H54.1v-4.281h.527l.106.586h.031a1.306,1.306,0,0,1,.559-.488,1.8,1.8,0,0,1,.8-.176,1.621,1.621,0,0,1,1.164.375,1.58,1.58,0,0,1,.391,1.191V184Zm2.594-4.281V182.5a1.119,1.119,0,0,0,.238.782.97.97,0,0,0,.746.258,1.211,1.211,0,0,0,.98-.368,1.841,1.841,0,0,0,.313-1.2v-2.25h.648V184h-.535l-.094-.574h-.035a1.291,1.291,0,0,1-.555.485,1.844,1.844,0,0,1-.8.167,1.641,1.641,0,0,1-1.172-.371,1.583,1.583,0,0,1-.387-1.187v-2.8Zm7.066,3.113a1.072,1.072,0,0,1-.445.922,2.094,2.094,0,0,1-1.25.324,2.715,2.715,0,0,1-1.328-.269v-.6a3.126,3.126,0,0,0,.66.246,2.784,2.784,0,0,0,.684.09,1.559,1.559,0,0,0,.781-.16.54.54,0,0,0,.273-.5.529.529,0,0,0-.219-.426,3.352,3.352,0,0,0-.844-.422,4.786,4.786,0,0,1-.852-.386,1.213,1.213,0,0,1-.375-.379,1,1,0,0,1-.121-.5.955.955,0,0,1,.426-.824,1.975,1.975,0,0,1,1.168-.3,3.426,3.426,0,0,1,1.352.281l-.23.528a3.105,3.105,0,0,0-1.168-.266,1.348,1.348,0,0,0-.7.144.449.449,0,0,0-.234.4.493.493,0,0,0,.086.293.888.888,0,0,0,.285.23,6.282,6.282,0,0,0,.75.317,2.789,2.789,0,0,1,1.027.558A.983.983,0,0,1,66.691,182.832ZM47.32,189.809a6.1,6.1,0,0,1,.3-1.938,4.859,4.859,0,0,1,.875-1.582h.633a5.548,5.548,0,0,0-.848,1.657A6.2,6.2,0,0,0,48,189.8a5.921,5.921,0,0,0,.289,1.832,5.677,5.677,0,0,0,.832,1.633H48.5a4.609,4.609,0,0,1-.875-1.551A5.893,5.893,0,0,1,47.32,189.809ZM52.16,192h-.633v-4.07c0-.338.01-.659.031-.961-.055.055-.116.112-.184.172s-.378.314-.93.762l-.344-.446,1.512-1.168h.547Zm2.242-2.441a4.042,4.042,0,0,1,.652-2.516,2.314,2.314,0,0,1,1.938-.836,2.553,2.553,0,0,1,.7.075v.558a2.228,2.228,0,0,0-.687-.1,1.731,1.731,0,0,0-1.4.574,2.924,2.924,0,0,0-.531,1.8h.047a1.5,1.5,0,0,1,1.359-.672,1.59,1.59,0,0,1,1.211.465,1.747,1.747,0,0,1,.445,1.261,1.949,1.949,0,0,1-.488,1.4,1.729,1.729,0,0,1-1.312.507,1.69,1.69,0,0,1-1.406-.664A2.952,2.952,0,0,1,54.4,189.559Zm1.918,1.969a1.081,1.081,0,0,0,.859-.348,1.488,1.488,0,0,0,.309-1.012,1.3,1.3,0,0,0-.285-.89,1.075,1.075,0,0,0-.851-.325,1.442,1.442,0,0,0-.645.145,1.206,1.206,0,0,0-.469.4.932.932,0,0,0-.172.528,1.809,1.809,0,0,0,.156.75,1.33,1.33,0,0,0,.441.551A1.116,1.116,0,0,0,56.32,191.528Zm2.8.058a.578.578,0,0,1,.117-.394.436.436,0,0,1,.344-.137.453.453,0,0,1,.352.137.662.662,0,0,1,0,.785.461.461,0,0,1-.352.137.477.477,0,0,1-.332-.121A.549.549,0,0,1,59.117,191.586ZM61.77,192l2.367-5.113H61.023v-.6h3.8v.52L62.488,192Zm4.41-4.007a2.624,2.624,0,0,0,.145,1,.487.487,0,0,0,.469.332q.641,0,.641-1.328t-.641-1.321a.487.487,0,0,0-.469.328A2.593,2.593,0,0,0,66.18,187.993Zm1.789,0a2.464,2.464,0,0,1-.3,1.347.979.979,0,0,1-.875.453.963.963,0,0,1-.852-.465,2.46,2.46,0,0,1-.3-1.335,2.492,2.492,0,0,1,.289-1.336.964.964,0,0,1,.863-.45.981.981,0,0,1,.871.465A2.4,2.4,0,0,1,67.969,187.993Zm1.648,2.289a2.637,2.637,0,0,0,.145,1,.49.49,0,0,0,.473.328.511.511,0,0,0,.484-.324,2.453,2.453,0,0,0,.156-1,2.37,2.37,0,0,0-.156-.989.511.511,0,0,0-.484-.324.489.489,0,0,0-.473.324A2.542,2.542,0,0,0,69.617,190.282Zm1.793,0a2.453,2.453,0,0,1-.3,1.343.979.979,0,0,1-.875.453.96.96,0,0,1-.855-.464,3.183,3.183,0,0,1-.008-2.668.964.964,0,0,1,.863-.45.983.983,0,0,1,.863.461A2.343,2.343,0,0,1,71.41,190.282ZM70.4,186.289,67.234,192H66.66l3.168-5.711Zm3.465,3.52a5.851,5.851,0,0,1-.3,1.914,4.559,4.559,0,0,1-.871,1.543h-.625a5.642,5.642,0,0,0,.832-1.629,5.96,5.96,0,0,0,.289-1.836,6.118,6.118,0,0,0-.285-1.855,5.476,5.476,0,0,0-.844-1.657h.633a4.793,4.793,0,0,1,.875,1.59A6.068,6.068,0,0,1,73.867,189.809Z" transform="translate(433 482)" fill="#002444"/>
    <path id="Path_131" data-name="Path 131" d="M33.32,213.809a6.1,6.1,0,0,1,.3-1.938,4.859,4.859,0,0,1,.875-1.582h.8a5.582,5.582,0,0,0-.832,1.649,6.121,6.121,0,0,0-.289,1.863,5.974,5.974,0,0,0,.289,1.848,5.586,5.586,0,0,0,.824,1.617H34.5a4.609,4.609,0,0,1-.875-1.551A5.893,5.893,0,0,1,33.32,213.809ZM38.586,216h-.918v-3.687q0-.66.031-1.047c-.06.062-.134.132-.223.207s-.378.315-.875.719l-.461-.582,1.68-1.321h.766Zm5.531-4.4a1.33,1.33,0,0,1-.316.906,1.6,1.6,0,0,1-.891.485v.031a1.716,1.716,0,0,1,1.031.429,1.219,1.219,0,0,1,.344.907,1.514,1.514,0,0,1-.582,1.273,2.678,2.678,0,0,1-1.656.445,3.726,3.726,0,0,1-1.6-.308v-.817a3.643,3.643,0,0,0,.77.278,3.345,3.345,0,0,0,.781.1,1.648,1.648,0,0,0,.992-.246.89.89,0,0,0,.328-.761.725.725,0,0,0-.363-.672,2.322,2.322,0,0,0-1.141-.215h-.5v-.746h.5q1.367,0,1.367-.945a.7.7,0,0,0-.238-.567,1.072,1.072,0,0,0-.7-.2,2.072,2.072,0,0,0-.625.094,2.9,2.9,0,0,0-.711.355l-.449-.64a2.991,2.991,0,0,1,1.824-.579,2.173,2.173,0,0,1,1.348.371A1.22,1.22,0,0,1,44.117,211.6Zm1.082,3.91a.6.6,0,0,1,.148-.437.571.571,0,0,1,.43-.153.565.565,0,0,1,.434.16.6.6,0,0,1,.149.43.621.621,0,0,1-.152.441.654.654,0,0,1-.859,0A.621.621,0,0,1,45.2,215.512Zm5.691-3.91a1.329,1.329,0,0,1-.316.906,1.6,1.6,0,0,1-.891.485v.031a1.715,1.715,0,0,1,1.031.429,1.219,1.219,0,0,1,.344.907,1.514,1.514,0,0,1-.582,1.273,2.678,2.678,0,0,1-1.656.445,3.725,3.725,0,0,1-1.6-.308v-.817a3.639,3.639,0,0,0,.77.278,3.344,3.344,0,0,0,.781.1,1.648,1.648,0,0,0,.992-.246.89.89,0,0,0,.328-.761.724.724,0,0,0-.363-.672,2.322,2.322,0,0,0-1.141-.215h-.5v-.746h.5q1.367,0,1.367-.945a.7.7,0,0,0-.238-.567,1.072,1.072,0,0,0-.7-.2,2.073,2.073,0,0,0-.625.094,2.9,2.9,0,0,0-.711.355l-.449-.64a2.991,2.991,0,0,1,1.824-.579,2.173,2.173,0,0,1,1.348.371A1.219,1.219,0,0,1,50.891,211.6Zm1.652.4a2.5,2.5,0,0,0,.113.868.387.387,0,0,0,.371.285q.516,0,.516-1.153t-.516-1.152a.387.387,0,0,0-.371.285A2.491,2.491,0,0,0,52.543,212Zm1.758-.007a2.319,2.319,0,0,1-.324,1.351,1.089,1.089,0,0,1-.949.449,1.063,1.063,0,0,1-.922-.465,2.328,2.328,0,0,1-.324-1.335q0-1.786,1.246-1.786a1.082,1.082,0,0,1,.941.465A2.241,2.241,0,0,1,54.3,211.993Zm1.961,2.289a2.527,2.527,0,0,0,.113.871.4.4,0,0,0,.375.289q.512,0,.512-1.16,0-1.145-.512-1.145a.393.393,0,0,0-.375.281A2.463,2.463,0,0,0,56.262,214.282Zm1.758,0a2.3,2.3,0,0,1-.324,1.347,1.091,1.091,0,0,1-.945.449,1.066,1.066,0,0,1-.922-.46,2.3,2.3,0,0,1-.328-1.336q0-1.785,1.25-1.786a1.085,1.085,0,0,1,.934.461A2.227,2.227,0,0,1,58.02,214.282Zm-1.16-3.993L53.691,216h-.758l3.168-5.711Zm3.707,3.52a5.851,5.851,0,0,1-.3,1.914,4.559,4.559,0,0,1-.871,1.543H58.6a5.568,5.568,0,0,0,.824-1.621,5.935,5.935,0,0,0,.289-1.844,6.093,6.093,0,0,0-.289-1.863,5.653,5.653,0,0,0-.832-1.649h.8a4.793,4.793,0,0,1,.875,1.59A6.068,6.068,0,0,1,60.566,213.809Z" transform="translate(433 482)" fill="#002444"/>
    <path id="Path_132" data-name="Path 132" d="M55.875,248.809a6.1,6.1,0,0,1,.3-1.938,4.859,4.859,0,0,1,.875-1.582h.8a5.591,5.591,0,0,0-.832,1.649,6.121,6.121,0,0,0-.289,1.863,5.974,5.974,0,0,0,.289,1.848,5.583,5.583,0,0,0,.824,1.617h-.793a4.609,4.609,0,0,1-.875-1.551A5.893,5.893,0,0,1,55.875,248.809ZM62.316,251H58.445v-.7l1.473-1.48a12.5,12.5,0,0,0,.863-.946,2.256,2.256,0,0,0,.313-.527,1.416,1.416,0,0,0,.1-.527.8.8,0,0,0-.234-.61.885.885,0,0,0-.641-.222,1.723,1.723,0,0,0-.637.121,2.96,2.96,0,0,0-.707.437l-.5-.6a3.189,3.189,0,0,1,.926-.571,2.71,2.71,0,0,1,.957-.168,1.88,1.88,0,0,1,1.277.418,1.4,1.4,0,0,1,.48,1.118,1.943,1.943,0,0,1-.141.734,2.944,2.944,0,0,1-.426.719,9.735,9.735,0,0,1-.953,1l-.992.961v.039h2.711Zm.715-2.433q0-3.353,2.731-3.352a3.337,3.337,0,0,1,.727.067v.765a2.492,2.492,0,0,0-.687-.086,1.8,1.8,0,0,0-1.379.493,2.389,2.389,0,0,0-.5,1.578h.047a1.247,1.247,0,0,1,.516-.489,1.649,1.649,0,0,1,.781-.175,1.553,1.553,0,0,1,1.211.476,1.85,1.85,0,0,1,.434,1.293,1.964,1.964,0,0,1-.5,1.422,1.81,1.81,0,0,1-1.367.52,1.815,1.815,0,0,1-1.766-1.153A3.447,3.447,0,0,1,63.031,248.567Zm1.992,1.754a.893.893,0,0,0,.727-.3,1.311,1.311,0,0,0,.258-.871,1.149,1.149,0,0,0-.242-.774.891.891,0,0,0-.719-.281,1.175,1.175,0,0,0-.547.129.978.978,0,0,0-.395.348.8.8,0,0,0-.145.449,1.463,1.463,0,0,0,.3.93A.94.94,0,0,0,65.023,250.321Zm2.73.191a.6.6,0,0,1,.148-.437.572.572,0,0,1,.43-.153.565.565,0,0,1,.434.16.6.6,0,0,1,.148.43.625.625,0,0,1-.152.442.657.657,0,0,1-.859,0A.626.626,0,0,1,67.754,250.512Zm2.684.488,2.258-4.894H69.727V245.3h3.949v.641L71.43,251Zm4.66-4a2.5,2.5,0,0,0,.113.868.387.387,0,0,0,.371.285q.516,0,.516-1.153t-.516-1.152a.387.387,0,0,0-.371.285A2.491,2.491,0,0,0,75.1,247Zm1.758-.007a2.318,2.318,0,0,1-.324,1.351,1.089,1.089,0,0,1-.949.449,1.065,1.065,0,0,1-.922-.464,2.334,2.334,0,0,1-.324-1.336q0-1.786,1.246-1.786a1.082,1.082,0,0,1,.941.465A2.24,2.24,0,0,1,76.855,246.993Zm1.961,2.289a2.527,2.527,0,0,0,.113.871.4.4,0,0,0,.375.289q.512,0,.512-1.16,0-1.145-.512-1.145a.393.393,0,0,0-.375.281A2.463,2.463,0,0,0,78.816,249.282Zm1.758,0a2.3,2.3,0,0,1-.324,1.347,1.092,1.092,0,0,1-.945.45,1.067,1.067,0,0,1-.922-.461,2.3,2.3,0,0,1-.328-1.336q0-1.785,1.25-1.786a1.085,1.085,0,0,1,.934.461A2.228,2.228,0,0,1,80.574,249.282Zm-1.16-3.993L76.246,251h-.758l3.168-5.711Zm3.707,3.52a5.851,5.851,0,0,1-.3,1.914,4.549,4.549,0,0,1-.871,1.543h-.793a5.565,5.565,0,0,0,.824-1.621,5.935,5.935,0,0,0,.289-1.844,6.093,6.093,0,0,0-.289-1.863,5.653,5.653,0,0,0-.832-1.649h.8a4.793,4.793,0,0,1,.875,1.59A6.068,6.068,0,0,1,83.121,248.809Z" transform="translate(433 482)" fill="#002444"/>
    <path id="Path_133" data-name="Path 133" d="M98.411,226.809a6.1,6.1,0,0,1,.3-1.938,4.861,4.861,0,0,1,.875-1.582h.8a5.579,5.579,0,0,0-.832,1.649,6.121,6.121,0,0,0-.289,1.863,5.974,5.974,0,0,0,.289,1.848,5.578,5.578,0,0,0,.824,1.617h-.793a4.61,4.61,0,0,1-.875-1.551A5.893,5.893,0,0,1,98.411,226.809ZM104.853,229h-3.871v-.7l1.472-1.48a12.633,12.633,0,0,0,.864-.946,2.255,2.255,0,0,0,.312-.527,1.419,1.419,0,0,0,.1-.527.8.8,0,0,0-.235-.61.883.883,0,0,0-.64-.222,1.724,1.724,0,0,0-.637.121,2.958,2.958,0,0,0-.707.437l-.5-.6a3.186,3.186,0,0,1,.926-.571,2.706,2.706,0,0,1,.957-.168,1.879,1.879,0,0,1,1.277.418,1.4,1.4,0,0,1,.481,1.118,1.937,1.937,0,0,1-.141.734,2.93,2.93,0,0,1-.426.719,9.753,9.753,0,0,1-.953,1l-.992.961v.039h2.711Zm4.355-4.4a1.329,1.329,0,0,1-.316.906,1.6,1.6,0,0,1-.891.485v.031a1.713,1.713,0,0,1,1.031.429,1.216,1.216,0,0,1,.344.907,1.514,1.514,0,0,1-.582,1.273,2.677,2.677,0,0,1-1.656.445,3.728,3.728,0,0,1-1.6-.308v-.817a3.66,3.66,0,0,0,.77.278,3.343,3.343,0,0,0,.781.1,1.645,1.645,0,0,0,.992-.246.889.889,0,0,0,.328-.761.725.725,0,0,0-.363-.672,2.32,2.32,0,0,0-1.14-.215h-.5v-.746h.5q1.368,0,1.368-.945a.7.7,0,0,0-.239-.567,1.072,1.072,0,0,0-.7-.2,2.075,2.075,0,0,0-.625.094,2.916,2.916,0,0,0-.711.355l-.449-.64a2.989,2.989,0,0,1,1.824-.579,2.173,2.173,0,0,1,1.348.371A1.219,1.219,0,0,1,109.208,224.6Zm1.082,3.91a.6.6,0,0,1,.149-.437.673.673,0,0,1,.863.007.6.6,0,0,1,.148.43.619.619,0,0,1-.152.441.653.653,0,0,1-.859,0A.621.621,0,0,1,110.29,228.512Zm5.692-3.91a1.329,1.329,0,0,1-.317.906,1.6,1.6,0,0,1-.89.485v.031a1.715,1.715,0,0,1,1.031.429,1.22,1.22,0,0,1,.344.907,1.514,1.514,0,0,1-.582,1.273,2.679,2.679,0,0,1-1.657.445,3.726,3.726,0,0,1-1.6-.308v-.817a3.631,3.631,0,0,0,.769.278,3.352,3.352,0,0,0,.782.1,1.649,1.649,0,0,0,.992-.246.889.889,0,0,0,.328-.761.725.725,0,0,0-.363-.672,2.327,2.327,0,0,0-1.141-.215h-.5v-.746h.5q1.367,0,1.367-.945a.7.7,0,0,0-.238-.567,1.073,1.073,0,0,0-.7-.2,2.066,2.066,0,0,0-.625.094,2.882,2.882,0,0,0-.711.355l-.45-.64a2.994,2.994,0,0,1,1.825-.579,2.172,2.172,0,0,1,1.347.371A1.22,1.22,0,0,1,115.982,224.6Zm1.652.4a2.514,2.514,0,0,0,.113.868.388.388,0,0,0,.371.285q.516,0,.516-1.153t-.516-1.152a.388.388,0,0,0-.371.285A2.5,2.5,0,0,0,117.634,225Zm1.758-.007a2.319,2.319,0,0,1-.324,1.351,1.09,1.09,0,0,1-.95.449,1.062,1.062,0,0,1-.921-.465,2.322,2.322,0,0,1-.325-1.335q0-1.786,1.246-1.786a1.083,1.083,0,0,1,.942.465A2.243,2.243,0,0,1,119.392,224.993Zm1.961,2.289a2.541,2.541,0,0,0,.113.871.4.4,0,0,0,.375.289q.511,0,.512-1.16,0-1.145-.512-1.145a.393.393,0,0,0-.375.281A2.476,2.476,0,0,0,121.353,227.282Zm1.758,0a2.291,2.291,0,0,1-.325,1.347,1.091,1.091,0,0,1-.945.449,1.067,1.067,0,0,1-.922-.46,2.3,2.3,0,0,1-.328-1.336q0-1.785,1.25-1.786a1.086,1.086,0,0,1,.934.461A2.227,2.227,0,0,1,123.111,227.282Zm-1.161-3.993L118.782,229h-.757l3.168-5.711Zm3.707,3.52a5.854,5.854,0,0,1-.3,1.914,4.57,4.57,0,0,1-.871,1.543h-.793a5.572,5.572,0,0,0,.824-1.621,5.927,5.927,0,0,0,.289-1.844,6.084,6.084,0,0,0-.289-1.863,5.66,5.66,0,0,0-.832-1.649h.8a4.817,4.817,0,0,1,.875,1.59A6.082,6.082,0,0,1,125.657,226.809Z" transform="translate(433 482)" fill="#002444"/>
    <path id="Path_134" data-name="Path 134" d="M90.889,191.809a6.093,6.093,0,0,1,.3-1.938,4.859,4.859,0,0,1,.875-1.582h.8a5.579,5.579,0,0,0-.832,1.649,6.121,6.121,0,0,0-.289,1.863,5.974,5.974,0,0,0,.289,1.848,5.585,5.585,0,0,0,.824,1.617h-.793a4.609,4.609,0,0,1-.875-1.551A5.891,5.891,0,0,1,90.889,191.809ZM97.33,194H93.459v-.7l1.473-1.48a12.5,12.5,0,0,0,.863-.946,2.251,2.251,0,0,0,.313-.527,1.417,1.417,0,0,0,.1-.527.8.8,0,0,0-.234-.61.885.885,0,0,0-.641-.222,1.722,1.722,0,0,0-.637.121,2.962,2.962,0,0,0-.707.437l-.5-.6a3.188,3.188,0,0,1,.926-.571,2.71,2.71,0,0,1,.957-.168,1.88,1.88,0,0,1,1.277.418,1.4,1.4,0,0,1,.48,1.118,1.943,1.943,0,0,1-.141.734,2.944,2.944,0,0,1-.426.719,9.726,9.726,0,0,1-.953,1l-.992.961v.039H97.33Zm4.571-2.855a4.044,4.044,0,0,1-.481,2.211,1.805,1.805,0,0,1-2.906-.024,3.987,3.987,0,0,1-.492-2.187,4.09,4.09,0,0,1,.477-2.227,1.81,1.81,0,0,1,2.911.032A4.018,4.018,0,0,1,101.9,191.145Zm-2.95,0a4.189,4.189,0,0,0,.238,1.668.84.84,0,0,0,1.539-.008,5.724,5.724,0,0,0,0-3.32.836.836,0,0,0-1.539-.012A4.222,4.222,0,0,0,98.951,191.145ZM103.338,190a2.514,2.514,0,0,0,.113.868.388.388,0,0,0,.372.285q.515,0,.515-1.153t-.515-1.152a.388.388,0,0,0-.372.285A2.5,2.5,0,0,0,103.338,190Zm1.758-.007a2.319,2.319,0,0,1-.324,1.351,1.09,1.09,0,0,1-.949.449,1.063,1.063,0,0,1-.922-.465,2.33,2.33,0,0,1-.325-1.335q0-1.786,1.247-1.786a1.083,1.083,0,0,1,.941.465A2.243,2.243,0,0,1,105.1,189.993Zm1.961,2.289a2.541,2.541,0,0,0,.113.871.4.4,0,0,0,.375.289q.512,0,.512-1.16,0-1.145-.512-1.145a.393.393,0,0,0-.375.281A2.477,2.477,0,0,0,107.057,192.282Zm1.758,0a2.3,2.3,0,0,1-.324,1.347,1.094,1.094,0,0,1-.946.449,1.067,1.067,0,0,1-.922-.46,2.308,2.308,0,0,1-.328-1.336q0-1.785,1.25-1.786a1.086,1.086,0,0,1,.934.461A2.227,2.227,0,0,1,108.815,192.282Zm-1.16-3.993L104.487,194h-.758l3.168-5.711Zm3.707,3.52a5.854,5.854,0,0,1-.305,1.914,4.57,4.57,0,0,1-.871,1.543h-.793a5.572,5.572,0,0,0,.824-1.621,5.927,5.927,0,0,0,.289-1.844,6.083,6.083,0,0,0-.289-1.863,5.66,5.66,0,0,0-.832-1.649h.8a4.8,4.8,0,0,1,.875,1.59A6.082,6.082,0,0,1,111.362,191.809Z" transform="translate(433 482)" fill="#002444"/>
    <path id="Path_136" data-name="Path 136" d="M39.555,277l-.578-1.476h-1.86L36.546,277H36l1.834-4.659h.454L40.113,277Zm-.746-1.961-.54-1.438q-.1-.273-.216-.67a6.007,6.007,0,0,1-.2.67l-.546,1.438Zm2.987,1.59a1.963,1.963,0,0,0,.27-.019,1.914,1.914,0,0,0,.206-.045v.4a.917.917,0,0,1-.254.067,1.766,1.766,0,0,1-.3.028q-1.009,0-1.009-1.063v-2.069h-.5v-.254l.5-.219.222-.743h.3v.806h1.009v.41H41.237v2.047a.7.7,0,0,0,.149.482A.517.517,0,0,0,41.8,276.629Zm2.761-3.171a2.091,2.091,0,0,1,.416.038l-.073.489a1.781,1.781,0,0,0-.381-.048.934.934,0,0,0-.724.343,1.255,1.255,0,0,0-.3.854V277H42.97v-3.479H43.4l.06.645h.025a1.528,1.528,0,0,1,.467-.524A1.048,1.048,0,0,1,44.557,273.458ZM46.15,277h-.527v-3.479h.527Zm-.571-4.421a.345.345,0,0,1,.089-.264.329.329,0,0,1,.441,0,.345.345,0,0,1,.092.264.353.353,0,0,1-.092.266.326.326,0,0,1-.441,0A.361.361,0,0,1,45.579,272.579ZM49.406,277l-.1-.495h-.025a1.471,1.471,0,0,1-.521.444,1.593,1.593,0,0,1-.644.114,1.166,1.166,0,0,1-.812-.266.977.977,0,0,1-.292-.759q0-1.053,1.685-1.1l.59-.019V274.7a.87.87,0,0,0-.178-.6.716.716,0,0,0-.562-.2,2.293,2.293,0,0,0-.984.267l-.162-.4a2.492,2.492,0,0,1,.562-.219,2.454,2.454,0,0,1,.616-.08,1.319,1.319,0,0,1,.92.276,1.152,1.152,0,0,1,.3.886V277Zm-1.19-.371a1.063,1.063,0,0,0,.771-.27,1,1,0,0,0,.282-.755v-.315l-.527.023a1.907,1.907,0,0,0-.908.2.587.587,0,0,0-.276.537.543.543,0,0,0,.171.434A.721.721,0,0,0,48.216,276.629Zm3.2.371h-.527v-4.938h.527Z" transform="translate(433 482)" fill="#002444"/>
    <rect id="Rectangle_69" data-name="Rectangle 69" width="7" height="7" transform="translate(460 754)" fill="#b7efff"/>
    <g id="Group_13" data-name="Group 13" transform="translate(433 482)" opacity="0.6">
      <g id="Group_12" data-name="Group 12">
        <path id="Path_137" data-name="Path 137" d="M27.96,273.52l.84-.84" fill="none" stroke="#8dd0f9" stroke-linecap="round" stroke-width="0.5" stroke-dasharray="2 2"/>
        <path id="Path_138" data-name="Path 138" d="M30.2,273.52l.84-.84" fill="none" stroke="#8dd0f9" stroke-linecap="round" stroke-width="0.5" stroke-dasharray="2 2"/>
        <path id="Path_139" data-name="Path 139" d="M32.44,273.52l.84-.84" fill="none" stroke="#8dd0f9" stroke-linecap="round" stroke-width="0.5" stroke-dasharray="2 2"/>
        <path id="Path_140" data-name="Path 140" d="M27.96,275.76l.84-.84" fill="none" stroke="#8dd0f9" stroke-linecap="round" stroke-width="0.5" stroke-dasharray="2 2"/>
        <path id="Path_141" data-name="Path 141" d="M30.2,275.76l.84-.84" fill="none" stroke="#8dd0f9" stroke-linecap="round" stroke-width="0.5" stroke-dasharray="2 2"/>
        <path id="Path_142" data-name="Path 142" d="M32.44,275.76l.84-.84" fill="none" stroke="#8dd0f9" stroke-linecap="round" stroke-width="0.5" stroke-dasharray="2 2"/>
        <path id="Path_143" data-name="Path 143" d="M27.96,278l.84-.84" fill="none" stroke="#8dd0f9" stroke-linecap="round" stroke-width="0.5" stroke-dasharray="2 2"/>
        <path id="Path_144" data-name="Path 144" d="M30.2,278l.84-.84" fill="none" stroke="#8dd0f9" stroke-linecap="round" stroke-width="0.5" stroke-dasharray="2 2"/>
        <path id="Path_145" data-name="Path 145" d="M32.44,278l.84-.84" fill="none" stroke="#8dd0f9" stroke-linecap="round" stroke-width="0.5" stroke-dasharray="2 2"/>
      </g>
    </g>
    <path id="Path_146" data-name="Path 146" d="M87.288,272.36h.581L86.2,277h-.533L84,272.36h.571l1.066,3a8.488,8.488,0,0,1,.292,1.006,8.463,8.463,0,0,1,.3-1.025Zm2.612,4.7a1.6,1.6,0,0,1-1.219-.469,1.823,1.823,0,0,1-.444-1.3,2.022,2.022,0,0,1,.413-1.336,1.38,1.38,0,0,1,1.114-.495,1.309,1.309,0,0,1,1.035.432,1.64,1.64,0,0,1,.381,1.133v.333h-2.4a1.386,1.386,0,0,0,.308.93,1.077,1.077,0,0,0,.828.317,2.8,2.8,0,0,0,1.111-.235v.47a2.667,2.667,0,0,1-.53.172A2.935,2.935,0,0,1,89.9,277.063Zm-.143-3.164a.865.865,0,0,0-.67.273,1.265,1.265,0,0,0-.292.755h1.819a1.149,1.149,0,0,0-.222-.761A.779.779,0,0,0,89.757,273.9Zm4.7,3.1v-2.25a.908.908,0,0,0-.194-.635.787.787,0,0,0-.606-.209,1,1,0,0,0-.8.295,1.488,1.488,0,0,0-.254.974V277h-.527v-3.479h.428l.086.477h.025a1.061,1.061,0,0,1,.454-.4,1.464,1.464,0,0,1,.651-.143,1.317,1.317,0,0,1,.946.3,1.283,1.283,0,0,1,.317.968V277Zm2.736-.371a1.962,1.962,0,0,0,.27-.019,1.914,1.914,0,0,0,.206-.045v.4a.917.917,0,0,1-.254.067,1.765,1.765,0,0,1-.3.028q-1.009,0-1.009-1.063v-2.069h-.5v-.254l.5-.219.222-.743h.3v.806h1.009v.41H96.638v2.047a.7.7,0,0,0,.149.482A.517.517,0,0,0,97.2,276.629Zm2.761-3.171a2.1,2.1,0,0,1,.416.038l-.073.489a1.784,1.784,0,0,0-.381-.048.934.934,0,0,0-.724.343,1.255,1.255,0,0,0-.3.854V277h-.527v-3.479h.435l.06.645h.025a1.528,1.528,0,0,1,.467-.524A1.048,1.048,0,0,1,99.958,273.458ZM101.551,277h-.527v-3.479h.527Zm-.571-4.421a.346.346,0,0,1,.089-.264.329.329,0,0,1,.441,0,.347.347,0,0,1,.092.264.355.355,0,0,1-.092.266.326.326,0,0,1-.441,0A.362.362,0,0,1,100.98,272.579Zm3.079,4.484a1.494,1.494,0,0,1-1.172-.463,1.923,1.923,0,0,1-.412-1.317,1.978,1.978,0,0,1,.419-1.349,1.52,1.52,0,0,1,1.2-.476,2.373,2.373,0,0,1,.5.054,1.657,1.657,0,0,1,.394.127l-.162.447a2.51,2.51,0,0,0-.381-.114,1.63,1.63,0,0,0-.365-.047q-1.061,0-1.06,1.352a1.61,1.61,0,0,0,.257.983.9.9,0,0,0,.768.343,2.341,2.341,0,0,0,.892-.187v.467A1.91,1.91,0,0,1,104.059,277.063Zm2.2-3.542v2.257a.909.909,0,0,0,.194.635.79.79,0,0,0,.606.209.984.984,0,0,0,.8-.3,1.5,1.5,0,0,0,.254-.974v-1.829h.526V277H108.2l-.077-.467H108.1a1.044,1.044,0,0,1-.451.394,1.5,1.5,0,0,1-.654.136,1.336,1.336,0,0,1-.952-.3,1.29,1.29,0,0,1-.314-.965v-2.276ZM110.286,277h-.527v-4.938h.527Zm3.256,0-.105-.495h-.025a1.472,1.472,0,0,1-.521.444,1.591,1.591,0,0,1-.644.114,1.163,1.163,0,0,1-.812-.266.975.975,0,0,1-.292-.759q0-1.053,1.685-1.1l.59-.019V274.7a.867.867,0,0,0-.178-.6.714.714,0,0,0-.561-.2,2.293,2.293,0,0,0-.984.267l-.162-.4a2.488,2.488,0,0,1,.562-.219,2.449,2.449,0,0,1,.615-.08,1.321,1.321,0,0,1,.921.276,1.152,1.152,0,0,1,.3.886V277Zm-1.19-.371a1.062,1.062,0,0,0,.771-.27,1,1,0,0,0,.283-.755v-.315l-.527.023a1.908,1.908,0,0,0-.908.2.587.587,0,0,0-.276.537.544.544,0,0,0,.171.434A.723.723,0,0,0,112.352,276.629Zm4.256-3.171a2.1,2.1,0,0,1,.416.038l-.073.489a1.784,1.784,0,0,0-.381-.048.933.933,0,0,0-.724.343,1.254,1.254,0,0,0-.3.854V277h-.527v-3.479h.435l.06.645h.026a1.525,1.525,0,0,1,.466-.524A1.049,1.049,0,0,1,116.608,273.458Z" transform="translate(433 482)" fill="#002444"/>
    <rect id="Rectangle_70" data-name="Rectangle 70" width="7" height="7" transform="translate(508 753.662)" fill="#71e0ff"/>
    <g id="Group_16" data-name="Group 16" transform="translate(433 482)" opacity="0.6">
      <g id="Group_15" data-name="Group 15">
        <g id="Group_14" data-name="Group 14" opacity="0.6">
          <path id="Path_147" data-name="Path 147" d="M75.5,244.662v57" fill="none" stroke="#fff" stroke-linecap="round" stroke-width="0.5"/>
          <path id="Path_148" data-name="Path 148" d="M77,244.662v57" fill="none" stroke="#fff" stroke-linecap="round" stroke-width="0.5"/>
          <path id="Path_149" data-name="Path 149" d="M78.5,244.662v57" fill="none" stroke="#fff" stroke-linecap="round" stroke-width="0.5"/>
          <path id="Path_150" data-name="Path 150" d="M80,244.662v57" fill="none" stroke="#fff" stroke-linecap="round" stroke-width="0.5"/>
          <path id="Path_151" data-name="Path 151" d="M81.5,244.662v57" fill="none" stroke="#fff" stroke-linecap="round" stroke-width="0.5"/>
        </g>
      </g>
    </g>
    <path id="Path_152" data-name="Path 152" d="M40.555,292l-.578-1.476h-1.86L37.546,292H37l1.834-4.659h.454L41.113,292Zm-.746-1.961-.54-1.438q-.1-.273-.216-.67a6.007,6.007,0,0,1-.2.67l-.546,1.438Zm3.45-1.581a2.092,2.092,0,0,1,.416.038l-.073.489a1.782,1.782,0,0,0-.381-.048.934.934,0,0,0-.724.343,1.255,1.255,0,0,0-.3.854V292h-.527v-3.479h.435l.06.645h.025a1.528,1.528,0,0,1,.466-.524A1.049,1.049,0,0,1,43.259,288.458Zm2.19,3.171a1.961,1.961,0,0,0,.27-.019,1.909,1.909,0,0,0,.206-.045v.4a.917.917,0,0,1-.254.067,1.766,1.766,0,0,1-.3.028q-1.009,0-1.009-1.063v-2.069h-.5v-.254l.5-.219.222-.743h.3v.806H45.9v.41H44.89v2.047a.7.7,0,0,0,.149.482A.517.517,0,0,0,45.449,291.629Zm1.7.371h-.527v-3.479h.527Zm-.571-4.421a.345.345,0,0,1,.089-.264.329.329,0,0,1,.441,0,.345.345,0,0,1,.092.264.353.353,0,0,1-.092.266.326.326,0,0,1-.441,0A.361.361,0,0,1,46.579,287.579Zm3.256,1.352H48.95V292h-.527v-3.069H47.8v-.238l.622-.191v-.193q0-1.282,1.12-1.282a2.306,2.306,0,0,1,.647.111l-.136.422a1.734,1.734,0,0,0-.521-.1.506.506,0,0,0-.441.2,1.1,1.1,0,0,0-.143.635v.225h.885ZM52.609,292l-.1-.495h-.025a1.471,1.471,0,0,1-.521.444,1.593,1.593,0,0,1-.644.114,1.166,1.166,0,0,1-.812-.266.976.976,0,0,1-.292-.759q0-1.053,1.685-1.1l.59-.019V289.7a.87.87,0,0,0-.178-.6.717.717,0,0,0-.562-.2,2.293,2.293,0,0,0-.984.267l-.162-.4a2.49,2.49,0,0,1,.562-.219,2.455,2.455,0,0,1,.616-.08,1.319,1.319,0,0,1,.92.276,1.152,1.152,0,0,1,.3.886V292Zm-1.19-.371a1.063,1.063,0,0,0,.771-.27,1,1,0,0,0,.283-.755v-.315l-.527.023a1.908,1.908,0,0,0-.908.2.587.587,0,0,0-.276.537.543.543,0,0,0,.171.434A.722.722,0,0,0,51.419,291.629Zm4.059.434a1.492,1.492,0,0,1-1.171-.463,1.923,1.923,0,0,1-.413-1.317,1.976,1.976,0,0,1,.419-1.349,1.52,1.52,0,0,1,1.2-.476,2.377,2.377,0,0,1,.5.054,1.639,1.639,0,0,1,.394.127l-.162.447a2.468,2.468,0,0,0-.381-.114,1.628,1.628,0,0,0-.365-.047q-1.06,0-1.06,1.352a1.614,1.614,0,0,0,.257.983.9.9,0,0,0,.768.343,2.34,2.34,0,0,0,.892-.187v.467A1.909,1.909,0,0,1,55.478,292.063Zm2.831-.434a1.963,1.963,0,0,0,.27-.019,1.914,1.914,0,0,0,.206-.045v.4a.917.917,0,0,1-.254.067,1.765,1.765,0,0,1-.3.028q-1.009,0-1.009-1.063v-2.069h-.5v-.254l.5-.219.222-.743h.3v.806H58.76v.41H57.75v2.047a.7.7,0,0,0,.149.482A.517.517,0,0,0,58.309,291.629Z" transform="translate(433 482)" fill="#002444"/>
    <rect id="Rectangle_71" data-name="Rectangle 71" width="7" height="7" transform="translate(461 767.562)" fill="#37d4ff"/>
    <g id="Group_18" data-name="Group 18" transform="translate(433 482)">
      <g id="Group_17" data-name="Group 17" opacity="0.6">
        <rect id="Rectangle_72" data-name="Rectangle 72" width="3" height="1" rx="0.5" transform="translate(28 286.562)" fill="#fff"/>
        <rect id="Rectangle_73" data-name="Rectangle 73" width="3" height="1" rx="0.5" transform="translate(32 286.562)" fill="#fff"/>
        <rect id="Rectangle_74" data-name="Rectangle 74" width="3" height="1" rx="0.5" transform="translate(28 288.562)" fill="#fff"/>
        <rect id="Rectangle_75" data-name="Rectangle 75" width="3" height="1" rx="0.5" transform="translate(32 288.562)" fill="#fff"/>
        <rect id="Rectangle_76" data-name="Rectangle 76" width="3" height="1" rx="0.5" transform="translate(28 290.562)" fill="#fff"/>
        <rect id="Rectangle_77" data-name="Rectangle 77" width="3" height="1" rx="0.5" transform="translate(32 290.562)" fill="#fff"/>
      </g>
    </g>
    <path id="Path_153" data-name="Path 153" d="M84.638,286.36h1.311a2.474,2.474,0,0,1,1.336.276.975.975,0,0,1,.413.873,1.009,1.009,0,0,1-.232.682,1.1,1.1,0,0,1-.67.346v.032q1.057.18,1.057,1.111a1.192,1.192,0,0,1-.422.971,1.782,1.782,0,0,1-1.174.349H84.638Zm.54,1.987h.889a1.461,1.461,0,0,0,.822-.178.7.7,0,0,0,.251-.606A.607.607,0,0,0,86.86,287a1.735,1.735,0,0,0-.889-.175h-.793Zm0,.457v1.736h.968a1.378,1.378,0,0,0,.844-.216.8.8,0,0,0,.286-.682.719.719,0,0,0-.292-.635,1.54,1.54,0,0,0-.882-.2ZM89.3,291h-.527v-4.938H89.3Zm4.12-1.742a1.922,1.922,0,0,1-.428,1.329,1.51,1.51,0,0,1-1.184.476,1.568,1.568,0,0,1-.828-.219,1.443,1.443,0,0,1-.559-.628,2.188,2.188,0,0,1-.2-.958,1.911,1.911,0,0,1,.425-1.324,1.5,1.5,0,0,1,1.181-.476,1.466,1.466,0,0,1,1.158.486A1.9,1.9,0,0,1,93.42,289.258Zm-2.65,0a1.65,1.65,0,0,0,.267,1.015,1.058,1.058,0,0,0,1.568,0,1.639,1.639,0,0,0,.27-1.018,1.6,1.6,0,0,0-.27-1.007,1.073,1.073,0,0,0-1.571-.006A1.637,1.637,0,0,0,90.77,289.258Zm4.967,1.8a1.492,1.492,0,0,1-1.171-.463,1.923,1.923,0,0,1-.413-1.317,1.976,1.976,0,0,1,.419-1.349,1.52,1.52,0,0,1,1.2-.476,2.377,2.377,0,0,1,.5.054,1.638,1.638,0,0,1,.394.127l-.162.447a2.468,2.468,0,0,0-.381-.114,1.628,1.628,0,0,0-.365-.047q-1.06,0-1.06,1.352a1.614,1.614,0,0,0,.257.983.9.9,0,0,0,.768.343,2.34,2.34,0,0,0,.892-.187v.467A1.909,1.909,0,0,1,95.737,291.063Zm2.228-1.844a6.144,6.144,0,0,1,.416-.507l1.124-1.191h.625L98.72,289l1.508,2H99.59l-1.228-1.644-.4.343V291h-.521v-4.938h.521v2.618c0,.116-.008.3-.025.539Zm5.338-1.936a.833.833,0,0,0,.114.419,2.576,2.576,0,0,0,.391.476,2.035,2.035,0,0,0,.568-.438.724.724,0,0,0,.162-.466.516.516,0,0,0-.165-.4.6.6,0,0,0-.435-.155.679.679,0,0,0-.46.152A.515.515,0,0,0,103.3,287.283Zm.492,3.308a1.753,1.753,0,0,0,1.27-.489l-1.387-1.346a3.047,3.047,0,0,0-.5.359.868.868,0,0,0-.285.669.753.753,0,0,0,.244.591A.963.963,0,0,0,103.795,290.591Zm-1.447-.794a1.255,1.255,0,0,1,.219-.73,2.414,2.414,0,0,1,.793-.641,4.079,4.079,0,0,1-.368-.457,1.645,1.645,0,0,1-.152-.324,1.077,1.077,0,0,1-.057-.349.925.925,0,0,1,.311-.743,1.292,1.292,0,0,1,.866-.266,1.168,1.168,0,0,1,.81.266.941.941,0,0,1,.3.737,1.026,1.026,0,0,1-.216.628,2.462,2.462,0,0,1-.714.581l1.292,1.241a1.53,1.53,0,0,0,.282-.46,3.962,3.962,0,0,0,.181-.581h.533a3.031,3.031,0,0,1-.651,1.377l.949.924H106l-.588-.565a2.252,2.252,0,0,1-1.625.628,1.543,1.543,0,0,1-1.06-.336A1.187,1.187,0,0,1,102.348,289.8Zm9.658-2.085a1.3,1.3,0,0,1-.483,1.085,2.174,2.174,0,0,1-1.374.378H109.6V291h-.539v-4.64h1.2Q112.006,286.36,112.006,287.712Zm-2.4,1h.486a1.81,1.81,0,0,0,1.038-.232.855.855,0,0,0,.32-.743.8.8,0,0,0-.3-.685,1.577,1.577,0,0,0-.94-.226h-.6ZM115.04,291l-.105-.495h-.025a1.472,1.472,0,0,1-.521.444,1.591,1.591,0,0,1-.644.114,1.163,1.163,0,0,1-.812-.266.975.975,0,0,1-.292-.759q0-1.053,1.685-1.1l.59-.019V288.7a.872.872,0,0,0-.177-.6.718.718,0,0,0-.562-.2,2.293,2.293,0,0,0-.984.267l-.162-.4a2.488,2.488,0,0,1,.562-.219,2.449,2.449,0,0,1,.615-.08,1.321,1.321,0,0,1,.921.276,1.152,1.152,0,0,1,.3.886V291Zm-1.19-.371a1.062,1.062,0,0,0,.771-.27,1,1,0,0,0,.283-.755v-.315l-.527.023a1.908,1.908,0,0,0-.908.2.587.587,0,0,0-.276.537.544.544,0,0,0,.171.434A.723.723,0,0,0,113.85,290.629Zm3.164-3.108v2.257a.909.909,0,0,0,.194.635.79.79,0,0,0,.606.209.985.985,0,0,0,.8-.3,1.5,1.5,0,0,0,.254-.974v-1.829h.526V291h-.434l-.077-.467h-.028a1.044,1.044,0,0,1-.451.394,1.5,1.5,0,0,1-.654.136,1.336,1.336,0,0,1-.952-.3,1.29,1.29,0,0,1-.314-.965v-2.276Zm5.742,2.53a.872.872,0,0,1-.362.749,1.7,1.7,0,0,1-1.016.263,2.208,2.208,0,0,1-1.079-.219v-.488a2.679,2.679,0,0,0,.536.2,2.3,2.3,0,0,0,.556.073,1.278,1.278,0,0,0,.635-.13.441.441,0,0,0,.222-.4.428.428,0,0,0-.178-.345,2.655,2.655,0,0,0-.685-.343,3.95,3.95,0,0,1-.692-.314.98.98,0,0,1-.305-.308.808.808,0,0,1-.1-.41.775.775,0,0,1,.345-.669,1.605,1.605,0,0,1,.949-.248,2.769,2.769,0,0,1,1.1.229l-.188.428a2.517,2.517,0,0,0-.949-.216,1.086,1.086,0,0,0-.565.118.362.362,0,0,0-.19.323.4.4,0,0,0,.07.238.733.733,0,0,0,.232.188,5.044,5.044,0,0,0,.609.257,2.244,2.244,0,0,1,.835.454A.8.8,0,0,1,122.756,290.051Zm2.329,1.012a1.605,1.605,0,0,1-1.219-.469,1.824,1.824,0,0,1-.444-1.3,2.023,2.023,0,0,1,.413-1.336,1.38,1.38,0,0,1,1.114-.495,1.307,1.307,0,0,1,1.034.432,1.64,1.64,0,0,1,.381,1.133v.333h-2.4a1.386,1.386,0,0,0,.308.93,1.077,1.077,0,0,0,.828.317,2.794,2.794,0,0,0,1.111-.235v.47a2.667,2.667,0,0,1-.53.172A2.935,2.935,0,0,1,125.085,291.063Zm-.143-3.164a.864.864,0,0,0-.669.273,1.261,1.261,0,0,0-.292.755H125.8a1.15,1.15,0,0,0-.222-.761A.78.78,0,0,0,124.942,287.9Z" transform="translate(433 482)" fill="#002444"/>
    <rect id="Rectangle_78" data-name="Rectangle 78" width="7" height="7" transform="translate(508 766.9)" fill="#00aad9"/>
    <g id="Group_19" data-name="Group 19" transform="translate(433 482)">
      <circle id="Ellipse_50" data-name="Ellipse 50" cx="1" cy="1" r="1" transform="translate(74 283.9)" fill="rgba(255,255,255,0.6)"/>
      <circle id="Ellipse_51" data-name="Ellipse 51" cx="1" cy="1" r="1" transform="translate(77 283.9)" fill="rgba(255,255,255,0.6)"/>
      <circle id="Ellipse_52" data-name="Ellipse 52" cx="1" cy="1" r="1" transform="translate(80 283.9)" fill="rgba(255,255,255,0.6)"/>
      <circle id="Ellipse_53" data-name="Ellipse 53" cx="1" cy="1" r="1" transform="translate(74 286.9)" fill="rgba(255,255,255,0.6)"/>
      <circle id="Ellipse_54" data-name="Ellipse 54" cx="1" cy="1" r="1" transform="translate(77 286.9)" fill="rgba(255,255,255,0.6)"/>
      <circle id="Ellipse_55" data-name="Ellipse 55" cx="1" cy="1" r="1" transform="translate(80 286.9)" fill="rgba(255,255,255,0.6)"/>
      <circle id="Ellipse_56" data-name="Ellipse 56" cx="1" cy="1" r="1" transform="translate(74 289.9)" fill="rgba(255,255,255,0.6)"/>
      <circle id="Ellipse_57" data-name="Ellipse 57" cx="1" cy="1" r="1" transform="translate(77 289.9)" fill="rgba(255,255,255,0.6)"/>
      <circle id="Ellipse_58" data-name="Ellipse 58" cx="1" cy="1" r="1" transform="translate(80 289.9)" fill="rgba(255,255,255,0.6)"/>
    </g>
  </g>
</svg>
