<svg xmlns="http://www.w3.org/2000/svg" width="34.5" height="10.124" viewBox="0 0 34.5 10.124">
  <g id="posture-icon4" transform="translate(-1198.75 -315.091)">
    <path id="Path_710" data-name="Path 710" d="M207,313.507h34v2.117H207Z" transform="translate(992 9.341)" fill="none" stroke="#36a0ff" stroke-width="0.5"/>
    <path id="Path_711" data-name="Path 711" d="M212.967,312.05a.25.25,0,0,0,0-.5Zm-.812-.25-.184.169a.248.248,0,0,0,.184.081Zm-.454-.864a.25.25,0,1,0-.368.337Zm.86,1.386-.012.25a.25.25,0,0,0,.115-.478Zm27.262-.754-.144-.2a.25.25,0,0,0-.086.3Zm.58-.406.143.205a.249.249,0,0,0,.1-.271Zm-.174-.638.241-.066,0-.006Zm-.174-.58.239-.072a.251.251,0,0,0-.2-.175Zm-1.16-.174.037-.247-.037,0Zm-.348,0-.061.243a.248.248,0,0,0,.061.007Zm-.928-.232.06-.242a.243.243,0,0,0-.037-.007Zm-1.857-.174.024-.249h-.024Zm-1.392,0-.092.232a.243.243,0,0,0,.092.018Zm-.58-.232.093-.232a.278.278,0,0,0-.049-.014Zm-1.972-.348.044-.246a.219.219,0,0,0-.044,0Zm-2.32,0-.2.15a.249.249,0,0,0,.2.1Zm-.348-.464.2-.15a.245.245,0,0,0-.142-.093Zm-1.218-.29.058-.243a.226.226,0,0,0-.058-.007Zm-.812,0-.112.224a.256.256,0,0,0,.112.026Zm-.928-.464.112-.224-.009,0Zm-.638-.29.1-.228a.286.286,0,0,0-.052-.017Zm-1.392-.29.051-.245a.3.3,0,0,0-.051-.005Zm-1.624,0v-.25a.253.253,0,0,0-.09.017Zm-.754.29-.09-.233a.25.25,0,0,0-.087.056Zm-.754.754-.177.177a.25.25,0,0,0,.353,0Zm-.29-.29.176-.177a.248.248,0,0,0-.111-.064Zm-.638-.174-.09.233.024.008Zm-.754-.29-.17.184a.244.244,0,0,0,.08.049Zm-.754-.7.169-.184a.255.255,0,0,0-.071-.046Zm-.813-.348.1-.23a.269.269,0,0,0-.069-.018ZM215.809,306l.03-.248a.255.255,0,0,0-.113.012Zm-.986.348-.083-.236a.251.251,0,0,0-.1.068Zm-.58.638-.185-.168a.362.362,0,0,0-.028.037Zm-.464.754-.213-.131v0Zm-.522.87-.214-.128a.25.25,0,0,0-.036.128Zm0,.638.248.034c0-.011,0-.023,0-.034Zm-.174,1.276-.247-.034a.2.2,0,0,0,0,.034Zm0,1.334h-.25a.246.246,0,0,0,.011.072Zm.174.58-.239.072a.245.245,0,0,0,.121.148Zm.754.406-.118.22a.241.241,0,0,0,.1.03Zm2.668.174-.016.25h.016Zm1.915,0v.25a.274.274,0,0,0,.056-.006Zm.754-.174v-.25a.276.276,0,0,0-.057.007Zm1.392,0v.25a.168.168,0,0,0,.031,0Zm.928-.116.112-.223a.254.254,0,0,0-.143-.025Zm.58.29-.112.224a.256.256,0,0,0,.112.026Zm4.176,0v.251h.014Zm3.074-.174v-.25h-.014Zm4.292,0v.251h.013Zm2.32-.116v-.25H236.1Zm1.741,0,.023-.249h-.023Zm1.218.116.056-.243c-.011,0-.022,0-.033-.006Zm.754.174-.057.244a.251.251,0,0,0,.212-.048.248.248,0,0,0,.1-.2Zm0-.58-.234-.087a.235.235,0,0,0-.016.087Zm.174-.464.234.088a.249.249,0,0,0-.005-.186Zm-1.689-2.264.06-.242Zm0,1.645.106.226Zm1.489.885a.25.25,0,1,0,.4-.3Zm-.148-.614.2-.15a.252.252,0,0,0-.2-.1Zm-.812,0-.126.216a.25.25,0,0,0,.126.034Zm-.7-.406.126-.216a.25.25,0,0,0-.187-.026Zm-.7.174v.25a.246.246,0,0,0,.06-.007Zm-2.669,0-.046.246a.246.246,0,0,0,.046,0Zm-.928-.174.046-.246a.34.34,0,0,0-.046,0Zm-.174,0-.016.25h.016Zm-7.238-.672-.061.242.019,0Zm-2.353-.237a.25.25,0,0,0,.158.474Zm-2.687-2.339a.25.25,0,0,0-.5,0Zm-.25,1.566h-.25a.188.188,0,0,0,0,.034Zm.232,1.682h.25a.2.2,0,0,0,0-.034Zm-.25,1.508a.25.25,0,0,0,.5,0Zm-.272-4.622a.25.25,0,0,0,0-.5Zm-1.914-.25-.084.236a.264.264,0,0,0,.084.014Zm-.987-.348-.089.233.006,0Zm-.754-.29-.1.229.012,0Zm-.522-.232.1-.229a.256.256,0,0,0-.1-.021Zm-1.218-.25a.25.25,0,0,0,0,.5Zm-2.842,2.222-.218.122a.249.249,0,0,0,.218.128Zm-.29-.522.219-.121a.251.251,0,0,0-.219-.129Zm-.812.522h-.25a.253.253,0,0,0,.05.15Zm.348.464-.2.15a.251.251,0,0,0,.088.074Zm.464.232h.25a.249.249,0,0,0-.138-.223Zm0,1.276v.25a.249.249,0,0,0,.25-.25Zm-.58,0v-.25a.242.242,0,0,0-.047.005Zm-1.8.349-.163.189a.252.252,0,0,0,.211.056Zm-.406-.349-.249.021a.245.245,0,0,0,.086.169Zm-.116-1.392-.245-.049a.236.236,0,0,0,0,.07Zm.116-.58-.135-.21a.25.25,0,0,0-.11.161Zm.812-.522-.1-.227-.032.017Zm.638-.29.122-.218a.248.248,0,0,0-.225-.009Zm-1.423,2.989a.25.25,0,1,0-.286-.41Zm-1.3.607-.143-.205a.272.272,0,0,0-.057.055Zm-.348.464-.2-.15a.249.249,0,0,0,0,.3Zm.348.464-.2.15a.248.248,0,0,0,.167.1Zm.87.116-.033.248.033,0Zm2.668,0v.25a.249.249,0,0,0,.1-.022Zm.638-.29.1.228a.244.244,0,0,0,.082-.061Zm.522-.58.186.167a.248.248,0,0,0,.051-.246Zm-.174-.522.237-.079a.231.231,0,0,0-.042-.077Zm-.269-.736a.25.25,0,1,0-.39.312Zm.443.892h-.812v.5h.812Zm-.628.082-.638-.7-.368.337.638.7Zm-4.373.708,4.583.232.025-.5-4.582-.232Zm4.7-.246-1.16-.522-.205.456,1.16.522Zm27.3-.321.58-.406-.287-.41-.58.406Zm.678-.677-.174-.638-.482.132.174.638Zm-.176-.644-.174-.58-.479.144.174.58Zm-.376-.755-1.16-.174-.074.494,1.16.174Zm-1.2-.177h-.348v.5h.348Zm-1.253-.231-1.856-.174-.047.5,1.856.174Zm-1.88-.175H234.37v.5h1.392Zm-1.3.018-.58-.232-.185.464.58.232Zm-.629-.246-1.972-.348-.087.492,1.972.348Zm-4.136-.252-.348-.464-.4.3.348.464Zm-.49-.557-1.218-.29-.116.486,1.218.29Zm-1.276-.3h-.812v.5h.812Zm-.7.027-.928-.465-.224.448.928.464Zm-.937-.469-.638-.29-.207.456.638.29Zm-.69-.307-1.392-.29-.1.49,1.392.29Zm-1.443-.3h-1.624v.5h1.624Zm-1.714.017-.754.29.179.466.754-.29Zm-.841.346-.754.754.353.354.754-.754Zm-.4.754-.29-.29-.353.354.29.29Zm-.4-.354-.638-.174-.131.482.638.174Zm-.614-.166-.754-.29-.179.466.754.29Zm-.674-.241-.754-.7-.339.368.754.7Zm-.825-.742L217.88,306l-.2.46.812.348Zm-.881-.366-1.972-.232-.059.5,1.972.232Zm-2.085-.22-.986.348.167.472.986-.348Zm-1.088.416-.58.638.37.336.58-.638Zm-.608.675-.464.754.426.262.464-.754Zm-.465.756-.522.871.429.257.522-.87Zm-.558,1v.638h.5v-.638Zm0,.6-.174,1.276.495.068.174-1.276Zm-.177,1.31v1.334h.5v-1.334Zm.011,1.406.174.58.479-.143-.174-.581Zm.3.728.754.406.237-.44-.754-.406Zm.856.436,2.668.174.033-.5-2.668-.174Zm2.684.174h1.915v-.5h-1.915Zm1.971-.006.754-.174-.113-.487-.754.174Zm.7-.168h1.392v-.5h-1.392Zm1.423,0,.928-.116-.062-.5-.928.116Zm.785-.14.58.29.224-.447-.58-.29Zm.692.316h4.176v-.5h-4.176Zm4.19,0,3.074-.174-.028-.5-3.074.174Zm3.06-.174h4.292v-.5H229.5Zm4.3,0,2.32-.116-.025-.5-2.32.116Zm4.024-.117,1.218.116.047-.5-1.218-.116Zm1.185.111.754.174.113-.487-.754-.174Zm1.061-.07v-.58h-.5v.58Zm-.016-.492.174-.464-.468-.175-.174.464Zm.169-.65-.174-.406-.459.2.174.406Zm-1.619-2.348-.239-.06-.121.485.239.06Zm-.239-.06-.689-.172-.121.485.689.172Zm-.3.319a4.365,4.365,0,0,1,.183.88,1.274,1.274,0,0,1-.013.369.187.187,0,0,1-.038.092l.212.453a.6.6,0,0,0,.313-.432,1.772,1.772,0,0,0,.024-.522,4.806,4.806,0,0,0-.205-.993Zm-1.96,3.191h1.509v-.5H236.11Zm1.509,0h.232v-.5h-.232Zm.583-1.85a2.7,2.7,0,0,0-.855.548.811.811,0,0,0-.226.56,1.024,1.024,0,0,0,.314.662l.367-.34a.544.544,0,0,1-.181-.333.316.316,0,0,1,.1-.215,2.272,2.272,0,0,1,.7-.429Zm2,.812-.348-.464-.4.3.348.464Zm-.548-.564h-.812v.5h.812Zm-.686.034-.7-.406-.252.432.7.406Zm-.883-.432-.7.174.121.485.7-.174Zm-.635.166h-2.669v.5h2.669Zm-2.623,0-.928-.175-.092.492.928.174Zm-.974-.179h-.174v.5h.174Zm-.157,0c-1.768-.116-5.67-.412-7.214-.67l-.083.493c1.575.263,5.505.56,7.264.676ZM226.5,310.3a5.719,5.719,0,0,0-1.056-.145,3.843,3.843,0,0,0-1.357.151l.158.474a3.379,3.379,0,0,1,1.176-.126,5.293,5.293,0,0,1,.958.131Zm3.795,1.325-.406.232.248.434.406-.232Zm.066-1.982h-.349v.5h.349Zm-9.461-1.676v1.566h.5v-1.566Zm0,1.6.232,1.683.495-.069-.232-1.682Zm.23,1.648v1.508h.5V311.22Zm-2.1-3.6-.986-.348-.167.472.986.348Zm-.98-.345-.754-.29-.179.466.754.29Zm-.742-.286-.522-.232-.2.457.522.232Zm-.624-.253h-1.218v.5h1.218Zm-3.422,1.972h-.638v.5h.638Zm-.419.129-.29-.522-.437.243.29.522Zm-.509-.651h-.812v.5h.812Zm-1.062.25v.522h.5v-.522Zm.05.672.348.464.4-.3-.348-.464Zm.436.538.464.232.224-.447-.464-.232Zm.576,1.034h-.58v.5h.58Zm-.627.005-1.8.348.095.491,1.8-.348Zm-1.588.4-.406-.348-.326.379.406.348Zm-.32-.179-.116-1.392-.5.041.116,1.392Zm-.12-1.323.116-.58-.49-.1-.116.58Zm.006-.418.812-.522-.27-.421-.812.522Zm.781-.505.638-.29-.207-.455-.638.29Zm.413-.3.522.29.243-.437-.522-.29Zm-1.588,2.36-1.16.812.286.41,1.16-.812Zm-1.217.867-.348.464.4.3.348-.464Zm-.348.764.348.464.4-.3-.348-.464Zm.515.562.87.116.066-.5-.87-.116Zm3.675.1.638-.29-.207-.455-.638.29Zm.72-.351.522-.58-.372-.334-.522.58Zm.573-.826-.174-.522-.474.158.174.522Zm-.216-.6-.464-.58-.39.312.464.58Zm18.83-2.7H229.5v.5h2.32Zm-10.962-.928h-1.914v.5h1.914Zm-8.777,2.048v1.276h.5v-1.276Zm-2.94,3.382h2.668v-.5h-2.668Z" transform="translate(992 9.341)" fill="#36a0ff"/>
  </g>
</svg>
