<svg xmlns="http://www.w3.org/2000/svg" xmlns:xlink="http://www.w3.org/1999/xlink" width="8" height="22" viewBox="0 0 8 22">
  <defs>
    <clipPath id="clip-path">
      <rect id="Rectangle_2" data-name="Rectangle 2" width="8" height="22" transform="translate(220 354)" fill="#fff"/>
    </clipPath>
  </defs>
  <g id="posture-icon8" transform="translate(-1274.545 -431)">
    <g id="Group_7" data-name="Group 7" transform="translate(1054.545 77)" clip-path="url(#clip-path)">
      <path id="Path_714" data-name="Path 714" d="M227.31,374.191v-1.313c0-.425.389-.269.555-.548.213-.357-.3-.552-.361-.81-.076-.33.1-.729-.058-1.041a2.038,2.038,0,0,0-.534-.7c-.208-.16-.531-.1-.754-.271s-.455-.177-.618-.473a7.2,7.2,0,0,0-.587-1m-2.907.935c.4.386,1.021.458,1.021,1.127,0,.472-.373.649-.708.97a3.792,3.792,0,0,0-.8,2.962c0,1.183,1.537,1.536,2.5,1.705a3.138,3.138,0,0,1,.655.221c.278.149.536-.112.78-.206.384-.147.765-.473,1.205-.473.607,0,.8.113.8-.5,0-.332-.688-.526-.943-.77-.313-.3-.4-.7-.733-1.016a1.52,1.52,0,0,1-.377-.5c-.049-.135-.062-.52-.173-.6a2.355,2.355,0,0,0-.686-.086c-.1.124-.054.494-.157.664a.76.76,0,0,1-.561.272c-.266-.057-.236-.512-.236-.7,0-.345.2-.357.43-.563.074-.067.271-.4.084-.448-.415-.114-.432-.639-.985-.639m-1.037-1.357a3.658,3.658,0,0,1-1.509-2.756,7.673,7.673,0,0,0-.115-2.293,7.763,7.763,0,0,1-.451-2.6A13.119,13.119,0,0,1,220.07,359a9.691,9.691,0,0,1,.335-1.035,3.789,3.789,0,0,0,.021-1.016c0-.116,0-.234-.007-.352m3.59,11.977a2.2,2.2,0,0,0,1.462-1.358,6.143,6.143,0,0,0,.707-1.83,3.272,3.272,0,0,1,.3-1.066,3.1,3.1,0,0,0,.356-.956c0-.708.094-1.423.094-2.142,0-.243-.129-.962.042-1.157.274-.311.094-.751.294-1.081a6.72,6.72,0,0,0,.44-2.087,4.076,4.076,0,0,0,.167-.9c0-.416-.435-.272-.707-.412a9.776,9.776,0,0,0-2.712-.111m-4.017,1.157c.544-.241,1.072-.4,1.631-.606.258-.1.343-.066.579-.165m-.982,9.742a13.294,13.294,0,0,1-.188-3.027v-.894c0-.1-.06-.428.006-.515s.549-.011.641-.011h1.627c.332,0,.669-.025,1-.025m.035,4.872c0-.174.084-1.147.04-1.317-.039-.154-.031-.306-.064-.458a3.659,3.659,0,0,1-.062-.775v-1.916c0-.116-.041-.336.025-.431m-2.686-.233a7.682,7.682,0,0,1,.162-1.732c.048-.212.1-.432.126-.651.042-.323.1-.639.152-.961a10.945,10.945,0,0,1,.378-1.765c.094-.288.172-.585.259-.878.028-.1.039-.2.074-.291s.107-.176.107-.266a2.306,2.306,0,0,1,.256-1.032,1.467,1.467,0,0,0,.119-.328,3.068,3.068,0,0,0,.161-.473c0-.042.052-.04.054-.079a.551.551,0,0,1,.041-.186,1.6,1.6,0,0,0,.06-.348,2.415,2.415,0,0,0,.006-.442c0-.07-.038-1,.053-.981m.217,10.329c0-1.374.042-2.743.042-4.12,0-.526.184-1.038.212-1.563a4.636,4.636,0,0,1,.117-.753c.022-.1.036-.189.054-.284a2.668,2.668,0,0,1,.207-.507c.045-.117.14-.216.181-.332a3.972,3.972,0,0,0,.138-.6,3.732,3.732,0,0,0,.064-.7,1.445,1.445,0,0,0-.245-1.1c-.116-.124-.186-.319-.347-.406-.123-.065-.594-.234-.638,0" fill="none" stroke="#36a0ff" stroke-linecap="round" stroke-linejoin="round" stroke-width="0.5"/>
      <path id="Path_715" data-name="Path 715" d="M223.75,355.2V376" fill="none" stroke="#36a0ff" stroke-width="0.44" stroke-dasharray="1.76 1"/>
    </g>
  </g>
</svg>
