<svg xmlns="http://www.w3.org/2000/svg" xmlns:xlink="http://www.w3.org/1999/xlink" width="44.376" height="23" viewBox="0 0 44.376 23">
  <defs>
    <clipPath id="clip-path">
      <rect id="Rectangle_114" data-name="Rectangle 114" width="18" height="23" transform="translate(42 747)" fill="#fff"/>
    </clipPath>
  </defs>
  <g id="Group_37" data-name="Group 37" transform="translate(-368 -866)">
    <g id="Group_25" data-name="Group 25" transform="translate(326 119)" clip-path="url(#clip-path)">
      <path id="Path_658" data-name="Path 658" d="M53.454,751.034v1.258c0,.408.35.258.5.525.191.342-.272.529-.325.776-.069.316.094.7-.052,1a1.939,1.939,0,0,1-.481.674c-.188.154-.478.1-.679.261s-.409.169-.556.453a6.909,6.909,0,0,1-.528.954m-2.616-.9c.362-.37.919-.439.919-1.08,0-.452-.335-.622-.636-.93a3.8,3.8,0,0,1-.721-2.838c0-1.134,1.384-1.472,2.254-1.634a2.705,2.705,0,0,0,.589-.212c.251-.142.483.108.7.2.345.142.688.453,1.084.453.546,0,.717-.108.717.478,0,.317-.62.5-.849.737-.282.288-.361.668-.66.973a1.47,1.47,0,0,0-.34.482c-.044.13-.055.5-.156.579a1.967,1.967,0,0,1-.618.082c-.093-.119-.049-.473-.142-.637a.668.668,0,0,0-.5-.26c-.24.055-.212.491-.212.67,0,.331.181.342.387.54.066.064.244.38.075.429-.373.109-.389.612-.886.612m-.934,1.3a3.573,3.573,0,0,0-1.358,2.641,7.8,7.8,0,0,1-.1,2.2,7.89,7.89,0,0,0-.405,2.492,13.354,13.354,0,0,0,.019,2.279,9.635,9.635,0,0,0,.3.993,3.9,3.9,0,0,1,.019.974c0,.11,0,.223-.007.337m3.232-11.479a2.042,2.042,0,0,1,1.315,1.3,6.13,6.13,0,0,1,.636,1.754,3.294,3.294,0,0,0,.273,1.022,3.1,3.1,0,0,1,.321.915c0,.679.085,1.365.085,2.053,0,.234-.116.922.038,1.109.246.3.084.72.264,1.036a6.794,6.794,0,0,1,.4,2,4.127,4.127,0,0,1,.151.867c0,.4-.392.261-.636.4a8.291,8.291,0,0,1-2.441.106m-3.615-1.11c.489.232.965.38,1.467.582.233.093.308.063.521.158m-.884-9.336a13.579,13.579,0,0,0-.169,2.9v.858c0,.092-.054.41.005.493s.495.011.578.011h1.464c.3,0,.6.023.9.023m.031-4.669c0,.168.076,1.1.037,1.263-.035.147-.028.292-.058.438a3.7,3.7,0,0,0-.056.743v1.836c0,.111-.036.322.023.413m-2.418.224a7.834,7.834,0,0,0,.146,1.66c.043.2.088.413.114.623.038.31.092.612.137.922a11.118,11.118,0,0,0,.34,1.691c.085.276.155.56.233.841.026.093.035.188.067.279a.88.88,0,0,1,.1.255,2.324,2.324,0,0,0,.23.989,1.485,1.485,0,0,1,.107.314,3.146,3.146,0,0,1,.145.454c0,.04.047.038.048.075a.558.558,0,0,0,.037.178,1.615,1.615,0,0,1,.054.334,2.458,2.458,0,0,1,.005.424c0,.067-.034.96.048.94m.195-9.9c0,1.316.038,2.629.038,3.948,0,.505.166.995.19,1.5a4.764,4.764,0,0,0,.106.722c.02.091.032.181.049.272a2.644,2.644,0,0,0,.186.486c.041.112.126.207.163.318a4.081,4.081,0,0,1,.125.57,3.785,3.785,0,0,1,.057.67,1.458,1.458,0,0,1-.22,1.055c-.1.119-.167.306-.313.389-.11.063-.534.224-.574,0" fill="none" stroke="#36a0ff" stroke-linecap="round" stroke-linejoin="round" stroke-width="0.5"/>
      <path id="Path_659" data-name="Path 659" d="M50.25,769.233V749.3" fill="none" stroke="#36a0ff" stroke-width="0.44" stroke-dasharray="1.76 1"/>
    </g>
    <path id="Path_660" data-name="Path 660" d="M61.468,768v-4.583h2.139a1.639,1.639,0,0,1,1.17.377,1.319,1.319,0,0,1,.4,1.021,1.351,1.351,0,0,1-.4,1.027,1.638,1.638,0,0,1-1.17.377H62.482V768Zm1.014-2.568h.995a.774.774,0,0,0,.539-.162.578.578,0,0,0,.182-.455.559.559,0,0,0-.182-.449.774.774,0,0,0-.539-.162h-.995Zm4.946,2.64a1.916,1.916,0,0,1-.917-.209,1.524,1.524,0,0,1-.6-.6,2.108,2.108,0,0,1,0-1.826,1.484,1.484,0,0,1,.6-.592,2.123,2.123,0,0,1,1.833,0,1.432,1.432,0,0,1,.6.592,2.05,2.05,0,0,1,0,1.826,1.469,1.469,0,0,1-.6.6A1.916,1.916,0,0,1,67.428,768.072Zm0-.742a.65.65,0,0,0,.533-.24,1.136,1.136,0,0,0,.2-.741,1.11,1.11,0,0,0-.2-.735.657.657,0,0,0-.533-.234.676.676,0,0,0-.54.234,1.137,1.137,0,0,0-.195.735,1.164,1.164,0,0,0,.195.741A.669.669,0,0,0,67.428,767.33Zm3.828.742a3.112,3.112,0,0,1-.806-.1,1.973,1.973,0,0,1-.618-.273l.253-.65a2.341,2.341,0,0,0,.559.247,2.184,2.184,0,0,0,.618.091.771.771,0,0,0,.423-.091.283.283,0,0,0,.136-.247.242.242,0,0,0-.091-.2.58.58,0,0,0-.266-.1l-.67-.123a1.2,1.2,0,0,1-.644-.312.814.814,0,0,1-.221-.592.95.95,0,0,1,.169-.559,1.137,1.137,0,0,1,.5-.383,1.953,1.953,0,0,1,.76-.137,2.669,2.669,0,0,1,.7.091,1.538,1.538,0,0,1,.565.28l-.267.63a1.728,1.728,0,0,0-.468-.24,1.5,1.5,0,0,0-.5-.091.753.753,0,0,0-.449.1.3.3,0,0,0-.136.253.265.265,0,0,0,.078.2.553.553,0,0,0,.254.117l.676.124a1.273,1.273,0,0,1,.663.292.775.775,0,0,1,.228.592.94.94,0,0,1-.182.585,1.148,1.148,0,0,1-.513.37A2.013,2.013,0,0,1,71.256,768.072Zm3.819,0a1.333,1.333,0,0,1-.968-.319,1.317,1.317,0,0,1-.325-.969v-1.345h-.624V764.7h.624V763.9l.981-.24V764.7h.845v.735h-.845v1.293a.564.564,0,0,0,.13.429.477.477,0,0,0,.331.117,1.232,1.232,0,0,0,.2-.013,1.507,1.507,0,0,0,.176-.052v.761a1.037,1.037,0,0,1-.26.072A1.454,1.454,0,0,1,75.075,768.072Zm2.483,0a1.159,1.159,0,0,1-.917-.339,1.55,1.55,0,0,1-.3-1.04V764.7h.981v1.989a.719.719,0,0,0,.123.462.5.5,0,0,0,.4.149.631.631,0,0,0,.481-.2.776.776,0,0,0,.195-.553V764.7H79.5V768h-.955v-.631h.091a1.208,1.208,0,0,1-.429.52A1.14,1.14,0,0,1,77.558,768.072Zm3-.072v-2.425q0-.215-.013-.435c0-.147-.015-.293-.033-.436h.943l.11.962h-.149a1.648,1.648,0,0,1,.208-.578.964.964,0,0,1,.364-.338,1.1,1.1,0,0,1,.5-.111,1.218,1.218,0,0,1,.195.013.617.617,0,0,1,.143.033l-.007.864a.935.935,0,0,0-.234-.071,1.145,1.145,0,0,0-.234-.02.91.91,0,0,0-.455.1.665.665,0,0,0-.266.306,1.258,1.258,0,0,0-.085.487V768Zm4.529.072a1.853,1.853,0,0,1-1.339-.462,1.658,1.658,0,0,1-.481-1.255,1.9,1.9,0,0,1,.2-.9,1.524,1.524,0,0,1,.572-.6,1.659,1.659,0,0,1,.864-.221,1.485,1.485,0,0,1,.813.208,1.264,1.264,0,0,1,.494.585,2.07,2.07,0,0,1,.169.865v.227H84.068v-.487h1.593l-.111.091a.965.965,0,0,0-.169-.618.558.558,0,0,0-.475-.214.625.625,0,0,0-.533.253,1.237,1.237,0,0,0-.182.728v.1a.973.973,0,0,0,.234.715.948.948,0,0,0,.689.234,1.837,1.837,0,0,0,.5-.065,1.577,1.577,0,0,0,.455-.22l.273.649a1.839,1.839,0,0,1-.572.28A2.343,2.343,0,0,1,85.082,768.072Z" transform="translate(326 119)" fill="#36a0ff"/>
  </g>
</svg>
