<svg xmlns="http://www.w3.org/2000/svg" width="32.774" height="8.509" viewBox="0 0 32.774 8.509">
  <g id="posture-icon3" transform="translate(-1139.75 -317.091)">
    <path id="Path_708" data-name="Path 708" d="M157.2,313.973h23.074v2.036H148v-2.036h1.8" transform="translate(992 9.341)" fill="none" stroke="#36a0ff" stroke-width="0.5"/>
    <path id="Path_709" data-name="Path 709" d="M150.928,311.9a.25.25,0,0,0,.385-.319Zm.008-.383h-.25a.251.251,0,0,0,.057.16Zm0-.623-.23-.1a.257.257,0,0,0-.02.1Zm.23-.535-.135-.21a.247.247,0,0,0-.094.111Zm.415-.267-.083-.236a.254.254,0,0,0-.052.026Zm.507-.178.077-.238a.247.247,0,0,0-.159,0Zm.277.089-.077.238a.249.249,0,0,0,.2-.022.254.254,0,0,0,.119-.165Zm.046-.222v-.25a.25.25,0,0,0-.245.2Zm.461,0,.034-.248a.19.19,0,0,0-.034,0Zm.323.044.2-.153a.248.248,0,0,0-.163-.1Zm-.112.312a.25.25,0,0,0,.5,0Zm.988.044-.059.243a.236.236,0,0,0,.037.006Zm.507.045-.022.249h.022Zm.784-.579.218.122a.266.266,0,0,0,.012-.024Zm.323-.757-.187-.166a.23.23,0,0,0-.043.068Zm.276-.312.187.166,0,0Zm.231-.267-.067-.241a.25.25,0,0,0-.122.077Zm.645-.178-.044-.246-.022.005Zm.738-.134v-.25a.229.229,0,0,0-.045,0Zm2.351,0,.1-.23a.257.257,0,0,0-.1-.02Zm.415.178.234-.088a.251.251,0,0,0-.135-.142Zm.185.49.249-.021a.259.259,0,0,0-.015-.067Zm.092,1.114-.249.02c0,.01,0,.02,0,.03Zm.092.445-.245.051a.256.256,0,0,0,.019.055Zm.231.49.238-.074a.221.221,0,0,0-.012-.033Zm.138.445.245-.051-.006-.023Zm.129.624.222.116a.248.248,0,0,0,.023-.167Zm-.308.589.168.185a.236.236,0,0,0,.053-.069Zm-.19.172.041.247a.249.249,0,0,0,.127-.062Zm-.507.085-.248.032a.256.256,0,0,0,.1.169.248.248,0,0,0,.19.045Zm-.092-.713.248-.032a.206.206,0,0,0-.012-.049Zm-.092-.267-.242.063a.183.183,0,0,0,.005.019Zm-.093-.356.242-.063a.25.25,0,0,0-.487.017Zm-.092.49.136.21a.254.254,0,0,0,.11-.164Zm-.138.089-.247.036a.25.25,0,0,0,.382.174Zm-.046-.312-.249-.021a.283.283,0,0,0,0,.058Zm.046-.534-.229-.1a.241.241,0,0,0-.02.08Zm.138-.312-.222-.115-.006.013Zm.185-.357.222.115a.248.248,0,0,0,.022-.165Zm-.093-.445.245-.051a.253.253,0,0,0-.018-.055Zm-.23-.49-.227.105v0Zm-.185-.4-.242.063a.352.352,0,0,0,.015.042Zm.15-.419a.25.25,0,0,0-.484.126Zm-5,3.08a.25.25,0,0,0,.324.38ZM158.013,308v0Zm.1.8a.25.25,0,1,0,.238.44Zm-1.192,4.068a.25.25,0,1,0,.011.5Zm4.247.161,0,.25h.018l.017,0Zm.553-.089.054-.244-.046-.01-.047.007Zm2.213.49-.054.244.01,0Zm2.444.445.051-.244-.006,0Zm1.06.223-.051.245.025.005h.026Zm1.522,0v.25h.017Zm3.227-.223.018.25h.01Zm2.813-.312-.019-.249h-.009Zm1.844-.089.07-.24-.034-.01h-.036Zm.461.134-.07.24.009,0h.009Zm.415.089-.052.245.053.011.053-.012Zm.6-.134.055.245.06-.014.047-.04Zm.369-.311.162.191.046-.04.023-.056Zm.092-.223.231.1.076-.183-.16-.115Zm-.368-.267.146-.2-.05-.036-.062-.009Zm-.323-.045.034-.247-.017,0h-.017Zm-.369,0-.147.2.066.047h.081Zm-.184-.133.146-.2-.131-.1-.141.081Zm-.231.133v.25h.067l.058-.033Zm-.738,0-.017.25h.017Zm-1.291-.089.018-.249h-.018Zm-.876,0v-.25h-.017l-.017,0Zm-.645.089v.25h.017l.017,0Zm-.738,0-.043.247.021,0h.022Zm-.507-.089.043-.246h-.016Zm-.415-.044-.066.241.019.005.02,0Zm-.323-.089.067-.241-.012,0-.011,0Zm-1.014-.179.043-.246-.016,0h-.016Zm-3-.133-.02.249h.009Zm-1.66-.134-.049.245.014,0h.015Zm-1.5-.3.05-.245-.025-.005H164.6Zm-1.233-.25a.25.25,0,0,0,0,.5Zm-5.92-2.492a.25.25,0,1,0,.123.484Zm1.295-.07v-.25h-.031l-.03.007Zm.617.25a.25.25,0,1,0,0-.5Zm-8.075,2.417a.25.25,0,1,0-.42.272Zm.02.492-.21.136.05.077.088.027Zm.738.223-.072.239.035.011h.037Zm1.106,0v.25h.015l.014,0Zm.784-.089.028.248.048-.005.042-.023Zm.415-.223.118.22.069-.036.035-.069Zm.138-.267.222.115.009-.016.006-.018Zm.093-.267.236.081.031-.089-.036-.088Zm-.093-.223.231-.1-.005-.014-.008-.013Zm-.276-.49.218-.123-.031-.054-.052-.033Zm-.553-.356.135-.21-.028-.018-.031-.01Zm-.2-.327a.25.25,0,0,0-.154.476ZM151.3,312.1a.25.25,0,0,0-.354-.353Zm-1.376,1.026-.177-.176-.207.207.237.172Zm.553.4-.146.2.074.054.091-.007Zm4.2-.312.018.25.232-.018v-.232Zm0-.757-.241-.066-.009.032v.034Zm.184-.668.241.067.076-.276-.282-.039Zm-.288-.292a.25.25,0,0,0-.069.5Zm-4.643,2.1a.25.25,0,0,0-.1.491Zm.183.29-.047.245.081.016.075-.036Zm.461-.223-.023-.249-.045,0-.041.02Zm.968-.089.023.249h.007Zm1.844-.223-.029-.248h0Zm1.891-.222.029.248h.007Zm.922-.134.054-.244-.044-.01-.046.007Zm.6.134.119-.221-.031-.016-.033-.007Zm.415.222.249-.028-.015-.13-.115-.062Zm.046.4.229.1.028-.063-.008-.067Zm-.138.312.016.249.151-.009.062-.139Zm-.692.044v.25h.017Zm-1.752,0v-.25h-.005Zm-2.12.045v.25h0Zm-1.015,0v-.25h-.062l-.054.029Zm-.507.267.077.238.02-.006.02-.011Zm-.83.267.03.249.024,0,.023-.008Zm-.369.045-.024.249.027,0,.027,0Zm-.461-.045-.2.154.066.085.107.01Zm-.138-.178v-.25h-.511l.313.4Zm.645.25a.25.25,0,0,0,0-.5Zm-.941-.295a.25.25,0,0,0,.5,0Zm.25-.223.015-.249-.265-.016v.265Zm.722.294a.25.25,0,1,0,.03-.5Zm-.921-.433a.25.25,0,0,0,.49.1Zm.337-.4-.157-.195-.069.057-.019.088Zm.277-.222h.25v-.523l-.407.328Zm0,.178.231.1.019-.046v-.049Zm-.092.222-.231-.1-.019.046v.049Zm0,.179h-.25v.206l.2.039Zm.413.334a.25.25,0,0,0,.1-.491Zm-.384-1.1a.25.25,0,1,0,.217.451Zm.293.136.222-.115-.112-.216-.219.106Zm.092.179.222.114.06-.114-.06-.115Zm-.092.178-.222-.115-.118.228.231.112Zm-.017.269a.25.25,0,1,0,.218-.45Zm10.78-5.684a.25.25,0,0,0,0,.5Zm1.542.25.178-.175-.074-.075h-.1Zm5.584,1.424-.03.248Zm1.43.178-.031.249h.012Zm1.8.134.081-.236-.03-.011-.033,0Zm1.291.445.088-.234-.007,0Zm1.06.4.109-.225-.01-.005-.01,0Zm.922.446-.108.225.068.033.075-.011Zm1.291-.179.032-.248-.033,0-.033.005Zm1.384.179.187-.166-.063-.07-.093-.012Zm.553.623h.25v-.1l-.063-.071Zm-.25.445a.25.25,0,0,0,.5,0Zm-14.755-3.783-.178.175,0,.005Zm0,1.25-.206-.141Zm-.73,2.589a.25.25,0,1,0,.226.446Zm13.666-.339a.25.25,0,1,0,.028.5Zm-10.161-3.5.08-.237Zm-13.9,2.644-.185-.223-.385.319.185.223Zm-.127-.064v-.623h-.5v.623Zm-.021-.524.231-.534-.459-.2-.231.535Zm.137-.423.415-.268-.271-.42-.415.267Zm.362-.242.507-.178-.165-.472-.508.178Zm.348-.176.276.089.154-.476-.277-.089Zm.6-.1.046-.223-.49-.1-.046.223Zm-.2-.023h.461v-.5h-.461Zm.427,0,.323.045.068-.5-.323-.044Zm.159-.05.139.179.4-.307-.139-.178Zm.086.025v.134h.5V310Zm.192.243.737.178.118-.486-.738-.178Zm.774.184.507.045.044-.5-.507-.045Zm.529.046h.461v-.5h-.461Zm.68-.128.322-.579-.436-.244-.323.579Zm.334-.6.323-.757-.46-.2-.323.757Zm.28-.689.276-.312-.374-.332-.276.312Zm.279-.315.23-.267-.378-.327-.231.268Zm.107-.189.646-.178-.133-.482-.646.178Zm.624-.173.738-.134-.09-.492-.737.134Zm2.946-.15.415.178.2-.46-.415-.178Zm.279.036.185.49.468-.176-.185-.49Zm.17.423.092,1.113.5-.041-.092-1.114Zm.1,1.143.092.446.49-.1-.092-.445Zm.111.5.231.49.452-.213-.231-.49Zm.218.458.138.445.478-.148-.139-.445Zm.132.422.13.623.489-.1-.129-.624Zm.153.457-.309.589.443.232.309-.589Zm-.255.52-.19.172.336.37.19-.172Zm-.281.41-.092-.713-.5.064.092.713Zm-.1-.762-.092-.267-.473.163.093.267Zm-.086-.249-.093-.356-.484.125.093.357Zm-.58-.339-.092.489.491.093.092-.49Zm.018.326-.138.089.27.42.139-.089Zm.244.262-.046-.312-.5.074.047.311Zm-.044-.254.046-.534-.5-.043-.046.535Zm.025-.454.139-.312-.457-.2-.139.312Zm.132-.3.185-.357-.444-.229-.185.356Zm.207-.522-.092-.446-.489.1.092.445Zm-.11-.5-.231-.49-.452.213.23.49Zm-.23-.488-.184-.4-.455.209.185.4Zm-.17-.359-.092-.357-.484.126.092.356Zm.916,3.338-.507.085.082.493.507-.084Zm-5.737-1.847a.472.472,0,0,1,.281.353c.017.156-.056.45-.557.879l.324.38a1.6,1.6,0,0,0,.73-1.314.974.974,0,0,0-.563-.75Zm2.643-2.2h.438v-.5h-.438Zm.243-.094a1.836,1.836,0,0,1,.276.471.4.4,0,0,1,.03.164c0,.014,0,.01-.008.013l.238.44a.5.5,0,0,0,.265-.384.864.864,0,0,0-.054-.4,2.258,2.258,0,0,0-.357-.617Zm-.883,5.216,4.241-.089-.01-.5-4.242.089Zm4.276-.092.553-.089-.079-.494-.554.089Zm.459-.092,2.213.49.108-.488-2.213-.49Zm2.223.492,2.443.445.09-.492-2.444-.445Zm2.437.444,1.06.223.1-.49-1.061-.222Zm1.111.228h1.522v-.5h-1.522Zm1.539,0,3.228-.222-.035-.5-3.227.223Zm3.238-.223,2.812-.312-.055-.5-2.812.312Zm2.8-.311,1.2-.089-.037-.5-1.2.089Zm1.181-.089h.645v-.5H176.2Zm.575-.009.461.133.14-.48-.461-.134Zm.479.137.415.09.1-.489-.414-.089Zm.521.089.6-.133-.109-.489-.6.134Zm.707-.187.369-.311-.323-.382-.369.312Zm.438-.407.092-.222-.462-.192-.092.223Zm.008-.52-.369-.268-.293.4.369.267Zm-.481-.313-.323-.044-.068.495.322.044Zm-.357-.047h-.369v.5h.369Zm-.222.048-.185-.134-.293.4.184.134Zm-.457-.148-.23.134.25.433.231-.134Zm-.1.1h-.738v.5h.738Zm-2.939-.086-.645.089.068.495.646-.089Zm-.611.086h-.738v.5h.738Zm-.695,0-.507-.089-.086.492.507.09Zm-.523-.091-.415-.045-.054.5.415.045Zm-.375-.037-.323-.089-.133.482.323.089Zm-.346-.095-1.015-.178-.086.493,1.014.178Zm-1.047-.181-3-.134-.022.5,3,.133Zm-2.988-.133-1.66-.134-.04.5,1.66.134Zm-1.63-.13-1.5-.3-.1.49,1.5.3Zm10.434.664-.136-.009-.034.5.135.01Zm-.136-.009-1.155-.08-.035.5,1.156.079Zm-.165,1.25a.708.708,0,0,0,.383-.348.9.9,0,0,0,0-.744l-.466.182a.406.406,0,0,1,.021.338.212.212,0,0,1-.107.1Zm-18.717-4.221,1.233-.312-.122-.485-1.234.313Zm1.172-.3h.617v-.5h-.617Zm-7.878,2.689.23.356.42-.272-.23-.356Zm.368.46.738.222.144-.478-.738-.223Zm.81.233h1.106v-.5h-1.106Zm1.135,0,.783-.089-.056-.5-.784.089Zm.873-.117.415-.223-.236-.44-.415.223Zm.519-.328.138-.267-.444-.23-.138.267Zm.153-.3.092-.267-.473-.163-.092.267Zm.087-.444-.093-.223-.462.192.093.222Zm-.106-.25-.276-.49-.436.246.277.49Zm-.359-.577-.553-.356-.271.42.553.356Zm-.612-.384-.276-.089-.154.476.277.089Zm-2.789,1.576-1.2,1.2.354.353,1.2-1.2Zm-1.169,1.582.554.4.293-.4-.553-.4Zm.719.447,4.2-.311-.037-.5-4.2.312Zm4.427-.561v-.757h-.5v.757Zm-.009-.69.184-.668-.482-.134-.184.669Zm-.022-.983-.323-.044-.069.5.323.045Zm-5.061,2.543.231.044.094-.491-.23-.044Zm.387.024.461-.223-.218-.45-.461.223Zm.375-.2.968-.089-.046-.5-.968.089Zm.975-.09,1.844-.222-.059-.5-1.845.223Zm1.844-.222,1.89-.223-.058-.5-1.891.223Zm1.9-.224.922-.134-.072-.494-.922.133Zm.832-.137.6.134.109-.488-.6-.134Zm.535.11.415.223.237-.441-.415-.223Zm.285.031.046.4.5-.057-.046-.4Zm.066.271-.138.312.457.2.138-.311Zm.074.163-.692.045.033.5.691-.045Zm-.676.044H154.67v.5h1.752Zm-1.757,0-2.121.044.011.5,2.121-.045Zm-2.115.044h-1.015v.5h1.015Zm-1.131.029-.507.267.233.442.507-.267Zm-.468.25-.829.267.153.476.83-.267Zm-.783.257-.369.045.06.5.369-.044Zm-.315.044-.461-.044-.048.5.461.045Zm-.287.051-.139-.178-.4.307.139.178Zm-.336.225h.645v-.5h-.645Zm.2-.295v-.223h-.5v.223Zm-.265.027.737.044.03-.5-.737-.044Zm.306-.288.092-.445-.49-.1-.092.445Zm0-.3.277-.223-.314-.389-.277.222Zm-.13-.417v.178h.5v-.178Zm.019.082-.092.223.462.191.092-.223Zm-.111.318v.179h.5v-.179Zm.2.424.461.089.1-.491-.461-.089Zm.294-.555.185-.09-.218-.45-.184.089Zm-.146-.2.092.178.444-.229-.092-.179Zm.092-.051-.092.178.444.23.092-.179Zm.021.518.092.044.218-.45-.092-.044Zm17.968-3.718,1.429.178.062-.5-1.43-.178Zm1.441.18,1.8.133.037-.5-1.8-.134Zm1.735.12,1.291.446.163-.473-1.291-.445Zm1.284.443,1.061.4.177-.468-1.061-.4Zm1.041.392.922.446.217-.451-.922-.445Zm2.289.29,1.384.178.063-.495-1.383-.179Zm1.229.1.553.624.374-.332-.553-.623Zm.49.458v.445h.5v-.445ZM161.956,308.8l.308.312.356-.351-.308-.312Zm.313.317c-.011-.01.01.01.034.1a1.315,1.315,0,0,1,.042.282.979.979,0,0,1-.109.551l.412.282a1.445,1.445,0,0,0,.2-.855,1.761,1.761,0,0,0-.059-.394.714.714,0,0,0-.17-.323Zm-.033.929a.94.94,0,0,0-.13.594,4.031,4.031,0,0,0,.091.587,3.731,3.731,0,0,1,.082.489c.009.145-.019.174-.015.17l.356.351a.7.7,0,0,0,.158-.552,4.265,4.265,0,0,0-.091-.56,3.67,3.67,0,0,1-.082-.513.478.478,0,0,1,.043-.284Zm.028,1.84a1.045,1.045,0,0,0-.258.584.308.308,0,0,1-.063.138.677.677,0,0,1-.231.168l.226.446a1.16,1.16,0,0,0,.395-.3.831.831,0,0,0,.159-.331c.052-.21.037-.26.128-.353Zm11.99.013.956-.132-.068-.495-.957.132Zm.956-.132.335-.046-.069-.495-.334.046Zm-.236-.1a2.683,2.683,0,0,1,.362.646.535.535,0,0,1,.029.12.136.136,0,0,1,0,.039.067.067,0,0,1,.027-.034c.014-.01.015,0-.015,0l.028.5a.526.526,0,0,0,.272-.086.431.431,0,0,0,.167-.232.782.782,0,0,0-.035-.463,3.168,3.168,0,0,0-.433-.784Zm-12.352-2.558a.606.606,0,0,1,.235-.122,2.114,2.114,0,0,1,.531-.092,4.69,4.69,0,0,1,1.749.277l.16-.473a5.175,5.175,0,0,0-1.939-.3,2.6,2.6,0,0,0-.658.116,1.09,1.09,0,0,0-.439.251Zm2.515.063a6.554,6.554,0,0,1,1.584.726,1.97,1.97,0,0,0,.967.4l.061-.5a1.508,1.508,0,0,1-.758-.322,7.007,7.007,0,0,0-1.694-.778Zm-7.124-.924h1.913v-.5h-1.913Zm17.266,4.132H174.4v.5h.876ZM164.6,311.5h-1.233v.5H164.6Zm-4.008-2.625h1.542v-.5h-1.542Z" transform="translate(992 9.341)" fill="#36a0ff"/>
  </g>
</svg>
