<svg xmlns="http://www.w3.org/2000/svg" width="34.926" height="7.832" viewBox="0 0 34.926 7.832">
  <g id="posture-icon1" transform="translate(-1029 -318.091)">
    <path id="Path_695" data-name="Path 695" d="M39.642,314.053a.25.25,0,0,0,.43-.255Zm0-1.84.248.03h0Zm.274-1.185.25.012h0Zm.068-.512.191.161h0Zm.407.047-.08.237h0Zm.425.055.1.231h0Zm1.331-.827-.182-.17h0Zm.166.235.207-.14h0Zm1.152.541-.25-.012h0Zm-.044,1.25a.25.25,0,0,0,.31-.392Zm-3.367-.262a.25.25,0,0,0,.5,0Zm.386-.593-.14-.206h0Zm.392-.329a.25.25,0,0,0-.5,0Zm1.031,1.989a.25.25,0,0,0-.012.5Zm.66.66-.249.017h0Zm.166.446.25.012h0Zm-.918.128.053.244h0Zm-.94.073.064.242h0Zm-.816-.265a.25.25,0,0,0-.31.392Zm.345-2.485a.25.25,0,1,0-.113.487Zm.856.9-.08-.237h0Zm-.234.515-.242-.062h0Zm.585.2-.191-.161h0Zm.651-.841a.25.25,0,0,0-.5,0Zm-.417,1.172a.25.25,0,0,0,0-.5Zm-.333-.5a.25.25,0,0,0,0,.5Zm1.5,1.224a.25.25,0,0,0,0-.5Zm-.277-.5a.25.25,0,0,0,0,.5Zm.453.776a.25.25,0,1,0,.426-.261Zm-.163-.789.234-.088h0Zm-.068-.607.25.008h0Zm.6-.71-.228-.1h0Zm.388-.607.174.179h0Zm.444-.264-.2-.151h0Zm.4-.5-.133-.212h0Zm.527-.216-.064-.242h0Zm1.082-.359.207.14h0Zm4.021.264-.075.238h0Zm.166.3a.25.25,0,0,0,.5,0Zm-5.241.409a.25.25,0,1,0,0,.5Zm1.359.809.1-.227h0Zm1.082.377.064-.242h0Zm.749.147.17-.184h0Zm.468-.322-.2-.147h0Zm1.223-.856-.128-.215h0Zm.53-.249.117.221h0Zm.3-.249.035.248h0Zm1.886-.644-.143.205h0Zm.388.3.143-.205h0Zm.047.441a.25.25,0,0,0,.461-.194Zm-.3,3.327a.25.25,0,0,0,.5,0Zm.278-1.909-.246-.044h0Zm.194-.937-.221-.117h0Zm.69-.483a.25.25,0,0,0-.382-.322Zm-3.582-.666a.25.25,0,0,0,.126.484Zm.784-.139.165.188h0Zm1,.042a.25.25,0,1,0,.436-.245Zm-2.681,3.606a.25.25,0,0,0,.334.372Zm.5-.245.193.159h0Zm.4-.439.191.161Zm.9-1.433.208.139h0Zm.321-.338-.09-.234h0Zm.5-.227-.074-.239h0Zm.824-.161-.065-.242h0Zm.18-.03-.073-.239h0Zm.367.022a.25.25,0,0,0-.461-.194Zm-6.9,3.235a.25.25,0,0,0,.235-.442Zm-.137-.662.25.006h0Zm.078-.235-.226-.106h0Zm.128-.3.14.207h0Zm.091-.163-.224-.111h0Zm.114-.163-.211-.134h0Zm.386-.371a.25.25,0,0,0-.5,0Zm23.25-3.153a.25.25,0,0,0-.386.318Zm.213.762.234-.087h0Zm.053.185.242-.064h0Zm.02.174-.233.089h0Zm.05.489-.248.032h0Zm.014,1.636.232.094h0Zm-.074.292.233.09h0Zm-.108.406-.242-.063h0Zm-.068.83.223.113h0Zm-.619.029.053-.244h0Zm-.235-.042.049-.246h0Zm-.279-.053.037-.248h0Zm-1.262-.25a.25.25,0,0,0,0,.5Zm-.106-1.449a.25.25,0,0,0,.154.476Zm1.094-.325.172.182h0Zm.569-1.073-.239-.073h0Zm.125-.443-.245-.05h0Zm.107-.407.247.035h0Zm.308-.416a.25.25,0,0,0-.184-.465Zm-2.38,2.078a.25.25,0,1,0,.118.486Zm.713-.252.191.161Zm.176-.571.24.07h0Zm.152-.721-.244-.056h0Zm.2-.72L69.17,309h0Zm.386-.057.247-.038h0Zm.021.271-.249.015h0Zm.1.33.244-.055h0Zm-.152.872a.25.25,0,0,0,.5,0Zm-13.076-.1a.25.25,0,0,0,0,.5Zm1.463.356,0,.25h0Zm.517.022-.039.246h0Zm.245.036.1-.23h0Zm.206.056.027-.248h0Zm.578.094.011-.249h0Zm.378.1-.092.232h0Zm.6.147-.037.247h0Zm1.131.25-.084.235h0Zm.521.09-.085.235h0Zm.875.181-.047.245h0Zm1.672.114.033-.247h0Zm.676.113-.046.245h0Zm1.576.131-.02.249h0Zm.536.014-.053.245h0Zm.267.064.163-.19h0Zm.444.016.176.178,0,0Zm-.19,1.614a.25.25,0,0,0,.5,0Zm-5.674-2.5a.25.25,0,0,0,0,.5Zm1.8.3-.211.133h0Zm.834.069.037-.247h0Zm.984.065.055-.244h0Zm1.97.023.064.242h0Zm-.042.569a.25.25,0,0,0,.436-.245Zm-9.933,1.489a.25.25,0,0,0,0,.5Zm1.494-.08.032.248a.248.248,0,0,0,.038-.008Zm3.522,0,.007-.25h0Zm1.134.181.037-.248h0Zm3.587-.042.011.25h0Zm.249-.045-.045-.246h0Zm.41.178a.25.25,0,1,0-.215-.451ZM53.4,310.383a.25.25,0,1,0-.1.489Zm3.287.568a.25.25,0,0,0,.049-.5ZM38.529,314.3v-.25h-.25v.25Zm33.146,0h.25v-.25h-.25Zm0,2.036v.25h.25v-.25Zm-33.146,0h-.25v.25h.25Zm1.543-2.534a2.268,2.268,0,0,1-.185-1.555l-.5-.06a2.747,2.747,0,0,0,.252,1.87Zm-.185-1.555a.982.982,0,0,1,.1-.263,1.1,1.1,0,0,0,.122-.458h-.5a.625.625,0,0,1-.076.25,1.412,1.412,0,0,0-.141.411Zm.221-.721a1.4,1.4,0,0,1,.022-.2,2.627,2.627,0,0,0,.033-.278l-.5-.024a2.207,2.207,0,0,1-.028.225,1.87,1.87,0,0,0-.028.281Zm.055-.482c0-.023.011-.137.024-.252.007-.057.014-.11.02-.148,0-.02.006-.032.007-.038l0,.007s0,.01-.008.019a.234.234,0,0,1-.031.049l-.382-.322a.281.281,0,0,0-.049.088c-.006.016-.009.031-.012.042s-.01.049-.014.074c-.008.05-.016.111-.023.171-.014.117-.025.245-.027.286Zm.009-.363a.133.133,0,0,1-.09.051.205.205,0,0,1,.043.008.879.879,0,0,1,.091.03l.045.017.046.017.161-.473a1.96,1.96,0,0,0-.22-.076.659.659,0,0,0-.194-.022.367.367,0,0,0-.264.126Zm.135.123a2.055,2.055,0,0,0,.237.074.6.6,0,0,0,.364-.025l-.19-.462a.114.114,0,0,1-.069,0,1.807,1.807,0,0,1-.181-.058Zm.6.049a1.046,1.046,0,0,0,.285-.191c.046-.037.057-.039.079-.039v-.5a.6.6,0,0,0-.394.151.638.638,0,0,1-.16.117Zm.364-.23a.952.952,0,0,0,.653-.226,1.9,1.9,0,0,0,.207-.21c.065-.074.123-.144.2-.221l-.365-.341c-.08.085-.15.169-.207.233a1.5,1.5,0,0,1-.152.157.455.455,0,0,1-.331.108Zm1.054-.657c.01-.011,0,0-.027.015a.207.207,0,0,1-.174-.005.194.194,0,0,1-.087-.082c-.006-.012-.006-.017,0-.008a.9.9,0,0,1,.012.091c0,.018,0,.042.009.065a.454.454,0,0,0,.01.046.284.284,0,0,0,.038.081l.415-.279a.21.21,0,0,1,.028.058c0,.007,0,.011,0,.009s0-.015,0-.035a1.325,1.325,0,0,0-.022-.148.489.489,0,0,0-.037-.107.312.312,0,0,0-.139-.14.291.291,0,0,0-.25,0,.422.422,0,0,0-.133.1Zm-.223.2a.535.535,0,0,0,.283.23.86.86,0,0,0,.272.027v-.5h-.1l-.023,0,.009.005a.2.2,0,0,1-.03-.038Zm.556.257a1.826,1.826,0,0,1,.435.031.252.252,0,0,1,.107.05s.014.012.012.052l.5.024a.55.55,0,0,0-.155-.426.721.721,0,0,0-.336-.183,2.247,2.247,0,0,0-.564-.048Zm.555.133c0,.064-.014.14-.028.241a3.187,3.187,0,0,0-.032.319.816.816,0,0,0,.266.7l.31-.392c-.048-.038-.082-.115-.076-.292a2.681,2.681,0,0,1,.028-.268c.012-.09.028-.194.032-.286Zm-2.662,1c0-.065,0-.133-.006-.183a.975.975,0,0,1,0-.128c.006-.057.017-.065.031-.075l-.281-.413a.57.57,0,0,0-.248.44,1.43,1.43,0,0,0,0,.2c0,.063.006.111.006.163Zm.026-.386a.618.618,0,0,0,.251-.536h-.5a.268.268,0,0,1-.014.1.055.055,0,0,1-.018.026Zm1.271,1.953c.1,0,.166,0,.237.005a.457.457,0,0,1,.129.02.045.045,0,0,1,.025.019.3.3,0,0,1,.031.133l.5-.035a.78.78,0,0,0-.106-.365.54.54,0,0,0-.267-.218.906.906,0,0,0-.282-.053c-.081-.005-.18,0-.254-.006Zm.422.177a.631.631,0,0,0,.137.343.243.243,0,0,1,.026.043.07.07,0,0,1,0,.031l.5.024a.578.578,0,0,0-.118-.384c-.045-.064-.046-.068-.048-.092Zm.166.417a.231.231,0,0,1,.088-.172.244.244,0,0,1,.027-.017l.01,0-.012,0-.038.008c-.066.012-.161.022-.268.032s-.214.016-.306.023a2.026,2.026,0,0,0-.222.023l.106.488.039,0,.113-.008.313-.024c.109-.01.224-.022.314-.038a.81.81,0,0,0,.138-.036.359.359,0,0,0,.09-.049.269.269,0,0,0,.107-.2Zm-.721-.1a1.918,1.918,0,0,1-.418.025,2.059,2.059,0,0,0-.533.05l.128.484a1.6,1.6,0,0,1,.4-.034,2.344,2.344,0,0,0,.524-.037Zm-.951.075a1.731,1.731,0,0,1-.434.068.506.506,0,0,1-.318-.091l-.31.392a1,1,0,0,0,.626.2,2.22,2.22,0,0,0,.564-.084Zm-.519-2.021a3.433,3.433,0,0,0,.805.073v-.5a2.917,2.917,0,0,1-.692-.06Zm.805.073c.064,0,.132-.008.171-.011.023,0,.039,0,.053,0h.019a.12.12,0,0,1-.065-.045c-.021-.029-.011-.041-.011.006h.5a.5.5,0,0,0-.085-.3.392.392,0,0,0-.258-.154.808.808,0,0,0-.2,0,1.269,1.269,0,0,1-.127.01Zm.166-.053c0,.108-.041.141-.083.155l.16.473a.63.63,0,0,0,.422-.628Zm-.083.155a.531.531,0,0,0-.318.366c-.02.062-.035.125-.046.179s-.021.1-.032.145l.484.125c.014-.055.027-.116.037-.164s.021-.1.033-.131c.028-.086.041-.06,0-.047Zm-.4.69a.559.559,0,0,0,.049.449.47.47,0,0,0,.344.208.716.716,0,0,0,.34-.042.686.686,0,0,0,.286-.194l-.382-.322a.2.2,0,0,1-.077.047.252.252,0,0,1-.1.016c-.021,0,0-.006.012.018s-.005.019.014-.055Zm1.019.421a3.182,3.182,0,0,0,.319-.4,1.132,1.132,0,0,0,.14-.6h-.5a.638.638,0,0,1-.072.348,2.851,2.851,0,0,1-.27.332Zm.043-.33h-.333v.5H41.8Zm1.165.724h-.277v.5h.277Zm.6.515a3.654,3.654,0,0,1-.355-.616l-.468.176a4.061,4.061,0,0,0,.4.7Zm-.355-.616a.768.768,0,0,1-.061-.231c0-.068,0-.119.009-.28l-.5-.016c0,.113-.014.228-.008.326a1.265,1.265,0,0,0,.091.377Zm-.052-.511a.2.2,0,0,1,.031-.118.335.335,0,0,1,.1-.078.946.946,0,0,0,.448-.42l-.457-.2c-.035.078-.085.1-.251.2a.8.8,0,0,0-.242.211.691.691,0,0,0-.127.4Zm.576-.616a1.42,1.42,0,0,1,.334-.53l-.348-.359a1.916,1.916,0,0,0-.442.685Zm.334-.53a.54.54,0,0,1,.144-.068.723.723,0,0,0,.324-.224l-.4-.3c-.009.013-.029.029-.113.062a.918.918,0,0,0-.306.173Zm.469-.292c.038-.05.072-.1.1-.148s.058-.09.086-.131a.555.555,0,0,1,.146-.158l-.266-.423a1.022,1.022,0,0,0-.29.3c-.034.049-.067.1-.1.143s-.056.085-.082.119Zm.334-.437a1.444,1.444,0,0,1,.458-.185l-.128-.484a1.949,1.949,0,0,0-.6.246Zm.458-.185a1.637,1.637,0,0,0,.364-.174.488.488,0,0,1,.182-.078v-.5a.9.9,0,0,0-.429.143,1.271,1.271,0,0,1-.245.125Zm.546-.252a2.225,2.225,0,0,0,.289-.03,1.307,1.307,0,0,0,.174-.038.528.528,0,0,0,.091-.035.322.322,0,0,0,.125-.106l-.415-.279a.2.2,0,0,1,.047-.05.113.113,0,0,1,.02-.013l-.012,0a.932.932,0,0,1-.111.024c-.046.008-.093.013-.133.018l-.051,0h-.023Zm.679-.209a.126.126,0,0,1-.049.046.4.4,0,0,1,.069-.013,2.162,2.162,0,0,1,.306,0c.12.006.243.017.354.027s.21.019.277.019v-.5c-.038,0-.115-.006-.232-.017s-.243-.022-.374-.028a2.475,2.475,0,0,0-.386,0,.815.815,0,0,0-.183.04.392.392,0,0,0-.2.145Zm.957.077a6.577,6.577,0,0,1,.952.1,6.927,6.927,0,0,0,1.032.1v-.5a6.457,6.457,0,0,1-.958-.1,6.894,6.894,0,0,0-1.026-.1Zm1.984.2a2.5,2.5,0,0,1,.8.087l.149-.477a2.974,2.974,0,0,0-.947-.11Zm.8.087a.86.86,0,0,0,.237.038l.068,0c.017,0,.019,0,.015,0a.147.147,0,0,1-.045-.022.131.131,0,0,1-.04-.047c-.007-.013,0,0,0,.086h.5a.694.694,0,0,0-.055-.3.365.365,0,0,0-.252-.2.994.994,0,0,0-.179-.015.368.368,0,0,1-.106-.015Zm-5,.967a1.214,1.214,0,0,1,.59.17c.1.053.2.112.309.177a3.853,3.853,0,0,0,.356.19l.208-.455c-.105-.048-.206-.1-.311-.166s-.214-.128-.326-.188a1.72,1.72,0,0,0-.825-.228Zm1.255.537c.074.034.172.081.271.117a1.008,1.008,0,0,0,.348.07v-.5a.533.533,0,0,1-.175-.039c-.075-.028-.149-.063-.236-.1Zm.618.187a.392.392,0,0,1,.175.059,1.635,1.635,0,0,0,.328.145l.127-.484a1.179,1.179,0,0,1-.227-.106.877.877,0,0,0-.4-.114Zm.5.2a1.145,1.145,0,0,0,.246.032c.037,0,.073,0,.106,0s.063,0,.092,0c.121.005.169.023.2.051l.339-.367a.776.776,0,0,0-.516-.184l-.107,0h-.094a.684.684,0,0,1-.137-.017Zm.643.088a.351.351,0,0,0,.372.062.723.723,0,0,0,.214-.136,1.923,1.923,0,0,0,.255-.285l-.405-.293a1.374,1.374,0,0,1-.18.2.466.466,0,0,1-.044.035c-.013.009-.018.011-.017.01a.127.127,0,0,1,.048-.005.168.168,0,0,1,.1.043Zm.841-.359a1.641,1.641,0,0,1,.5-.429c.1-.062.208-.119.318-.177s.222-.118.329-.182l-.255-.429c-.095.056-.2.11-.308.169s-.227.121-.342.191a2.14,2.14,0,0,0-.648.564Zm1.148-.787a1.837,1.837,0,0,1,.236-.114c.085-.037.186-.078.283-.129l-.233-.442c-.074.039-.151.07-.245.11a2.455,2.455,0,0,0-.3.145Zm.519-.243a.556.556,0,0,0,.142-.112c.028-.031.061-.072.075-.088.044-.051.037-.027,0-.022l-.069-.5a.508.508,0,0,0-.316.2c-.031.036-.041.05-.058.069s-.016.014-.01.011Zm.22-.222a.734.734,0,0,0,.378-.195,3.109,3.109,0,0,0,.252-.269,1.7,1.7,0,0,1,.2-.206.183.183,0,0,1,.1-.052v-.5a.665.665,0,0,0-.414.16,2.056,2.056,0,0,0-.268.269,2.619,2.619,0,0,1-.209.225.257.257,0,0,1-.114.072Zm.936-.722c.079,0,.165-.007.242-.012s.157-.01.23-.011a.543.543,0,0,1,.3.058l.286-.41a1.01,1.01,0,0,0-.589-.148c-.091,0-.183.007-.262.012s-.15.011-.208.011Zm.772.035c.057.04.111.084.176.136s.133.109.212.164l.286-.41c-.062-.043-.12-.09-.183-.141s-.13-.107-.2-.159Zm.388.3a.588.588,0,0,1,.107.107.58.58,0,0,1,.083.129l.461-.194a1.09,1.09,0,0,0-.155-.25,1.108,1.108,0,0,0-.21-.2Zm.393,3.563c0-.3-.02-.655-.026-.962a4.786,4.786,0,0,1,.05-.9l-.493-.087a5.272,5.272,0,0,0-.057,1c.007.344.026.647.026.953Zm.024-1.866c.015-.084.025-.17.035-.251s.018-.16.029-.236a1.165,1.165,0,0,1,.1-.376l-.442-.234a1.649,1.649,0,0,0-.158.537c-.013.086-.022.173-.031.251s-.018.154-.03.222Zm.169-.863a3.63,3.63,0,0,1,.47-.6l-.382-.322a3.966,3.966,0,0,0-.529.688Zm-2.986-.782a1.893,1.893,0,0,0,.823-.435l-.331-.375a1.393,1.393,0,0,1-.619.326Zm.823-.435a1.35,1.35,0,0,1,.21-.155.373.373,0,0,1,.152-.061v-.5a.824.824,0,0,0-.4.13,1.847,1.847,0,0,0-.288.211Zm.361-.216c.07,0,.149-.006.2-.008a.877.877,0,0,1,.148,0,.133.133,0,0,1,.123.076l.436-.245a.631.631,0,0,0-.5-.328,1.418,1.418,0,0,0-.232-.005c-.074,0-.126.008-.181.008Zm-1.871,4.048a1.368,1.368,0,0,0,.214-.253c.057-.083.093-.142.145-.205l-.387-.317c-.07.086-.128.177-.171.24a.838.838,0,0,1-.135.163Zm.359-.458c.058-.071.119-.135.187-.206s.14-.146.212-.231l-.382-.322c-.06.071-.122.135-.191.207s-.141.148-.212.235Zm.4-.437a4.992,4.992,0,0,0,.493-.738c.146-.255.276-.495.424-.717l-.415-.278c-.161.241-.305.507-.443.746a4.534,4.534,0,0,1-.441.665Zm.917-1.455a1.97,1.97,0,0,1,.124-.175.228.228,0,0,1,.079-.069l-.179-.466a.7.7,0,0,0-.282.212,2.334,2.334,0,0,0-.158.22Zm.2-.244a2.589,2.589,0,0,0,.272-.128,1.359,1.359,0,0,1,.213-.093l-.147-.478a1.8,1.8,0,0,0-.293.126,2.181,2.181,0,0,1-.224.106Zm.485-.221a2.567,2.567,0,0,1,.377-.077,3.861,3.861,0,0,0,.439-.082l-.13-.483a3.512,3.512,0,0,1-.383.071,2.983,2.983,0,0,0-.45.093Zm.816-.159a.371.371,0,0,1,.05-.007.723.723,0,0,0,.138-.025l-.146-.478a.274.274,0,0,1-.043.006.886.886,0,0,0-.13.021Zm.188-.032a.9.9,0,0,0,.113-.045.678.678,0,0,0,.071-.041.383.383,0,0,0,.047-.039.278.278,0,0,0,.063-.092l-.461-.194a.213.213,0,0,1,.027-.047.157.157,0,0,1,.02-.023c.01-.01.017-.015.019-.017l-.007,0-.026.011-.014.005Zm-6.368,2.576-.037-.019-.034-.017a.435.435,0,0,1-.054-.033c-.014-.01-.016-.014-.012-.01a.109.109,0,0,1,.016.058h-.5a.448.448,0,0,0,.2.356,1.426,1.426,0,0,0,.185.107Zm-.122-.021c0-.075,0-.131,0-.193l-.5-.012c0,.069,0,.147,0,.205Zm0-.193c0,.006,0,.006,0,0s.006-.02.011-.035c.012-.031.026-.063.042-.1l-.453-.212c-.014.031-.038.08-.057.133a.633.633,0,0,0-.044.2Zm.055-.135a.9.9,0,0,0,.037-.1c.011-.033.018-.059.028-.087a.462.462,0,0,1,.021-.053c0-.005,0,0,0,0a.161.161,0,0,1-.041.039l-.281-.414a.38.38,0,0,0-.123.149.955.955,0,0,0-.047.116c-.011.033-.023.071-.03.094l-.011.032,0,.009Zm.042-.2a.368.368,0,0,0,.1-.1.512.512,0,0,0,.043-.078c.01-.021.019-.042.025-.056l.012-.028-.448-.222c-.01.021-.02.043-.025.057s-.011.028-.016.037l0,.009a.133.133,0,0,1,.038-.036Zm.175-.259.007-.01c.006-.009.013-.018.022-.031s.048-.062.072-.1l-.423-.267a.756.756,0,0,1-.047.064.806.806,0,0,0-.079.122Zm.1-.141a1.39,1.39,0,0,0,.11-.217.8.8,0,0,0,.064-.287h-.5a.337.337,0,0,1-.028.1.838.838,0,0,1-.069.136Zm23.038-3.339a1.9,1.9,0,0,1,.365.532l.468-.175a2.339,2.339,0,0,0-.447-.675Zm.365.532c.016.042.027.091.046.161l.483-.128c-.013-.051-.034-.136-.061-.208Zm.046.161c0-.008,0-.011,0-.005s0,.014,0,.033a.489.489,0,0,0,.028.171l.467-.178a.1.1,0,0,1,.005.019s0-.006,0-.02,0-.034,0-.056a.487.487,0,0,0-.014-.092Zm.028.2a.512.512,0,0,1,.023.161c0,.063,0,.175.013.271l.5-.064c-.008-.064-.006-.12-.009-.223a.978.978,0,0,0-.056-.323Zm.035.432c.01.078.027.16.037.217a.912.912,0,0,1,.018.162h.5a1.415,1.415,0,0,0-.026-.251c-.014-.078-.026-.13-.034-.192Zm.055.379v.016h0v.022h0v.022h0v.02h0v.022h0v.022h0v.02h0v.022h0v.022h0v.022h0v.02h0v.022h0v.022h0v.02h0v.022h0v.022h0v.02h0v.022h0v.022h0v.022h0v.02h0v.022h0v.022h0v.02h0v.022h0v.022h0v.02h0v.022h0v.022h0v.02h0v.022h0v.022h0v.02h0v.022h0v.022h0v.022h0v.02h0v.022h0v.022h0v.02h0v.022h0v.022h0v.02h0v.022h.5v-.022h0v-.02h0v-.022h0v-.022h0v-.02h0v-.022h0v-.022h0v-.02h0v-.022h0v-.022h0v-.022h0v-.02h0v-.022h0v-.022h0v-.02h0v-.022h0V311.6h0v-.02h0v-.022h0v-.022h0v-.02h0v-.022h0v-.022h0v-.02h0v-.022h0v-.022h0v-.022h0v-.02h0v-.022h0V311.3h0v-.02h0v-.022h0v-.022h0v-.02h0v-.022h0v-.022h0v-.022h0v-.02h0V311.1h0v-.022h0v-.02h0v-.022h0v-.022h0V311Zm0,.98a.5.5,0,0,1-.025.152l.464.187a.988.988,0,0,0,.062-.339Zm-.025.152a.948.948,0,0,0-.051.193.561.561,0,0,1-.024.1l.466.18a1.016,1.016,0,0,0,.049-.192.529.529,0,0,1,.023-.1Zm-.075.3a1.752,1.752,0,0,0-.069.233c-.018.079-.03.136-.047.2l.483.127c.019-.071.036-.153.05-.212a1.317,1.317,0,0,1,.049-.168Zm-.116.433a1.73,1.73,0,0,0-.024.5.632.632,0,0,1-.026.282l.445.227a1.065,1.065,0,0,0,.08-.528,1.353,1.353,0,0,1,.007-.351Zm-.049.779a.1.1,0,0,1,.035-.037.123.123,0,0,1,.049-.02s0,0,0,0a.106.106,0,0,1-.018,0h-.034l-.049,0v.5l.055,0a.633.633,0,0,0,.112,0,.374.374,0,0,0,.165-.061.4.4,0,0,0,.129-.15Zm-.016-.062h-.219v.5h.219Zm-.219,0c.012,0,.019,0,.006,0l-.015-.006-.024-.009a.554.554,0,0,0-.076-.023l-.106.489s0,0,0,0l.013.005.022.009a.465.465,0,0,0,.176.035Zm-.108-.039c-.045-.01-.089-.018-.129-.024l-.11-.02-.1.491.124.022c.039.006.074.013.107.02Zm-.239-.044c-.086-.017-.189-.039-.291-.055l-.074.495c.086.013.165.031.268.051Zm-.291-.055c-.077-.011-.135-.025-.227-.041a1.49,1.49,0,0,0-.285-.03v.5a1.075,1.075,0,0,1,.2.022c.063.011.158.031.243.044Zm-.511-.071a4.152,4.152,0,0,0-.427.036c-.151.018-.277.033-.36.033v.5a4.1,4.1,0,0,0,.419-.036,3.6,3.6,0,0,1,.368-.033Zm-.739-.9a2.8,2.8,0,0,0,1.112-.619l-.344-.363a2.294,2.294,0,0,1-.922.506Zm1.112-.619a2.628,2.628,0,0,0,.636-1.182l-.478-.146a2.149,2.149,0,0,1-.5.965Zm.636-1.182a4.685,4.685,0,0,0,.131-.467l-.49-.1c-.028.139-.072.265-.119.419Zm.131-.467c.01-.052.028-.106.05-.18a1.588,1.588,0,0,0,.059-.241l-.5-.069a1.117,1.117,0,0,1-.041.163c-.019.063-.046.146-.062.228Zm.109-.421c.013-.091.027-.219.055-.339a.655.655,0,0,1,.042-.129c.017-.034.012,0-.037.017l-.184-.465a.447.447,0,0,0-.226.225,1.111,1.111,0,0,0-.082.235c-.036.15-.055.316-.064.387Zm-2.2,2.113a1.164,1.164,0,0,0,.454-.242,2.557,2.557,0,0,0,.332-.335l-.382-.322a2.051,2.051,0,0,1-.266.27.679.679,0,0,1-.255.143Zm.786-.577a.816.816,0,0,0,.172-.384c.026-.132.026-.187.053-.278l-.48-.141a3.234,3.234,0,0,0-.064.323.329.329,0,0,1-.063.158Zm.225-.662a3.887,3.887,0,0,0,.087-.383c.024-.126.043-.24.069-.353l-.487-.111c-.029.126-.051.256-.073.372a3.362,3.362,0,0,1-.076.334Zm.156-.736c.015-.064.027-.131.037-.194s.021-.124.034-.182a.819.819,0,0,1,.091-.264l-.42-.27a1.282,1.282,0,0,0-.16.431c-.014.069-.026.138-.037.2s-.021.119-.032.169Zm.162-.64a.142.142,0,0,1-.023.029l.018-.013a.336.336,0,0,1,.068-.031l.012,0h0l-.022,0a.165.165,0,0,1-.081-.049.161.161,0,0,1-.042-.083l.494-.076a.342.342,0,0,0-.087-.183.336.336,0,0,0-.167-.1.487.487,0,0,0-.253.015.861.861,0,0,0-.18.082.666.666,0,0,0-.076.054.375.375,0,0,0-.079.087Zm-.072-.154c.012.077.012.138.018.248l.5-.029c0-.082-.007-.186-.023-.3Zm.018.248a.827.827,0,0,0,.057.238,1.171,1.171,0,0,1,.046.132l.488-.11a1.5,1.5,0,0,0-.065-.2.381.381,0,0,1-.027-.093Zm.1.37a3.9,3.9,0,0,1,.092.817h.5a4.4,4.4,0,0,0-.1-.927Zm-12.986,1.219c.1,0,.159,0,.188,0s.014,0-.016-.006.012,0,.031.008a.31.31,0,0,0,.054.006c.028,0,.072,0,.148,0v-.5c-.078,0-.108,0-.12,0s0,0,.017,0,.043.012.015,0a.477.477,0,0,0-.11-.015c-.038,0-.1,0-.205,0Zm.4.013h.4v-.5h-.4Zm.4,0c-.05,0-.086-.026-.056-.009a.39.39,0,0,0,.192.055v-.5c.046,0,.077.023.054.009a.373.373,0,0,0-.189-.055Zm.136.046h.152v-.5h-.152Zm.152,0a.871.871,0,0,1,.141.018,1.357,1.357,0,0,0,.228.029l.009-.5a.967.967,0,0,1-.146-.02,1.247,1.247,0,0,0-.232-.027Zm.369.047a3.677,3.677,0,0,1,.483.018l.078-.493a3.838,3.838,0,0,0-.552-.025Zm.483.018a.618.618,0,0,0,.087.009l.058,0a.1.1,0,0,1,.042.007l.2-.46a.614.614,0,0,0-.2-.046c-.063-.005-.073,0-.1-.007Zm.186.019a.923.923,0,0,0,.278.076l.053-.5a.469.469,0,0,1-.135-.038Zm.278.076c.082.009.163.027.265.048a2.036,2.036,0,0,0,.328.047l.023-.5a1.687,1.687,0,0,1-.25-.038c-.09-.018-.2-.043-.312-.055Zm.593.1a1.007,1.007,0,0,1,.3.081l.184-.465a1.477,1.477,0,0,0-.459-.115Zm.3.081a2.9,2.9,0,0,0,.652.162l.073-.495a2.438,2.438,0,0,1-.541-.132Zm.652.162a5.709,5.709,0,0,1,1.084.238l.167-.471a6.249,6.249,0,0,0-1.178-.262Zm1.084.238a1.263,1.263,0,0,0,.325.059.793.793,0,0,1,.2.031l.17-.47a1.246,1.246,0,0,0-.323-.059.807.807,0,0,1-.2-.032Zm.52.09a5.7,5.7,0,0,0,.913.191l.093-.491a5.476,5.476,0,0,1-.836-.17Zm.913.191a4.232,4.232,0,0,0,.8.1v-.5a3.765,3.765,0,0,1-.7-.088Zm.8.1a6.961,6.961,0,0,1,.891.02l.065-.495a7.261,7.261,0,0,0-.956-.025Zm.891.02a.525.525,0,0,1,.083.027.637.637,0,0,0,.224.046v-.5l-.011,0a.286.286,0,0,1-.043-.014.875.875,0,0,0-.188-.052Zm.306.073a2.04,2.04,0,0,1,.356.037l.092-.491a2.41,2.41,0,0,0-.448-.046Zm.356.037a15.082,15.082,0,0,0,1.6.135l.04-.5a15.155,15.155,0,0,1-1.551-.128Zm1.6.135a2.656,2.656,0,0,0,.3,0,.839.839,0,0,1,.207.01l.105-.489a1.358,1.358,0,0,0-.327-.021c-.1,0-.173.007-.241,0Zm.5.01c.028.006.06.01.083.013l.07.011a.3.3,0,0,1,.042.008h0a.206.206,0,0,1-.034-.023l.327-.379a.4.4,0,0,0-.143-.075.891.891,0,0,0-.105-.024l-.085-.012-.045-.007Zm.156.008a.341.341,0,0,0,.113.063.61.61,0,0,0,.086.023,1.221,1.221,0,0,0,.174.021,1.081,1.081,0,0,0,.18,0,.48.48,0,0,0,.1-.02.324.324,0,0,0,.134-.078l-.352-.355a.173.173,0,0,1,.048-.035.1.1,0,0,1,.021-.009c.005,0,0,0-.008,0a.7.7,0,0,1-.094,0,.727.727,0,0,1-.1-.012l-.014,0h0l.011,0a.206.206,0,0,1,.036.025Zm.786,0a.432.432,0,0,1-.132.07.447.447,0,0,1-.159-.022.25.25,0,0,1-.1-.09.259.259,0,0,1-.026-.055.225.225,0,0,1-.007-.025v-.005c0,.006,0,.017,0,.032s.008.067.013.107.01.083.013.117,0,.056,0,.055h.5c0-.046-.012-.156-.021-.231-.005-.042-.01-.083-.014-.113l-.005-.039,0-.015,0-.014a.2.2,0,0,0-.007-.026.257.257,0,0,0-.026-.055.25.25,0,0,0-.1-.09.425.425,0,0,0-.159-.022.431.431,0,0,0-.132.07Zm-.388.184c0,.214,0,.425.01.633s.01.415.01.621h.5c0-.213,0-.424-.01-.632s-.01-.415-.01-.622Zm-5.654-.75c.146,0,.293.006.445.012s.307.011.465.011v-.5c-.147,0-.293-.005-.445-.011s-.306-.012-.464-.012Zm.909.023h.436v-.5h-.436Zm.436,0c.038,0,.09-.005.127-.008s.088-.009.129-.01a.5.5,0,0,1,.084,0c.007,0,0,0-.014-.005a.185.185,0,0,1-.079-.071l.423-.267a.314.314,0,0,0-.14-.119.467.467,0,0,0-.113-.032.96.96,0,0,0-.183-.007c-.056,0-.111.008-.154.012l-.056.005h-.024Zm.247-.093a.35.35,0,0,0,.239.15.8.8,0,0,0,.172.008c.05,0,.1-.008.136-.012l.048-.005h.018v-.5a1.049,1.049,0,0,0-.119.009c-.039,0-.075.008-.108.009a.333.333,0,0,1-.059,0,.069.069,0,0,1,.024.009.176.176,0,0,1,.072.066Zm.613.14a2.712,2.712,0,0,1,.4.043l.074-.494a3.013,3.013,0,0,0-.469-.049Zm.4.043a3.643,3.643,0,0,0,.528.026,2.033,2.033,0,0,1,.438.036l.11-.488a2.523,2.523,0,0,0-.545-.048,3.269,3.269,0,0,1-.458-.02Zm.966.062a3.338,3.338,0,0,0,.735.034v-.5a2.982,2.982,0,0,1-.625-.022Zm.735.034h.954v-.5h-.954Zm.954,0c.051,0,.078.005.16.008a.852.852,0,0,0,.24-.021L68,311.557a.346.346,0,0,1-.094.005c-.034,0-.123-.008-.178-.008Zm.4-.013a.525.525,0,0,0,.1-.04l.018-.01s-.006,0-.021.008a.219.219,0,0,1-.115.005.24.24,0,0,1-.149-.1.206.206,0,0,1-.029-.076c0-.009,0-.013,0-.007h.5a.46.46,0,0,0-.005-.071.293.293,0,0,0-.041-.112.265.265,0,0,0-.168-.119.281.281,0,0,0-.141.007.307.307,0,0,0-.054.023l-.014.007-.009.005c-.01.005-.007,0,0,0Zm-.2-.224c0,.061,0,.154.005.243a.758.758,0,0,0,.086.308l.436-.245a.275.275,0,0,1-.023-.1c-.005-.061,0-.122,0-.2Zm-9.843,2.54a1.938,1.938,0,0,0,.374-.051c.137-.029.289-.068.437-.107.31-.081.581-.157.715-.174l-.064-.5c-.176.023-.5.113-.778.186-.147.039-.29.075-.415.1a1.57,1.57,0,0,1-.269.04Zm1.564-.34a.994.994,0,0,1,.31-.055c.031,0,.058,0,.1.009a1.552,1.552,0,0,0,.159.01v-.5a.947.947,0,0,1-.105-.007c-.036,0-.086-.01-.142-.012a1.49,1.49,0,0,0-.464.075Zm.571-.036h.428v-.5h-.428Zm.428,0h1.2v-.5h-1.2Zm1.2,0h.8v-.5h-.8Zm.8,0a1.29,1.29,0,0,1,.187.018,2.032,2.032,0,0,0,.253.028l.015-.5a1.649,1.649,0,0,1-.194-.022,1.729,1.729,0,0,0-.261-.024Zm.44.046c.125,0,.436,0,.549,0v-.5c-.129,0-.418,0-.534,0Zm.549,0a.368.368,0,0,1,.2.049,1.036,1.036,0,0,0,.357.129l.073-.495a.568.568,0,0,1-.2-.079.854.854,0,0,0-.427-.1Zm.556.178a2.2,2.2,0,0,0,.376.017c.127,0,.221-.009.328-.009v-.5c-.11,0-.241.007-.34.009a1.662,1.662,0,0,1-.29-.012Zm.7.008h2.3v-.5h-2.3Zm2.3,0c.121,0,.234-.011.338-.021s.2-.022.294-.026l-.021-.5c-.114,0-.226.017-.324.027a2.643,2.643,0,0,1-.287.019Zm.632-.047a1,1,0,0,0,.167-.024l.116-.025-.09-.492c-.045.008-.1.022-.132.029a.567.567,0,0,1-.083.013Zm.283-.049c.034-.006.053,0,.126-.01a.635.635,0,0,0,.239-.058l-.215-.451a.174.174,0,0,1-.061.011l-.033,0-.041,0a.981.981,0,0,0-.106.012ZM53.3,310.872a4.606,4.606,0,0,0,1.032.076c.357-.007.658-.029.978-.029v-.5c-.311,0-.678.023-.987.029a4.122,4.122,0,0,1-.92-.065Zm2.01.047a9.321,9.321,0,0,1,1.38.032l.049-.5a9.91,9.91,0,0,0-1.429-.034Zm-16.782,3.627H71.676v-.5H38.529Zm32.9-.25v2.036h.5V314.3Zm.25,1.786H38.529v.5H71.676Zm-32.9.25V314.3h-.5v2.036Z" transform="translate(992 9.341)" fill="#36a0ff"/>
    <path id="Path_696" data-name="Path 696" d="M37,312.412H70.822" transform="translate(992 9.341)" fill="none" stroke="#36a0ff" stroke-width="0.5" stroke-dasharray="1 1"/>
  </g>
</svg>
