<svg xmlns="http://www.w3.org/2000/svg" width="27.47" height="18.331" viewBox="0 0 27.47 18.331">
  <g id="posture-icon5" transform="translate(-1094.2 -434.877)">
    <path id="Path_716" data-name="Path 716" d="M44.368,362.567a.25.25,0,0,0,0-.5Zm-.717.8a.25.25,0,1,0,.464-.186Zm.342-1.006a.25.25,0,0,0,.5,0Zm.7-1.022.25-.014h0Zm.538-.308-.009-.25h0Zm.655-.185-.009-.25h0Zm.313-.494.013-.25h0Zm-.655-.124-.013.25h0Zm-.589-.109-.1.23h0Zm-1.542-.045-.153-.2h0Zm-.942,1.053.239.072h0Zm.258,1.234.214-.13h0Zm.557.559.171-.182h0Zm.343.867a.25.25,0,0,0,.428-.259Zm.007,2.294a.25.25,0,0,0,.489.106Zm.624-.943.037.247h0Zm2.047-.434.2-.144a.25.25,0,0,0-.454.144Zm-.3-4.452a.25.25,0,0,0-.38.325Zm.291.961-.242.063h0Zm.121.452-.11.224h0Zm.211.871.237.079h0Zm0,.849.25.011h0Zm-.4.432-.25-.015h0Zm.448,1.05a.25.25,0,0,0-.248-.434Zm-2.543-1.116a.25.25,0,0,0-.5,0Zm-.5.953a.25.25,0,0,0,.5,0Zm6.559,5.24.138-.208a.25.25,0,0,0-.388.208Zm.642.215-.106.226h0Zm.586.167-.089.233h0Zm.344.1-.009.25h0Zm.375.07-.021.249h0Zm2.247.078-.025.249h0Zm1.023.162.011-.25h0Zm.175.047.01-.25h0Zm.145.005.1-.23h0Zm1.335.061.048-.245h0Zm.768.186-.053.244h0Zm.83.219-.042.247h0Zm.479.137-.06.242h0Zm.407.03.058-.243h0Zm.745.138.082-.237h0Zm.386.119.068-.241h0Zm.325.1.045-.246h0Zm.517.024.037-.247h0Zm1.291.308a.25.25,0,1,0,0-.5Zm.25-.248a.25.25,0,0,0-.5,0Zm-.5,1.906a.25.25,0,0,0,.5,0Zm-11.334-3.578a.25.25,0,1,0-.129.483Zm2.612.531-.011.25h0Zm1.486.1,0-.249h0Zm2.877.217-.056.244h0Zm.346.069-.066.241h0Zm.708.141-.026.248h0Zm.375.08-.053.244h0Zm.489.077.056-.243h0Zm.82.151-.041.246h0Zm.841.107-.091.233h0Zm.305.077.069-.24h0Zm.724.125-.073-.24a.25.25,0,0,0,.129.483Zm1.023-.336-.124-.217h0Zm.55-.495-.167-.186h0Zm.618-.6a.25.25,0,0,0-.5,0Zm-19.624-2.155a.25.25,0,0,0-.079.494Zm.366.129.066.241h0Zm.306-.132-.114-.222h0Zm.745.027a.25.25,0,0,0,0-.5Zm-.253-2.726a.25.25,0,0,0-.465.186Zm.409,2.011-.247.039h0Zm.112.351.226-.107h0Zm.133.318.222-.115h0Zm.473,1.181-.225.109h0Zm.932.853.124-.218h0Zm.817.507-.144.2h0Zm.386.255.134-.211h0Zm.247.187.106-.226h0Zm.361.268-.143.205h0Zm.344.241.154-.2h0Zm.831.552.12-.22h0Zm2.134.535-.127.216h0Zm.292.294.182-.172h0Zm-.189.164a.25.25,0,0,0,.5,0Zm-6.816-2.512a.25.25,0,1,0-.428.258Zm.851,1.013.1-.228h0Zm.633.325.108-.225h0Zm.6.275.063-.242h0Zm.276.114.075-.239h0Zm.35.108.092-.233h0Zm.478.181-.071.24h0Zm.8.3.108-.225h0Zm.772.314.112-.223h0Zm.258.168.112-.223h0Zm.31.1.021-.249h0Zm.358.07.036-.248h0Zm.773,0,.043.246h0Zm.444-.168-.092-.233a.24.24,0,0,0-.08.052Zm.409-.252a.25.25,0,0,0-.5,0Zm-7.258-8.085-.142.206h0Zm.566.5.188-.165h0Zm.212.448-.233.09h0Zm.179.4.23-.1h0Zm.487.825-.215.128h0Zm.254.67-.241.066h0Zm.212.67.222-.115h0Zm.521.7-.108.226h0Zm.61.73a.25.25,0,0,0,.168-.471Zm-.631.618a.25.25,0,1,0,.46.2Zm.6-.459-.231-.1h0Zm.059-.215-.247-.038h0Zm-2.369,2.43a.25.25,0,0,0,0,.5Zm.971.023a.25.25,0,0,0,0-.5Zm-1.021-.171a.25.25,0,0,0-.385.319Zm.153.87-.229.1a.24.24,0,0,0,.052.075Zm.625.48.04-.246h0Zm.9-.1.125.217a.25.25,0,0,0-.217-.449Zm.442.043.033-.247h0Zm.469.023-.029.248h0Zm1.337-.022-.012-.249h0Zm2.342-.017.032.248h0Zm.386-.116.055.244h0Zm.486-.1.017.249h0Zm3.614.034-.038.247h0Zm4.346.339a.25.25,0,0,0,0-.5ZM40,363.877l-.125-.216-.22.127.131.218Zm24.748,6.767a.25.25,0,1,0,.493-.083Zm.481-.137-.207.141h0Zm.1.12.2-.152h0Zm.1.148-.22.118h0Zm.092.162-.235.087h0Zm.126.34.249-.018h0Zm.069.176.249-.018h0Zm-.05.575.227.106h0Zm-.078.156.219.12h0Zm-.086.117-.2-.154h0Zm-.131.147.179.175h0Zm-.166.141.155.2h0Zm-.426.336.156.2h0Zm-.177.14.144.2h0Zm-.211.2-.2-.156h0Zm-.28.4-.195-.156h0Zm-.485.089.014-.25h0Zm-.1-.029.084-.236h0Zm-.121-.031-.062.242h0Zm-.09-.043.1-.227h0Zm-.241-.069.085-.235h0Zm-.024.015a.25.25,0,0,0-.452-.215ZM65,370a.25.25,0,0,0-.487-.112Zm-.443.442-.234-.088h0Zm-.195.343-.174-.179h0Zm-.626.483-.13-.214Zm-.236.167-.135-.211h0Zm-.279.163-.117-.221h0ZM65,369.94a.25.25,0,0,0-.5,0Zm-.5.477a.25.25,0,0,0,.5,0Zm-22.794-8.526a.25.25,0,0,0-.49-.1Zm-.035.447.148-.2h0Zm.215.443-.225.109h0Zm.17.462.241-.066h0Zm.145.237-.232.092h0Zm.167.239-.214.13h0Zm.845.906-.159.192h0Zm.36.3.154-.2Zm.062.3a.25.25,0,0,0,.49-.1Zm-2.181-3.635a.25.25,0,0,0,0,.5Zm.971.5a.25.25,0,0,0,0-.5Zm1.942-.023a.8.8,0,0,0-.641.422.98.98,0,0,0-.076.874l.464-.186a.481.481,0,0,1,.042-.431.332.332,0,0,1,.212-.179Zm.124.29a.341.341,0,0,1,.047-.138,2.561,2.561,0,0,1,.146-.24,2.758,2.758,0,0,0,.172-.289.749.749,0,0,0,.089-.369l-.5.028a.282.282,0,0,1-.039.121,2.3,2.3,0,0,1-.142.235,3.116,3.116,0,0,0-.174.287.822.822,0,0,0-.1.365Zm.454-1.036c0-.029.005-.026,0-.012s-.012.007.012,0a.475.475,0,0,1,.115-.021c.054-.006.11-.007.175-.009l-.018-.5a1.481,1.481,0,0,0-.444.061.486.486,0,0,0-.335.511Zm.3-.044a1.189,1.189,0,0,0,.4-.111.753.753,0,0,1,.251-.075l-.019-.5a1.192,1.192,0,0,0-.423.112.74.74,0,0,1-.232.073Zm.655-.186a.411.411,0,0,0,.171-.049.844.844,0,0,0,.122-.077,1.326,1.326,0,0,0,.219-.206.83.83,0,0,0,.089-.129.45.45,0,0,0,.057-.181.317.317,0,0,0-.108-.265.39.39,0,0,0-.234-.086l-.026.5a.133.133,0,0,1-.066-.034.185.185,0,0,1-.065-.149c0-.028.011-.038,0-.024a.367.367,0,0,1-.035.049.8.8,0,0,1-.133.125.483.483,0,0,1-.051.033c-.017.008,0,0,.037,0Zm.316-.993a1.506,1.506,0,0,1-.28-.054,1.911,1.911,0,0,0-.375-.069l-.026.5a1.518,1.518,0,0,1,.278.054,1.926,1.926,0,0,0,.377.069Zm-.655-.123a1.946,1.946,0,0,1-.506-.091l-.193.461a2.38,2.38,0,0,0,.673.129Zm-.506-.091a3.051,3.051,0,0,0-.864-.191,2.246,2.246,0,0,0-.486.011.946.946,0,0,0-.442.168l.305.4a.475.475,0,0,1,.209-.07,1.768,1.768,0,0,1,.375-.006,2.564,2.564,0,0,1,.709.153Zm-1.792-.012a2.508,2.508,0,0,0-1.029,1.178l.479.145c.116-.382.447-.612.856-.927Zm-1.029,1.178a1.768,1.768,0,0,0,.284,1.437l.428-.26a1.279,1.279,0,0,1-.233-1.032Zm.284,1.437a1.611,1.611,0,0,0,.307.355c.053.048.107.093.155.135s.1.082.137.121l.343-.364c-.052-.049-.105-.1-.155-.138s-.1-.083-.144-.125a1.105,1.105,0,0,1-.214-.244Zm.6.611a2.948,2.948,0,0,1,.514.685l.428-.259a3.433,3.433,0,0,0-.6-.79Zm1.01,3.085c.011-.051.062-.285.13-.508a2.113,2.113,0,0,1,.1-.281.333.333,0,0,1,.032-.058.15.15,0,0,1-.094.045l-.074-.5a.361.361,0,0,0-.221.136.822.822,0,0,0-.094.155,2.571,2.571,0,0,0-.131.352c-.074.244-.129.495-.141.548Zm.172-.8a5.2,5.2,0,0,1,.763-.052v-.5a5.755,5.755,0,0,0-.837.057Zm.763-.052a5.092,5.092,0,0,0,.789-.033,1.2,1.2,0,0,0,.442-.144.521.521,0,0,0,.267-.452h-.5s0,0,0,0h0a.093.093,0,0,1-.028.023.731.731,0,0,1-.257.076,4.741,4.741,0,0,1-.713.027Zm.572-4.756a1.917,1.917,0,0,1,.429.7l.484-.125a2.376,2.376,0,0,0-.533-.9Zm.429.7a.188.188,0,0,1,0,.048c0,.02-.007.091-.007.139a.5.5,0,0,0,.05.226.455.455,0,0,0,.21.2l.22-.449c-.008,0,.005,0,.016.022s0,.022,0,0,0-.024,0-.043,0-.043,0-.067a.654.654,0,0,0-.016-.2Zm.253.613a.542.542,0,0,1,.152.152.589.589,0,0,1,.063.108c.015.034.014.046.014.036h.5a.606.606,0,0,0-.056-.237,1.125,1.125,0,0,0-.114-.2.994.994,0,0,0-.338-.31Zm.229.3a.153.153,0,0,1,0,.026.041.041,0,0,1,0,.007h0l-.007.011a.732.732,0,0,0-.133.227l.474.158c.008-.024.007-.015.061-.087a.552.552,0,0,0,.077-.142.592.592,0,0,0,.032-.2Zm-.144.272a1.35,1.35,0,0,0-.041.519,3.85,3.85,0,0,1,.024.4l.5.022a4.119,4.119,0,0,0-.025-.457.882.882,0,0,1,.017-.324Zm-.017.917c0-.059.038-.082.021-.067a.919.919,0,0,1-.1.069,1.065,1.065,0,0,0-.179.132.444.444,0,0,0-.143.294l.5.03c0,.034-.021.047-.008.035a.616.616,0,0,1,.095-.066,1.368,1.368,0,0,0,.168-.117.407.407,0,0,0,.15-.288Zm-.4.428a3.783,3.783,0,0,0-.022.652.9.9,0,0,0,.043.2.477.477,0,0,0,.134.2.455.455,0,0,0,.542.008l-.248-.434c-.084.049-.034-.01.033.047.017.015.017.024.01.006a.382.382,0,0,1-.017-.086,3.532,3.532,0,0,1,.024-.568Zm-2.1-.051h-.25v0h0v0h0v0h0v0h0v0h0v0h0v0h0v0h0v0h0v0h0v0h0v0h0v0h0v0h0v0h0v0h0v0h0v0h0v0h0v0h0v0h0v0h0v0h0v0h0v0h0v0h0v0h0v0h0v0h0v0h0v0h0v0h0v0h0v0h0v0h0v0h0v.006h0v0h0v0h0v.006h0v.006h0v.008h0v0h.5v0h0v-.008h0v-.006h0v-.006h0v0h0v0h0v-.006h0v0h0v0h0v0h0v0h0v0h0v0h0v0h0v0h0v0h0v0h0v0h0v0h0v0h0v0h0v0h0v0h0v0h0v0h0v0h0v0h0v0h0v0h0v0h0v0h0v0h0v0h0v0h0v0h0v0h0v0h0v0h0v0h0v0h0v0h0v0h0v0h-.25Zm-.25.346h0v0h0v0h0v0h0v0h0v0h0v0h0v0h0v0h0v0h0v0h0v0h0v0h0v0h0v0h0v0h0v0h0v0h0v0h0v0h0v0h0v0h0v0h0v0h0v0h0v0h0v0h0v0h0v0h0v0h0v0h0v0h0v0h0v0h0v0h0v0h0v0h0v0h0v0h0v0h0v0h0v0h0v0h0v0h0v0h0v0h0v0h0v0h0v0h0v0h0v0h0v0h0v0h0v0h0v0h0v0h0v0h0v0h0v0h0v0h0v0h0v0h0v0h0v0h0v0h0v0h0v0h0v0h0v0h0v0h0v0h0v0h0v0h0v0h0v0h0v0h0v0h0v0h0v0h0v0h0v0h0v0h0v0h0v0h0v0h0v0h0v0h0v0h0v0h0v0h0v0h0v0h0v0h0v0h0v0h0v0h.5v0h0v0h0v0h0v0h0v0h0v0h0v0h0v0h0v0h0v0h0v0h0v0h0v0h0v0h0v0h0v0h0v0h0v0h0v0h0v0h0v0h0v0h0v0h0v0h0v0h0v0h0v0h0v0h0v0h0v0h0v0h0v0h0v0h0v0h0v0h0v0h0v0h0v0h0v0h0v0h0v0h0v0h0v0h0v0h0v0h0v0h0v0h0v0h0v0h0v0h0v0h0v0h0v0h0v0h0v0h0v0h0v0h0v0h0v0h0v0h0v0h0v0h0v0h0v0h0v0h0v0h0v0h0v0h0v0h0v0h0v0h0v0h0v0h0v0h0v0h0v0h0v0h0v0h0v0h0v0h0v0h0v0h0v0h0v0h0v0h0v0h0v0h0v0h0v0h0v0h0v0h0v0h0v0h0v0h0v0h-.5Zm6.421,6.056a.8.8,0,0,0,.53.16v-.5a.5.5,0,0,1-.133-.011.484.484,0,0,1-.121-.066Zm.53.16c-.01,0-.013,0-.007,0a.154.154,0,0,1,.031.012l.052.026.067.033.213-.453-.051-.025-.075-.037a.577.577,0,0,0-.23-.057Zm.144.072a1.558,1.558,0,0,0,.343.106,1.886,1.886,0,0,1,.26.068l.178-.467a2.29,2.29,0,0,0-.33-.089,1.111,1.111,0,0,1-.238-.071Zm.6.174c.049.019.116.045.186.066a.928.928,0,0,0,.238.046l.018-.5a.48.48,0,0,1-.109-.024c-.051-.016-.1-.036-.155-.055Zm.424.112a.594.594,0,0,1,.136.025,1.385,1.385,0,0,0,.226.044l.043-.5a.893.893,0,0,1-.145-.031,1.192,1.192,0,0,0-.242-.04Zm.362.069c.3.026.642,0,.9,0v-.5c-.319,0-.585.024-.862,0Zm.9,0h.619v-.5h-.619Zm.619,0a2.627,2.627,0,0,1,.34.028c.116.015.251.035.379.048l.049-.5c-.118-.011-.231-.029-.364-.046a3.056,3.056,0,0,0-.4-.032Zm.72.076a4.76,4.76,0,0,1,.486.084,3.491,3.491,0,0,0,.551.078l.022-.5a3.111,3.111,0,0,1-.474-.069,5.388,5.388,0,0,0-.536-.092Zm1.036.162c-.018,0-.03-.008,0,.006a.485.485,0,0,0,.173.042l.019-.5c.018,0,.028.008,0,0a.474.474,0,0,0-.169-.042Zm.176.048a.551.551,0,0,0,.06,0h.033c.008,0,.008,0,0,0a.122.122,0,0,1-.038-.01l.191-.461a.408.408,0,0,0-.177-.028l-.044,0h-.01Zm.059-.014a.522.522,0,0,0,.194.039c.035,0,.11,0,.118,0v-.5h-.1c-.022,0-.023,0-.018,0Zm.312.038h.545v-.5h-.545Zm.545,0a2.575,2.575,0,0,1,.525.038l.1-.491a3.133,3.133,0,0,0-.622-.047Zm.525.038c.121.023.241.054.369.087s.259.068.395.1l.105-.489c-.124-.026-.246-.059-.375-.092s-.261-.067-.4-.094Zm.764.184a1.147,1.147,0,0,1,.169.063.8.8,0,0,0,.307.072v-.5a.344.344,0,0,1-.118-.034,1.559,1.559,0,0,0-.253-.09Zm.476.135a.507.507,0,0,1,.135.027,2.346,2.346,0,0,0,.23.06L58.7,371a1.747,1.747,0,0,1-.176-.047.962.962,0,0,0-.274-.047Zm.365.087a1.547,1.547,0,0,1,.206.055c.073.024.164.055.256.077l.12-.485c-.069-.017-.136-.04-.221-.068A1.939,1.939,0,0,0,58.7,371Zm.462.132a.989.989,0,0,0,.265.023.645.645,0,0,1,.144.008l.117-.486a1.119,1.119,0,0,0-.264-.022.56.56,0,0,1-.141-.008Zm.408.031a4.025,4.025,0,0,0,.4.065,1.67,1.67,0,0,1,.323.066l.163-.473a2.153,2.153,0,0,0-.42-.089c-.135-.018-.243-.03-.348-.055Zm.722.131c.132.045.267.086.4.124l.135-.482c-.127-.035-.252-.073-.372-.115Zm.4.124c.047.013.091.028.153.048a1.407,1.407,0,0,0,.2.052l.09-.492a1.237,1.237,0,0,1-.131-.035c-.047-.016-.111-.038-.171-.055Zm.348.1a1.543,1.543,0,0,0,.306.018,1.438,1.438,0,0,1,.219.007l.074-.494a1.78,1.78,0,0,0-.3-.013,1.084,1.084,0,0,1-.21-.01Zm.525.025a8.948,8.948,0,0,0,1.328.061v-.5a8.68,8.68,0,0,1-1.253-.055Zm1.078-.187v1.906h.5v-1.906ZM51.1,370.659a4,4,0,0,0,1.018.2v-.5a3.6,3.6,0,0,1-.889-.184Zm1.018.2h.374v-.5h-.374Zm.374,0h.366v-.5h-.366Zm.366,0a.893.893,0,0,1,.148.017,1.467,1.467,0,0,0,.225.022v-.5a.989.989,0,0,1-.148-.016,1.332,1.332,0,0,0-.225-.023Zm.373.039a.348.348,0,0,1,.071.013.821.821,0,0,0,.188.026v-.5a.362.362,0,0,1-.076-.013.763.763,0,0,0-.183-.026Zm.259.039c.05,0,.1,0,.158.007s.119.009.183.012l.021-.5c-.054,0-.106-.007-.168-.011s-.125-.008-.194-.008Zm.34.019a.814.814,0,0,1,.154.026,1.24,1.24,0,0,0,.252.032v-.5a.722.722,0,0,1-.148-.022,1.461,1.461,0,0,0-.237-.036Zm.407.058a.167.167,0,0,1,.035.009.605.605,0,0,0,.18.029v-.5a.113.113,0,0,1-.038-.008.562.562,0,0,0-.177-.03Zm.215.038c.3,0,.583,0,.872,0l.007-.5c-.294,0-.593,0-.879,0Zm.872,0c.11,0,.218.015.343.029a3.415,3.415,0,0,0,.4.029v-.5a2.789,2.789,0,0,1-.341-.026c-.119-.013-.253-.029-.392-.031Zm.741.058c.2,0,.409.005.617.01s.417.01.626.01v-.5c-.2,0-.406-.005-.615-.01s-.418-.01-.629-.01Zm1.243.02a1.267,1.267,0,0,1,.289.05,1.668,1.668,0,0,0,.409.066v-.5a1.226,1.226,0,0,1-.288-.051,1.73,1.73,0,0,0-.41-.065Zm.7.116a.606.606,0,0,1,.143.017l.112-.487a1.054,1.054,0,0,0-.255-.03Zm.143.017c.066.015.133.026.187.035s.1.019.148.031l.133-.482c-.07-.019-.138-.032-.2-.042s-.111-.018-.16-.029Zm.335.066a4.6,4.6,0,0,0,.749.148l.051-.5a4.051,4.051,0,0,1-.667-.133Zm.749.148c.1.011.2.044.348.076l.106-.488a3.593,3.593,0,0,0-.4-.085Zm.348.076c.094.021.188.032.267.042s.153.02.219.035l.112-.487a2.535,2.535,0,0,0-.268-.044c-.084-.011-.155-.019-.223-.034Zm.486.077c.28.064.561.108.835.153l.082-.493c-.281-.047-.544-.088-.8-.147Zm.835.153c.151.025.324.029.453.037a1.134,1.134,0,0,1,.338.057l.182-.466a1.611,1.611,0,0,0-.488-.09c-.162-.01-.285-.012-.4-.031Zm.791.094a1.227,1.227,0,0,0,.19.053c.06.013.1.02.137.031l.139-.48c-.061-.018-.127-.03-.171-.04a.727.727,0,0,1-.113-.03Zm.327.084a1.177,1.177,0,0,0,.361.077v-.5a.81.81,0,0,1-.222-.057Zm.361.077a.844.844,0,0,1,.165.023,1.294,1.294,0,0,0,.267.034v-.5a.838.838,0,0,1-.168-.023,1.273,1.273,0,0,0-.265-.034Zm.489.051a4,4,0,0,0,1.092-.363l-.248-.433a3.63,3.63,0,0,1-.955.309Zm1.092-.362a1.656,1.656,0,0,0,.345-.276c.1-.1.165-.176.248-.251l-.334-.371c-.1.085-.2.2-.268.269a1.182,1.182,0,0,1-.239.2Zm.593-.527a1.831,1.831,0,0,0,.292-.322.826.826,0,0,0,.159-.462h-.5a.336.336,0,0,1-.072.18,1.367,1.367,0,0,1-.213.233ZM45.3,368.756a.6.6,0,0,0,.346-.053,1.421,1.421,0,0,1,.166-.071l-.133-.482a.939.939,0,0,0-.14.052c-.047.022-.06.029-.092.043s-.059.019-.068.017Zm.511-.124a1.983,1.983,0,0,0,.353-.15l-.228-.445a1.538,1.538,0,0,1-.258.113Zm.353-.15a1.545,1.545,0,0,1,.631-.2v-.5a2.013,2.013,0,0,0-.859.251Zm-.087-2.736a8.631,8.631,0,0,1,.627,1.864l.494-.078a9.084,9.084,0,0,0-.656-1.972Zm.627,1.864a1.809,1.809,0,0,0,.133.419l.452-.214a1.321,1.321,0,0,1-.091-.283Zm.133.419c.019.04.035.084.057.142a1.694,1.694,0,0,0,.08.185l.443-.231a1.313,1.313,0,0,1-.056-.131c-.019-.051-.043-.116-.073-.179Zm.137.327a4.258,4.258,0,0,1,.228.559,5.875,5.875,0,0,0,.242.615l.45-.218a5.491,5.491,0,0,1-.22-.563,4.739,4.739,0,0,0-.256-.624Zm.47,1.174a2.368,2.368,0,0,0,1.033.961l.247-.435a1.883,1.883,0,0,1-.831-.744Zm1.033.961c.281.16.543.315.8.494l.288-.409c-.274-.193-.554-.358-.838-.52Zm.8.494c.132.093.265.178.4.262l.268-.423c-.131-.082-.254-.162-.376-.248Zm.4.262a.854.854,0,0,1,.094.076.79.79,0,0,0,.181.126l.212-.453h0l0,0-.015-.01c-.013-.009-.028-.022-.047-.038a1.245,1.245,0,0,0-.152-.12Zm.275.2a.663.663,0,0,1,.132.092c.048.04.121.105.193.155l.286-.41c-.049-.035-.091-.073-.16-.13a1.123,1.123,0,0,0-.238-.159Zm.325.247c.129.09.229.152.333.233l.309-.393c-.117-.092-.254-.179-.355-.25Zm.333.233a6.4,6.4,0,0,0,.865.574l.24-.439a5.832,5.832,0,0,1-.8-.528Zm.865.574a1.639,1.639,0,0,0,.827.28v-.5a1.175,1.175,0,0,1-.587-.219Zm.827.28h.552v-.5h-.552Zm.552,0a1.509,1.509,0,0,1,.748.252l.253-.431a2,2,0,0,0-1-.321Zm.748.252a.475.475,0,0,1,.1.088l.066.077c.023.026.049.057.076.085l.363-.344c-.017-.017-.035-.039-.058-.066s-.048-.056-.075-.086a.931.931,0,0,0-.214-.185Zm.237.25v0l0-.009c0-.007,0-.008,0,0h.5a.471.471,0,0,0-.13-.336Zm-7.251-2.262a2.438,2.438,0,0,0,1.174.982l.209-.455a1.944,1.944,0,0,1-.955-.785Zm1.174.982c.1.045.2.1.3.154s.213.115.326.169l.217-.45c-.1-.049-.2-.1-.306-.159s-.215-.116-.331-.169Zm.629.323c.1.048.171.09.291.151a1.776,1.776,0,0,0,.354.141l.125-.484a1.239,1.239,0,0,1-.254-.1c-.081-.04-.206-.109-.3-.154Zm.645.292a.582.582,0,0,1,.093.039,1.522,1.522,0,0,0,.17.071l.151-.477a.783.783,0,0,1-.105-.046,1,1,0,0,0-.183-.071Zm.263.11c.148.047.227.06.333.1l.185-.465c-.122-.048-.283-.087-.367-.114Zm.332.1c.146.058.32.136.5.189l.142-.479c-.151-.045-.284-.106-.457-.175Zm.5.189a5.043,5.043,0,0,1,.768.285l.216-.451a5.514,5.514,0,0,0-.842-.313Zm.768.285a4.369,4.369,0,0,0,.41.164,3.659,3.659,0,0,1,.358.147l.224-.447a3.978,3.978,0,0,0-.41-.169c-.133-.049-.252-.092-.366-.146Zm.767.311a.736.736,0,0,1,.091.062,1.182,1.182,0,0,0,.167.107l.224-.447a.825.825,0,0,1-.1-.064,1.074,1.074,0,0,0-.162-.1Zm.258.168a1.007,1.007,0,0,0,.4.122l.042-.5a.536.536,0,0,1-.219-.07Zm.4.122a1.128,1.128,0,0,1,.143.027c.054.012.127.03.2.041l.072-.495c-.046-.007-.093-.018-.158-.033a1.532,1.532,0,0,0-.215-.038Zm.343.068a2.787,2.787,0,0,0,.4.028v-.5a2.186,2.186,0,0,1-.329-.023Zm.4.028a2.59,2.59,0,0,0,.451-.028l-.086-.492a2.173,2.173,0,0,1-.366.02Zm.451-.028a.776.776,0,0,0,.147-.035,1.2,1.2,0,0,0,.167-.079l-.239-.439a.952.952,0,0,1-.095.047.486.486,0,0,1-.066.014Zm.314-.114a.083.083,0,1,0,.01-.005c-.006,0-.015,0,.005,0a.351.351,0,0,0,.123-.03.439.439,0,0,0,.121-.084l-.345-.362c-.01.009,0,0,.02-.01a.179.179,0,0,1,.046-.013.589.589,0,0,0-.086.012.531.531,0,0,0-.134.053Zm.18-.068a.4.4,0,0,0,.146-.1.726.726,0,0,0,.082-.109.767.767,0,0,0,.058-.117.439.439,0,0,0,.032-.154h-.5a.168.168,0,0,1,0-.021l0-.008v0a.143.143,0,0,1-.007.016l-.011.021-.012.018a.08.08,0,0,1-.009.011l0,0,.011-.008.023-.011Zm-7.9-8.949a1.264,1.264,0,0,0,.434.37c.162.092.268.136.384.216l.284-.411c-.138-.1-.316-.18-.422-.24a.782.782,0,0,1-.272-.223Zm.819.586a2.846,2.846,0,0,1,.521.46l.375-.33a3.315,3.315,0,0,0-.612-.541Zm.521.46a.638.638,0,0,1,.079.148c.033.078.059.152.087.225l.467-.18c-.021-.054-.056-.153-.094-.242a1.1,1.1,0,0,0-.164-.281Zm.167.373c.054.139.138.308.183.414l.459-.2c-.069-.161-.122-.257-.176-.4Zm.183.414a3.3,3.3,0,0,0,.248.455c.092.146.174.265.254.4l.429-.257c-.083-.139-.182-.285-.26-.409a2.732,2.732,0,0,1-.211-.386Zm.5.854a2.318,2.318,0,0,1,.228.608l.482-.133a2.778,2.778,0,0,0-.281-.732Zm.228.608a3.578,3.578,0,0,0,.231.72l.443-.231a3.249,3.249,0,0,1-.193-.622Zm.231.72c.035.067.064.131.1.2a2.352,2.352,0,0,0,.109.216.96.96,0,0,0,.43.4l.215-.451a.457.457,0,0,1-.215-.2,1.758,1.758,0,0,1-.084-.168c-.03-.066-.065-.145-.108-.226Zm.634.814a1.39,1.39,0,0,1,.286.219,1.372,1.372,0,0,0,.432.285l.168-.471a.919.919,0,0,1-.27-.189,1.789,1.789,0,0,0-.4-.3Zm.546,1.318a1.045,1.045,0,0,1,.151-.222,1.4,1.4,0,0,0,.219-.336l-.462-.193a.948.948,0,0,1-.147.216,1.471,1.471,0,0,0-.221.339Zm.37-.558a1.165,1.165,0,0,0,.076-.273l-.494-.077a.651.651,0,0,1-.043.157Zm.076-.273c0,.009-.006.016.013-.026a.462.462,0,0,0,.047-.194h-.5c0-.026.01-.041,0-.012,0,.009-.015.033-.024.056a.456.456,0,0,0-.028.1Zm-2.616,2.891A.734.734,0,0,0,48,373a.335.335,0,0,1,.078-.021v-.5a.762.762,0,0,0-.235.046.3.3,0,0,1-.079.022Zm.314-.068a.362.362,0,0,0,.2-.063.683.683,0,0,0,.087-.071l.024-.021a.139.139,0,0,1-.072.019v-.5a.365.365,0,0,0-.2.061.725.725,0,0,0-.09.072L48,372.5a.143.143,0,0,1,.077-.02Zm.238-.136a.429.429,0,0,0,.253-.091,1.23,1.23,0,0,0,.132-.117.9.9,0,0,1,.078-.071c.02-.014,0,.006-.044.006v-.5a.43.43,0,0,0-.252.091,1.241,1.241,0,0,0-.131.117.81.81,0,0,1-.077.07c-.02.015,0-.005.042-.005Zm-.987-.125a1.157,1.157,0,0,1,.158.28c.025.057.048.117.073.18s.05.128.079.192l.458-.2c-.024-.053-.046-.11-.071-.173s-.051-.129-.079-.2a1.634,1.634,0,0,0-.232-.4Zm.361.727c.091.091.154.162.2.218s.093.109.138.151a.567.567,0,0,0,.19.124,1.012,1.012,0,0,0,.23.058l.081-.493a.644.644,0,0,1-.124-.029.073.073,0,0,1-.031-.021c-.024-.023-.049-.054-.107-.12s-.125-.14-.225-.241Zm.762.551a2.266,2.266,0,0,0,.53,0,2.42,2.42,0,0,0,.279-.041.9.9,0,0,0,.252-.089l-.25-.433h0l-.006,0-.023.009c-.02.006-.046.013-.077.02a1.893,1.893,0,0,1-.219.033,1.962,1.962,0,0,1-.4,0Zm.845-.576a.315.315,0,0,0-.073.039.256.256,0,0,0-.1.268.252.252,0,0,0,.088.137.245.245,0,0,0,.065.038.276.276,0,0,0,.065.019,1.116,1.116,0,0,0,.163.012c.126,0,.237,0,.288.01l.066-.495c-.086-.012-.252-.012-.341-.014l-.064,0-.022,0,.01,0,.025.009a.233.233,0,0,1,.056.033.247.247,0,0,1,.084.132.242.242,0,0,1-.089.255.191.191,0,0,1-.031.02l-.012.005Zm.5.523a2.11,2.11,0,0,0,.264.015,1.838,1.838,0,0,1,.208.008l.059-.5a2.233,2.233,0,0,0-.261-.012,1.923,1.923,0,0,1-.2-.01Zm.473.023a7.033,7.033,0,0,0,.839.033v-.5a6.573,6.573,0,0,1-.78-.029Zm.839.033h.216v-.5h-.216Zm.216,0a.851.851,0,0,0,.218-.032.541.541,0,0,1,.105-.021l-.024-.5a1.01,1.01,0,0,0-.2.035.375.375,0,0,1-.1.017Zm.324-.053c.075,0,.151-.014.209-.021a1.126,1.126,0,0,1,.156-.014v-.5a1.726,1.726,0,0,0-.219.018c-.068.008-.119.015-.169.018Zm.365-.035h.3v-.5h-.3Zm.3,0a.641.641,0,0,1,.141.021,1.12,1.12,0,0,0,.247.032v-.5a.639.639,0,0,1-.142-.021,1.11,1.11,0,0,0-.246-.032Zm.388.053h.751v-.5H52.7Zm.751,0a4.266,4.266,0,0,0,.558-.037l-.063-.5a3.724,3.724,0,0,1-.494.033Zm.558-.037a1.112,1.112,0,0,0,.251-.067,1.308,1.308,0,0,1,.158-.053l-.109-.488a1.648,1.648,0,0,0-.222.072.65.65,0,0,1-.141.04Zm.409-.12a2.758,2.758,0,0,1,.448-.09l-.033-.5a3.117,3.117,0,0,0-.524.1Zm.448-.09c.224-.015.449-.018.681-.018v-.5c-.236,0-.473,0-.714.02Zm.681-.018c.28,0,.559,0,.834-.009s.55-.008.825-.008v-.5c-.279,0-.557,0-.833.009s-.551.008-.826.008Zm1.659-.017a8.064,8.064,0,0,1,1.219.067l.077-.494a8.462,8.462,0,0,0-1.3-.073Zm1.219.067a15.644,15.644,0,0,0,2.408.092v-.5a15.284,15.284,0,0,1-2.332-.086Zm2.408.092H62.81v-.5H60.834ZM41.639,362.638l-1.765,1.023.251.432,1.765-1.023Zm-1.854,1.368,6.942,11.548.429-.258-6.942-11.548Zm6.8,11.317c.12.177.215.317.3.423a1.238,1.238,0,0,0,.249.263.974.974,0,0,0,.634.138v-.5c-.265,0-.294-.009-.337-.04a.8.8,0,0,1-.146-.162c-.071-.094-.158-.222-.281-.4Zm18.653-4.762c0-.006,0-.007,0,0a.091.091,0,0,1-.012.035.144.144,0,0,1-.056.057.118.118,0,0,1-.057.017v-.5a.363.363,0,0,0-.327.189.45.45,0,0,0-.04.288Zm-.125.106a.176.176,0,0,1-.073-.016.13.13,0,0,1-.033-.023s0-.005,0,0l.015.021.413-.282a.627.627,0,0,0-.08-.1.345.345,0,0,0-.24-.1Zm-.093-.019a.866.866,0,0,0,.065.083l.04.047.4-.3c-.021-.028-.045-.055-.059-.071a.39.39,0,0,1-.03-.038Zm.105.13a.968.968,0,0,1,.079.115l.44-.237a1.33,1.33,0,0,0-.122-.181Zm.079.115c.02.037.047.077.057.1a.219.219,0,0,1,.02.036l.469-.174a.683.683,0,0,0-.066-.128c-.023-.036-.032-.049-.041-.066Zm.078.131c.024.065.067.149.082.182a.29.29,0,0,1,.029.089l.5-.036a.759.759,0,0,0-.073-.259c-.035-.078-.052-.1-.069-.15Zm.111.271a.4.4,0,0,0,.032.127c.013.029.028.055.035.068l.009.016,0,0a.114.114,0,0,1-.008-.037l.5-.037a.384.384,0,0,0-.033-.127.713.713,0,0,0-.034-.066l-.01-.018a.119.119,0,0,1,.008.035Zm.069.177c0,.064.007.127.007.193h.5c0-.077,0-.153-.008-.23Zm.007.193a.56.56,0,0,1-.035.258l.454.21a1.032,1.032,0,0,0,.081-.468Zm-.035.258c-.023.049-.046.1-.071.14l.438.241c.031-.056.059-.112.086-.17Zm-.071.14a.82.82,0,0,1-.064.084l.394.308a1.109,1.109,0,0,0,.108-.151Zm-.064.084a1.606,1.606,0,0,1-.113.127l.358.349a2.046,2.046,0,0,0,.148-.168Zm-.113.127a1.414,1.414,0,0,1-.142.119l.311.392a1.994,1.994,0,0,0,.189-.162Zm-.142.119c-.138.11-.285.224-.427.337l.313.39c.142-.113.28-.22.425-.335Zm-.427.337c-.071.057-.11.092-.164.131l.288.409c.071-.05.141-.111.189-.15Zm-.164.131a1.25,1.25,0,0,0-.262.246l.391.312a.714.714,0,0,1,.16-.149Zm-.262.246c-.059.075-.11.153-.153.219s-.084.126-.126.18l.39.313c.06-.075.111-.152.154-.219s.084-.127.127-.181Zm-.28.4a.059.059,0,0,1,.012-.011s0,0,0,0a.249.249,0,0,1-.041,0H63.81v.5a1,1,0,0,0,.217-.016.471.471,0,0,0,.278-.166Zm-.1-.005c-.079,0-.119,0-.171,0l-.028.5c.07,0,.155,0,.2,0Zm-.171,0,.02,0s0,0,0,0l-.015-.006-.032-.012-.167.472.015.005.032.012a.424.424,0,0,0,.119.026Zm-.026-.015c-.051-.018-.131-.034-.142-.037l-.124.484c.068.017.074.016.1.025Zm-.142-.037a.04.04,0,0,1,.015.005l-.006,0-.009,0-.013-.007a.334.334,0,0,0-.037-.018l-.206.455.007,0,.024.013a.5.5,0,0,0,.1.04Zm-.05-.028a.8.8,0,0,0-.166-.053.726.726,0,0,1-.093-.024l-.171.47a1.434,1.434,0,0,0,.15.041.436.436,0,0,1,.073.021Zm-.259-.077a.773.773,0,0,0-.262-.049v.5a.276.276,0,0,1,.092.019ZM62.9,373.3a.166.166,0,0,1,.045.006c.005,0,.01,0,0,0a.285.285,0,0,0-.038-.011.3.3,0,0,0-.076-.009v.5a.159.159,0,0,1-.041-.005h0l.034.01a.294.294,0,0,0,.078.01Zm-.067-.014a.221.221,0,0,1,.037,0,.258.258,0,0,1,.088.038.243.243,0,0,1,.094.131.238.238,0,0,1,0,.116.209.209,0,0,1-.019.053l0-.008.01-.02-.452-.215,0,.007a.283.283,0,0,0-.031.081.263.263,0,0,0,0,.127.254.254,0,0,0,.1.138.279.279,0,0,0,.161.049Zm1.677-3.4a1.121,1.121,0,0,1-.075.2c-.033.072-.079.169-.114.261l.468.177c.027-.073.061-.14.1-.233A1.59,1.59,0,0,0,65,370Zm-.19.466a.71.71,0,0,1-.136.252l.349.358a1.179,1.179,0,0,0,.254-.433Zm-.136.252a3.339,3.339,0,0,1-.582.448l.26.427a3.846,3.846,0,0,0,.671-.517Zm-.582.448c-.053.032-.1.068-.139.1s-.071.054-.1.074l.27.421c.05-.032.1-.068.133-.1s.069-.051.1-.069Zm-.241.17c-.086.056-.171.106-.261.153l.234.442c.1-.054.2-.111.3-.174Zm-.261.153a1.821,1.821,0,0,0-.229.156.465.465,0,0,1-.132.078l.146.479a.958.958,0,0,0,.284-.155,1.4,1.4,0,0,1,.165-.116Zm1.4-1.433h0Zm0,.287Zm-23.284-8.438a.719.719,0,0,0,.052.416.8.8,0,0,0,.255.335l.3-.4a.314.314,0,0,1-.09-.125.242.242,0,0,1-.023-.121Zm.307.751s.022.019.046.09c.013.035.021.067.036.114a1.049,1.049,0,0,0,.056.146l.45-.218a.613.613,0,0,1-.028-.078c-.01-.033-.026-.085-.042-.13a.657.657,0,0,0-.222-.327Zm.138.35a2.559,2.559,0,0,1,.154.418l.482-.131a3.052,3.052,0,0,0-.187-.505Zm.154.418a.62.62,0,0,0,.111.2c.017.022.027.035.036.048s.009.015.007.011l.465-.184a.557.557,0,0,0-.059-.108c-.018-.027-.038-.053-.05-.069s-.023-.031-.028-.039,0-.006,0,.005Zm.154.264a.752.752,0,0,0,.115.186.969.969,0,0,1,.071.091l.428-.259a1.431,1.431,0,0,0-.108-.145c-.015-.018-.025-.032-.033-.043l-.008-.014Zm.186.277a4,4,0,0,0,.9.968l.318-.385a3.532,3.532,0,0,1-.791-.842Zm.9.968c.115.1.241.2.364.3l.309-.393c-.117-.093-.23-.189-.355-.292Zm.364.3.069.051.1.074c.034.027.063.05.082.067l.012.011a.091.091,0,0,1-.012-.016.225.225,0,0,1-.032-.079l.49-.1a.292.292,0,0,0-.041-.1.309.309,0,0,0-.031-.04.615.615,0,0,0-.052-.051c-.033-.03-.073-.062-.109-.091l-.106-.08-.059-.043Zm-1.965-3.027h.971v-.5h-.971Zm6.066,14.058,19.17.06,0-.5-19.17-.06Zm.729-1.847H66.693v-.5H48.25Zm18.374-.428v2.264h.5v-2.264ZM41.263,362.926l7.031,11.41.426-.262-7.031-11.41Z" transform="translate(1054.545 77)" fill="#36a0ff"/>
    <path id="Path_717" data-name="Path 717" d="M41.434,358l8.326,14.771" transform="translate(1054.545 77)" fill="none" stroke="#36a0ff" stroke-width="0.5" stroke-dasharray="1 1"/>
    <path id="Path_718" data-name="Path 718" d="M66.692,372.861H49.706" transform="translate(1054.545 77)" fill="none" stroke="#36a0ff" stroke-width="0.5" stroke-dasharray="1 1"/>
  </g>
</svg>
