<svg xmlns="http://www.w3.org/2000/svg" width="32.083" height="7.672" viewBox="0 0 32.083 7.672">
  <g id="posture-icon2" transform="translate(-1084.959 -318.057)">
    <path id="Path_697" data-name="Path 697" d="M102.2,314.169h22.45v1.969h-31.4v-1.969H95" transform="translate(992 9.341)" fill="none" stroke="#36a0ff" stroke-width="0.5"/>
    <path id="Path_698" data-name="Path 698" d="M95,314.135h7.2" transform="translate(992 9.341)" fill="none" stroke="#36a0ff" stroke-width="0.5"/>
    <path id="Path_699" data-name="Path 699" d="M93,312.349h32.042" transform="translate(992 9.341)" fill="none" stroke="#36a0ff" stroke-width="0.5" stroke-dasharray="1 1"/>
    <path id="Path_700" data-name="Path 700" d="M118.28,310.952c-.039.342.188.546.6.913" transform="translate(992 9.341)" fill="none" stroke="#36a0ff" stroke-width="0.5"/>
    <path id="Path_701" data-name="Path 701" d="M94.193,313.381s-.151-.381-.227-.609,0-.38.227-.685.546-.165.6-.456c.018-.087.053-.157,0-.228-.071-.1-.2.06-.3,0-.2-.117.152-.409.378-.456a.377.377,0,0,1,.453.152c.053.106-.109.258,0,.3s.121-.139.227-.152c.131-.017.17.152.3.152s.182-.1.3-.152c.145-.066.453-.152.378-.152" transform="translate(992 9.341)" fill="none" stroke="#36a0ff" stroke-width="0.5"/>
    <path id="Path_702" data-name="Path 702" d="M94.344,313.455c-.266-.03-.452.065-.68-.076a.943.943,0,0,1-.378-.609,1.464,1.464,0,0,1,0-.989,1.6,1.6,0,0,1,.529-.836,1.783,1.783,0,0,1,.907-.457,3.553,3.553,0,0,1,1.058,0,1.87,1.87,0,0,0,.831.609c.146.024.255.082.378,0s.069-.2.151-.3c.165-.208.405-.13.6-.3a2.523,2.523,0,0,0,.3-.38,2.494,2.494,0,0,1,.453-.532,1.188,1.188,0,0,1,.669-.3c.2-.031.417.06.615,0a1.119,1.119,0,0,1,.367-.067,3.559,3.559,0,0,1,1.813.22,7.505,7.505,0,0,0,1.521.295c.353.038.705.212,1.058.009s1.133-.609,1.133-.609a1.918,1.918,0,0,1,1.888.305c1.134.719.454.3.454.3s.1-.026.075,0,.151,0,.151,0l.529-.076a29.088,29.088,0,0,1,3.022.76,17.213,17.213,0,0,1,2.644-.228c1.065.034,1.581.592,2.643.685a13.109,13.109,0,0,0,1.436,0s.151-.609.3-.609,3.1,1.369,3.173,1.445-.113.176-.227.229c-.23.105-.6-.229-.6-.229s-.553-.02-.907,0c-.687.041-1.511.381-1.737.305a4.934,4.934,0,0,0-.907-.305,4.572,4.572,0,0,0-.906,0,13.722,13.722,0,0,0-1.587-.228,1.914,1.914,0,0,0-.906,0c-.161.062-.206.221-.378.228-.462.022-1.284,0-1.284,0s-.638-.251-1.058-.38c-.863-.265-1.395-.216-2.266-.456-.387-.107-.6-.186-.982-.3" transform="translate(992 9.341)" fill="none" stroke="#36a0ff" stroke-width="0.5"/>
    <path id="Path_703" data-name="Path 703" d="M105.287,309.2a2.172,2.172,0,0,1,.529,1.75,7.453,7.453,0,0,1-.443,2.121" transform="translate(992 9.341)" fill="none" stroke="#36a0ff" stroke-width="0.5"/>
    <path id="Path_704" data-name="Path 704" d="M116.553,311.7c1.18.3,2.946.685,3.022.761s.352-.456.68-.533c.355-.083.545.178.906.228.468.066.78-.2,1.209,0,.52.243.831,1.217.831,1.217l-.151.153a4.324,4.324,0,0,1-1.285.076c-.211-.039-.317-.112-.528-.153-.641-.122-1.011.143-1.662.153-.769.01-1.2-.1-1.964-.153,0,0-1.472-.13-2.418-.152-.53-.012-.829-.025-1.359,0,0,0-.921.094-1.511.152,0,0-.907.051-1.586.153s-2.191.3-2.191.3c-.121,0-1.284-.076-1.284-.076" transform="translate(992 9.341)" fill="none" stroke="#36a0ff" stroke-width="0.5"/>
    <path id="Path_705" data-name="Path 705" d="M94.344,313.455c.177.03.275.057.453.076a6.025,6.025,0,0,0,.831,0,3.926,3.926,0,0,0,1.058-.38c.124-.08.3-.228.3-.228v-.3a1.6,1.6,0,0,1,0-.228c.043-.383.125.622.378.913a1.527,1.527,0,0,0,1.133.532c.386.042.594-.144.982-.152a5.87,5.87,0,0,1,1.133.152s1.557.368,2.568.533a24.875,24.875,0,0,0,2.493.3,6.8,6.8,0,0,1,1.813.076,6.632,6.632,0,0,1,1.133.609c.235.121.342.273.6.3a1.681,1.681,0,0,0,.765-.076c.084-.027-.009.076-.009.076s.395-.1.453-.3a.264.264,0,0,0,0-.228c-.063-.105-.3-.077-.3-.077a2.584,2.584,0,0,1-.605-.076c-.188-.06-.408-.034-.453-.228a.2.2,0,0,1,0-.152c.053-.106.257.11.3,0s-.073-.155-.151-.228a.944.944,0,0,0-.3-.152,3.682,3.682,0,0,0-.529-.228,10.089,10.089,0,0,0-1.133-.153,9.464,9.464,0,0,1-1.813-.684,11.177,11.177,0,0,0-1.209-.533,10.876,10.876,0,0,0-1.435-.228c-.86-.153-1.332-.293-2.19-.456a5.856,5.856,0,0,1-1.738-.3,2.786,2.786,0,0,1-.6-.381" transform="translate(992 9.341)" fill="none" stroke="#36a0ff" stroke-width="0.5"/>
    <path id="Path_706" data-name="Path 706" d="M97.063,312.162l.529-.913" transform="translate(992 9.341)" fill="none" stroke="#36a0ff" stroke-width="0.5"/>
    <path id="Path_707" data-name="Path 707" d="M119.488,312.475a1.422,1.422,0,0,0,.3,1.141" transform="translate(992 9.341)" fill="none" stroke="#36a0ff" stroke-width="0.5"/>
  </g>
</svg>
