<svg xmlns="http://www.w3.org/2000/svg" width="30.096" height="19.954" viewBox="0 0 30.096 19.954">
  <g id="posture-icon6" transform="translate(-1147.204 -432.872)">
    <path id="Path_719" data-name="Path 719" d="M114.122,356l-9.939,16.74" transform="translate(1054.545 77)" fill="none" stroke="#36a0ff" stroke-width="0.5" stroke-dasharray="1 1"/>
    <path id="Path_720" data-name="Path 720" d="M122.755,372.74H104.642" transform="translate(1054.545 77)" fill="none" stroke="#36a0ff" stroke-width="0.5" stroke-dasharray="1 1"/>
    <path id="Path_721" data-name="Path 721" d="M117.324,371.786v2.085" transform="translate(1054.545 77)" fill="none" stroke="#36a0ff" stroke-linecap="round" stroke-linejoin="round" stroke-width="0.5"/>
    <path id="Path_722" data-name="Path 722" d="M117.324,371.785a4,4,0,0,0,1.091-.368,3.652,3.652,0,0,0,.587-.541,1.008,1.008,0,0,0,.392-.655" transform="translate(1054.545 77)" fill="none" stroke="#36a0ff" stroke-linecap="round" stroke-linejoin="round" stroke-width="0.5"/>
    <path id="Path_723" data-name="Path 723" d="M94.882,361.946,93,363.065l7.4,12.635" transform="translate(1054.545 77)" fill="none" stroke="#36a0ff" stroke-width="0.5"/>
    <path id="Path_724" data-name="Path 724" d="M119.653,370.424c-.017-.1.013-.2.129-.2.057,0,.093.056.121.1s.071.087.1.131a1.224,1.224,0,0,1,.107.162,1.861,1.861,0,0,1,.233.549c0,.071.069.125.074.194s.008.153.008.231a.891.891,0,0,1-.062.4c-.026.059-.054.114-.083.17a1.116,1.116,0,0,1-.092.128,1.944,1.944,0,0,1-.14.161,1.713,1.713,0,0,1-.176.154c-.151.123-.3.244-.454.368-.064.053-.122.105-.189.153a1.075,1.075,0,0,0-.225.217c-.109.14-.189.3-.3.437a.369.369,0,0,1-.319.1c-.066,0-.132,0-.2,0a.388.388,0,0,1-.1-.032c-.04-.015-.086-.023-.128-.034a.621.621,0,0,1-.1-.047c-.08-.037-.175-.045-.257-.076a.556.556,0,0,0-.189-.036c-.024,0-.046-.017-.072-.017s-.019-.02-.006-.048" transform="translate(1054.545 77)" fill="none" stroke="#36a0ff" stroke-linecap="round" stroke-linejoin="round" stroke-width="0.5"/>
    <path id="Path_725" data-name="Path 725" d="M119.394,369.7a4.516,4.516,0,0,1-.212.545,1.035,1.035,0,0,1-.208.375,3.843,3.843,0,0,1-.668.528c-.088.055-.165.126-.252.183s-.195.123-.3.179a2.726,2.726,0,0,1-.432.276" transform="translate(1054.545 77)" fill="none" stroke="#36a0ff" stroke-linecap="round" stroke-linejoin="round" stroke-width="0.5"/>
    <path id="Path_726" data-name="Path 726" d="M119.394,369.7v.522" transform="translate(1054.545 77)" fill="none" stroke="#36a0ff" stroke-linecap="round" stroke-linejoin="round" stroke-width="0.5"/>
    <path id="Path_727" data-name="Path 727" d="M101.8,374.2h19.666" transform="translate(1054.545 77)" fill="none" stroke="#36a0ff" stroke-width="0.5"/>
    <path id="Path_728" data-name="Path 728" d="M94.574,361.881l7.5,12.484" transform="translate(1054.545 77)" fill="none" stroke="#36a0ff" stroke-width="0.5"/>
    <path id="Path_729" data-name="Path 729" d="M108.678,361.265a.763.763,0,0,0-1.031.531" transform="translate(1054.545 77)" fill="none" stroke="#36a0ff" stroke-linecap="round" stroke-linejoin="round" stroke-width="0.5"/>
    <path id="Path_730" data-name="Path 730" d="M110.242,359.861c.271-.22.919-.092,1.169-.318s.449.04.62.24c.15.175.426.228.594.423.1.115.826.2.627-.076-.135-.189-.2-.447-.332-.633a2.263,2.263,0,0,1-.3-.57c-.113-.407-.566-1.223-.991-1.323a2.446,2.446,0,0,0-1.52-.07,1.687,1.687,0,0,0-.874,1.061,3.193,3.193,0,0,0-.1.849,3.525,3.525,0,0,1-.253.971" transform="translate(1054.545 77)" fill="none" stroke="#36a0ff" stroke-linecap="round" stroke-linejoin="round" stroke-width="0.5"/>
    <path id="Path_731" data-name="Path 731" d="M112.945,359.856a2.369,2.369,0,0,1-.356.949c-.108.144-.351.177-.3.411a.873.873,0,0,1-.195.665c-.166.134-.244.048-.4.108-.268.1-.494.409-.722.577-.149.11-.454-.173-.636-.044-.214.153-1.042.628-.49.842" transform="translate(1054.545 77)" fill="none" stroke="#36a0ff" stroke-linecap="round" stroke-linejoin="round" stroke-width="0.5"/>
    <path id="Path_732" data-name="Path 732" d="M108.824,360.51l-.3.344-.53.6" transform="translate(1054.545 77)" fill="none" stroke="#36a0ff" stroke-linecap="round" stroke-linejoin="round" stroke-width="0.5"/>
    <path id="Path_733" data-name="Path 733" d="M108.043,361.659c.1-.052.965-.486,1.1-.363a5.789,5.789,0,0,1,.579.633c.226.285.792,1.078,1.153.787" transform="translate(1054.545 77)" fill="none" stroke="#36a0ff" stroke-linecap="round" stroke-linejoin="round" stroke-width="0.5"/>
    <path id="Path_734" data-name="Path 734" d="M106.753,361.772c.108-.042,1.008-.387,1.128-.251a5.7,5.7,0,0,1,.513.688c.2.306.682,1.152,1.07.9" transform="translate(1054.545 77)" fill="none" stroke="#36a0ff" stroke-linecap="round" stroke-linejoin="round" stroke-width="0.5"/>
    <path id="Path_735" data-name="Path 735" d="M105.431,364.5c.068.155.222.188.343.295a1.682,1.682,0,0,0,.3.2,1.884,1.884,0,0,1,.635.539" transform="translate(1054.545 77)" fill="none" stroke="#36a0ff" stroke-linecap="round" stroke-linejoin="round" stroke-width="0.5"/>
    <path id="Path_736" data-name="Path 736" d="M108.432,363.612a9.5,9.5,0,0,1-1.348,1.716,1.684,1.684,0,0,0-.25.309c-.064.105-.148.2-.208.309-.224.4-.553.74-.783,1.128a2.332,2.332,0,0,0-.218,1.355c.022.354.038.7.026,1.047,0,.169,0,.335,0,.5a3.013,3.013,0,0,0-.023.337,2.978,2.978,0,0,1-.028.488c0,.153,0,.306-.014.458a6.677,6.677,0,0,0-.006,1.086,1.565,1.565,0,0,0,.192.8l.326.5a1.942,1.942,0,0,1,.259.971,1.733,1.733,0,0,1-.092.441.232.232,0,0,1-.111.152" transform="translate(1054.545 77)" fill="none" stroke="#36a0ff" stroke-linecap="round" stroke-linejoin="round" stroke-width="0.5"/>
    <path id="Path_737" data-name="Path 737" d="M104.1,367.231a2.378,2.378,0,0,0-.188,1.486c.035.252.041.51.071.764a3.719,3.719,0,0,0,.1.7c.033.1.028.212.056.316.034.127.08.25.1.379.034.182.061.362.112.54a5.687,5.687,0,0,1,.194.9c.037.3.132.584.162.882.011.1-.015.222,0,.333a.835.835,0,0,0,.092.337c.06.114.091.246.145.364a2.56,2.56,0,0,0,.188.343,2.435,2.435,0,0,0,.259.354.611.611,0,0,0,.217.162c.131.071.071.11.194.138a.411.411,0,0,0,.321-.006" transform="translate(1054.545 77)" fill="none" stroke="#36a0ff" stroke-linecap="round" stroke-linejoin="round" stroke-width="0.5"/>
    <path id="Path_738" data-name="Path 738" d="M109.814,363.466a2.728,2.728,0,0,0-.017.995,3.379,3.379,0,0,1-.111.811,1.9,1.9,0,0,1-.275.464c-.093.133-.171.275-.257.408a7.853,7.853,0,0,0-.449.94,2.823,2.823,0,0,1-.45.638,3.7,3.7,0,0,0-.475.6c-.175.321-.376.517-.321.9.042.29-.1.636-.029.92" transform="translate(1054.545 77)" fill="none" stroke="#36a0ff" stroke-linecap="round" stroke-linejoin="round" stroke-width="0.5"/>
    <path id="Path_739" data-name="Path 739" d="M103.764,369.786c.155.2.651,3.292.748,3.531.369.394.3.438.6.5a1.9,1.9,0,0,0,.882-.083c-.111.043.3.031.433.052s.31.01.46.03a6.555,6.555,0,0,0,.795.046l.212,0c.111,0,.2-.045.306-.048.124,0,.25-.032.371-.03l.3.006c.138,0,.24.057.379.06l.738.013a3.871,3.871,0,0,0,.517-.027,3.817,3.817,0,0,0,.381-.11,2.715,2.715,0,0,1,.479-.088c.229-.012.456-.011.686-.007.546.009,1.086,0,1.63.011a7.883,7.883,0,0,1,1.233.092,14.656,14.656,0,0,0,2.326.13l1.941.034" transform="translate(1054.545 77)" fill="none" stroke="#36a0ff" stroke-linecap="round" stroke-linejoin="round" stroke-width="0.5"/>
    <path id="Path_740" data-name="Path 740" d="M106.626,369.786a.592.592,0,0,0,.418.13.737.737,0,0,1,.267.105c.194.093.422.1.624.182a1.28,1.28,0,0,0,.366.1c.144.006.262.065.4.077.31.027.632,0,.942,0h.66a7.886,7.886,0,0,1,.794.084c.371.037.718.159,1.091.176.067,0,.117.05.186.052a.472.472,0,0,1,.155.006.572.572,0,0,0,.23.02h.582a2.971,2.971,0,0,1,.611.047c.275.055.543.141.819.2a2.356,2.356,0,0,0,.452.141,2.666,2.666,0,0,1,.434.1c.175.031.339.106.511.149.141.036.291,0,.434.033a8.042,8.042,0,0,1,.794.151c.134.047.273.09.411.13.115.033.231.083.347.105.181.034.369,0,.551.026a9.294,9.294,0,0,0,1.377.063" transform="translate(1054.545 77)" fill="none" stroke="#36a0ff" stroke-linecap="round" stroke-linejoin="round" stroke-width="0.5"/>
    <path id="Path_741" data-name="Path 741" d="M107.663,370.294a3.937,3.937,0,0,0,1.017.213h.789c.135,0,.263.043.4.043.094,0,.175.043.276.043.126,0,.248.016.374.022.142.006.273.064.422.064.088,0,.137.043.229.043.311,0,.623,0,.934,0,.265,0,.517.064.785.065.442,0,.888.023,1.326.024.248,0,.5.128.744.128a.892.892,0,0,1,.212.026c.122.029.247.042.368.076a4.5,4.5,0,0,0,.755.156,3.66,3.66,0,0,1,.4.089c.173.039.351.045.521.085.288.069.578.116.874.167a4.519,4.519,0,0,1,.9.119c.1.041.221.054.326.085a1,1,0,0,0,.31.073c.159,0,.3.065.461.065" transform="translate(1054.545 77)" fill="none" stroke="#36a0ff" stroke-linecap="round" stroke-linejoin="round" stroke-width="0.5"/>
    <path id="Path_742" data-name="Path 742" d="M107.622,361.539c-1.025.178-1.887.608-2.069,1.287a2.95,2.95,0,0,1-.507,1.4,3.238,3.238,0,0,0-.915,1.5,4.986,4.986,0,0,0-.376,1.495,4.731,4.731,0,0,0,.183.745c.048.209-.1.45-.147.641a2.912,2.912,0,0,0-.141.549,8.269,8.269,0,0,1,.073.911c-.086.436.378,1.005.26,1.448-.067.247.259.576.208.832s-.432,1.386-.5,1.628" transform="translate(1054.545 77)" fill="none" stroke="#36a0ff" stroke-linecap="round" stroke-linejoin="round" stroke-width="0.5"/>
  </g>
</svg>
