<svg xmlns="http://www.w3.org/2000/svg" xmlns:xlink="http://www.w3.org/1999/xlink" width="20" height="24" viewBox="0 0 20 24">
  <defs>
    <clipPath id="clip-path">
      <rect id="Rectangle_1" data-name="Rectangle 1" width="20" height="24" transform="translate(155 352)" fill="#fff"/>
    </clipPath>
  </defs>
  <g id="posture-icon7" transform="translate(-1209.545 -429)">
    <g id="Group_6" data-name="Group 6" transform="translate(1054.545 77)" clip-path="url(#clip-path)">
      <path id="Path_712" data-name="Path 712" d="M167.727,356.209v1.313c0,.425.389.269.555.548.213.357-.3.552-.361.81-.076.33.1.729-.058,1.041a2.038,2.038,0,0,1-.534.7c-.208.16-.531.1-.754.271s-.455.177-.618.473a7.2,7.2,0,0,1-.587,1m-2.907-.935c.4-.386,1.021-.458,1.021-1.127,0-.472-.373-.649-.708-.97a3.792,3.792,0,0,1-.8-2.962c0-1.183,1.537-1.536,2.5-1.705a3.138,3.138,0,0,0,.655-.221c.278-.149.536.112.78.206.384.147.765.473,1.205.473.607,0,.8-.113.8.5,0,.332-.688.526-.943.77-.313.3-.4.7-.733,1.016a1.52,1.52,0,0,0-.377.5c-.049.135-.062.52-.173.6a2.354,2.354,0,0,1-.686.086c-.1-.124-.054-.494-.157-.664a.76.76,0,0,0-.561-.272c-.266.057-.236.512-.236.7,0,.345.2.357.43.563.074.068.271.4.084.448-.415.114-.432.639-.985.639m-1.037,1.357a3.658,3.658,0,0,0-1.509,2.756,7.674,7.674,0,0,1-.115,2.293,7.763,7.763,0,0,0-.451,2.6,13.121,13.121,0,0,0,.021,2.379,9.78,9.78,0,0,0,.335,1.036,3.781,3.781,0,0,1,.021,1.015c0,.116,0,.234-.007.352m3.59-11.977a2.2,2.2,0,0,1,1.462,1.358,6.143,6.143,0,0,1,.707,1.83,3.272,3.272,0,0,0,.3,1.066,3.1,3.1,0,0,1,.356.956c0,.708.094,1.423.094,2.142,0,.244-.129.962.042,1.157.274.311.094.751.294,1.081a6.726,6.726,0,0,1,.44,2.087,4.076,4.076,0,0,1,.167.9c0,.416-.435.272-.707.412a9.776,9.776,0,0,1-2.712.111m-4.017-1.157c.544.241,1.072.4,1.631.606.258.1.343.066.579.165m-.982-9.742a13.294,13.294,0,0,0-.188,3.027v.894c0,.1-.06.428.006.515s.549.011.641.011h1.627c.332,0,.669.025,1,.025m.035-4.872c0,.175.084,1.147.04,1.317-.039.154-.031.306-.064.458a3.66,3.66,0,0,0-.062.775v1.916c0,.116-.041.336.025.431m-2.686.233a7.7,7.7,0,0,0,.162,1.733c.048.211.1.431.126.65.042.324.1.639.152.962a10.958,10.958,0,0,0,.378,1.764c.094.288.172.585.259.878.028.1.039.2.074.292s.107.175.107.265a2.3,2.3,0,0,0,.256,1.032,1.467,1.467,0,0,1,.119.328,3.067,3.067,0,0,1,.161.473c0,.042.052.04.054.079a.55.55,0,0,0,.041.186,1.593,1.593,0,0,1,.06.348,2.413,2.413,0,0,1,.006.442c0,.07-.038,1,.053.981m.217-10.329c0,1.374.042,2.743.042,4.12,0,.526.184,1.038.212,1.563a4.638,4.638,0,0,0,.117.753c.022.1.036.189.054.284a2.668,2.668,0,0,0,.207.507c.045.117.14.216.181.332a3.975,3.975,0,0,1,.138.6,3.733,3.733,0,0,1,.064.7,1.445,1.445,0,0,1-.245,1.1c-.116.124-.186.319-.347.406-.123.065-.594.234-.638,0" fill="none" stroke="#36a0ff" stroke-linecap="round" stroke-linejoin="round" stroke-width="0.5"/>
      <path id="Path_713" data-name="Path 713" d="M164.167,375.2V354.4" fill="none" stroke="#36a0ff" stroke-width="0.44" stroke-dasharray="1.76 1"/>
    </g>
  </g>
</svg>
