<svg xmlns="http://www.w3.org/2000/svg" width="35.625" height="14.253" viewBox="0 0 35.625 14.253">
  <path id="Path_1" data-name="Path 1" d="M159.125,202.884a7.979,7.979,0,0,1-2.319-.316,5.7,5.7,0,0,1-1.806-.934l.527-1.234a5.431,5.431,0,0,0,2.228,1.039,7.347,7.347,0,0,0,1.37.12,3.043,3.043,0,0,0,1.851-.451,1.417,1.417,0,0,0,.6-1.19,1.2,1.2,0,0,0-.421-.978,3.327,3.327,0,0,0-1.445-.557l-1.641-.331a4.464,4.464,0,0,1-2.183-.979,2.512,2.512,0,0,1-.707-1.882,2.844,2.844,0,0,1,.511-1.686,3.3,3.3,0,0,1,1.416-1.114,5.412,5.412,0,0,1,2.137-.391,6.263,6.263,0,0,1,2.078.331,4.092,4.092,0,0,1,1.6.949l-.512,1.189a4.448,4.448,0,0,0-1.445-.858,4.972,4.972,0,0,0-1.746-.286,3.041,3.041,0,0,0-1.821.481,1.547,1.547,0,0,0-.648,1.31,1.346,1.346,0,0,0,.407,1.039,2.991,2.991,0,0,0,1.385.572l1.64.316a4.72,4.72,0,0,1,2.244.979,2.282,2.282,0,0,1,.722,1.791,2.7,2.7,0,0,1-.5,1.611,3.169,3.169,0,0,1-1.385,1.084A5.55,5.55,0,0,1,159.125,202.884ZM165.184,206v-9.017a8.661,8.661,0,0,0-.046-.888c-.02-.311-.045-.623-.075-.934h1.475l.151,1.716h-.166a2.37,2.37,0,0,1,.964-1.354,3.046,3.046,0,0,1,1.746-.5,3.187,3.187,0,0,1,1.761.482,3.034,3.034,0,0,1,1.159,1.339,4.814,4.814,0,0,1,.422,2.108,4.871,4.871,0,0,1-.422,2.107,3.024,3.024,0,0,1-1.159,1.355,3.273,3.273,0,0,1-1.761.467,3.1,3.1,0,0,1-1.731-.482,2.371,2.371,0,0,1-.964-1.34h.166V206Zm3.673-4.3a1.964,1.964,0,0,0,1.58-.693,3.036,3.036,0,0,0,.6-2.047,2.975,2.975,0,0,0-.6-2.032,1.964,1.964,0,0,0-1.58-.693,2.009,2.009,0,0,0-1.6.693,3.033,3.033,0,0,0-.587,2.032,3.1,3.1,0,0,0,.587,2.047A2.009,2.009,0,0,0,168.857,201.7Zm5.525-4.261a6.606,6.606,0,0,1,.587-2.89,4.314,4.314,0,0,1,1.7-1.882,5.209,5.209,0,0,1,2.68-.662,5.094,5.094,0,0,1,2.649.662,4.395,4.395,0,0,1,1.716,1.882,6.284,6.284,0,0,1,.618,2.875,6.419,6.419,0,0,1-.618,2.906,4.461,4.461,0,0,1-1.731,1.9,5.063,5.063,0,0,1-2.634.662,5.128,5.128,0,0,1-2.665-.662,4.5,4.5,0,0,1-1.716-1.9A6.673,6.673,0,0,1,174.382,197.434Zm1.641,0a4.794,4.794,0,0,0,.843,3.011,2.954,2.954,0,0,0,2.484,1.084,3.008,3.008,0,0,0,2.469-1.069,4.7,4.7,0,0,0,.873-3.026,4.637,4.637,0,0,0-.873-3.01,3.4,3.4,0,0,0-4.953,0A4.754,4.754,0,0,0,176.023,197.434Zm10.236,8.819V205.5l2.168-2.2a4.5,4.5,0,0,0,.617-.828,1.683,1.683,0,0,0,.2-.783q0-.978-1.114-.978a2.488,2.488,0,0,0-.9.181,2.535,2.535,0,0,0-.828.481l-.331-.783a3.219,3.219,0,0,1,.979-.557,3.725,3.725,0,0,1,1.264-.21,2.166,2.166,0,0,1,1.491.481,1.6,1.6,0,0,1,.542,1.28,2.193,2.193,0,0,1-.256,1.009,3.979,3.979,0,0,1-.783,1.038l-1.867,1.882v-.15h3.192v.888Z" transform="translate(-155 -192)" fill="#36a0ff"/>
</svg>
