<svg xmlns="http://www.w3.org/2000/svg" width="17" height="21" viewBox="0 0 17 21">
  <g id="Group_3" data-name="Group 3" transform="translate(-267 -335)">
    <path id="Path_687" data-name="Path 687" d="M376.167,156.837V148.5a3.671,3.671,0,0,0-7.334,0v8.337A5.136,5.136,0,0,0,367,160.75a5.506,5.506,0,0,0,11,0A5.136,5.136,0,0,0,376.167,156.837ZM372.5,164.25a3.587,3.587,0,0,1-3.667-3.5,3.418,3.418,0,0,1,1.223-2.609l.611-.522V148.5a1.835,1.835,0,0,1,3.666,0v9.119l.611.522a3.418,3.418,0,0,1,1.223,2.609A3.587,3.587,0,0,1,372.5,164.25Z" transform="translate(-100 190)" fill="#36a0ff"/>
    <path id="Path_688" data-name="Path 688" d="M373,150.846c0-.467-.224-.846-.5-.846s-.5.379-.5.846V161h1Z" transform="translate(-100 190)" fill="#36a0ff"/>
    <path id="Path_689" data-name="Path 689" d="M372.5,163a2.5,2.5,0,1,0-2.5-2.5A2.5,2.5,0,0,0,372.5,163Z" transform="translate(-100 190)" fill="#36a0ff"/>
    <path id="Path_690" data-name="Path 690" d="M382.109,147.257h-1.13l-.006-.569h.948a1.211,1.211,0,0,0,.411-.058.456.456,0,0,0,.321-.456.538.538,0,0,0-.079-.3.428.428,0,0,0-.239-.168,1.349,1.349,0,0,0-.414-.053h-.628v3.374h-.906V145h1.534a3.227,3.227,0,0,1,.686.066,1.59,1.59,0,0,1,.517.2.921.921,0,0,1,.323.343.992.992,0,0,1,.112.486.866.866,0,0,1-.508.8,1.6,1.6,0,0,1-.679.147Zm-.04,1.766h-1.338l.354-.646h.984a.939.939,0,0,0,.39-.07.5.5,0,0,0,.224-.193.537.537,0,0,0,.072-.279.671.671,0,0,0-.066-.307.429.429,0,0,0-.206-.2.827.827,0,0,0-.374-.072h-.873l.006-.569h1.087l.209.224a1.292,1.292,0,0,1,.646.13.836.836,0,0,1,.36.345.953.953,0,0,1,.115.456,1.037,1.037,0,0,1-.725,1.048A2.486,2.486,0,0,1,382.069,149.023ZM384,152.577v.19a2.339,2.339,0,0,1-.136.824,1.781,1.781,0,0,1-.384.621,1.653,1.653,0,0,1-.592.39,2.2,2.2,0,0,1-1.516,0,1.7,1.7,0,0,1-.593-.39,1.777,1.777,0,0,1-.389-.621,2.338,2.338,0,0,1-.136-.824v-.19a2.323,2.323,0,0,1,.136-.824,1.777,1.777,0,0,1,.383-.622,1.692,1.692,0,0,1,.593-.392,2.2,2.2,0,0,1,1.516,0,1.644,1.644,0,0,1,.592.392,1.772,1.772,0,0,1,.387.622A2.277,2.277,0,0,1,384,152.577Zm-.915.19v-.2a2.257,2.257,0,0,0-.064-.564,1.179,1.179,0,0,0-.187-.409.791.791,0,0,0-.3-.248,1.011,1.011,0,0,0-.816,0,.79.79,0,0,0-.3.248,1.194,1.194,0,0,0-.184.409,2.211,2.211,0,0,0-.064.564v.2a2.233,2.233,0,0,0,.064.564,1.193,1.193,0,0,0,.187.412.81.81,0,0,0,.3.251,1.011,1.011,0,0,0,.816,0,.793.793,0,0,0,.3-.251,1.249,1.249,0,0,0,.184-.412A2.28,2.28,0,0,0,383.085,152.767Zm-1.348,7.574h-.958l.006-.646h.952a1.147,1.147,0,0,0,.6-.147.924.924,0,0,0,.369-.434,1.677,1.677,0,0,0,.127-.688v-.2a1.822,1.822,0,0,0-.073-.544,1.053,1.053,0,0,0-.208-.4.885.885,0,0,0-.342-.24,1.224,1.224,0,0,0-.465-.083h-.985v-.649h.985a2.271,2.271,0,0,1,.807.138,1.821,1.821,0,0,1,.637.39,1.717,1.717,0,0,1,.414.608,1.982,1.982,0,0,1,.148.782v.19a2,2,0,0,1-.148.782,1.716,1.716,0,0,1-.414.608,1.843,1.843,0,0,1-.637.39A2.359,2.359,0,0,1,381.737,160.341Zm-.444-4.023v4.023h-.906v-4.023Zm-.3,5.659.918,1.835.919-1.835h.988l-1.447,2.559V166h-.919v-1.464L380,161.977Z" transform="translate(-100 190)" fill="#36a0ff"/>
  </g>
</svg>
